<svg xmlns="http://www.w3.org/2000/svg" xmlns:xlink="http://www.w3.org/1999/xlink" width="77" height="121" viewBox="0 0 77 121">
  <defs>
    <clipPath id="clip-path">
      <rect id="Rectángulo_403455" data-name="Rectángulo 403455" width="77" height="77" transform="translate(649 6992)" fill="#fff" stroke="#707070" stroke-width="1"/>
    </clipPath>
  </defs>
  <g id="Grupo_1102332" data-name="Grupo 1102332" transform="translate(-649 -6970)">
    <g id="Rectángulo_403454" data-name="Rectángulo 403454" transform="translate(652 6970)" fill="#fff" stroke="#5169dd" stroke-width="2" stroke-dasharray="6">
      <rect width="71" height="121" rx="35" stroke="none"/>
      <rect x="1" y="1" width="69" height="119" rx="34" fill="none"/>
    </g>
    <g id="Enmascarar_grupo_1098814" data-name="Enmascarar grupo 1098814" clip-path="url(#clip-path)">
      <g id="medicamentos" transform="translate(649 6992)">
        <path id="Trazado_878669" data-name="Trazado 878669" d="M19.926,69.814a3.521,3.521,0,0,1-3.519,3.522H6.614A3.52,3.52,0,0,1,3.1,69.814h0a3.521,3.521,0,0,1,3.519-3.523h9.792a3.521,3.521,0,0,1,3.519,3.523Z" fill="#fcdb67"/>
        <path id="Trazado_878670" data-name="Trazado 878670" d="M11.511,66.291h-4.9a3.523,3.523,0,0,0,0,7.045h4.9V66.291Z" fill="#fff"/>
        <g id="Grupo_1102547" data-name="Grupo 1102547" opacity="0.1">
          <path id="Trazado_878671" data-name="Trazado 878671" d="M9.692,73.337a3.523,3.523,0,0,1,0-7.045H6.614a3.523,3.523,0,0,0,0,7.045Z"/>
        </g>
        <rect id="Rectángulo_403650" data-name="Rectángulo 403650" width="14.812" height="4.832" transform="translate(35.836 41.679)" fill="#c6a07d"/>
        <rect id="Rectángulo_403651" data-name="Rectángulo 403651" width="4.697" height="4.832" transform="translate(35.836 41.679)" opacity="0.1"/>
        <g id="Grupo_1102548" data-name="Grupo 1102548">
          <path id="Trazado_878672" data-name="Trazado 878672" d="M49.573,66.473a8.66,8.66,0,0,1-12.661,0H28.929v7.392a.875.875,0,0,0,.872.873H56.684a.875.875,0,0,0,.872-.873V66.473Z" fill="#775436"/>
          <path id="Trazado_878673" data-name="Trazado 878673" d="M54.067,46.511H32.418A3.5,3.5,0,0,0,28.929,50v4.609h7.983a8.66,8.66,0,0,1,12.66,0h7.983V50A3.5,3.5,0,0,0,54.067,46.511Z" fill="#775436"/>
        </g>
        <g id="Grupo_1102549" data-name="Grupo 1102549">
          <path id="Trazado_878674" data-name="Trazado 878674" d="M34.57,60.543a8.653,8.653,0,0,1,2.342-5.931H28.929V66.473h7.983A8.653,8.653,0,0,1,34.57,60.543Z" fill="#e6e9ed"/>
          <path id="Trazado_878675" data-name="Trazado 878675" d="M49.573,54.613a8.679,8.679,0,0,1,0,11.861h7.983V54.613Z" fill="#e6e9ed"/>
        </g>
        <g id="Grupo_1102550" data-name="Grupo 1102550" opacity="0.1">
          <path id="Trazado_878676" data-name="Trazado 878676" d="M32.861,73.866V50a3.5,3.5,0,0,1,3.489-3.493H32.418A3.5,3.5,0,0,0,28.929,50V73.866a.875.875,0,0,0,.872.873h3.932A.875.875,0,0,1,32.861,73.866Z"/>
        </g>
        <path id="Trazado_878677" data-name="Trazado 878677" d="M55.311,40.927a.754.754,0,0,1-.752.752H31.927a.754.754,0,0,1-.752-.752V34.8a.754.754,0,0,1,.752-.752H54.558a.754.754,0,0,1,.752.752v6.125Z" fill="#f7931e"/>
        <g id="Grupo_1102551" data-name="Grupo 1102551" opacity="0.1">
          <path id="Trazado_878678" data-name="Trazado 878678" d="M35.872,40.927V34.8a.754.754,0,0,1,.752-.752h-4.7a.754.754,0,0,0-.752.752v6.125a.754.754,0,0,0,.752.752h4.7A.754.754,0,0,1,35.872,40.927Z"/>
        </g>
        <ellipse id="Elipse_11621" data-name="Elipse 11621" cx="8.672" cy="8.681" rx="8.672" ry="8.681" transform="translate(34.571 51.862)" fill="#ffc502"/>
        <g id="Grupo_1102552" data-name="Grupo 1102552" opacity="0.1">
          <path id="Trazado_878679" data-name="Trazado 878679" d="M37.7,60.543a8.68,8.68,0,0,1,7.108-8.537,8.681,8.681,0,1,0,0,17.075A8.68,8.68,0,0,1,37.7,60.543Z"/>
        </g>
        <g id="Grupo_1102553" data-name="Grupo 1102553">
          <path id="Trazado_878680" data-name="Trazado 878680" d="M24.146,58.608a3.127,3.127,0,0,1-3.126,3.129h-1.6A3.127,3.127,0,0,1,16.3,58.608h0a3.127,3.127,0,0,1,3.126-3.129h1.6a3.127,3.127,0,0,1,3.126,3.129Z" fill="#fcdb67"/>
          <path id="Trazado_878681" data-name="Trazado 878681" d="M12.966,49.484a3.131,3.131,0,0,1,0,4.425l-1.131,1.132a3.123,3.123,0,0,1-4.42,0h0a3.131,3.131,0,0,1,0-4.425l1.131-1.132a3.123,3.123,0,0,1,4.42,0Z" fill="#fcdb67"/>
        </g>
        <path id="Trazado_878682" data-name="Trazado 878682" d="M74.844,27.838a3.525,3.525,0,0,1,0,4.982L67.919,39.75a3.517,3.517,0,0,1-4.977,0h0a3.525,3.525,0,0,1,0-4.982l6.924-6.931a3.517,3.517,0,0,1,4.977,0Z" fill="#fff"/>
        <path id="Trazado_878683" data-name="Trazado 878683" d="M66.4,31.3l-3.462,3.466a3.521,3.521,0,1,0,4.977,4.982l3.462-3.466Z" fill="#48c1e1"/>
        <g id="Grupo_1102554" data-name="Grupo 1102554" opacity="0.1">
          <path id="Trazado_878684" data-name="Trazado 878684" d="M64.864,37.829a3.525,3.525,0,0,1,0-4.982l-1.921,1.921a3.521,3.521,0,0,0,4.977,4.982l1.9-1.9A3.516,3.516,0,0,1,64.864,37.829Z"/>
        </g>
        <path id="Trazado_878685" data-name="Trazado 878685" d="M66.181,23.988a3.521,3.521,0,0,1-3.519,3.522H52.87a3.521,3.521,0,0,1-3.519-3.523h0a3.521,3.521,0,0,1,3.519-3.523h9.792a3.521,3.521,0,0,1,3.519,3.523Z" fill="#fff"/>
        <path id="Trazado_878686" data-name="Trazado 878686" d="M57.766,20.465h-4.9a3.523,3.523,0,0,0,0,7.045h4.9Z" fill="#48c1e1"/>
        <g id="Grupo_1102555" data-name="Grupo 1102555" opacity="0.1">
          <path id="Trazado_878687" data-name="Trazado 878687" d="M56.014,27.51a3.523,3.523,0,0,1,0-7.045H52.87a3.523,3.523,0,0,0,0,7.045Z"/>
        </g>
        <path id="Trazado_878688" data-name="Trazado 878688" d="M70.715,53.374a4.8,4.8,0,1,1,0-6.792A4.794,4.794,0,0,1,70.715,53.374Z" fill="#fcdb67"/>
        <g id="Grupo_1102556" data-name="Grupo 1102556" opacity="0.1">
          <path id="Trazado_878689" data-name="Trazado 878689" d="M65.633,51.671a4.808,4.808,0,0,1-.742-5.834,4.8,4.8,0,1,0,6.567,6.579A4.8,4.8,0,0,1,65.633,51.671Z"/>
        </g>
        <g id="Grupo_1102557" data-name="Grupo 1102557">
          <path id="Trazado_878690" data-name="Trazado 878690" d="M37.967,15.518l5.139-5.144L40.237,7.5,35.1,12.647Z" fill="#e6e9ed"/>
          <path id="Trazado_878691" data-name="Trazado 878691" d="M11.552,34.271,9.493,36.333a.755.755,0,0,0,0,1.064l3.748,3.752a.753.753,0,0,0,1.063,0l2.059-2.061Z" fill="#e6e9ed"/>
          <path id="Trazado_878692" data-name="Trazado 878692" d="M28.751,13.722,10.418,32.073a.755.755,0,0,0,0,1.064L17.5,40.222a.753.753,0,0,0,1.063,0L36.892,21.872Z" fill="#e6e9ed"/>
        </g>
        <path id="Trazado_878693" data-name="Trazado 878693" d="M10.418,33.136a.755.755,0,0,1,0-1.064L23.05,19.429a.753.753,0,0,1,1.063,0l7.079,7.086a.755.755,0,0,1,0,1.064L18.56,40.222a.753.753,0,0,1-1.063,0Z" fill="#a2dff9"/>
        <path id="Trazado_878694" data-name="Trazado 878694" d="M30.876,15.849l-2.125-2.127L10.418,32.073a.755.755,0,0,0,0,1.064l2.126,2.126a.755.755,0,0,1,0-1.064Z" opacity="0.1"/>
        <path id="Trazado_878695" data-name="Trazado 878695" d="M26.692,11.66a.755.755,0,0,1,0-1.064l2.648-2.65a.753.753,0,0,1,1.063,0l12.26,12.272a.755.755,0,0,1,0,1.064l-2.648,2.651a.753.753,0,0,1-1.063,0Z" fill="#fff"/>
        <g id="Grupo_1102558" data-name="Grupo 1102558" opacity="0.1">
          <path id="Trazado_878696" data-name="Trazado 878696" d="M29.143,14.112a.755.755,0,0,1,0-1.064l2.648-2.65a.752.752,0,0,1,1.05-.011L30.4,7.946a.753.753,0,0,0-1.063,0L26.692,10.6a.755.755,0,0,0,0,1.064Z"/>
        </g>
        <path id="Trazado_878697" data-name="Trazado 878697" d="M38.009,5.271a.755.755,0,0,1,0-1.064l1.725-1.727a.753.753,0,0,1,1.063,0l7.325,7.333a.755.755,0,0,1,0,1.064L46.4,12.6a.753.753,0,0,1-1.063,0Z" fill="#fff"/>
        <g id="Grupo_1102559" data-name="Grupo 1102559" opacity="0.1">
          <path id="Trazado_878698" data-name="Trazado 878698" d="M39.941,7.2a.755.755,0,0,1,0-1.064l1.725-1.727A.753.753,0,0,1,42.718,4.4L40.8,2.481a.753.753,0,0,0-1.063,0L38.009,4.208a.755.755,0,0,0,0,1.064Z"/>
        </g>
        <path id="Trazado_878699" data-name="Trazado 878699" d="M16.406,65.163H6.614a4.651,4.651,0,0,0,0,9.3h9.792a4.651,4.651,0,0,0,0-9.3ZM4.924,71.508a2.4,2.4,0,0,1,1.69-4.088h3.768v4.789H6.614A2.375,2.375,0,0,1,4.924,71.508Zm11.483.7H12.639V67.419h3.768a2.395,2.395,0,0,1,0,4.789Z"/>
        <path id="Trazado_878700" data-name="Trazado 878700" d="M54.067,45.383h-2.29V42.807h2.781a1.882,1.882,0,0,0,1.88-1.88V34.8a1.882,1.882,0,0,0-1.88-1.88H31.927a1.882,1.882,0,0,0-1.88,1.88v6.125a1.882,1.882,0,0,0,1.88,1.88h2.781v2.576h-2.29A4.624,4.624,0,0,0,27.8,50V73.866a2,2,0,0,0,2,2H56.684a2,2,0,0,0,2-2v-10.7a1.128,1.128,0,0,0-2.256,0v2.181H51.783a9.784,9.784,0,0,0,0-9.6h4.645V57.3a1.128,1.128,0,0,0,2.256,0V50A4.624,4.624,0,0,0,54.067,45.383Zm-17.1-2.576h5.3a1.128,1.128,0,0,0,0-2.256H32.3V35.178H54.182v5.373H48.277a1.128,1.128,0,0,0,0,2.256h1.244v2.576H36.964V42.807ZM30.057,55.74H34.7a9.784,9.784,0,0,0,0,9.6H30.057Zm26.371,17.87H30.057V67.6h6.391a9.769,9.769,0,0,0,13.59,0h6.39v6.009h0ZM43.243,68.1a7.553,7.553,0,1,1,7.544-7.553A7.557,7.557,0,0,1,43.243,68.1ZM56.428,53.485H50.038a9.769,9.769,0,0,0-13.59,0H30.057V50a2.366,2.366,0,0,1,2.361-2.365H54.067A2.365,2.365,0,0,1,56.428,50Z"/>
        <path id="Trazado_878701" data-name="Trazado 878701" d="M47.06,57.669H39.425a1.128,1.128,0,0,0,0,2.256H47.06a1.128,1.128,0,0,0,0-2.256Z"/>
        <path id="Trazado_878702" data-name="Trazado 878702" d="M45.937,61.336H40.548a1.128,1.128,0,0,0,0,2.256h5.39a1.128,1.128,0,1,0,0-2.256Z"/>
        <path id="Trazado_878703" data-name="Trazado 878703" d="M21.02,54.351h-1.6a4.257,4.257,0,0,0,0,8.514h1.6a4.257,4.257,0,0,0,0-8.514Zm0,6.258h-1.6a2,2,0,0,1,0-4h1.6a2,2,0,0,1,0,4Z"/>
        <path id="Trazado_878704" data-name="Trazado 878704" d="M10.756,47.44a4.225,4.225,0,0,0-3.008,1.247l-1.13,1.132a4.255,4.255,0,1,0,6.016,6.019l1.131-1.132a4.257,4.257,0,0,0-3.008-7.266Zm1.412,5.672-1.131,1.132a2,2,0,0,1-2.824,0,2,2,0,0,1,0-2.831l1.13-1.132a2,2,0,0,1,2.824,0A2.005,2.005,0,0,1,12.168,53.112Z"/>
        <path id="Trazado_878705" data-name="Trazado 878705" d="M75.641,27.041a4.645,4.645,0,0,0-6.573,0l-6.924,6.931a4.649,4.649,0,1,0,6.573,6.576l6.924-6.931A4.658,4.658,0,0,0,75.641,27.041Zm-8.52,11.913a2.388,2.388,0,0,1-3.38,0,2.4,2.4,0,0,1,0-3.387L66.4,32.9l3.382,3.386Zm6.924-6.931-2.664,2.667L68,31.3l2.666-2.668a2.388,2.388,0,0,1,3.381,0A2.4,2.4,0,0,1,74.046,32.022Z"/>
        <path id="Trazado_878706" data-name="Trazado 878706" d="M52.87,28.638h9.792a4.65,4.65,0,0,0,0-9.3H52.869a4.65,4.65,0,0,0,0,9.3Zm9.793-7.045a2.394,2.394,0,0,1,0,4.789H58.894V21.593Zm-9.793,0h3.768v4.789H52.87a2.395,2.395,0,0,1,0-4.789Z"/>
        <path id="Trazado_878707" data-name="Trazado 878707" d="M67.323,44.047a5.93,5.93,0,1,0,4.19,1.737A5.885,5.885,0,0,0,67.323,44.047Zm0,9.6a3.644,3.644,0,0,1-2.595-1.076,3.683,3.683,0,0,1-.671-4.272L69,53.249A3.648,3.648,0,0,1,67.323,53.652Zm3.265-2-4.939-4.944a3.672,3.672,0,0,1,4.939,4.944Z"/>
        <path id="Trazado_878708" data-name="Trazado 878708" d="M12.443,41.946a1.881,1.881,0,0,0,2.659,0l1.261-1.263.336.336a1.881,1.881,0,0,0,2.659,0L36.892,23.468l1.261,1.262a1.881,1.881,0,0,0,2.659,0l2.648-2.65a1.883,1.883,0,0,0,0-2.658l-3.9-3.9,3.544-3.548L44.536,13.4a1.881,1.881,0,0,0,2.659,0l1.725-1.727a1.883,1.883,0,0,0,0-2.658L41.595,1.684a1.881,1.881,0,0,0-2.659,0L37.211,3.41a1.883,1.883,0,0,0,0,2.658L38.643,7.5,35.1,11.051l-3.9-3.9a1.881,1.881,0,0,0-2.659,0L25.893,9.8a1.883,1.883,0,0,0,0,2.658l1.263,1.264L9.62,31.275a1.883,1.883,0,0,0,0,2.658l.337.338L8.695,35.536a1.883,1.883,0,0,0,0,2.658l1.078,1.079L.33,48.725a1.128,1.128,0,0,0,1.6,1.594l9.441-9.45Zm1.329-1.861-.811-.812,1-1,.811.812ZM40.266,3.545l6.794,6.8-1.194,1.2-6.794-6.8ZM40.237,9.1l1.274,1.275-3.544,3.548-1.274-1.275ZM28.751,15.318l2.32,2.322a1.128,1.128,0,1,0,1.6-1.594l-4.912-4.917L29.871,9.01,41.6,20.75l-2.116,2.119-2.759-2.762a1.128,1.128,0,0,0-1.6,1.594l.17.17L31.723,25.45,25.176,18.9Zm-5.17,5.175,6.547,6.554-2.621,2.624L26.44,28.6a1.128,1.128,0,0,0-1.6,1.6l1.068,1.068-1.3,1.3L23.545,31.5a1.128,1.128,0,0,0-1.6,1.6l1.069,1.069-1.3,1.3-1.07-1.07a1.128,1.128,0,1,0-1.6,1.6l1.071,1.071-2.1,2.1L11.482,32.6ZM10.556,36.865l1-1,.811.812-1,1Z"/>
      </g>
    </g>
  </g>
</svg>
