<svg xmlns="http://www.w3.org/2000/svg" xmlns:xlink="http://www.w3.org/1999/xlink" width="77" height="121" viewBox="0 0 77 121">
  <defs>
    <clipPath id="clip-path">
      <rect id="Rect치ngulo_403455" data-name="Rect치ngulo 403455" width="77" height="77" transform="translate(649 6992)" fill="#fff" stroke="#707070" stroke-width="1"/>
    </clipPath>
  </defs>
  <g id="Grupo_1102335" data-name="Grupo 1102335" transform="translate(-649 -6970)">
    <g id="Rect치ngulo_403454" data-name="Rect치ngulo 403454" transform="translate(652 6970)" fill="#fff" stroke="#5169dd" stroke-width="2" stroke-dasharray="6">
      <rect width="71" height="121" rx="35" stroke="none"/>
      <rect x="1" y="1" width="69" height="119" rx="34" fill="none"/>
    </g>
    <g id="Enmascarar_grupo_1098815" data-name="Enmascarar grupo 1098815" clip-path="url(#clip-path)">
      <g id="drug-medical-coronavirus-covid19-hand" transform="translate(647.14 6990.4)">
        <path id="Trazado_878709" data-name="Trazado 878709" d="M45.353,30.151l-3.785,6.56L38.3,34.819a1.27,1.27,0,0,0-1.728.454,7.569,7.569,0,0,1-10.345,2.775L6.573,26.695l-2.2-1.262a2.531,2.531,0,0,1-.921-3.444L13.549,4.5a2.531,2.531,0,0,1,3.444-.921l2.2,1.262L38.844,16.2a7.569,7.569,0,0,1,2.775,10.345,1.249,1.249,0,0,0,.467,1.716Z" fill="#2488ff"/>
        <path id="Trazado_878710" data-name="Trazado 878710" d="M28.751,35.526,9.1,24.172,6.9,22.91a2.531,2.531,0,0,1-.921-3.444L15.315,3.3A2.508,2.508,0,0,0,13.549,4.5L3.457,21.989a2.531,2.531,0,0,0,.921,3.444l2.2,1.262L26.228,38.049a7.569,7.569,0,0,0,10.239-2.611A7.558,7.558,0,0,1,28.751,35.526Z" fill="#006df0"/>
        <path id="Trazado_878711" data-name="Trazado 878711" d="M40.824,32.3a1.27,1.27,0,0,0-1.728.454,7.547,7.547,0,0,1-1.6,1.93,1.234,1.234,0,0,1,.807.139l3.267,1.892,1.723-2.986Z" fill="#006df0"/>
        <path id="Trazado_878712" data-name="Trazado 878712" d="M77.422,62.769a3.858,3.858,0,0,0-4.69-2.478L61.817,63.217,57.742,64.3a3.806,3.806,0,0,0-2.788-3.293L39.108,56.77l-.517-.126a12.669,12.669,0,0,0-8.7.946l-2.859,1.436a2.523,2.523,0,0,1-1.128.267H23.97V71.909h1.754a2.479,2.479,0,0,1,1.4.429L29,73.586a5.056,5.056,0,0,0,2.8.847H46.876a17.657,17.657,0,0,0,4.574-.6l10.367-2.779,12.969-3.482A3.785,3.785,0,0,0,77.6,63.911a3.649,3.649,0,0,0-.177-1.142Z" fill="#ffbcab"/>
        <path id="Trazado_878713" data-name="Trazado 878713" d="M57.742,64.3a3.773,3.773,0,0,0-.213-.9,3.785,3.785,0,0,1-4.542,2.4l-7.911-2.295a1.211,1.211,0,0,0-1.495.807v.011a1.21,1.21,0,0,0,.821,1.514l8.584,2.488A3.791,3.791,0,0,0,57.742,64.3Z" fill="#ff9478"/>
        <path id="Trazado_878714" data-name="Trazado 878714" d="M40.312,38.894l4.371,2.523,6.308-10.925L46.62,27.969l-1.262,2.185-3.785,6.555Z" fill="#57a4ff"/>
        <path id="Trazado_878715" data-name="Trazado 878715" d="M10.092,10.1H35.323V32.8H10.092Z" transform="translate(-7.219 30.389) rotate(-59.999)" fill="#ffcd00"/>
        <path id="Trazado_878716" data-name="Trazado 878716" d="M8.27,23.755l-1.7,2.939L26.228,38.049l1.722-2.984Z" fill="#ebbf00"/>
        <path id="Trazado_878717" data-name="Trazado 878717" d="M68.124,55.509a3.785,3.785,0,1,0,0-7.569H64.34v7.569Z" fill="#ff7956"/>
        <path id="Trazado_878718" data-name="Trazado 878718" d="M63.231,46.525a3.785,3.785,0,1,0-5.352-5.353L55.2,43.848,60.555,49.2Z" fill="#ff5023"/>
        <path id="Trazado_878719" data-name="Trazado 878719" d="M55.2,43.848,60.555,49.2l-2.676,2.676a3.785,3.785,0,1,1-5.353-5.352Z" fill="#ab2300"/>
        <path id="Trazado_878720" data-name="Trazado 878720" d="M23.97,56.77H18.923V74.432H23.97V56.77Z" fill="#57a4ff"/>
        <path id="Trazado_878721" data-name="Trazado 878721" d="M19.262,22.37l-1.892,3.278,4.37,2.523,1.892-3.278,3.278,1.892,2.523-4.37-3.278-1.892,1.892-3.278-4.37-2.523L21.785,18l-3.278-1.892-2.523,4.37Z" fill="#d80027"/>
        <path id="Trazado_878722" data-name="Trazado 878722" d="M18.923,54.247H3.785V76.955H18.923V54.247Z" fill="#006df0"/>
        <path id="Trazado_878723" data-name="Trazado 878723" d="M64.34,47.939v7.569H60.555a3.785,3.785,0,1,1,0-7.569Z" fill="#d80027"/>
        <g id="Grupo_1102560" data-name="Grupo 1102560">
          <path id="Trazado_878724" data-name="Trazado 878724" d="M52.2,30.164a1.229,1.229,0,0,0-.58-.77l-4.378-2.523a1.262,1.262,0,0,0-1.716.467l-.631,1.1-2.183-1.262A8.831,8.831,0,0,0,39.474,15.1L19.819,3.747h-.013L17.624,2.485a3.785,3.785,0,0,0-5.16,1.388L2.372,21.358a3.785,3.785,0,0,0,1.375,5.172L25.6,39.146A8.831,8.831,0,0,0,30,40.332a9.067,9.067,0,0,0,2.309-.3A8.851,8.851,0,0,0,37.67,35.9l2.183,1.262-.631,1.1a1.274,1.274,0,0,0,.454,1.728l4.378,2.523a1.278,1.278,0,0,0,1.728-.467L52.09,31.123a1.262,1.262,0,0,0,.114-.959Zm-47.2-5.828a1.253,1.253,0,0,1-.454-1.716L14.647,5.135a1.238,1.238,0,0,1,1.716-.454l1.1.631L6.106,24.966Zm3.28,1.892L19.643,6.573,37.128,16.665,25.774,36.32Zm30.643,7.494a2.546,2.546,0,0,0-3.457.921,6.182,6.182,0,0,1-3.823,2.939,6.25,6.25,0,0,1-3.633-.1L39.247,18.028a6.327,6.327,0,0,1,1.274,7.885,2.575,2.575,0,0,0-.252,1.9,2.507,2.507,0,0,0,1.186,1.539l2.183,1.262-2.523,4.365Zm5.286,5.967-2.183-1.262,5.046-8.73,2.183,1.262Z" fill="#231f20"/>
          <path id="Trazado_878725" data-name="Trazado 878725" d="M68.124,46.678H64.971A4.979,4.979,0,0,0,65.753,44a5.046,5.046,0,0,0-1.476-3.57,5.172,5.172,0,0,0-7.14,0l-5.349,5.349a5.034,5.034,0,0,0,3.57,8.6,5.238,5.238,0,0,0,.883-.088,5.02,5.02,0,0,0,4.315,2.473h7.569a5.046,5.046,0,1,0,0-10.093ZM55.509,51.724c0,.038.013.076.013.114a2.493,2.493,0,0,1-1.943-4.264l1.779-1.791,2.031,2.044A5.019,5.019,0,0,0,55.509,51.724Zm7.569,2.523H60.555a2.523,2.523,0,1,1,0-5.046h2.523Zm-.593-8.465-.883.9H60.555a5.721,5.721,0,0,0-.669.063L57.136,44l1.791-1.779a2.516,2.516,0,1,1,3.558,3.558Zm5.639,8.465H65.6V49.2h2.523a2.523,2.523,0,1,1,0,5.046Z" fill="#231f20"/>
          <path id="Trazado_878726" data-name="Trazado 878726" d="M78.621,62.384a5.085,5.085,0,0,0-6.22-3.305L58.638,62.763a5.079,5.079,0,0,0-3.356-2.977L38.894,55.421a13.981,13.981,0,0,0-9.575,1.047l-2.851,1.426a1.3,1.3,0,0,1-.568.139h-.669V56.77a1.262,1.262,0,0,0-1.262-1.262H20.185V54.247a1.262,1.262,0,0,0-1.262-1.262H3.785a1.262,1.262,0,0,0-1.262,1.262V76.955a1.262,1.262,0,0,0,1.262,1.262H18.923a1.262,1.262,0,0,0,1.262-1.262V75.694H23.97a1.262,1.262,0,0,0,1.262-1.262V73.171h.492a1.291,1.291,0,0,1,.706.214l1.88,1.249a6.256,6.256,0,0,0,3.495,1.06H46.88a18.9,18.9,0,0,0,4.895-.643l10.37-2.775L75.1,68.793a5.036,5.036,0,0,0,3.759-4.882,4.828,4.828,0,0,0-.24-1.526ZM17.662,75.694H5.046V55.509H17.662Zm5.046-2.523H20.185V58.032h2.523Zm51.749-6.825-23.339,6.27a16.637,16.637,0,0,1-4.239.555H31.8A3.818,3.818,0,0,1,29.7,72.54L27.843,71.3a3.724,3.724,0,0,0-2.119-.656h-.492V60.555H25.9a3.748,3.748,0,0,0,1.69-.4l2.851-1.426a11.42,11.42,0,0,1,7.847-.858l16.337,4.365a2.523,2.523,0,0,1,1.855,2.2,2.336,2.336,0,0,1-.076.9,2.514,2.514,0,0,1-2.435,1.867,2.172,2.172,0,0,1-.656-.088l-8.831-2.372a1.267,1.267,0,1,0-.656,2.447l8.831,2.372a5.578,5.578,0,0,0,1.312.164,5.046,5.046,0,0,0,4.87-3.722,4.274,4.274,0,0,0,.126-.719l14.092-3.759a2.613,2.613,0,0,1,3.167,1.64,2.523,2.523,0,0,1-1.766,3.192Z" fill="#231f20"/>
          <path id="Trazado_878727" data-name="Trazado 878727" d="M26.278,27.881A1.262,1.262,0,0,0,28,27.419l2.523-4.37a1.262,1.262,0,0,0-.462-1.728l-2.184-1.262,1.262-2.185a1.262,1.262,0,0,0-.463-1.723l-4.37-2.523a1.262,1.262,0,0,0-1.725.462l-1.262,2.185-2.184-1.262a1.262,1.262,0,0,0-1.723.462l-2.523,4.37a1.262,1.262,0,0,0,.462,1.728l2.184,1.262-1.262,2.185a1.262,1.262,0,0,0,.463,1.723l4.37,2.523a1.262,1.262,0,0,0,1.726-.464L24.1,26.616Zm-2.972-4.2a1.262,1.262,0,0,0-.767.588L21.278,26.45l-2.185-1.262L20.354,23a1.262,1.262,0,0,0-.462-1.723l-2.185-1.262,1.262-2.185L21.154,19.1a1.262,1.262,0,0,0,1.723-.462l1.262-2.185,2.185,1.262-1.262,2.185a1.262,1.262,0,0,0,.462,1.723l2.185,1.262-1.262,2.185L24.262,23.8a1.262,1.262,0,0,0-.956-.129Z" fill="#231f20"/>
        </g>
      </g>
    </g>
  </g>
</svg>
