<svg xmlns="http://www.w3.org/2000/svg" xmlns:xlink="http://www.w3.org/1999/xlink" width="106.508" height="106.508" viewBox="0 0 106.508 106.508">
  <defs>
    <clipPath id="clip-path">
      <rect id="Rect치ngulo_403305" data-name="Rect치ngulo 403305" width="106.508" height="106.508" transform="translate(719.461 6169.792)" fill="#e1f8e6"/>
    </clipPath>
  </defs>
  <g id="Grupo_1102230" data-name="Grupo 1102230" transform="translate(-704.668 -6155)">
    <rect id="Rect치ngulo_402033" data-name="Rect치ngulo 402033" width="106.508" height="106.508" rx="53" transform="translate(704.668 6155)" fill="#3b57de"/>
    <g id="Enmascarar_grupo_1098827" data-name="Enmascarar grupo 1098827" transform="translate(-14.793 -14.793)" clip-path="url(#clip-path)">
      <g id="compromiso-con-la-marca" transform="translate(720.536 6169.792)">
        <g id="Grupo_1102985" data-name="Grupo 1102985" transform="translate(1.676 5.246)">
          <g id="Grupo_1102983" data-name="Grupo 1102983" transform="translate(0 58.97)">
            <path id="Trazado_879719" data-name="Trazado 879719" d="M9.582,61.133,28.268,50.307c3.507-2.032,7.073-3.472,10.928-2.222,4.3,1.394,11.315,4.386,18.472,5.677a5.19,5.19,0,0,1,3.59,6.218c-.723,2.7-3,4.088-6.218,3.591l2.5.4a11.649,11.649,0,0,0,8.009-1.4L83.517,52.113c13.965-8.133,16.016,4.379,11.373,7.238l-32.6,20.076a11.956,11.956,0,0,1-9.681,1.365L28.957,74.455,20.2,79.511a3.537,3.537,0,0,1-4.822-1.292L8.295,65.953a3.536,3.536,0,0,1,1.287-4.82Z" transform="translate(-1.459 -47.619)" fill="#f6dccd" fill-rule="evenodd"/>
            <path id="Trazado_879720" data-name="Trazado 879720" d="M9.582,61.133,28.268,50.307c3.507-2.032,7.073-3.472,10.928-2.222,2.3.746,5.377,1.949,8.839,3.1l-36.2,20.9L8.295,65.953A3.537,3.537,0,0,1,9.582,61.133Z" transform="translate(-1.459 -47.619)" fill="#f1cbbc" fill-rule="evenodd"/>
            <path id="Trazado_879721" data-name="Trazado 879721" d="M13.213,53.493l14.82,26.185a2.653,2.653,0,0,1-1,3.6l-5.041,2.853a2.653,2.653,0,0,1-3.6-1L3.568,58.952a2.653,2.653,0,0,1,1-3.6l5.041-2.853A2.653,2.653,0,0,1,13.213,53.493Z" transform="translate(-3.227 -45.875)" fill="#d1d1d6" fill-rule="evenodd"/>
            <path id="Trazado_879722" data-name="Trazado 879722" d="M19.089,71.484l2.623,4.635L24.306,80.7a2.653,2.653,0,0,1-.991,3.6l1.8-1.019a2.653,2.653,0,0,0,1-3.6l-2.6-4.6-5.226-9.234L13.054,56.6,11.3,53.493a2.655,2.655,0,0,0-3.081-1.225l3.046,5.382,5.226,9.234,2.6,4.6Z" transform="translate(-1.309 -45.875)" fill="#b1b1b5" fill-rule="evenodd"/>
          </g>
          <g id="Grupo_1102984" data-name="Grupo 1102984" transform="translate(41.793)">
            <path id="Trazado_879723" data-name="Trazado 879723" d="M63.525,30.381,51.338,35.325l9.6,20.619a.463.463,0,0,0,.819.037l3.577-6.155,7.012,1.225a.463.463,0,0,0,.5-.651Z" transform="translate(-26.516 4.721)" fill="#fe646f" fill-rule="evenodd"/>
            <path id="Trazado_879724" data-name="Trazado 879724" d="M60.872,30.381l-.633.257,9.114,19.576a.462.462,0,0,1-.5.651l-7.013-1.225-3.577,6.155a.466.466,0,0,1-.029.044l.049.106a.463.463,0,0,0,.819.037l3.577-6.155,7.013,1.225a.463.463,0,0,0,.5-.651Z" transform="translate(-23.863 4.721)" fill="#fd4755" fill-rule="evenodd"/>
            <path id="Trazado_879725" data-name="Trazado 879725" d="M44.88,30.381l12.187,4.944-9.6,20.619a.463.463,0,0,1-.82.037l-3.577-6.155-7.012,1.225a.463.463,0,0,1-.5-.651Z" transform="translate(-32.601 4.721)" fill="#fe646f" fill-rule="evenodd"/>
            <path id="Trazado_879726" data-name="Trazado 879726" d="M56.543,33.8l.524.213-9.6,20.619a.463.463,0,0,1-.82.037l-.323-.555a.463.463,0,0,0,.795-.075ZM43.069,48.512l-7.01,1.225a.463.463,0,0,1-.521-.595.474.474,0,0,0,.174,0l7.013-1.225Z" transform="translate(-32.601 6.035)" fill="#fd4755" fill-rule="evenodd"/>
            <path id="Trazado_879727" data-name="Trazado 879727" d="M61.168,6.082,64.3,8.425a4.984,4.984,0,0,0,2.825,1.028l3.9.217a5.133,5.133,0,0,1,4.77,4l.892,3.807a4.983,4.983,0,0,0,1.5,2.6l2.851,2.676a5.133,5.133,0,0,1,1.081,6.133l-1.764,3.49a4.984,4.984,0,0,0-.522,2.961l.464,3.883a5.132,5.132,0,0,1-3.114,5.393L73.6,46.157a4.986,4.986,0,0,0-2.3,1.932l-2.14,3.273a5.133,5.133,0,0,1-5.852,2.13L59.557,52.36a4.987,4.987,0,0,0-3.006,0l-3.743,1.131a5.132,5.132,0,0,1-5.851-2.13l-2.14-3.273a4.984,4.984,0,0,0-2.3-1.932l-3.594-1.539a5.133,5.133,0,0,1-3.114-5.393l.464-3.883a4.986,4.986,0,0,0-.522-2.961l-1.764-3.49a5.133,5.133,0,0,1,1.081-6.133l2.851-2.676a4.984,4.984,0,0,0,1.5-2.6l.892-3.807a5.133,5.133,0,0,1,4.77-4l3.9-.217A4.986,4.986,0,0,0,51.81,8.425l3.13-2.343a5.134,5.134,0,0,1,6.228,0Z" transform="translate(-33.411 -5.029)" fill="#ffe177" fill-rule="evenodd"/>
            <path id="Trazado_879728" data-name="Trazado 879728" d="M56.5,6.082l3.13,2.343A4.984,4.984,0,0,0,62.46,9.453l3.9.217a5.133,5.133,0,0,1,4.77,4l.892,3.807a4.983,4.983,0,0,0,1.5,2.6l2.851,2.676a5.133,5.133,0,0,1,1.081,6.133L75.7,32.381a4.984,4.984,0,0,0-.522,2.961l.464,3.883a5.132,5.132,0,0,1-3.114,5.393l-3.594,1.539a4.986,4.986,0,0,0-2.3,1.932l-2.14,3.273A5.124,5.124,0,0,1,59.1,53.609a5.151,5.151,0,0,0,3.242-2.248l2.14-3.273a4.984,4.984,0,0,1,2.3-1.932l3.594-1.539a5.133,5.133,0,0,0,3.114-5.393l-.464-3.883a4.986,4.986,0,0,1,.522-2.961l1.764-3.49a5.133,5.133,0,0,0-1.081-6.133l-2.851-2.676a4.986,4.986,0,0,1-1.5-2.6l-.892-3.807a5.133,5.133,0,0,0-4.77-4l-3.9-.217a4.986,4.986,0,0,1-2.825-1.028l-3.13-2.343a5.258,5.258,0,0,0-2.04-.937,5.139,5.139,0,0,1,4.187.937ZM52.318,52.248a4.953,4.953,0,0,0-2.577.112L46,53.491c-.154.047-.308.085-.463.118a5.227,5.227,0,0,0,2.61-.118l3.743-1.131Q52.1,52.295,52.318,52.248Z" transform="translate(-28.747 -5.029)" fill="#ffd064" fill-rule="evenodd"/>
            <circle id="Elipse_11628" data-name="Elipse 11628" cx="15.701" cy="15.701" r="15.701" transform="translate(2.429 24.35) rotate(-45)" fill="#eceff1"/>
            <path id="Trazado_879729" data-name="Trazado 879729" d="M55.571,11.272c.361,0,.719.013,1.074.037a15.7,15.7,0,0,0,0,31.331c-.355.024-.713.037-1.074.037a15.7,15.7,0,0,1,0-31.406Z" transform="translate(-30.927 -2.628)" fill="#d1d1d6" fill-rule="evenodd"/>
            <path id="Trazado_879730" data-name="Trazado 879730" d="M54.287,16.942l1.645,5.1a.635.635,0,0,0,.614.446l5.354-.01a.644.644,0,0,1,.379,1.166l-4.338,3.139a.635.635,0,0,0-.234.722l1.664,5.089a.644.644,0,0,1-.992.721l-4.326-3.155a.635.635,0,0,0-.759,0l-4.326,3.155a.644.644,0,0,1-.992-.721L49.642,27.5a.636.636,0,0,0-.234-.722l-4.338-3.139a.644.644,0,0,1,.379-1.166l5.354.01a.636.636,0,0,0,.614-.446l1.645-5.1a.644.644,0,0,1,1.225,0Z" transform="translate(-29.03 -0.619)" fill="#6cf5c2" fill-rule="evenodd"/>
            <path id="Trazado_879731" data-name="Trazado 879731" d="M54.12,16.942l1.645,5.1a.634.634,0,0,0,.566.445l-.847,0a.636.636,0,0,1-.614-.446l-1.645-5.1a.646.646,0,0,0-.166-.268.647.647,0,0,1,1.061.268Zm6.766,5.533.847,0a.644.644,0,0,1,.379,1.166l-4.338,3.139a.635.635,0,0,0-.234.722L59.2,32.589a.644.644,0,0,1-.992.721l-.072-.053a.634.634,0,0,0,.169-.668L56.646,27.5a.636.636,0,0,1,.234-.722l4.338-3.139a.644.644,0,0,0-.331-1.164ZM53.06,30.2,48.8,33.31a.635.635,0,0,1-.758,0,.683.683,0,0,1-.065-.053l4.253-3.1a.635.635,0,0,1,.759,0Zm-7.827-7.729.048,0,4.507.009-.048,0Z" transform="translate(-28.864 -0.619)" fill="#00e499" fill-rule="evenodd"/>
          </g>
        </g>
        <path id="Trazado_879732" data-name="Trazado 879732" d="M105.517,10.568a1.718,1.718,0,0,1-2.345-.629l-.333-.57V20.187a1.718,1.718,0,0,1-3.437,0V9.37l-.323.57A1.721,1.721,0,0,1,96.1,8.222L99.635,2.1a1.723,1.723,0,0,1,2.982,0l3.527,6.122a1.719,1.719,0,0,1-.627,2.347Zm-38.269,19.5A2.361,2.361,0,0,0,69.5,28.427l.623-1.93.623,1.93A2.354,2.354,0,0,0,73,30.064h0l2.029,0-1.644,1.189a2.358,2.358,0,0,0-.859,2.648l.63,1.927-1.638-1.2a2.354,2.354,0,0,0-2.783,0l-1.638,1.195.63-1.927a2.351,2.351,0,0,0-.859-2.648L65.222,30.06Zm-3.034,3.509-1.421,4.345a2.363,2.363,0,0,0,3.638,2.642l3.693-2.695,3.693,2.695a2.362,2.362,0,0,0,3.636-2.643l-1.419-4.344,3.7-2.679a2.362,2.362,0,0,0-1.383-4.276h-.006l-4.569.009-1.4-4.35h0a2.362,2.362,0,0,0-4.5,0l-1.4,4.35L61.9,26.618H61.9a2.362,2.362,0,0,0-1.383,4.276Zm5.91-16.73A13.985,13.985,0,1,0,84.109,30.828,14,14,0,0,0,70.124,16.843Zm0,31.406A17.421,17.421,0,1,0,52.7,30.828,17.441,17.441,0,0,0,70.124,48.249ZM48.309,25.464a3.41,3.41,0,0,0-.724,4.1l1.765,3.49A6.707,6.707,0,0,1,50.044,37l-.463,3.883a3.413,3.413,0,0,0,2.084,3.61l3.6,1.539A6.708,6.708,0,0,1,58.325,48.6l2.139,3.272A3.413,3.413,0,0,0,64.382,53.3l3.743-1.131a6.7,6.7,0,0,1,4,0L75.868,53.3a3.409,3.409,0,0,0,3.916-1.426L81.923,48.6a6.716,6.716,0,0,1,3.064-2.571l3.594-1.539a3.413,3.413,0,0,0,2.086-3.61L90.2,37a6.7,6.7,0,0,1,.693-3.939l1.765-3.49a3.41,3.41,0,0,0-.724-4.1l-2.851-2.676a6.7,6.7,0,0,1-2-3.464l-.891-3.807A3.411,3.411,0,0,0,83,12.838l-3.9-.218a6.709,6.709,0,0,1-3.759-1.367L72.209,8.909a3.412,3.412,0,0,0-4.168,0l-3.13,2.344A6.714,6.714,0,0,1,61.15,12.62l-3.9.218a3.411,3.411,0,0,0-3.193,2.678l-.891,3.807a6.708,6.708,0,0,1-2,3.464ZM84.594,59.338a1.72,1.72,0,0,0-1.782.829l-2.368,4.075-3.423-7.355a6.857,6.857,0,0,0,5.639-3.132l2.1-3.216,4.475,9.611ZM59.8,64.242l-2.368-4.075a1.716,1.716,0,0,0-1.78-.829l-4.645.812,4.475-9.611,2.1,3.216a6.858,6.858,0,0,0,5.639,3.132ZM46.284,34.608a3.3,3.3,0,0,1,.351,1.982l-.464,3.883a6.86,6.86,0,0,0,4.142,7.175l2.274.974L46.881,60.878a2.182,2.182,0,0,0,2.351,3.07l5.835-1.02,2.974,5.121a2.178,2.178,0,0,0,1.886,1.085c.032,0,.064,0,.1,0A2.171,2.171,0,0,0,61.9,67.873l5.545-11.911,1.668-.5a3.3,3.3,0,0,1,2.014,0l1.669.5,5.547,11.911a2.172,2.172,0,0,0,1.877,1.256c.034,0,.067,0,.1,0a2.174,2.174,0,0,0,1.883-1.087l2.974-5.119,5.835,1.02a2.18,2.18,0,0,0,2.351-3.069L87.661,48.623l2.274-.974a6.855,6.855,0,0,0,4.142-7.175l-.464-3.883a3.285,3.285,0,0,1,.351-1.981l1.77-3.49a6.872,6.872,0,0,0-1.445-8.16l-2.85-2.676a3.285,3.285,0,0,1-1.007-1.743l-.891-3.807a6.866,6.866,0,0,0-6.347-5.326l-3.9-.216A3.287,3.287,0,0,1,77.4,8.5L74.266,6.159a6.862,6.862,0,0,0-8.284,0L62.851,8.5a3.293,3.293,0,0,1-1.892.688l-3.9.216a6.866,6.866,0,0,0-6.347,5.326l-.891,3.807a3.285,3.285,0,0,1-1.007,1.743L45.958,22.96a6.864,6.864,0,0,0-1.438,8.16ZM12.356,78.515A1.8,1.8,0,1,1,10.317,77,1.8,1.8,0,0,1,12.356,78.515Zm83.812-2.781L63.6,95.792a10.254,10.254,0,0,1-8.327,1.168L31.642,90.627a1.73,1.73,0,0,0-1.3.173l-3.482,2.011L18.1,77.334l13.275-7.685c2.967-1.718,6.177-3.16,9.528-2.072,1.088.352,2.345.808,3.8,1.333a93.209,93.209,0,0,0,14.757,4.372,3.443,3.443,0,0,1,2.358,4.1c-.607,2.266-2.5,2.545-4.012,2.373-2.635-.544-5.143-1.258-7.795-2.016-1.26-.359-2.566-.732-3.906-1.091a1.717,1.717,0,1,0-.889,3.317c1.312.352,2.6.722,3.852,1.077,2.742.782,5.332,1.523,8.122,2.094l.034,0a.13.13,0,0,0,.034.007l2.233.363a13.3,13.3,0,0,0,9.137-1.6L86.572,71.45c5.1-2.97,9.009-3.292,10.475-.863.991,1.669.556,4.267-.879,5.148ZM27.107,100.785a.924.924,0,0,0-.082-.7l-2.3-4.059h0l-12.509-22.1a.912.912,0,0,0-.558-.434.923.923,0,0,0-.254-.034.908.908,0,0,0-.449.117l-5.035,2.85a.937.937,0,0,0-.35,1.26l14.806,26.163a.935.935,0,0,0,1.26.349l5.037-2.85a.918.918,0,0,0,.432-.558Zm57.737-32.3L66.895,78.935a9.817,9.817,0,0,1-2.446,1.029,7.359,7.359,0,0,0,.68-1.692,6.929,6.929,0,0,0-4.715-8.293,1.675,1.675,0,0,0-.225-.056,90.045,90.045,0,0,1-14.323-4.245c-1.421-.513-2.763-1-3.909-1.37-4.642-1.506-8.828.353-12.308,2.366L16.4,74.343l-1.2-2.112a4.366,4.366,0,0,0-5.944-1.647L4.229,73.433a4.363,4.363,0,0,0-1.647,5.942l14.805,26.162a4.335,4.335,0,0,0,2.631,2.051,4.424,4.424,0,0,0,1.177.161,4.339,4.339,0,0,0,2.137-.564l5.035-2.849a4.372,4.372,0,0,0,1.647-5.944L28.547,95.8l2.893-1.669,22.94,6.145a14.637,14.637,0,0,0,3.8.513A13.609,13.609,0,0,0,65.4,98.718l32.58-20.056C101,76.8,101.96,72.11,99.989,68.822c-.95-1.594-4.862-6.327-15.145-.342Z" transform="translate(-2.017 -1.241)" fill="#242222" fill-rule="evenodd"/>
      </g>
    </g>
  </g>
</svg>
