<svg xmlns="http://www.w3.org/2000/svg" xmlns:xlink="http://www.w3.org/1999/xlink" width="87.264" height="87.264" viewBox="0 0 87.264 87.264">
  <defs>
    <clipPath id="clip-path">
      <rect id="Rectángulo_403471" data-name="Rectángulo 403471" width="52.358" height="52.358" transform="translate(197.785 6306.451)" fill="#fff" stroke="#707070" stroke-width="1"/>
    </clipPath>
  </defs>
  <g id="Grupo_1102299" data-name="Grupo 1102299" transform="translate(-180.332 -6289)">
    <rect id="Rectángulo_400898" data-name="Rectángulo 400898" width="87.264" height="87.264" rx="43.632" transform="translate(180.332 6289)" fill="#fff" opacity="0.859"/>
    <g id="Rectángulo_400907" data-name="Rectángulo 400907" transform="translate(180.332 6289)" fill="none" stroke="#3b57de" stroke-linecap="round" stroke-width="2" stroke-dasharray="7">
      <rect width="87.264" height="87.264" rx="43.632" stroke="none"/>
      <rect x="1" y="1" width="85.264" height="85.264" rx="42.632" fill="none"/>
    </g>
    <g id="Enmascarar_grupo_1098825" data-name="Enmascarar grupo 1098825" clip-path="url(#clip-path)">
      <g id="calidad-premium" transform="translate(197.785 6306.451)">
        <path id="Trazado_879621" data-name="Trazado 879621" d="M44.436,47.646,39.1,46.214l-1.431,5.341-4.953-8.581-1.058-1.832,3.893-3.885,2.505-.669,1.058,1.834Z" fill="#f07281"/>
        <path id="Trazado_879622" data-name="Trazado 879622" d="M34.722,41.141l3.916,6.784-.972,3.63L31.654,41.141l3.893-3.885Z" fill="#eb5569"/>
        <path id="Trazado_879623" data-name="Trazado 879623" d="M20.727,41.195l-1.059,1.834-4.923,8.526-1.432-5.341-5.34,1.432L13.3,38.419l1.058-1.833,2.42.651Z" fill="#f07281"/>
        <g id="Grupo_1102914" data-name="Grupo 1102914">
          <path id="Trazado_879624" data-name="Trazado 879624" d="M16.95,37.409,11.6,46.672l-3.629.973,6.384-11.06,2.42.651Z" fill="#eb5569"/>
          <path id="Trazado_879625" data-name="Trazado 879625" d="M16.778,37.237l3.949,3.957-1.059,1.834-3.95-3.959-2.418-.65,1.058-1.833Z" fill="#eb5569"/>
          <path id="Trazado_879626" data-name="Trazado 879626" d="M39.111,38.422l-2.507.669-3.891,3.883-1.058-1.832,3.893-3.885,2.505-.669Z" fill="#eb5569"/>
        </g>
        <path id="Trazado_879627" data-name="Trazado 879627" d="M31.576,41.219,26.16,39.761l-5.42,1.446-3.962-3.97L11.362,35.78,9.915,30.36,5.953,26.39l1.457-5.417-1.446-5.42,3.97-3.962,1.457-5.417,5.419-1.446L20.782.767,26.2,2.224,31.618.778l3.962,3.97L41,6.206l1.446,5.419,3.962,3.97-1.457,5.417,1.446,5.42-3.97,3.962L40.966,35.81l-5.419,1.446Z" fill="#fee97d"/>
        <path id="Trazado_879628" data-name="Trazado 879628" d="M13,11.591,9.032,15.554l1.446,5.42L9.021,26.39l3.962,3.971,1.446,5.42,5.417,1.457,3.317,3.324-2.422.646-3.962-3.971L11.361,35.78,9.915,30.36,5.953,26.39,7.41,20.973l-1.446-5.42,3.971-3.962,1.457-5.417,5.42-1.446L20.782.766l2.416.65L19.879,4.729,14.46,6.175Z" fill="#fbd94f"/>
        <path id="Trazado_879629" data-name="Trazado 879629" d="M26.179,35.281a14.379,14.379,0,0,1-8.8-3.047A14.288,14.288,0,0,1,22.9,7.089,14.227,14.227,0,0,1,34.982,9.751a14.109,14.109,0,0,1,5.1,7.96,14.3,14.3,0,0,1-13.9,17.571Z" fill="#ffb850"/>
        <path id="Trazado_879630" data-name="Trazado 879630" d="M26.179,32.1a11.184,11.184,0,0,1-6.844-2.373,11.108,11.108,0,0,1,4.294-19.544,11.047,11.047,0,0,1,9.4,2.074,10.961,10.961,0,0,1,3.964,6.183A11.115,11.115,0,0,1,26.179,32.1Z" fill="#fee97d"/>
        <path id="Trazado_879631" data-name="Trazado 879631" d="M27.722,31.991a11.028,11.028,0,0,1-1.543.109,11.185,11.185,0,0,1-6.844-2.373,11.108,11.108,0,0,1,4.294-19.544,11.142,11.142,0,0,1,2.552-.3,10.869,10.869,0,0,1,1.526.108c-.338.048-.676.111-1.01.19A11.1,11.1,0,0,0,22.4,29.727a11.23,11.23,0,0,0,5.319,2.264Z" fill="#fbd94f"/>
        <path id="Trazado_879632" data-name="Trazado 879632" d="M26.7,15.487,28.183,18.5l3.321.483a.578.578,0,0,1,.32.986l-2.4,2.342.567,3.307a.578.578,0,0,1-.839.61l-2.97-1.561-2.97,1.561a.578.578,0,0,1-.839-.61l.567-3.307-2.4-2.342a.578.578,0,0,1,.32-.986l3.321-.483,1.485-3.009a.578.578,0,0,1,1.037,0Z" fill="#ffb850"/>
        <path id="Trazado_879633" data-name="Trazado 879633" d="M24.625,19.964l2.4,2.343-.441,2.57-.408-.215-2.971,1.561a.578.578,0,0,1-.839-.609l.568-3.307-2.4-2.343a.578.578,0,0,1,.32-.986l3.321-.483,1.485-3.009a.578.578,0,0,1,1.037,0L28.182,18.5l.042.006-3.279.477A.578.578,0,0,0,24.625,19.964Z" fill="#f5a30f"/>
        <g id="Grupo_1102915" data-name="Grupo 1102915">
          <path id="Trazado_879634" data-name="Trazado 879634" d="M12.668,21.471a.767.767,0,0,0-1.533.054,15.049,15.049,0,0,0,.4,2.926,14.874,14.874,0,0,0,5.376,8.388A15.047,15.047,0,0,0,40.831,17.535a14.878,14.878,0,0,0-5.377-8.388,15,15,0,0,0-12.733-2.8A15.121,15.121,0,0,0,11.426,18a.767.767,0,1,0,1.5.307A13.506,13.506,0,0,1,34.51,10.356a13.358,13.358,0,0,1,4.828,7.531A13.51,13.51,0,0,1,17.85,31.631,13.355,13.355,0,0,1,13.023,24.1a13.531,13.531,0,0,1-.355-2.628Z"/>
          <path id="Trazado_879635" data-name="Trazado 879635" d="M32.613,11.027A11.871,11.871,0,0,0,14.625,23.721a11.72,11.72,0,0,0,4.238,6.612,11.813,11.813,0,0,0,10.044,2.215A11.872,11.872,0,0,0,35.3,13.39a.767.767,0,0,0-1.175.986,10.327,10.327,0,0,1,.846,12.049,10.348,10.348,0,0,1-8.792,4.909,10.414,10.414,0,0,1-6.372-2.211,10.341,10.341,0,0,1,4-18.193,10.265,10.265,0,0,1,7.976,1.386.767.767,0,1,0,.832-1.289Z"/>
          <path id="Trazado_879636" data-name="Trazado 879636" d="M45.742,21.014l1.4-5.218a.767.767,0,0,0-.2-.741l-3.817-3.825L41.738,6.008a.767.767,0,0,0-.542-.543l-5.218-1.4L32.161.236a.767.767,0,0,0-.741-.2L26.2,1.43,20.981.026a.767.767,0,0,0-.741.2L16.415,4.041,11.194,5.434a.767.767,0,0,0-.543.542l-1.4,5.218L5.422,15.011a.767.767,0,0,0-.2.741l1.393,5.221-1.4,5.218a.767.767,0,0,0,.2.741l3.817,3.825,1.393,5.221a.767.767,0,0,0,.542.543l2.032.547-5.885,10.2c-.337.834.089,1.26.863,1.124l4.6-1.233L14,51.754a.751.751,0,0,0,1.4.185L21.22,41.874l3.505-.936a.767.767,0,0,0-.4-1.482l-3.36.9L17.321,36.7a.767.767,0,0,0-.344-.2l-4.989-1.342-1.332-4.992a.767.767,0,0,0-.2-.344l-3.65-3.657,1.342-4.989a.767.767,0,0,0,0-.4L6.819,15.784l3.657-3.65a.767.767,0,0,0,.2-.344L12.017,6.8,17.009,5.47a.767.767,0,0,0,.344-.2l3.657-3.65L26,2.965a.768.768,0,0,0,.4,0l4.992-1.332,3.65,3.657a.767.767,0,0,0,.344.2L40.37,6.832,41.7,11.823a.767.767,0,0,0,.2.344l3.65,3.657-1.342,4.989a.767.767,0,0,0,0,.4L45.539,26.2l-3.657,3.65a.767.767,0,0,0-.2.344l-1.342,4.989-4.992,1.332a.767.767,0,0,0-.344.2l-3.657,3.65-3.278-.883a.767.767,0,0,0-.4,1.481l3.544.954L37,51.939a.746.746,0,0,0,1.405-.185l1.232-4.6,4.6,1.233c.825.187,1.2-.342.863-1.124L39.217,37.072l1.947-.52a.767.767,0,0,0,.543-.542l1.4-5.218,3.825-3.817a.767.767,0,0,0,.2-.741ZM16.909,38.455l-2.3,3.991a.767.767,0,1,0,1.328.767l2.1-3.634,1.738,1.742-4.762,8.248-.952-3.553a.767.767,0,0,0-.939-.542l-3.551.952,5.164-8.946,1.653.445Zm25.937,7.972-3.551-.952a.767.767,0,0,0-.939.542L37.4,49.568l-4.792-8.3,1.74-1.736,2.125,3.68c.644,1.016,1.891.208,1.328-.767l-2.329-4.034.467-.466,1.739-.464Z"/>
          <path id="Trazado_879637" data-name="Trazado 879637" d="M32.7,19.135a1.337,1.337,0,0,0-1.086-.916L28.692,17.8l-1.307-2.648a1.345,1.345,0,0,0-2.412,0L23.666,17.8l-2.922.425A1.345,1.345,0,0,0,20,20.514l2.114,2.061-.5,2.91A1.345,1.345,0,0,0,23.566,26.9l2.613-1.374L28.792,26.9a1.345,1.345,0,0,0,1.952-1.418l-.5-2.91,2.114-2.061A1.337,1.337,0,0,0,32.7,19.135Zm-3.814,2.623a.767.767,0,0,0-.221.679l.5,2.93-2.632-1.384a.767.767,0,0,0-.714,0l-2.632,1.384.5-2.93a.767.767,0,0,0-.221-.679l-2.129-2.075,2.942-.428a.767.767,0,0,0,.577-.42l1.316-2.666L27.5,18.836a.767.767,0,0,0,.577.42l2.942.428Z"/>
        </g>
      </g>
    </g>
  </g>
</svg>
