<svg xmlns="http://www.w3.org/2000/svg" xmlns:xlink="http://www.w3.org/1999/xlink" width="87.264" height="87.264" viewBox="0 0 87.264 87.264">
  <defs>
    <clipPath id="clip-path">
      <rect id="Rectángulo_403471" data-name="Rectángulo 403471" width="52.358" height="52.358" transform="translate(197.785 6306.452)" fill="#fff" stroke="#707070" stroke-width="1"/>
    </clipPath>
  </defs>
  <g id="Grupo_1102355" data-name="Grupo 1102355" transform="translate(-180.332 -6289)">
    <rect id="Rectángulo_400898" data-name="Rectángulo 400898" width="87.264" height="87.264" rx="43.632" transform="translate(180.332 6289)" fill="#fff" opacity="0.859"/>
    <g id="Rectángulo_400907" data-name="Rectángulo 400907" transform="translate(180.332 6289)" fill="none" stroke="#3b57de" stroke-linecap="round" stroke-width="2" stroke-dasharray="7">
      <rect width="87.264" height="87.264" rx="43.632" stroke="none"/>
      <rect x="1" y="1" width="85.264" height="85.264" rx="42.632" fill="none"/>
    </g>
    <g id="Enmascarar_grupo_1098826" data-name="Enmascarar grupo 1098826" clip-path="url(#clip-path)">
      <g id="low_quality" data-name="low quality" transform="translate(196.113 6304.776)">
        <g id="Grupo_1102917" data-name="Grupo 1102917">
          <g id="Grupo_1102916" data-name="Grupo 1102916">
            <path id="Trazado_879638" data-name="Trazado 879638" d="M47.041,24.8A6.708,6.708,0,0,1,44.606,32.3c-2.16,1.3-2.278,4.061-3.856,5.773a6.678,6.678,0,0,1-4.984,2.255c-2.124-.162-3.715,1.266-5.5,2.1a6.717,6.717,0,0,1-4.826,0c-1.785-.833-3.38-2.256-5.5-2.1a6.679,6.679,0,0,1-4.983-2.255c-1.577-1.712-1.7-4.47-3.856-5.773A6.742,6.742,0,0,1,8.323,26.87c-.044-1.426.712-2.729.654-4.172.057-1.414-.7-2.74-.654-4.149A6.773,6.773,0,0,1,11.1,13.115a6.8,6.8,0,0,0,2.458-3.36A6.708,6.708,0,0,1,19.936,5.11a6.778,6.778,0,0,0,3.969-1.285,6.7,6.7,0,0,1,7.892,0A6.778,6.778,0,0,0,35.766,5.11a6.708,6.708,0,0,1,6.381,4.644,6.8,6.8,0,0,0,2.458,3.361,6.773,6.773,0,0,1,2.774,5.435c-.116,2.081-1.165,4.163-.338,6.246Z" fill="#ee596b"/>
            <path id="Trazado_879639" data-name="Trazado 879639" d="M25.439,42.43,14.7,53.164l-1.827-5.57L7.286,45.767l7.667-7.69a6.678,6.678,0,0,0,4.984,2.255C22.059,40.175,23.653,41.6,25.439,42.43Z" fill="#ee596b"/>
            <path id="Trazado_879640" data-name="Trazado 879640" d="M48.417,45.767l-5.592,1.827L41,53.164,30.264,42.43c1.785-.834,3.38-2.255,5.5-2.1a6.679,6.679,0,0,0,4.983-2.255Z" fill="#ee596b"/>
          </g>
          <path id="Trazado_879641" data-name="Trazado 879641" d="M27.836,43.748c-2.929.275-5.059-2.624-7.843-2.547a7.783,7.783,0,0,1-7.3-5.27,5.882,5.882,0,0,0-2.047-2.88,7.66,7.66,0,0,1-3.194-6.18c-.069-1.434.685-2.769.655-4.137.032-1.449-.723-2.713-.655-4.212a7.621,7.621,0,0,1,3.131-6.109,5.906,5.906,0,0,0,2.145-2.933A7.565,7.565,0,0,1,19.937,4.24a5.932,5.932,0,0,0,3.458-1.12,7.6,7.6,0,0,1,8.918,0A5.934,5.934,0,0,0,35.766,4.24a7.566,7.566,0,0,1,7.209,5.247,5.9,5.9,0,0,0,2.142,2.924,7.636,7.636,0,0,1,3.133,6.139c-.067,2.008-1.122,4.051-.4,5.925a7.574,7.574,0,0,1-2.735,8.536c-2.017,1.272-2.094,3.972-3.725,5.657A7.539,7.539,0,0,1,35.766,41.2c-2.866-.094-4.969,2.831-7.93,2.545Zm-7.531-4.3c3.566.109,5.934,3.858,9.64,2.171,1.865-.907,3.484-2.31,5.887-2.154A5.784,5.784,0,0,0,40.1,37.5c1.569-1.83,1.672-4.523,4.058-5.94a5.808,5.808,0,0,0,2.067-6.465,7.935,7.935,0,0,1-.019-4.649,5.91,5.91,0,0,0-2.113-6.628,7.649,7.649,0,0,1-2.771-3.787A5.83,5.83,0,0,0,35.766,5.98a7.7,7.7,0,0,1-4.481-1.452,5.848,5.848,0,0,0-6.864,0A7.694,7.694,0,0,1,19.937,5.98a5.829,5.829,0,0,0-5.554,4.043,7.653,7.653,0,0,1-2.774,3.8,5.886,5.886,0,0,0-2.416,4.73c-.011,1.405.732,2.707.655,4.184.08,1.39-.667,2.77-.655,4.11A5.9,5.9,0,0,0,11.61,31.6a7.355,7.355,0,0,1,2.669,3.611A6.033,6.033,0,0,0,20.305,39.448Z"/>
          <path id="Trazado_879642" data-name="Trazado 879642" d="M41.539,22.713A13.688,13.688,0,0,1,27.851,36.4C9.694,35.68,9.7,9.744,27.851,9.025A13.688,13.688,0,0,1,41.539,22.713Z" fill="#f1f4f6"/>
          <path id="Trazado_879643" data-name="Trazado 879643" d="M27.851,37.271A14.279,14.279,0,0,1,13.365,22.712c.089-18.474,27.9-20.106,29.045,0A14.575,14.575,0,0,1,27.851,37.271Zm0-27.375A12.582,12.582,0,0,0,15.105,22.712c.076,16.2,24.535,17.769,25.564,0A12.832,12.832,0,0,0,27.851,9.9Z"/>
          <path id="Trazado_879644" data-name="Trazado 879644" d="M23.085,25.269h1.381a2.6,2.6,0,0,1,2.356,1.5l1.5,3.185a1.622,1.622,0,0,0,3.075-.687V26.176h2.028a2.341,2.341,0,0,0,2.341-2.341V19.448a2.341,2.341,0,0,0-2.341-2.341H27.609c-1.483-.109-2.2,1.634-3.682,1.525h-.842Z" fill="#ffddce"/>
          <path id="Trazado_879645" data-name="Trazado 879645" d="M29.738,31.725A2.384,2.384,0,0,1,27.523,30.3l-1.488-3.162a1.743,1.743,0,0,0-1.569-1c-.746-.047-2.234.3-2.252-.87V18.632a.87.87,0,0,1,.87-.87h.841c1.306-.069,2.087-1.741,3.747-1.523l5.751,0a3.216,3.216,0,0,1,3.213,3.212v4.387a3.216,3.216,0,0,1-3.213,3.212H32.266v2.215a2.449,2.449,0,0,1-2.528,2.464ZM23.955,24.4a3.611,3.611,0,0,1,3.655,1.995l1.5,3.185a.75.75,0,0,0,1.418-.291V26.176a.87.87,0,0,1,.87-.87h2.028A1.473,1.473,0,0,0,34.9,23.834V19.448a1.473,1.473,0,0,0-1.472-1.471H27.61c-1.251.06-2.095,1.673-3.655,1.528Z"/>
          <path id="Trazado_879646" data-name="Trazado 879646" d="M19.937,18v7.9c.01,1.158,1.61.757,2.326.822a.822.822,0,0,0,.822-.822V18a.822.822,0,0,0-.822-.822C21.546,17.245,19.949,16.839,19.937,18Z" fill="#ee596b"/>
          <path id="Trazado_879647" data-name="Trazado 879647" d="M21.228,27.61c-1.047.014-2.127-.365-2.162-1.7V18c.009-1.561,1.548-1.8,2.643-1.695A1.846,1.846,0,0,1,23.955,18v7.9c-.061,1.583-1.438,1.778-2.727,1.709Zm-.422-9.549V25.9a14.512,14.512,0,0,1,1.537-.044L22.214,18C21.952,18.133,21.164,17.968,20.807,18.061Z"/>
          <path id="Trazado_879648" data-name="Trazado 879648" d="M14.7,54.034a.875.875,0,0,1-.828-.6l-1.688-5.151-5.173-1.69a.87.87,0,0,1-.347-1.442l7.667-7.689A.88.88,0,0,1,15.6,37.5a5.805,5.805,0,0,0,4.333,1.963c2.354-.153,3.984,1.279,5.871,2.178a.877.877,0,0,1,.246,1.4L15.319,53.779a.871.871,0,0,1-.615.255ZM8.9,45.38l4.246,1.387a.871.871,0,0,1,.558.556l1.384,4.224,8.9-8.9A7.4,7.4,0,0,0,20,41.2a7.578,7.578,0,0,1-5.045-1.893Z"/>
          <path id="Trazado_879649" data-name="Trazado 879649" d="M41,54.034a.871.871,0,0,1-.615-.255L29.648,43.045c-.94-1.158.844-1.648,1.6-2.133a7.906,7.906,0,0,1,4.578-1.447A5.785,5.785,0,0,0,40.1,37.5a.878.878,0,0,1,1.268-.037l7.667,7.69a.87.87,0,0,1-.347,1.442l-5.173,1.69-1.688,5.151a.875.875,0,0,1-.828.6ZM31.715,42.651l8.9,8.9L42,47.323a.871.871,0,0,1,.558-.556L46.8,45.38l-6.053-6.072a7.526,7.526,0,0,1-4.981,1.9,7.358,7.358,0,0,0-4.051,1.448Z"/>
        </g>
      </g>
    </g>
  </g>
</svg>
