<svg id="farmaceutico_1_" data-name="farmaceutico (1)" xmlns="http://www.w3.org/2000/svg" width="71.711" height="71.711" viewBox="0 0 71.711 71.711">
  <path id="Trazado_877914" data-name="Trazado 877914" d="M352.291,79.42v24.146a2.493,2.493,0,0,1-2.493,2.493H335.175a2.493,2.493,0,0,1-2.493-2.493V98.795a.666.666,0,0,0-.607-.663l-4.183-.37a.429.429,0,0,1-.224-.766l4.755-3.668a.666.666,0,0,0,.259-.527V79.42a2.493,2.493,0,0,1,2.493-2.493H349.8A2.493,2.493,0,0,1,352.291,79.42Z" transform="translate(-281.631 -66.153)" fill="#60b7ff"/>
  <path id="Trazado_877915" data-name="Trazado 877915" d="M460.9,76.926h-4.2a2.493,2.493,0,0,1,2.493,2.493v24.146a2.493,2.493,0,0,1-2.493,2.493h4.2a2.493,2.493,0,0,0,2.493-2.493V79.419A2.493,2.493,0,0,0,460.9,76.926Z" transform="translate(-392.733 -66.152)" fill="#26a6fe"/>
  <g id="Grupo_1102177" data-name="Grupo 1102177" transform="translate(1.317 23.56)">
    <path id="Trazado_877916" data-name="Trazado 877916" d="M27.9,175.961c0,5.341-10.744,11.118-18.134,6.805a.713.713,0,0,1-.26-.978c2.46-4.137,1.848-7.617,4.593-11.789C17.114,165.409,27.9,170.467,27.9,175.961Z" transform="translate(-9.403 -168.21)" fill="#e19974"/>
    <path id="Trazado_877917" data-name="Trazado 877917" d="M176.424,175.961c0,5.341,10.744,11.118,18.134,6.805a.713.713,0,0,0,.26-.978c-2.46-4.137-1.848-7.617-4.593-11.789C187.206,165.409,176.424,170.467,176.424,175.961Z" transform="translate(-153.031 -168.21)" fill="#e19974"/>
  </g>
  <path id="Trazado_877918" data-name="Trazado 877918" d="M45.6,362.806H11.422A3.922,3.922,0,0,1,7.5,358.884v-9.541a9.616,9.616,0,0,1,9.616-9.616H39.9a9.616,9.616,0,0,1,9.616,9.616v9.541A3.922,3.922,0,0,1,45.6,362.806Z" transform="translate(-6.45 -292.146)" fill="#f9f3f1"/>
  <path id="Trazado_877919" data-name="Trazado 877919" d="M213.049,339.729h-4.2a9.616,9.616,0,0,1,9.616,9.616v9.54a3.922,3.922,0,0,1-3.922,3.922h4.2a3.922,3.922,0,0,0,3.922-3.922v-9.541A9.616,9.616,0,0,0,213.049,339.729Z" transform="translate(-179.596 -292.146)" fill="#f3eae6"/>
  <rect id="Rect치ngulo_403436" data-name="Rect치ngulo 403436" width="8.404" height="9.824" transform="translate(17.858 37.758)" fill="#ffcebf"/>
  <rect id="Rect치ngulo_403437" data-name="Rect치ngulo 403437" width="4.202" height="9.824" transform="translate(22.06 37.758)" fill="#ffb09e"/>
  <circle id="Elipse_11609" data-name="Elipse 11609" cx="2.312" cy="2.312" r="2.312" transform="translate(19.978 53.971)" fill="#fd8087"/>
  <circle id="Elipse_11610" data-name="Elipse 11610" cx="2.312" cy="2.312" r="2.312" transform="translate(19.978 62.563)" fill="#fd8087"/>
  <path id="Trazado_877920" data-name="Trazado 877920" d="M421.015,116.963l-5.744-5.744,2.08-2.08a4.062,4.062,0,0,1,5.744,0h0a4.062,4.062,0,0,1,0,5.744Z" transform="translate(-357.108 -92.83)" fill="#fe646f"/>
  <path id="Trazado_877921" data-name="Trazado 877921" d="M440.6,109.142h0a4.063,4.063,0,0,0-4.973-.6,4.071,4.071,0,0,1,.771.6h0a4.061,4.061,0,0,1,.021,5.723l2.1,2.1,2.08-2.08A4.062,4.062,0,0,0,440.6,109.142Z" transform="translate(-374.612 -92.833)" fill="#fd4755"/>
  <path id="Trazado_877922" data-name="Trazado 877922" d="M393.117,139.116h0a4.062,4.062,0,0,1,0-5.744l2.08-2.08,5.744,5.744-2.08,2.08A4.062,4.062,0,0,1,393.117,139.116Z" transform="translate(-337.034 -112.903)" fill="#f9f3f1"/>
  <path id="Trazado_877923" data-name="Trazado 877923" d="M410.879,157.3l-4.18,4.181a4.073,4.073,0,0,1-.771.6,4.063,4.063,0,0,0,4.973-.6l2.08-2.08Z" transform="translate(-349.073 -135.268)" fill="#f3eae6"/>
  <path id="Trazado_877924" data-name="Trazado 877924" d="M26.256,137.292c0,3.064-1.874,5.548-4.186,5.548s-3.655-2.853-3.655-5.917,1.343-5.18,3.655-5.18S26.256,134.227,26.256,137.292Z" transform="translate(-15.837 -113.291)" fill="#ffb09e"/>
  <path id="Trazado_877925" data-name="Trazado 877925" d="M240.606,137.292c0,3.064,1.874,5.548,4.186,5.548s3.655-2.853,3.655-5.917-1.343-5.18-3.655-5.18S240.606,134.227,240.606,137.292Z" transform="translate(-206.907 -113.291)" fill="#ffb09e"/>
  <path id="Trazado_877926" data-name="Trazado 877926" d="M61.046,54.547V45.354A13.509,13.509,0,0,1,74.555,31.845h0A13.509,13.509,0,0,1,88.065,45.354V54.5A13.535,13.535,0,0,1,74.53,68.031h0A13.484,13.484,0,0,1,61.046,54.547Z" transform="translate(-52.496 -27.385)" fill="#ffcebf"/>
  <path id="Trazado_877927" data-name="Trazado 877927" d="M144.458,31.844h0a13.614,13.614,0,0,0-2.1.163,13.513,13.513,0,0,1,11.409,13.347V54.5a13.538,13.538,0,0,1-11.432,13.372,13.587,13.587,0,0,0,2.1.163h0A13.535,13.535,0,0,0,157.968,54.5V45.354A13.509,13.509,0,0,0,144.458,31.844Z" transform="translate(-122.399 -27.384)" fill="#ffb09e"/>
  <path id="Trazado_877928" data-name="Trazado 877928" d="M157.5,317.294l3.758-3.466a.711.711,0,0,1,.919-.038l4.012,3.13a.547.547,0,0,1,.057.812l-3.732,3.867a.711.711,0,0,1-1.033-.01Z" transform="translate(-135.44 -269.711)" fill="#fe646f"/>
  <path id="Trazado_877929" data-name="Trazado 877929" d="M102.858,317.294,99.1,313.828a.711.711,0,0,0-.919-.038l-4.012,3.13a.547.547,0,0,0-.057.812l3.732,3.867a.711.711,0,0,0,1.033-.01Z" transform="translate(-80.798 -269.711)" fill="#fe646f"/>
  <path id="Trazado_877930" data-name="Trazado 877930" d="M80.078,27.7a2.129,2.129,0,0,1-2.3-1.076c-1.092-1.487-.057-7.9-4.352-6.461a19.727,19.727,0,0,1-13.719,0c-4.294-1.435-3.47,4.458-4.561,5.945A3.455,3.455,0,0,1,53.059,27.7S45.559,7.5,66.568,7.5,80.078,27.7,80.078,27.7Z" transform="translate(-44.508 -6.45)" fill="#e8ad8c"/>
  <g id="Grupo_1102178" data-name="Grupo 1102178" transform="translate(19.959 1.05)">
    <path id="Trazado_877931" data-name="Trazado 877931" d="M144.6,7.5c-.735,0-1.434.026-2.1.073,12.463.892,13.275,9.819,12.5,15.481.267,1.427.347,2.942.811,3.572a2.129,2.129,0,0,0,2.3,1.076S165.61,7.5,144.6,7.5Z" transform="translate(-142.5 -7.5)" fill="#e19974"/>
  </g>
  <path id="Trazado_877932" data-name="Trazado 877932" d="M71.227,64.031s-.272-6.584-6.805-6.584c-6.3,0-13.512,4.441-10.495,17.2a.763.763,0,0,0,1.329.313C57.7,72.035,64.5,64.614,71.227,64.031Z" transform="translate(-45.765 -49.401)" fill="#e19974"/>
  <path id="Trazado_877933" data-name="Trazado 877933" d="M53.4,440.922H46.2a.742.742,0,0,1-.742-.742v-2.438A.742.742,0,0,1,46.2,437h7.2a.742.742,0,0,1,.742.742v2.438A.742.742,0,0,1,53.4,440.922Z" transform="translate(-39.091 -375.794)" fill="#60b7ff"/>
  <path id="Trazado_877934" data-name="Trazado 877934" d="M76.366,437h-4.2a.742.742,0,0,1,.742.742v2.438a.742.742,0,0,1-.742.742h4.2a.742.742,0,0,0,.742-.742v-2.438A.742.742,0,0,0,76.366,437Z" transform="translate(-62.057 -375.794)" fill="#26a6fe"/>
  <path id="Trazado_877935" data-name="Trazado 877935" d="M218.776,440.922h-7.2a.742.742,0,0,1-.742-.742v-2.438a.742.742,0,0,1,.742-.742h7.2a.742.742,0,0,1,.742.742v2.438A.742.742,0,0,1,218.776,440.922Z" transform="translate(-181.304 -375.794)" fill="#60b7ff"/>
  <path id="Trazado_877936" data-name="Trazado 877936" d="M241.741,437h-4.2a.742.742,0,0,1,.742.742v2.438a.742.742,0,0,1-.742.742h4.2a.742.742,0,0,0,.742-.742v-2.438A.742.742,0,0,0,241.741,437Z" transform="translate(-204.269 -375.794)" fill="#26a6fe"/>
  <g id="Grupo_1102179" data-name="Grupo 1102179" transform="translate(0)">
    <path id="Trazado_877937" data-name="Trazado 877937" d="M397.329,101.946a5.113,5.113,0,0,0-7.23,0l-2.08,2.08h0l-2.078,2.078a5.112,5.112,0,0,0,7.23,7.23l2.08-2.08,2.08-2.08A5.119,5.119,0,0,0,397.329,101.946Zm-7.775,10.786a3.011,3.011,0,0,1-2.129-5.141l1.337-1.337,4.259,4.259-1.337,1.337A2.991,2.991,0,0,1,389.554,112.732Zm6.289-5.042-1.337,1.337-4.258-4.259,1.337-1.337a3.011,3.011,0,1,1,4.258,4.259Z" transform="translate(-330.599 -86.38)"/>
    <path id="Trazado_877938" data-name="Trazado 877938" d="M42,31.251c-.22-.846-.447-1.718-.747-2.61a9.272,9.272,0,0,0,1.338-5.009c0-3.785-1.847-6.23-4.705-6.23-.092,0-.183,0-.274.01.551-3.371.648-8.134-1.952-11.873C33.1,1.863,28.528,0,22.06,0,16.11,0,11.751,1.583,9.1,4.7c-3.226,3.8-3.189,9-2.584,12.708-.094-.006-.188-.011-.283-.011-2.858,0-4.705,2.445-4.705,6.23a8.9,8.9,0,0,0,1.617,5.391c-.24.759-.437,1.5-.625,2.229A19.05,19.05,0,0,1,.512,36.6a1.74,1.74,0,0,0-.19,1.335,1.76,1.76,0,0,0,.823,1.087,12.635,12.635,0,0,0,6.392,1.649A16.084,16.084,0,0,0,14,39.267a14.513,14.513,0,0,0,2.809,1.457V43.2c-.024.017-.048.032-.071.051l-4.011,3.13a1.583,1.583,0,0,0-.166.152H10.666A10.678,10.678,0,0,0,0,57.2v9.541a4.978,4.978,0,0,0,4.972,4.972H7.245a1.05,1.05,0,1,0,0-2.1H4.972A2.874,2.874,0,0,1,2.1,66.739V57.2a8.575,8.575,0,0,1,8.565-8.565h1.79c.032.04.065.079.1.117l3.732,3.867a1.768,1.768,0,0,0,1.267.538h.017a1.769,1.769,0,0,0,1.274-.564l3.211-3.463,3.212,3.464a1.769,1.769,0,0,0,1.274.563h.017a1.769,1.769,0,0,0,1.267-.538l3.732-3.867c.036-.037.069-.076.1-.117h1.79A8.575,8.575,0,0,1,42.018,57.2v9.541a2.874,2.874,0,0,1-2.871,2.871H12.3a1.05,1.05,0,1,0,0,2.1H39.147a4.978,4.978,0,0,0,4.972-4.972V57.2A10.678,10.678,0,0,0,33.453,46.532H31.56a1.576,1.576,0,0,0-.166-.152l-4.012-3.13c-.023-.018-.047-.034-.071-.051V40.708a14.565,14.565,0,0,0,2.949-1.56,16.075,16.075,0,0,0,6.719,1.534,12.628,12.628,0,0,0,6.394-1.659,1.761,1.761,0,0,0,.823-1.087,1.741,1.741,0,0,0-.19-1.335A19.046,19.046,0,0,1,42,31.251ZM37.885,19.5c1.92,0,2.6,2.133,2.6,4.129,0,2.392-.974,4.867-2.6,4.867a2.307,2.307,0,0,1-1.3-.416c.021-.321.033-.645.033-.971V21.437c.1-.3.311-.935.531-1.805A2.183,2.183,0,0,1,37.885,19.5ZM22.034,39.6A12.448,12.448,0,0,1,9.6,27.162v-.417a1.81,1.81,0,0,0,.7-.513,47.8,47.8,0,0,1,5.428-5.518,4.8,4.8,0,0,1,2.665.1,1.05,1.05,0,1,0,.531-2.033c-.186-.049-.363-.091-.534-.128a15.574,15.574,0,0,1,7.162-2.979l.046-.006.061-.008h0a27.78,27.78,0,0,0,3.594-.95,1.561,1.561,0,0,1,1.267-.039c.67.412.915,2.07,1.094,3.28a6.625,6.625,0,0,0,.811,2.846,3.637,3.637,0,0,0,2.094,1.482v4.83A12.5,12.5,0,0,1,22.034,39.6ZM14.72,18.8a1.046,1.046,0,0,0-.613.522,49.3,49.3,0,0,0-5.049,5.121c-1.089-5.043-.545-9.117,1.584-11.808A10.045,10.045,0,0,1,18.657,9.1a5.17,5.17,0,0,1,4.9,2.681,7.317,7.317,0,0,1,.718,1.956C20.849,14.364,17.507,16.48,14.72,18.8ZM10.7,6.064C12.935,3.434,16.756,2.1,22.06,2.1c5.736,0,9.73,1.558,11.871,4.63,3.16,4.535,1.54,11.255.886,13.441a1.826,1.826,0,0,1-.7-.617,7.187,7.187,0,0,1-.426-1.909c-.253-1.71-.568-3.838-2.073-4.763a3.492,3.492,0,0,0-3.032-.163c-.762.255-1.513.47-2.246.646a9.5,9.5,0,0,0-.906-2.525A7.193,7.193,0,0,0,18.657,7a12.125,12.125,0,0,0-9.663,4.338,10.545,10.545,0,0,0-.637.9A10.761,10.761,0,0,1,10.7,6.064ZM6.234,19.5c.06,0,.12,0,.179.008a24.78,24.78,0,0,0,.726,5.979,1.815,1.815,0,0,0,.36.73v.943c0,.31.011.618.03.924a2.3,2.3,0,0,1-1.3.413c-1.63,0-2.6-2.474-2.6-4.867C3.63,21.636,4.314,19.5,6.234,19.5ZM2.495,37.371a21.639,21.639,0,0,0,2.06-5.59c.125-.481.248-.947.379-1.41a3.711,3.711,0,0,0,1.3.23,4.3,4.3,0,0,0,1.6-.313A14.535,14.535,0,0,0,12.1,37.762,11.961,11.961,0,0,1,2.495,37.371ZM17.552,50.9l-3.094-3.206L17.8,45.084l2.772,2.556Zm12.11-3.206L26.567,50.9l-3.021-3.258,2.772-2.556Zm-4.451-4.437c-.036.028-.071.057-.105.089L22.06,46.154l-3.046-2.809c-.034-.031-.069-.06-.105-.089v-1.9a14.588,14.588,0,0,0,6.3-.01Zm6.9-5.606a14.585,14.585,0,0,0,4.164-7.37,4.306,4.306,0,0,0,1.613.319,3.669,3.669,0,0,0,1.657-.385c.149.514.284,1.032.423,1.566a21.639,21.639,0,0,0,2.06,5.591A11.97,11.97,0,0,1,32.107,37.65Z" transform="translate(0)"/>
    <path id="Trazado_877939" data-name="Trazado 877939" d="M144.784,216.262a3.813,3.813,0,0,0,2.212,0,1.05,1.05,0,0,0-.531-2.033,1.776,1.776,0,0,1-1.15,0,1.05,1.05,0,0,0-.531,2.033Z" transform="translate(-123.83 -184.195)"/>
    <path id="Trazado_877940" data-name="Trazado 877940" d="M179.223,132.2a7.064,7.064,0,0,0-4.146,0,1.05,1.05,0,1,0,.531,2.033,4.965,4.965,0,0,1,3.085,0,1.05,1.05,0,0,0,.531-2.033Z" transform="translate(-149.881 -113.42)"/>
    <path id="Trazado_877941" data-name="Trazado 877941" d="M136.969,239.267a4.409,4.409,0,0,1-4.258,0,1.05,1.05,0,1,0-1.022,1.836,6.524,6.524,0,0,0,6.3,0,1.05,1.05,0,0,0-1.022-1.836Z" transform="translate(-112.78 -205.641)"/>
    <path id="Trazado_877942" data-name="Trazado 877942" d="M109.05,174.833a1.05,1.05,0,0,0-1.05,1.05v.84a1.05,1.05,0,1,0,2.1,0v-.84A1.05,1.05,0,0,0,109.05,174.833Z" transform="translate(-92.873 -150.346)"/>
    <path id="Trazado_877943" data-name="Trazado 877943" d="M193.05,174.833a1.05,1.05,0,0,0-1.05,1.05v.84a1.05,1.05,0,1,0,2.1,0v-.84A1.05,1.05,0,0,0,193.05,174.833Z" transform="translate(-165.108 -150.346)"/>
    <path id="Trazado_877944" data-name="Trazado 877944" d="M345.838,85.738a1.05,1.05,0,0,0,1.05-1.05V72.971a3.548,3.548,0,0,0-3.544-3.544H328.721a3.548,3.548,0,0,0-3.544,3.544V86.16l-4.605,3.553a1.479,1.479,0,0,0,.773,2.644l3.832.34v4.419a3.548,3.548,0,0,0,3.544,3.544h14.623a3.548,3.548,0,0,0,3.544-3.544V89.794a1.05,1.05,0,0,0-2.1,0v7.322a1.445,1.445,0,0,1-1.443,1.443H328.721a1.445,1.445,0,0,1-1.443-1.443V92.345a1.707,1.707,0,0,0-1.565-1.71l-2.6-.23,3.5-2.7a1.728,1.728,0,0,0,.668-1.359V72.971a1.444,1.444,0,0,1,1.443-1.443h14.623a1.444,1.444,0,0,1,1.443,1.443V84.687A1.05,1.05,0,0,0,345.838,85.738Z" transform="translate(-275.177 -59.703)"/>
    <path id="Trazado_877945" data-name="Trazado 877945" d="M138.5,384.566a3.363,3.363,0,1,0-3.363-3.363A3.367,3.367,0,0,0,138.5,384.566Zm0-4.625a1.262,1.262,0,1,1-1.262,1.262A1.263,1.263,0,0,1,138.5,379.942Z" transform="translate(-116.21 -324.92)"/>
    <path id="Trazado_877946" data-name="Trazado 877946" d="M138.5,445.909a3.363,3.363,0,1,0-3.363-3.363A3.367,3.367,0,0,0,138.5,445.909Zm0-4.625a1.262,1.262,0,1,1-1.262,1.262A1.263,1.263,0,0,1,138.5,441.285Z" transform="translate(-116.21 -377.672)"/>
    <path id="Trazado_877947" data-name="Trazado 877947" d="M388.47,217.857h6.258a1.05,1.05,0,0,0,0-2.1H388.47a1.05,1.05,0,0,0,0,2.1Z" transform="translate(-333.158 -185.537)"/>
    <path id="Trazado_877948" data-name="Trazado 877948" d="M388.47,241.452h11.406a1.05,1.05,0,0,0,0-2.1H388.47a1.05,1.05,0,0,0,0,2.1Z" transform="translate(-333.158 -205.827)"/>
    <path id="Trazado_877949" data-name="Trazado 877949" d="M48.743,433.73v-2.438a1.794,1.794,0,0,0-1.792-1.792h-7.2a1.794,1.794,0,0,0-1.792,1.792v2.438a1.794,1.794,0,0,0,1.792,1.792h7.2A1.794,1.794,0,0,0,48.743,433.73Zm-2.1-.309H40.059V431.6h6.583Z" transform="translate(-32.642 -369.344)"/>
    <path id="Trazado_877950" data-name="Trazado 877950" d="M212.326,435.523a1.794,1.794,0,0,0,1.792-1.792v-2.438a1.794,1.794,0,0,0-1.792-1.792h-7.2a1.794,1.794,0,0,0-1.792,1.792v2.438a1.794,1.794,0,0,0,1.792,1.792Zm-6.892-3.922h6.583v1.821h-6.583V431.6Z" transform="translate(-174.854 -369.344)"/>
  </g>
</svg>
