<svg xmlns="http://www.w3.org/2000/svg" xmlns:xlink="http://www.w3.org/1999/xlink" width="65" height="40" viewBox="0 0 65 40">
  <defs>
    <clipPath id="clip-path">
      <rect id="Rect치ngulo_403223" data-name="Rect치ngulo 403223" width="33" height="35" transform="translate(195.668 835)" fill="#fff" stroke="#707070" stroke-width="1"/>
    </clipPath>
  </defs>
  <g id="Grupo_1103078" data-name="Grupo 1103078" transform="translate(-180 -538)">
    <rect id="Rect치ngulo_402006" data-name="Rect치ngulo 402006" width="65" height="40" rx="20" transform="translate(180 538)" fill="#3b57de"/>
    <g id="Enmascarar_grupo_1098761" data-name="Enmascarar grupo 1098761" transform="translate(0.332 -294)" clip-path="url(#clip-path)">
      <g id="farmaceutico" transform="translate(195.639 835.971)">
        <path id="Trazado_877281" data-name="Trazado 877281" d="M1.536,27.059a.484.484,0,0,0-.651.21,7.846,7.846,0,0,0-.857,3.555v1.737a.484.484,0,1,0,.967,0V30.825a6.874,6.874,0,0,1,.751-3.115.483.483,0,0,0-.21-.651Z" fill="#fff"/>
        <path id="Trazado_877282" data-name="Trazado 877282" d="M30.822,19.2a.484.484,0,0,0-.708.659,7.263,7.263,0,1,1-1.492-1.229.484.484,0,0,0,.51-.821,8.242,8.242,0,0,0-12.05,4.08l-.316-.155a.934.934,0,0,0-.975.087V20.091A6.793,6.793,0,0,0,18.2,16.369h.02a2.222,2.222,0,0,0,1.251-4.058l1.16-4.7a3.294,3.294,0,0,0-2.857-4.066A5.141,5.141,0,0,0,12.9,0H11.351A6.653,6.653,0,0,0,9.533.253,7.522,7.522,0,0,0,6.653,1.8a.484.484,0,1,0,.632.732A6.563,6.563,0,0,1,9.8,1.183,5.682,5.682,0,0,1,11.351.967H12.9a4.17,4.17,0,0,1,4.165,4.165,1.192,1.192,0,0,1-.184.636l-.186.295L16.585,6,15.15,5.21a.626.626,0,0,0-.741.105l-1.03,1.03a.119.119,0,0,1-.083.034H8.681a2.7,2.7,0,0,0-2.7,2.695v2.861q-.057.006-.113.015L5.178,9.137a6.563,6.563,0,0,1,.846-5.146.484.484,0,1,0-.815-.52,7.521,7.521,0,0,0-.97,5.9l.726,2.942a2.221,2.221,0,0,0,1.212,4.057A6.8,6.8,0,0,0,8.6,20.109v1.634a.944.944,0,0,0-.842-.006L5.387,22.9a.94.94,0,0,0-.516.7,7.763,7.763,0,0,0-2.61,1.759.484.484,0,0,0,.691.677,6.793,6.793,0,0,1,1.962-1.4l.239,3.817a.484.484,0,0,0,.368.44l1.01.246.779,3.54a.484.484,0,1,0,.944-.208L7.41,28.636a.484.484,0,0,0-.358-.366l-.957-.233-.267-4.276L8.15,22.62l1.172,10a.484.484,0,1,0,.961-.113l-.788-6.725a5.892,5.892,0,0,0,5.531,0l-.788,6.725a.484.484,0,1,0,.961.113l1.172-10,.419.206a8.239,8.239,0,0,0,.543,5.5.483.483,0,0,0-.222.309l-.844,3.834a.484.484,0,1,0,.944.208l.724-3.289A8.24,8.24,0,1,0,30.822,19.2ZM18.37,15.392c.02-.211.031-.423.031-.638V12.9a1.254,1.254,0,0,1-.031,2.487Zm.9-10A2.314,2.314,0,0,1,19.7,7.381l-1.128,4.57c-.055-.009-.111-.015-.168-.019V9.075a3.509,3.509,0,0,0-.949-2.4l.246-.39a2.158,2.158,0,0,0,.332-1.152A5.154,5.154,0,0,0,18,4.564a2.312,2.312,0,0,1,1.272.824ZM4.962,14.146a1.257,1.257,0,0,1,1.024-1.233v1.861c0,.2.01.408.029.61A1.256,1.256,0,0,1,4.962,14.146Zm1.991.628v-5.7A1.73,1.73,0,0,1,8.681,7.347H13.3a1.077,1.077,0,0,0,.767-.318l.847-.847,1.208.665a2.542,2.542,0,0,1,1.316,2.227v5.68a5.808,5.808,0,0,1-3.859,5.464l-.048.017a4.081,4.081,0,0,1-2.738-.006,5.812,5.812,0,0,1-3.837-5.456Zm2.4,9.781-.195-1.66.021-.008a.618.618,0,0,0,.386-.574V20.739a6.728,6.728,0,0,0,.9.4,5.051,5.051,0,0,0,3.388.007l.048-.017a6.733,6.733,0,0,0,.926-.41v1.592a.618.618,0,0,0,.386.574l.148.06-.189,1.609a4.942,4.942,0,0,1-5.818,0Z" fill="#fff"/>
        <path id="Trazado_877283" data-name="Trazado 877283" d="M11.774,11.962h.757a2.17,2.17,0,1,0,.227-.967H11.546a2.167,2.167,0,1,0,.227.967Zm2.925-1.2a1.2,1.2,0,1,1-1.2,1.2,1.2,1.2,0,0,1,1.2-1.2ZM8.4,11.959a1.2,1.2,0,1,1,1.2,1.2A1.2,1.2,0,0,1,8.4,11.959Z" fill="#fff"/>
        <path id="Trazado_877284" data-name="Trazado 877284" d="M25.443,20.531,20.5,25.472a2.567,2.567,0,1,0,3.63,3.63l4.941-4.941a2.567,2.567,0,0,0-3.63-3.63Zm-1.994,7.887a1.6,1.6,0,0,1-2.263-2.263l2.128-2.128,2.263,2.263Zm4.941-4.941-2.128,2.128L24,23.343l2.128-2.128a1.6,1.6,0,1,1,2.263,2.263Z" fill="#fff"/>
      </g>
    </g>
  </g>
</svg>
