<svg xmlns="http://www.w3.org/2000/svg" xmlns:xlink="http://www.w3.org/1999/xlink" width="85" height="85" viewBox="0 0 85 85">
  <defs>
    <clipPath id="clip-path">
      <rect id="Rect치ngulo_403487" data-name="Rect치ngulo 403487" width="61" height="61" transform="translate(191.571 416)" fill="#c2f1ce"/>
    </clipPath>
    <clipPath id="clip-path-2">
      <path id="path4263" d="M0-61H61V0H0Z"/>
    </clipPath>
  </defs>
  <g id="Grupo_1102276" data-name="Grupo 1102276" transform="translate(-179.571 -404)">
    <rect id="Rect치ngulo_403486" data-name="Rect치ngulo 403486" width="85" height="85" rx="42.5" transform="translate(179.571 404)" fill="#00cbda"/>
    <g id="Enmascarar_grupo_1098800" data-name="Enmascarar grupo 1098800" clip-path="url(#clip-path)">
      <g id="g4257" transform="translate(191.571 477)">
        <g id="g4259">
          <g id="g4261" clip-path="url(#clip-path-2)">
            <g id="g4267" transform="translate(25.088 -5.513)">
              <path id="path4269" d="M0,0-4.66-.956l-2.7,2.793-9.192-7.255,6.13-4.183L-3.9-16.734a2.453,2.453,0,0,1,3.886.347L7.709-7.53A2.846,2.846,0,0,1,7.02-3.213L2.471-.5A4.235,4.235,0,0,1,0,0" fill="#ffe7cf"/>
            </g>
            <g id="g4271" transform="translate(32.798 -13.043)">
              <path id="path4273" d="M0,0-1.884-2.161-9.743,2.522a4.236,4.236,0,0,1-2.471.5l-4.081-.44L-19.82,5.614l4.755,3.753,2.7-2.793,4.66.955a4.235,4.235,0,0,0,2.471-.5l4.55-2.709A2.846,2.846,0,0,0,0,0" fill="#efd5bd"/>
            </g>
            <g id="g4275" transform="translate(32.571 -12.854)">
              <path id="path4277" d="M0,0C-.91-1.412-2.018-.7-2.928-2.109s.2-2.126-.711-3.537-2.018-.7-2.928-2.109.2-2.126-.712-3.538c-.556-.863-1.564-2.644-2.177-2.889l-4.911,2.426L-5.822,1.725a2.787,2.787,0,0,0,3.852.832L-.334,1.5A1.087,1.087,0,0,0,.008.012L0,0" fill="#344a5d"/>
            </g>
            <g id="g4279" transform="translate(18.444 -22.522)">
              <path id="path4281" d="M0,0-3.858,2.38A1.558,1.558,0,0,1-6,1.873L-8.182-1.662a1.558,1.558,0,0,1,.508-2.143l3.858-2.38a.964.964,0,0,1,1.326.314l2.8,4.545A.964.964,0,0,1,0,0" fill="#344a5d"/>
            </g>
            <g id="g4283" transform="translate(20.811 -35.149)">
              <path id="path4285" d="M0,0-7.831,4.832a2.192,2.192,0,0,0-.715,3.017l3.862,6.258a2.192,2.192,0,0,0,3.017.715L6.164,9.99,30.932,4.6l-15-24.318Z" fill="#fed066"/>
            </g>
            <g id="g4287" transform="translate(48.208 -36.28)">
              <path id="path4289" d="M0,0-24.64,5.6l-9.7,5.983,2.256,3.656a2.192,2.192,0,0,0,3.017.715l7.831-4.832L3.535,5.73Z" fill="#f5b556"/>
            </g>
            <g id="g4291" transform="translate(26.975 -25.159)">
              <path id="path4293" d="M0,0-7.831,4.832a2.192,2.192,0,0,1-3.017-.715L-14.71-2.141a2.192,2.192,0,0,1,.715-3.017L-6.164-9.99Z" fill="#fd715c"/>
            </g>
            <g id="g4295" transform="translate(23.568 -30.681)">
              <path id="path4297" d="M0,0H0L-9.7,5.983l2.256,3.656a2.192,2.192,0,0,0,3.017.715L-.508,7.938,3.407,5.522Z" fill="#d83e3a"/>
            </g>
            <g id="g4299" transform="translate(53.23 -28.823)">
              <path id="path4301" d="M0,0-1.069.66A1.179,1.179,0,0,1-2.691.275l-16.13-26.142a1.179,1.179,0,0,1,.384-1.622l1.069-.66a1.179,1.179,0,0,1,1.622.384L.384-1.622A1.179,1.179,0,0,1,0,0" fill="#fd715c"/>
            </g>
            <g id="g4303" transform="translate(53.614 -30.445)">
              <path id="path4305" d="M0,0-2.654-4.3-5.729-2.4l2.654,4.3a1.179,1.179,0,0,0,1.622.384l1.069-.66A1.179,1.179,0,0,0,0,0" fill="#d83e3a"/>
            </g>
            <g id="g4307" transform="translate(30.14 -9.295)">
              <path id="path4309" d="M0,0H0A2.024,2.024,0,0,0,2.783.672l2.951-1.8a2.024,2.024,0,0,0,.672-2.782,2.024,2.024,0,0,0-2.783-.672L.672-2.782A2.024,2.024,0,0,0,0,0" fill="#ffe7cf"/>
            </g>
            <g id="g4311" transform="translate(36.547 -13.209)">
              <path id="path4313" d="M0,0H0A2.014,2.014,0,0,0-.986-.826a2.024,2.024,0,0,1-.95,2l-2.951,1.8a2.019,2.019,0,0,1-1.8.154,2.017,2.017,0,0,0,.278.784,2.024,2.024,0,0,0,2.783.672l2.951-1.8A2.024,2.024,0,0,0,0,0" fill="#efd5bd"/>
            </g>
            <g id="g4315" transform="translate(28.876 -13.279)">
              <path id="path4317" d="M0,0H0A2.055,2.055,0,0,0,2.825.682l2.9-1.772a2.055,2.055,0,0,0,.682-2.824A2.055,2.055,0,0,0,3.581-4.6L.682-2.824A2.055,2.055,0,0,0,0,0" fill="#ffe7cf"/>
            </g>
            <g id="g4319" transform="translate(35.283 -17.193)">
              <path id="path4321" d="M0,0H0A2.044,2.044,0,0,0-.967-.825a2.054,2.054,0,0,1-.966,2.012l-2.9,1.772A2.05,2.05,0,0,1-6.69,3.1a2.046,2.046,0,0,0,.284.812A2.055,2.055,0,0,0-3.581,4.6l2.9-1.772A2.055,2.055,0,0,0,0,0" fill="#efd5bd"/>
            </g>
            <g id="g4323" transform="translate(26.715 -16.763)">
              <path id="path4325" d="M0,0H0A2.055,2.055,0,0,0,2.825.682l2.9-1.772a2.055,2.055,0,0,0,.682-2.824A2.055,2.055,0,0,0,3.581-4.6L.682-2.824A2.055,2.055,0,0,0,0,0" fill="#ffe7cf"/>
            </g>
            <g id="g4327" transform="translate(33.122 -20.677)">
              <path id="path4329" d="M0,0A2.043,2.043,0,0,0-.943-.815a2.053,2.053,0,0,1-.969,1.982l-2.9,1.772a2.051,2.051,0,0,1-1.882.133,2.043,2.043,0,0,0,.287.842A2.055,2.055,0,0,0-3.581,4.6l2.9-1.772A2.055,2.055,0,0,0,0,0" fill="#efd5bd"/>
            </g>
            <g id="g4331" transform="translate(24.679 -20.336)">
              <path id="path4333" d="M0,0H0A2.055,2.055,0,0,0,2.825.682l2.9-1.772a2.055,2.055,0,0,0,.682-2.824A2.055,2.055,0,0,0,3.581-4.6L.682-2.824A2.055,2.055,0,0,0,0,0" fill="#ffe7cf"/>
            </g>
            <g id="g4335" transform="translate(31.085 -24.25)">
              <path id="path4337" d="M0,0H0A2.044,2.044,0,0,0-1.151-.891a2.054,2.054,0,0,1-.936,2.182l-2.9,1.772a2.048,2.048,0,0,1-1.675.209,2.046,2.046,0,0,0,.254.643A2.055,2.055,0,0,0-3.581,4.6l2.9-1.772A2.055,2.055,0,0,0,0,0" fill="#efd5bd"/>
            </g>
            <g id="g4339" transform="translate(29.028 -17.85)">
              <path id="path4341" d="M0,0-.538.329A1.771,1.771,0,0,1-2.98-.225l-.891-1.456a1.527,1.527,0,0,0-2.114-.472c-.733,5.375-8.372,4.889-8.372,4.889l4.734-7.13A3.806,3.806,0,0,1-8.334-5.722l2.672-1.657A2.721,2.721,0,0,1-1.9-6.54L.62-2.43A1.773,1.773,0,0,1,0,0" fill="#ffe7cf"/>
            </g>
            <g id="g4343" transform="translate(29.648 -20.28)">
              <path id="path4345" d="M0,0-.021-.034a1.827,1.827,0,0,1-.6.595L-1.158.89A1.771,1.771,0,0,1-3.6.336L-4.491-1.12a1.527,1.527,0,0,0-2.114-.472A10.636,10.636,0,0,1-9.829,4.3,5.029,5.029,0,0,0-6.606.277,1.527,1.527,0,0,1-4.491.749L-3.6,2.205a1.772,1.772,0,0,0,2.443.554L-.62,2.43A1.773,1.773,0,0,0,0,0" fill="#efd5bd"/>
            </g>
            <g id="g4347" transform="translate(17.88 -3.5)">
              <path id="path4349" d="M0,0-7.53-8.948l2.479-2.086a.185.185,0,0,1,.261.022L2.5-2.347a.185.185,0,0,1-.022.261Z" fill="#cdd6df"/>
            </g>
            <g id="g4351" transform="translate(20.382 -5.847)">
              <path id="path4353" d="M0,0-3.879-4.61-6.5-2.4l4,4.751L-.022.261A.185.185,0,0,0,0,0" fill="#96a4aa"/>
            </g>
            <g id="g4355" transform="translate(48.943 -46.359)">
              <path id="path4357" d="M0,0,4.844-2.98" fill="#fff" stroke="#000" stroke-linecap="round" stroke-linejoin="round" stroke-miterlimit="10" stroke-width="1.787"/>
            </g>
            <g id="g4359" transform="translate(53.006 -39.754)">
              <path id="path4361" d="M0,0,7.1.69" fill="#fff" stroke="#000" stroke-linecap="round" stroke-linejoin="round" stroke-miterlimit="10" stroke-width="1.787"/>
            </g>
            <g id="g4363" transform="translate(44.88 -52.964)">
              <path id="path4365" d="M0,0,2.586-6.649" fill="#fff" stroke="#000" stroke-linecap="round" stroke-linejoin="round" stroke-miterlimit="10" stroke-width="1.787"/>
            </g>
            <g id="g4367" transform="translate(18.418 -3.584)">
              <path id="path4369" d="M0,0-8.138-9.547A.2.2,0,0,0-8.4-9.582L-17.065-2.74a1.206,1.206,0,0,0-.459.947V.99A1.206,1.206,0,0,0-16.318,2.2H-2.139a1.206,1.206,0,0,0,.94-.451L-.008.263A.2.2,0,0,0,0,0" fill="#3c5666"/>
            </g>
            <g id="g4371" transform="translate(18.418 -3.584)">
              <path id="path4373" d="M0,0-3.859-4.527-9.54,2.2h7.4a1.206,1.206,0,0,0,.94-.451L-.008.263A.2.2,0,0,0,0,0" fill="#194451"/>
            </g>
            <g id="g4375" transform="translate(37.097 -50.332)">
              <path id="path4377" d="M0,0-2.689-4.357A1.179,1.179,0,0,1-2.3-5.98l1.069-.66a1.179,1.179,0,0,1,1.622.384l16.13,26.142a1.179,1.179,0,0,1-.384,1.622l-1.069.66a1.179,1.179,0,0,1-1.622-.384L2.187,3.544" fill="none" stroke="#000" stroke-linecap="round" stroke-linejoin="round" stroke-miterlimit="10" stroke-width="1.787"/>
            </g>
            <g id="g4379" transform="translate(12.288 -27.264)">
              <path id="path4381" d="M0,0-1.519.937A1.558,1.558,0,0,0-2.026,3.08L.155,6.615A1.557,1.557,0,0,0,2.3,7.123l1.519-.937Z" fill="none" stroke="#000" stroke-linecap="round" stroke-linejoin="round" stroke-miterlimit="10" stroke-width="1.787"/>
            </g>
            <g id="g4383" transform="translate(18.418 -3.584)">
              <path id="path4385" d="M0,0-8.138-9.547A.2.2,0,0,0-8.4-9.582L-17.065-2.74a1.206,1.206,0,0,0-.459.947V.99A1.206,1.206,0,0,0-16.318,2.2H-2.139a1.206,1.206,0,0,0,.94-.451L-.008.263A.2.2,0,0,0,0,0Z" fill="none" stroke="#000" stroke-linecap="round" stroke-linejoin="round" stroke-miterlimit="10" stroke-width="1.787"/>
            </g>
            <g id="g4387" transform="translate(20.382 -5.847)">
              <path id="path4389" d="M0,0-7.291-8.665a.185.185,0,0,0-.261-.022L-9.734-6.851l7.587,8.9L-.022.261A.185.185,0,0,0,0,0Z" fill="none" stroke="#000" stroke-linecap="round" stroke-linejoin="round" stroke-miterlimit="10" stroke-width="1.787"/>
            </g>
            <g id="g4391" transform="translate(30.14 -9.295)">
              <path id="path4393" d="M0,0H0A2.024,2.024,0,0,0,2.783.672l2.951-1.8a2.024,2.024,0,0,0,.672-2.782,2.024,2.024,0,0,0-2.783-.672L.672-2.782A2.024,2.024,0,0,0,0,0Z" fill="none" stroke="#000" stroke-linecap="round" stroke-linejoin="round" stroke-miterlimit="10" stroke-width="1.787"/>
            </g>
            <g id="g4395" transform="translate(28.876 -13.279)">
              <path id="path4397" d="M0,0H0A2.055,2.055,0,0,0,2.825.682l2.9-1.772a2.055,2.055,0,0,0,.682-2.824A2.055,2.055,0,0,0,3.581-4.6L.682-2.824A2.055,2.055,0,0,0,0,0Z" fill="none" stroke="#000" stroke-linecap="round" stroke-linejoin="round" stroke-miterlimit="10" stroke-width="1.787"/>
            </g>
            <g id="g4399" transform="translate(14.671 -15.114)">
              <path id="path4401" d="M0,0,4.734-7.13A3.806,3.806,0,0,1,6.023-8.458l2.672-1.657a2.72,2.72,0,0,1,3.764.839l2.518,4.109a1.773,1.773,0,0,1-.62,2.43l-.538.329a1.771,1.771,0,0,1-2.443-.554l-.891-1.456a1.527,1.527,0,0,0-2.114-.472,4.822,4.822,0,0,1-2.4,3.6" fill="none" stroke="#000" stroke-linecap="round" stroke-linejoin="round" stroke-miterlimit="10" stroke-width="1.787"/>
            </g>
            <g id="g4403" transform="translate(14.671 -15.114)">
              <path id="path4405" d="M0,0-1.326.9,5.453,8.96l.3-.315,4.66.955a4.235,4.235,0,0,0,2.471-.5l3.938-2.345" fill="none" stroke="#000" stroke-linecap="round" stroke-linejoin="round" stroke-miterlimit="10" stroke-width="1.787"/>
            </g>
            <g id="g4407" transform="translate(31.085 -24.25)">
              <path id="path4409" d="M0,0H0A2.055,2.055,0,0,0-2.825-.682l-1.064.65,2.147,3.5,1.06-.648A2.055,2.055,0,0,0,0,0Z" fill="none" stroke="#000" stroke-linecap="round" stroke-linejoin="round" stroke-miterlimit="10" stroke-width="1.787"/>
            </g>
            <g id="g4411" transform="translate(33.122 -20.677)">
              <path id="path4413" d="M0,0A2.055,2.055,0,0,0-2.825-.682L-3.778-.1l.3.5a1.773,1.773,0,0,1-.62,2.43l-.538.329A1.791,1.791,0,0,1-6.7,3.032a2.041,2.041,0,0,0,.291.882A2.055,2.055,0,0,0-3.581,4.6l2.9-1.772A2.055,2.055,0,0,0,0,0Z" fill="none" stroke="#000" stroke-linecap="round" stroke-linejoin="round" stroke-miterlimit="10" stroke-width="1.787"/>
            </g>
            <g id="g4415" transform="translate(12.266 -27.3)">
              <path id="path4417" d="M0,0,3.862,6.258A2.19,2.19,0,0,0,5.65,7.3L7.139,5.056A3.805,3.805,0,0,1,8.428,3.728L11.1,2.072a2.747,2.747,0,0,1,3.29.267l.32-.2L8.545-7.849" fill="none" stroke="#000" stroke-linecap="round" stroke-linejoin="round" stroke-miterlimit="10" stroke-width="1.787"/>
            </g>
            <g id="g4419" transform="translate(14.136 -31.03)">
              <path id="path4421" d="M0,0-1.156.713A2.193,2.193,0,0,0-1.871,3.73L1.991,9.989a2.19,2.19,0,0,0,1.789,1.04" fill="none" stroke="#000" stroke-linecap="round" stroke-linejoin="round" stroke-miterlimit="10" stroke-width="1.787"/>
            </g>
            <g id="g4423" transform="translate(35.355 -53.154)">
              <path id="path4425" d="M0,0-14.544,18.005l-3.1,1.911" fill="none" stroke="#000" stroke-linecap="round" stroke-linejoin="round" stroke-miterlimit="10" stroke-width="1.787"/>
            </g>
            <g id="g4427" transform="translate(26.975 -25.159)">
              <path id="path4429" d="M0,0,22.616-4.923" fill="none" stroke="#000" stroke-linecap="round" stroke-linejoin="round" stroke-miterlimit="10" stroke-width="1.787"/>
            </g>
            <g id="g4431" transform="translate(30.812 -12.077)">
              <path id="path4433" d="M0,0,.641-.392A2.054,2.054,0,0,1-1.936-1.2a2.052,2.052,0,0,1,.4-2.614c0-.018,0-.035-.007-.053A2.053,2.053,0,0,1-4.1-4.685a2.044,2.044,0,0,1-.291-.882A1.7,1.7,0,0,1-4.765-6l-.891-1.456A1.527,1.527,0,0,0-7.77-7.926a4.879,4.879,0,0,1-.685,1.947L-4.063.948A2.788,2.788,0,0,0-.93,2.11,2.023,2.023,0,0,1,0,0Z" fill="none" stroke="#000" stroke-linecap="round" stroke-linejoin="round" stroke-miterlimit="10" stroke-width="1.787"/>
            </g>
          </g>
        </g>
      </g>
    </g>
  </g>
</svg>
