<svg xmlns="http://www.w3.org/2000/svg" xmlns:xlink="http://www.w3.org/1999/xlink" width="107" height="107" viewBox="0 0 107 107">
  <defs>
    <clipPath id="clip-path">
      <rect id="Rectángulo_403474" data-name="Rectángulo 403474" width="72" height="72" transform="translate(492.332 7363)" fill="#fff" stroke="#fff" stroke-width="1"/>
    </clipPath>
  </defs>
  <g id="Grupo_1102244" data-name="Grupo 1102244" transform="translate(-475.332 -7345)">
    <g id="Grupo_156312" data-name="Grupo 156312" transform="translate(186.664 2896.563)">
      <path id="Elipse_5845" data-name="Elipse 5845" d="M53.5,0A53.5,53.5,0,1,1,0,53.5,53.5,53.5,0,0,1,53.5,0Z" transform="translate(288.668 4448.437)" fill="#3b57de"/>
    </g>
    <g id="Enmascarar_grupo_1098806" data-name="Enmascarar grupo 1098806" clip-path="url(#clip-path)">
      <path id="negociacion-salarial" d="M15.956,58.61A3.418,3.418,0,0,1,11.919,61l-3.688-.845a3.416,3.416,0,0,1-2.562-4.081l4.588-20.033a3.417,3.417,0,0,1,4.081-2.562l3.689.845a3.42,3.42,0,0,1,2.63,3H33.232a9.167,9.167,0,0,1,2.865-2h0a6.785,6.785,0,0,1,5.625.29c1.74.766,3.815,2.127,6.917,3.86a4.008,4.008,0,0,0,3.645.208l1.592-.693-.134-.584h0a3.417,3.417,0,0,1,2.561-4.08l3.689-.845a3.416,3.416,0,0,1,4.081,2.561l4.588,20.034A3.416,3.416,0,0,1,66.1,60.153L62.416,61h0a3.421,3.421,0,0,1-3.6-1.446l-2.984,1.319a4.129,4.129,0,0,1-3.92,5.324,4.134,4.134,0,0,1-6.972,3.6,4.105,4.105,0,0,1-1.076,1.889,4.152,4.152,0,0,1-5.854,0l-1.62-1.62a4.105,4.105,0,0,1-1.077,1.891,4.148,4.148,0,0,1-5.848,0ZM20.37,39.358,16.5,56.274l14.4,14.237.005.005a2.1,2.1,0,0,0,2.964-2.969L30.3,63.981a1.02,1.02,0,0,1,1.443-1.443l7.707,7.707a2.1,2.1,0,0,0,2.974-2.959L35.4,60.27a1.02,1.02,0,0,1,1.443-1.443l9.494,9.494a2.1,2.1,0,0,0,2.964,0h0a2.105,2.105,0,0,0,0-2.968l-9.19-9.19a1.02,1.02,0,0,1,1.443-1.443l8.826,8.826a2.1,2.1,0,0,0,2.965-2.968L41.9,49.127h0a4.146,4.146,0,0,0-5.329-.481c-3,2.08-6.063,3.7-8.977,2.911a7.654,7.654,0,0,1-3.866-2.683,1.02,1.02,0,0,1,.129-1.434c2.745-2.3,5.213-5.551,7.438-8.081ZM54.341,41.01l-1.242.541h0a5.991,5.991,0,0,1-5.451-.3h0c-3.027-1.692-5.047-3.027-6.744-3.775a4.936,4.936,0,0,0-4.089-.247c-1.189.445-2.446,1.734-3.84,3.307a101.452,101.452,0,0,1-7,7.757,5.033,5.033,0,0,0,2.154,1.29,5.3,5.3,0,0,0,3.39-.367,20.6,20.6,0,0,0,3.893-2.253h0a6.172,6.172,0,0,1,7.933.717L54.767,59.109l3.377-1.492Zm5.983,16.983a1.374,1.374,0,0,0,1.638,1.015l3.685-.845h0a1.37,1.37,0,0,0,1.026-1.637L62.086,36.493h0a1.37,1.37,0,0,0-1.637-1.026l-3.689.845a1.371,1.371,0,0,0-1.027,1.637l4.591,20.045ZM13.883,35.466a1.37,1.37,0,0,0-1.637,1.027L7.658,56.527a1.37,1.37,0,0,0,1.027,1.637l3.689.845a1.372,1.372,0,0,0,1.637-1.029L18.6,37.948a1.371,1.371,0,0,0-1.027-1.637Zm-.9-11.509L7.218,32.483a1.02,1.02,0,0,1-1.865-.572V23.957H4.462a3.5,3.5,0,0,1-3.3-3.652V4.819a3.5,3.5,0,0,1,3.3-3.652H28.769a3.5,3.5,0,0,1,3.3,3.652V20.306a3.5,3.5,0,0,1-3.3,3.652Zm-.542-2.04H28.769a1.462,1.462,0,0,0,1.255-1.611V4.819a1.462,1.462,0,0,0-1.255-1.611H4.462A1.462,1.462,0,0,0,3.206,4.819V20.306a1.462,1.462,0,0,0,1.255,1.611H6.373a1.02,1.02,0,0,1,1.02,1.02v5.646L11.6,22.365a1.02,1.02,0,0,1,.845-.448Zm3.132-14.9-.014-.577a1.02,1.02,0,0,1,2.04-.049l.016.651a5.424,5.424,0,0,1,1.059.418,3.253,3.253,0,0,1,1.187,1,1.02,1.02,0,1,1-1.7,1.121,1.185,1.185,0,0,0-.436-.314,2.711,2.711,0,0,0-1.109-.341,1.552,1.552,0,0,0-1.682,1.392,1.552,1.552,0,0,0,1.682,1.392,3.588,3.588,0,0,1,3.722,3.433,3.5,3.5,0,0,1-2.681,3.3l.012.488a1.02,1.02,0,0,1-2.04.05l-.013-.512a4.283,4.283,0,0,1-1.96-1.2,1.02,1.02,0,1,1,1.4-1.485,2.066,2.066,0,0,0,1.561.759A1.553,1.553,0,0,0,18.3,15.138a1.552,1.552,0,0,0-1.682-1.392,3.588,3.588,0,0,1-3.722-3.433,3.494,3.494,0,0,1,2.684-3.3ZM61.346,23.957H45.563a3.5,3.5,0,0,1-3.3-3.652V4.819a3.5,3.5,0,0,1,3.3-3.652H69.87a3.5,3.5,0,0,1,3.3,3.652V20.306a3.5,3.5,0,0,1-3.3,3.652H68.98v7.954a1.02,1.02,0,0,1-1.865.572Zm1.387-1.592,4.207,6.218V22.937a1.02,1.02,0,0,1,1.02-1.02H69.87a1.462,1.462,0,0,0,1.255-1.611V4.819A1.462,1.462,0,0,0,69.87,3.207H45.563a1.462,1.462,0,0,0-1.255,1.611V20.306a1.462,1.462,0,0,0,1.255,1.611H61.887A1.02,1.02,0,0,1,62.732,22.365ZM61.824,19.1a3.172,3.172,0,0,1-2.859-3.39,2.9,2.9,0,1,1,5.718,0A3.172,3.172,0,0,1,61.824,19.1Zm0-2.04a.653.653,0,0,0,.494-.3,1.863,1.863,0,0,0,0-2.1.557.557,0,0,0-.988,0,1.862,1.862,0,0,0,0,2.1A.653.653,0,0,0,61.824,17.063Zm-8.215-4.024a3.171,3.171,0,0,1-2.859-3.39,3.171,3.171,0,0,1,2.859-3.389,3.171,3.171,0,0,1,2.859,3.389A3.171,3.171,0,0,1,53.609,13.039Zm0-2.04a.653.653,0,0,0,.494-.3,1.862,1.862,0,0,0,0-2.1.558.558,0,0,0-.988,0,1.863,1.863,0,0,0,0,2.1.653.653,0,0,0,.494.3ZM60.452,5.9a1.02,1.02,0,0,1,1.767,1.02L54.982,19.458a1.02,1.02,0,0,1-1.767-1.02Z" transform="translate(491.166 7361.834)" fill="#fff" fill-rule="evenodd"/>
    </g>
  </g>
</svg>
