<svg xmlns="http://www.w3.org/2000/svg" width="85" height="85" viewBox="0 0 85 85">
  <g id="Grupo_1100914" data-name="Grupo 1100914" transform="translate(-704.668 -6155)">
    <rect id="Rectángulo_402033" data-name="Rectángulo 402033" width="85" height="85" rx="5" transform="translate(704.668 6155)" fill="#b300d5"/>
    <g id="Grupo_1100438" data-name="Grupo 1100438" transform="translate(716.871 6166.536)">
      <path id="Trazado_874995" data-name="Trazado 874995" d="M89.734,97.724h-30.3s-4.153.56-4.153,3.587v31.355h53.688v-9.512Z" transform="translate(-54.307 -89.689)" fill="#e5eaff"/>
      <path id="Trazado_874996" data-name="Trazado 874996" d="M284.07,53.166v29.54l1.534,1.811h20.418l2.237-.737V58.208l-6.17-6.674-15.711-.676Z" transform="translate(-248.643 -49.88)" fill="#4bf7ff"/>
      <path id="Trazado_874997" data-name="Trazado 874997" d="M284.07,197.955v4.029l1.534,1.811h20.418l2.237-.737V191.28C305.137,194.759,297.93,200.086,284.07,197.955Z" transform="translate(-248.643 -169.158)" fill="#62caf1"/>
      <path id="Trazado_874998" data-name="Trazado 874998" d="M399.251,60.128v5.661h6.162l-.6-1.5-4.162-4.162Z" transform="translate(-346.482 -57.753)" fill="#fecc00"/>
      <path id="Trazado_874999" data-name="Trazado 874999" d="M384.5,128.571v3.92H389.4S386.939,127.7,384.5,128.571Z" transform="translate(-333.954 -115.801)" fill="#09d069"/>
      <path id="Trazado_875000" data-name="Trazado 875000" d="M327.339,133.861v6.447h7.213s-1.53,5.11-5.828,5.349-7.107-2.436-6.9-5.683S325.286,132.524,327.339,133.861Z" transform="translate(-280.706 -120.168)" fill="#fe2640"/>
      <path id="Trazado_875001" data-name="Trazado 875001" d="M188.169,191.28H195v16.31h-6.836Z" transform="translate(-167.182 -169.158)" fill="#fee700"/>
      <path id="Trazado_875002" data-name="Trazado 875002" d="M138.445,227.479h6.513v10.859h-6.513Z" transform="translate(-124.945 -199.907)" fill="#fe2640"/>
      <path id="Trazado_875003" data-name="Trazado 875003" d="M90.589,264.057h6.8v5.351h-6.8Z" transform="translate(-84.295 -230.977)" fill="#09d069"/>
      <path id="Trazado_875004" data-name="Trazado 875004" d="M195,235.873c-1.7,1.89-4.235,3.813-6.836,2.511v7.084H195Z" transform="translate(-167.182 -207.037)" fill="#fecc00"/>
      <path id="Trazado_875005" data-name="Trazado 875005" d="M144.959,248.14c-1.215,1.455-3.505,3.428-6.513,2.534v5.214h6.513Z" transform="translate(-124.945 -217.457)" fill="#d82140"/>
      <path id="Trazado_875006" data-name="Trazado 875006" d="M97.386,264.057H96.032c-.383,1.494-1.6,3.876-5.443,3.473v1.878h6.8v-5.351Z" transform="translate(-84.295 -230.977)" fill="#10af58"/>
      <path id="Trazado_875007" data-name="Trazado 875007" d="M54.105,329.785h53.149l.177,4.511s-.09,3.048-4.747,3.587h-46.4s-3.025-1.626-3.025-3.218a28.5,28.5,0,0,1,.843-4.879Z" transform="translate(-52.588 -286.808)" fill="#076082"/>
      <path id="Trazado_875008" data-name="Trazado 875008" d="M304.611,329.785H292.821a13.351,13.351,0,0,1-7.22,8.1H300.04c4.657-.539,4.747-3.587,4.747-3.587Z" transform="translate(-249.944 -286.808)" fill="#023140"/>
      <path id="Trazado_875009" data-name="Trazado 875009" d="M167.438,386.7h16.129l1.719,9.4H164.909Z" transform="translate(-147.425 -335.153)" fill="#4bf7ff"/>
      <path id="Trazado_875010" data-name="Trazado 875010" d="M183.567,386.7h-3.8c-1.293,2.867-4.767,6.766-14.094,6.554l-.766,2.848h20.377Z" transform="translate(-147.425 -335.153)" fill="#62caf1"/>
      <g id="Grupo_1100438-2" data-name="Grupo 1100438" transform="translate(0 0)">
        <path id="Trazado_875011" data-name="Trazado 875011" d="M100.6,44.358H86.519a3.289,3.289,0,0,0-3.286,3.286v3.771H53.351a4.571,4.571,0,0,0-4.565,4.565V91.846a4.571,4.571,0,0,0,4.565,4.565H67.566l-1.846,7.917H58.7a.979.979,0,1,0,0,1.957h36a.979.979,0,1,0,0-1.957H87.674l-1.846-7.917h14.215a4.571,4.571,0,0,0,4.565-4.565V79.974h1.485a3.289,3.289,0,0,0,3.286-3.286V53.138a3.264,3.264,0,0,0-.962-2.323l-5.494-5.494a3.264,3.264,0,0,0-2.323-.963Zm1.934,3.341,3.393,3.393h-3.393Zm-16.87,56.628H67.73l1.846-7.917H83.818Zm14.379-9.874H53.351a2.611,2.611,0,0,1-2.608-2.608V88.314H102.65v3.532a2.611,2.611,0,0,1-2.608,2.608Zm2.608-8.1H50.743V55.98a2.611,2.611,0,0,1,2.608-2.608H83.234V76.688a3.289,3.289,0,0,0,3.286,3.286h16.131Zm4.771-9.668a1.33,1.33,0,0,1-1.328,1.328H86.519a1.33,1.33,0,0,1-1.328-1.328V47.644a1.33,1.33,0,0,1,1.328-1.328h14.057v5.756a.979.979,0,0,0,.979.979h5.862c0,.029,0,.058,0,.087Z" transform="translate(-48.786 -44.358)" fill="#070606"/>
        <path id="Trazado_875012" data-name="Trazado 875012" d="M106.684,181.621H99.479a.979.979,0,0,0-.979.979v4.752H92.273a.979.979,0,0,0-.979.979v4.539H85.067a.979.979,0,0,0-.979.979v5.888a.979.979,0,0,0,.979.979h21.617a.979.979,0,0,0,.979-.979V182.6a.979.979,0,0,0-.979-.979ZM86.046,194.827h5.248v3.931H86.046Zm7.206-.979v-4.539H98.5v9.449H93.252Zm12.454,4.91h-5.248V183.578h5.248Z" transform="translate(-78.773 -160.953)" fill="#070606"/>
        <path id="Trazado_875013" data-name="Trazado 875013" d="M376.124,116.709a.979.979,0,0,0-1.127.967v5.346a.979.979,0,0,0,.979.979h5.346a.979.979,0,0,0,.967-1.127A7.338,7.338,0,0,0,376.124,116.709Zm.83,5.335v-3.1a5.5,5.5,0,0,1,3.1,3.1Z" transform="translate(-325.88 -105.806)" fill="#070606"/>
        <path id="Trazado_875014" data-name="Trazado 875014" d="M329.093,131.458h-6.325v-6.325a.979.979,0,0,0-1.127-.967,7.379,7.379,0,1,0,8.42,8.42.979.979,0,0,0-.967-1.127Zm-6.325,5.421A5.421,5.421,0,0,1,320.81,126.4v5.055a1.96,1.96,0,0,0,1.957,1.957h5.055A5.466,5.466,0,0,1,322.767,136.879Z" transform="translate(-275.247 -112.139)" fill="#070606"/>
        <path id="Trazado_875015" data-name="Trazado 875015" d="M85.068,129.154h2.587a.979.979,0,0,0,0-1.957H85.068a.979.979,0,0,0,0,1.957Z" transform="translate(-78.773 -114.724)" fill="#070606"/>
        <path id="Trazado_875016" data-name="Trazado 875016" d="M85.068,179.172h9.464a.979.979,0,0,0,0-1.957H85.068a.979.979,0,0,0,0,1.957Z" transform="translate(-78.773 -157.211)" fill="#070606"/>
        <path id="Trazado_875017" data-name="Trazado 875017" d="M85.068,154.163h9.464a.979.979,0,1,0,0-1.957H85.068a.979.979,0,1,0,0,1.957Z" transform="translate(-78.773 -135.967)" fill="#070606"/>
        <path id="Trazado_875018" data-name="Trazado 875018" d="M386.2,238.528H383.9a.979.979,0,0,0,0,1.957H386.2a.979.979,0,1,0,0-1.957Z" transform="translate(-332.613 -209.292)" fill="#070606"/>
        <path id="Trazado_875019" data-name="Trazado 875019" d="M230.927,127.2h-2.292a.979.979,0,0,0,0,1.957h2.292a.979.979,0,1,0,0-1.957Z" transform="translate(-200.724 -114.724)" fill="#070606"/>
      </g>
    </g>
  </g>
</svg>
