<svg xmlns="http://www.w3.org/2000/svg" xmlns:xlink="http://www.w3.org/1999/xlink" width="77" height="121" viewBox="0 0 77 121">
  <defs>
    <clipPath id="clip-path">
      <rect id="Rect치ngulo_403455" data-name="Rect치ngulo 403455" width="77" height="77" transform="translate(649 6992)" fill="#fff" stroke="#707070" stroke-width="1"/>
    </clipPath>
    <clipPath id="clip-path-2">
      <path id="path12288" d="M0-77H77V0H0Z"/>
    </clipPath>
  </defs>
  <g id="Grupo_1102488" data-name="Grupo 1102488" transform="translate(-649 -6970)">
    <g id="Rect치ngulo_403454" data-name="Rect치ngulo 403454" transform="translate(652 6970)" fill="#fff" stroke="#5169dd" stroke-width="2" stroke-dasharray="6">
      <rect width="71" height="121" rx="35" stroke="none"/>
      <rect x="1" y="1" width="69" height="119" rx="34" fill="none"/>
    </g>
    <g id="Enmascarar_grupo_1098832" data-name="Enmascarar grupo 1098832" clip-path="url(#clip-path)">
      <g id="g12282" transform="translate(649 7069)">
        <g id="g12284">
          <g id="g12286" clip-path="url(#clip-path-2)">
            <g id="g12292" transform="translate(57.55 -9.676)">
              <path id="path12294" d="M0,0H-48.677a.752.752,0,0,1-.752-.752V-62.813a.752.752,0,0,1,.752-.752H0a.752.752,0,0,1,.752.752V-.752A.752.752,0,0,1,0,0" fill="#a79ca7"/>
            </g>
            <g id="g12296" transform="translate(57.55 -9.676)">
              <path id="path12298" d="M0,0H-48.677a.752.752,0,0,1-.752-.752V-62.813a.752.752,0,0,1,.752-.752H0a.752.752,0,0,1,.752.752V-.752A.752.752,0,0,1,0,0Z" fill="none" stroke="#000" stroke-linecap="round" stroke-linejoin="round" stroke-miterlimit="10" stroke-width="2.256"/>
            </g>
            <g id="g12300" transform="translate(62.235 -4.968)">
              <path id="path12302" d="M0,0H-48.677a.752.752,0,0,1-.752-.752V-62.813a.752.752,0,0,1,.752-.752H0a.752.752,0,0,1,.752.752V-.752A.752.752,0,0,1,0,0" fill="#fff"/>
            </g>
            <g id="g12304" transform="translate(19.1 -5.72)">
              <path id="path12306" d="M0,0V-48.389H-6.293V0a.752.752,0,0,0,.752.752H.752A.752.752,0,0,1,0,0" fill="#f3f0f3"/>
            </g>
            <g id="g12308" transform="translate(25.566 -68.532)">
              <path id="path12310" d="M0,0H-12.008a.752.752,0,0,0-.752.752V62.813a.752.752,0,0,0,.752.752H36.669a.752.752,0,0,0,.752-.752V.752A.752.752,0,0,0,36.669,0H5.264" fill="none" stroke="#000" stroke-linecap="round" stroke-linejoin="round" stroke-miterlimit="10" stroke-width="2.256"/>
            </g>
            <g id="g12312" transform="translate(68.187 -45.117)">
              <path id="path12314" d="M0,0H4.543V8.559A3.761,3.761,0,0,1,4.3,9.887L2.553,14.516a.3.3,0,0,1-.563,0L.242,9.887A3.761,3.761,0,0,1,0,8.559Z" fill="#fff"/>
            </g>
            <g id="g12316" transform="translate(68.187 -45.117)">
              <path id="path12318" d="M0,0H4.543V8.559A3.761,3.761,0,0,1,4.3,9.887L2.553,14.516a.3.3,0,0,1-.563,0L.242,9.887A3.761,3.761,0,0,1,0,8.559Z" fill="none" stroke="#000" stroke-linecap="round" stroke-linejoin="round" stroke-miterlimit="10" stroke-width="2.256"/>
            </g>
            <g id="g12320" transform="translate(72.73 -38.205)">
              <path id="path12322" d="M0,0V-28.056a2.272,2.272,0,0,0-2.271-2.271,2.272,2.272,0,0,0-2.272,2.271V0Z" fill="#fed402"/>
            </g>
            <g id="g12324" transform="translate(72.73 -53.689)">
              <path id="path12326" d="M0,0V-12.571a2.272,2.272,0,0,0-2.272-2.271,2.271,2.271,0,0,0-2.272,2.271V15.485H0V5.264" fill="none" stroke="#000" stroke-linecap="round" stroke-linejoin="round" stroke-miterlimit="10" stroke-width="2.256"/>
            </g>
            <g id="g12328" transform="translate(70.859 -12.339)">
              <path id="path12330" d="M0,0A11.211,11.211,0,0,1-11.211,11.211,11.211,11.211,0,0,1-22.422,0,11.211,11.211,0,0,1-11.211-11.211,11.211,11.211,0,0,1,0,0" fill="#00c27a"/>
            </g>
            <g id="g12332" transform="translate(54.578 -12.339)">
              <path id="path12334" d="M0,0A11.213,11.213,0,0,1,8.14-10.782a11.206,11.206,0,0,0-3.071-.429A11.211,11.211,0,0,0-6.141,0,11.211,11.211,0,0,0,5.07,11.211a11.206,11.206,0,0,0,3.071-.429A11.213,11.213,0,0,1,0,0" fill="#09a755"/>
            </g>
            <g id="g12336" transform="translate(70.449 -15.34)">
              <path id="path12338" d="M0,0A11.213,11.213,0,0,0-10.8-8.21,11.211,11.211,0,0,0-22.013,3,11.211,11.211,0,0,0-10.8,14.212,11.215,11.215,0,0,0,.181,5.264" fill="none" stroke="#000" stroke-linecap="round" stroke-linejoin="round" stroke-miterlimit="10" stroke-width="2.256"/>
            </g>
            <g id="g12340" transform="translate(54.062 -13.014)">
              <path id="path12342" d="M0,0,4.245,4.245l6.927-6.927" fill="none" stroke="#000" stroke-linecap="round" stroke-linejoin="round" stroke-miterlimit="10" stroke-width="2.256"/>
            </g>
            <g id="g12344" transform="translate(20.373 -54.109)">
              <path id="path12346" d="M0,0H-15.351A.752.752,0,0,1-16.1-.752v-20.26a.752.752,0,0,1,.752-.752H0a.752.752,0,0,1,.752.752V-.752A.752.752,0,0,1,0,0" fill="#d8ecfe"/>
            </g>
            <g id="g12348" transform="translate(9.012 -54.861)">
              <path id="path12350" d="M0,0V-20.26a.752.752,0,0,1,.752-.752H-3.99a.752.752,0,0,0-.752.752V0A.752.752,0,0,0-3.99.752H.752A.752.752,0,0,1,0,0" fill="#c4e2ff"/>
            </g>
            <g id="g12352" transform="translate(5.022 -54.109)">
              <path id="path12354" d="M0,0H15.351A.749.749,0,0,0,16-.373C15.375-4.839,11.89-8.26,7.675-8.26S-.024-4.839-.646-.373A.749.749,0,0,0,0,0" fill="#27a5fe"/>
            </g>
            <g id="g12356" transform="translate(12.698 -61.802)">
              <path id="path12358" d="M0,0A4.57,4.57,0,0,1-1.776-.357,8.985,8.985,0,0,0-8.322,7.32a.749.749,0,0,0,.646.373h4.7a.749.749,0,0,1-.646-.373A9.076,9.076,0,0,1,2.349-.2q-.282-.09-.572-.16A4.568,4.568,0,0,1,0,0" fill="#0593fc"/>
            </g>
            <g id="g12360" transform="translate(20.373 -54.109)">
              <path id="path12362" d="M0,0H-15.351A.752.752,0,0,1-16.1-.752v-20.26a.752.752,0,0,1,.752-.752H0a.752.752,0,0,1,.752.752V-.752A.752.752,0,0,1,0,0Z" fill="none" stroke="#000" stroke-linecap="round" stroke-linejoin="round" stroke-miterlimit="10" stroke-width="2.256"/>
            </g>
            <g id="g12364" transform="translate(21.019 -54.482)">
              <path id="path12366" d="M0,0C-.622-4.466-4.107-7.887-8.322-7.887S-16.021-4.466-16.643,0" fill="none" stroke="#000" stroke-linecap="round" stroke-linejoin="round" stroke-miterlimit="10" stroke-width="2.256"/>
            </g>
            <g id="g12368" transform="translate(17.279 -66.384)">
              <path id="path12370" d="M0,0A4.582,4.582,0,0,1-4.582,4.582,4.582,4.582,0,0,1-9.163,0,4.582,4.582,0,0,1-4.582-4.582,4.582,4.582,0,0,1,0,0" fill="#27a5fe"/>
            </g>
            <g id="g12372" transform="translate(17.279 -66.384)">
              <path id="path12374" d="M0,0A4.582,4.582,0,0,1-4.582,4.582,4.582,4.582,0,0,1-9.163,0,4.582,4.582,0,0,1-4.582-4.582,4.582,4.582,0,0,1,0,0Z" fill="none" stroke="#000" stroke-linecap="round" stroke-linejoin="round" stroke-miterlimit="10" stroke-width="2.256"/>
            </g>
            <g id="g12376" transform="translate(19.616 -12.85)">
              <path id="path12378" d="M0,0H14.759" fill="none" stroke="#000" stroke-linecap="round" stroke-linejoin="round" stroke-miterlimit="10" stroke-width="2.256"/>
            </g>
            <g id="g12380" transform="translate(27.215 -17.882)">
              <path id="path12382" d="M0,0H-7.148A.451.451,0,0,1-7.6-.451V-5.922a.451.451,0,0,1,.451-.451H0a.451.451,0,0,1,.451.451V-.451A.451.451,0,0,1,0,0" fill="#f6a96c"/>
            </g>
            <g id="g12384" transform="translate(27.215 -17.882)">
              <path id="path12386" d="M0,0H-7.148A.451.451,0,0,1-7.6-.451V-5.922a.451.451,0,0,1,.451-.451H0a.451.451,0,0,1,.451.451V-.451A.451.451,0,0,1,0,0Z" fill="none" stroke="#000" stroke-linecap="round" stroke-linejoin="round" stroke-miterlimit="10" stroke-width="2.256"/>
            </g>
            <g id="g12388" transform="translate(32.362 -59.811)">
              <path id="path12390" d="M0,0H11.069" fill="none" stroke="#000" stroke-linecap="round" stroke-linejoin="round" stroke-miterlimit="10" stroke-width="2.256"/>
            </g>
            <g id="g12392" transform="translate(28.505 -54.109)">
              <path id="path12394" d="M0,0H18.784" fill="none" stroke="#000" stroke-linecap="round" stroke-linejoin="round" stroke-miterlimit="10" stroke-width="2.256"/>
            </g>
            <g id="g12396" transform="translate(19.616 -44.381)">
              <path id="path12398" d="M0,0H36.562" fill="none" stroke="#000" stroke-linecap="round" stroke-linejoin="round" stroke-miterlimit="10" stroke-width="2.256"/>
            </g>
            <g id="g12400" transform="translate(19.616 -38.679)">
              <path id="path12402" d="M0,0H36.562" fill="none" stroke="#000" stroke-linecap="round" stroke-linejoin="round" stroke-miterlimit="10" stroke-width="2.256"/>
            </g>
            <g id="g12404" transform="translate(19.616 -32.976)">
              <path id="path12406" d="M0,0H36.562" fill="none" stroke="#000" stroke-linecap="round" stroke-linejoin="round" stroke-miterlimit="10" stroke-width="2.256"/>
            </g>
          </g>
        </g>
      </g>
    </g>
  </g>
</svg>
