<svg xmlns="http://www.w3.org/2000/svg" xmlns:xlink="http://www.w3.org/1999/xlink" width="77" height="121" viewBox="0 0 77 121">
  <defs>
    <clipPath id="clip-path">
      <rect id="Rectángulo_403455" data-name="Rectángulo 403455" width="77" height="77" transform="translate(649 6992)" fill="#fff" stroke="#707070" stroke-width="1"/>
    </clipPath>
  </defs>
  <g id="Grupo_1102491" data-name="Grupo 1102491" transform="translate(-649 -6970)">
    <g id="Rectángulo_403454" data-name="Rectángulo 403454" transform="translate(652 6970)" fill="#fff" stroke="#5169dd" stroke-width="2" stroke-dasharray="6">
      <rect width="71" height="121" rx="35" stroke="none"/>
      <rect x="1" y="1" width="69" height="119" rx="34" fill="none"/>
    </g>
    <g id="Enmascarar_grupo_1098835" data-name="Enmascarar grupo 1098835" clip-path="url(#clip-path)">
      <g id="certificado-de-garantia" transform="translate(649 6992)">
        <path id="Trazado_879810" data-name="Trazado 879810" d="M52.625,8.717a33.147,33.147,0,0,0,15.954-.257V50.077a16.288,16.288,0,0,1-8.707,14.36L38.373,75.8,17.129,64.437a16.288,16.288,0,0,1-8.707-14.36V8.459a33.147,33.147,0,0,0,15.954.257c9.487-2.21,14-7.514,14-7.514S43.139,6.507,52.625,8.717Z" fill="#fdb924"/>
        <path id="Trazado_879811" data-name="Trazado 879811" d="M19.535,63.234,40.711,74.56,59.868,64.437a16.289,16.289,0,0,0,8.711-14.36V8.459a33.147,33.147,0,0,1-15.954.257C43.139,6.507,38.373,1.2,38.373,1.2s-4.511,5.3-14,7.514a33.915,33.915,0,0,1-13.547.3V48.874A16.289,16.289,0,0,0,19.535,63.234Z" fill="#ffd36c"/>
        <path id="Trazado_879812" data-name="Trazado 879812" d="M19.4,60.193a11.474,11.474,0,0,1-6.165-10.116V14.2c1.119.1,2.357.171,3.691.171a37.658,37.658,0,0,0,8.542-.963A35.123,35.123,0,0,0,38.426,7.559,36.576,36.576,0,0,0,51.54,13.4a37.715,37.715,0,0,0,8.542.963h0c1.334,0,2.572-.066,3.69-.171V50.077a11.471,11.471,0,0,1-6.155,10.106L38.386,70.348Z" fill="#afb4c8"/>
        <path id="Trazado_879813" data-name="Trazado 879813" d="M60.075,14.369a37.715,37.715,0,0,1-8.542-.963A36.575,36.575,0,0,1,38.426,7.559,35.123,35.123,0,0,1,25.467,13.4a37.658,37.658,0,0,1-8.542.963h-.081v33.3a11.474,11.474,0,0,0,6.165,10.116L42,67.94,60.2,58.315a11.371,11.371,0,0,0,3.565-8.238V14.2c-1.118.1-2.356.171-3.69.171Z" fill="#bec3d2"/>
        <path id="Trazado_879814" data-name="Trazado 879814" d="M57.751,34.891a2.406,2.406,0,0,0-2.406-2.406h-13.3s5.42-4.912,4.874-10.815c-.193-2.11-1.423-3.623-3.028-3.623-2.2,0-2.736,1.837-3.045,3.587A6.953,6.953,0,0,1,37.3,26.469c-1.69,1.127-2.406,1.2-3.609,2.406a9.567,9.567,0,0,0-2.406,3.609H25.266V46.923h6.016L37.3,51.735H51.735a2.406,2.406,0,0,0,0-4.813h1.2a2.406,2.406,0,0,0,0-4.813h1.2a2.406,2.406,0,0,0,0-4.813h1.2A2.406,2.406,0,0,0,57.751,34.891Z" fill="#ffcdbe"/>
        <path id="Trazado_879815" data-name="Trazado 879815" d="M51.735,46.923H52.81a2.5,2.5,0,0,0,2.5-2,2.406,2.406,0,0,0-2.374-2.811h1.074a2.5,2.5,0,0,0,2.5-2A2.406,2.406,0,0,0,54.141,37.3h1.074a2.5,2.5,0,0,0,2.5-2,2.406,2.406,0,0,0-2.374-2.811h-13.3s5.42-4.912,4.874-10.815c-.193-2.11-1.423-3.623-3.028-3.623-2.2,0-2.736,1.837-3.045,3.587A6.953,6.953,0,0,1,37.3,26.469c-1.69,1.127-2.406,1.2-3.609,2.406a9.567,9.567,0,0,0-2.406,3.609h-1.2v8.859a3.173,3.173,0,0,0,3.173,3.173h2.843l6.016,4.813H54.141A2.406,2.406,0,0,0,51.735,46.923Z" fill="#ffdecf"/>
        <rect id="Rectángulo_403788" data-name="Rectángulo 403788" width="19.25" height="7.219" transform="translate(26.469 30.079) rotate(90)" fill="#37a7d7"/>
        <path id="Trazado_879816" data-name="Trazado 879816" d="M25.252,46.923h1.218V30.079H22.86V44.531a2.392,2.392,0,0,0,2.392,2.392Z" fill="#4bbbeb"/>
        <path id="Trazado_879817" data-name="Trazado 879817" d="M69.29,7.491a1.2,1.2,0,0,0-1.072-.179,32.244,32.244,0,0,1-15.32.233A28.167,28.167,0,0,1,39.268.4a1.323,1.323,0,0,0-.91-.4,1.2,1.2,0,0,0-.9.421C37.415.47,33.044,5.461,24.1,7.544A32.262,32.262,0,0,1,8.783,7.311,1.2,1.2,0,0,0,7.219,8.459V50.077A17.474,17.474,0,0,0,16.562,65.5L37.805,76.859a1.2,1.2,0,0,0,1.13,0l21.5-11.36a17.474,17.474,0,0,0,9.346-15.422V8.459a1.2,1.2,0,0,0-.492-.969ZM67.376,50.077a15.073,15.073,0,0,1-8.061,13.3L38.38,74.435,17.7,63.376a15.074,15.074,0,0,1-8.073-13.3V10.007a34.971,34.971,0,0,0,15.024-.12A30.054,30.054,0,0,0,38.392,2.9,31.625,31.625,0,0,0,52.349,9.889a34.968,34.968,0,0,0,15.027.118Z"/>
        <path id="Trazado_879818" data-name="Trazado 879818" d="M39.13,6.584a1.2,1.2,0,0,0-1.419.008A34.063,34.063,0,0,1,25.2,12.232,37.561,37.561,0,0,1,13.351,13a1.191,1.191,0,0,0-.922.309,1.2,1.2,0,0,0-.4.888v35.88a12.681,12.681,0,0,0,6.8,11.177L37.82,71.409a1.2,1.2,0,0,0,.567.142,1.211,1.211,0,0,0,.563-.14L58.177,61.251A12.673,12.673,0,0,0,64.97,50.077V24.136a1.2,1.2,0,1,0-2.406,0V50.077a10.272,10.272,0,0,1-5.514,9.049L38.39,68.985,19.964,59.131a10.278,10.278,0,0,1-5.526-9.054V15.5a39.721,39.721,0,0,0,11.31-.923A36.816,36.816,0,0,0,38.44,9.034a38.228,38.228,0,0,0,12.826,5.54,39.7,39.7,0,0,0,11.31.923v3.7a1.2,1.2,0,1,0,2.406,0v-5a1.2,1.2,0,0,0-.393-.889A1.18,1.18,0,0,0,63.667,13a37.549,37.549,0,0,1-11.847-.768A35.526,35.526,0,0,1,39.13,6.584Z"/>
        <path id="Trazado_879819" data-name="Trazado 879819" d="M58.954,34.891a3.609,3.609,0,0,0-3.609-3.609H44.75c1.658-2.13,3.745-5.678,3.369-9.723-.251-2.777-1.99-4.715-4.224-4.715-3.422,0-4.009,3.328-4.23,4.58a5.8,5.8,0,0,1-3.034,4.044c-.6.4-1.065.657-1.477.884a8.947,8.947,0,0,0-2.315,1.672,12.077,12.077,0,0,0-2.358,3.257H27.672V30.127a1.2,1.2,0,0,0-1.2-1.2H19.183a1.2,1.2,0,0,0-1.2,1.2v19.13a1.2,1.2,0,0,0,1.2,1.2h7.286a1.2,1.2,0,0,0,1.2-1.2V48.126h3.187l5.686,4.549a1.2,1.2,0,0,0,.752.263H51.735a3.609,3.609,0,0,0,3.145-5.38,3.609,3.609,0,0,0,1.2-4.813,3.609,3.609,0,0,0,1.2-4.813A3.609,3.609,0,0,0,58.954,34.891ZM25.266,48.052h-4.88V31.33h4.88ZM55.345,36.094h-1.2a1.2,1.2,0,1,0,0,2.406,1.2,1.2,0,0,1,0,2.406h-1.2a1.2,1.2,0,0,0,0,2.406,1.2,1.2,0,0,1,0,2.406h-1.2a1.2,1.2,0,1,0,0,2.406,1.2,1.2,0,0,1,0,2.406H37.72l-5.686-4.549a1.2,1.2,0,0,0-.752-.263H27.672V33.688h3.609a1.214,1.214,0,0,0,1.151-.854,8.625,8.625,0,0,1,2.106-3.108,6.788,6.788,0,0,1,1.779-1.269c.46-.254.981-.543,1.647-.987a8.1,8.1,0,0,0,4.069-5.628c.389-2.2.91-2.592,1.86-2.592s1.7,1.04,1.832,2.527c.481,5.218-4.437,9.77-4.488,9.814a1.2,1.2,0,0,0,.81,2.1h13.3a1.2,1.2,0,1,1,0,2.406Z"/>
      </g>
    </g>
  </g>
</svg>
