<svg xmlns="http://www.w3.org/2000/svg" xmlns:xlink="http://www.w3.org/1999/xlink" width="77" height="121" viewBox="0 0 77 121">
  <defs>
    <clipPath id="clip-path">
      <rect id="Rect치ngulo_403455" data-name="Rect치ngulo 403455" width="77" height="77" transform="translate(649 6992)" fill="#fff" stroke="#707070" stroke-width="1"/>
    </clipPath>
  </defs>
  <g id="Grupo_1102492" data-name="Grupo 1102492" transform="translate(-649 -6970)">
    <g id="Rect치ngulo_403454" data-name="Rect치ngulo 403454" transform="translate(652 6970)" fill="#fff" stroke="#5169dd" stroke-width="2" stroke-dasharray="6">
      <rect width="71" height="121" rx="35" stroke="none"/>
      <rect x="1" y="1" width="69" height="119" rx="34" fill="none"/>
    </g>
    <g id="Enmascarar_grupo_1098836" data-name="Enmascarar grupo 1098836" clip-path="url(#clip-path)">
      <g id="pena" transform="translate(656.7 6992)">
        <path id="Trazado_879820" data-name="Trazado 879820" d="M50.05,1.283H3.85A2.574,2.574,0,0,0,1.283,3.85v61.6L11.55,75.717h38.5a2.574,2.574,0,0,0,2.567-2.567V3.85A2.574,2.574,0,0,0,50.05,1.283Zm0,0" fill="#e2c8ac"/>
        <path id="Trazado_879821" data-name="Trazado 879821" d="M8.983,65.45h-7.7L11.55,75.717v-7.7A2.574,2.574,0,0,0,8.983,65.45Zm0,0" fill="#ceb195"/>
        <path id="Trazado_879822" data-name="Trazado 879822" d="M59.547,62.113l-26.18-26.18-3.85,3.85L55.7,65.963a2.722,2.722,0,1,0,3.85-3.85Zm0,0" fill="#5b4349"/>
        <path id="Trazado_879823" data-name="Trazado 879823" d="M11.516,38.455,30.754,19.217,41.008,29.471,21.77,48.709Zm0,0" fill="#704d4d"/>
        <path id="Trazado_879824" data-name="Trazado 879824" d="M45.687,25.154,35.163,14.63a2.481,2.481,0,0,0-3.593,0,2.534,2.534,0,0,0-.77,1.8V19.25L41.067,29.517H43.89a2.574,2.574,0,0,0,2.567-2.567,2.534,2.534,0,0,0-.77-1.8Zm0,0" fill="#5b4349"/>
        <path id="Trazado_879825" data-name="Trazado 879825" d="M8.726,38.5A2.574,2.574,0,0,0,6.16,41.067a2.534,2.534,0,0,0,.77,1.8L17.453,53.387a2.481,2.481,0,0,0,3.593,0,2.534,2.534,0,0,0,.77-1.8V48.767L11.55,38.5Zm0,0" fill="#5b4349"/>
        <path id="Trazado_879826" data-name="Trazado 879826" d="M38.889,11.913l2.54-2.541,1.815,1.815L40.7,13.728Zm0,0" fill="#8e6a65"/>
        <path id="Trazado_879827" data-name="Trazado 879827" d="M42.751,15.75l5.173-5.172,1.815,1.815-5.172,5.172Zm0,0" fill="#8e6a65"/>
        <path id="Trazado_879828" data-name="Trazado 879828" d="M46.614,19.587l7.713-7.713,1.815,1.815L48.429,21.4Zm0,0" fill="#8e6a65"/>
        <g id="Grupo_1103026" data-name="Grupo 1103026">
          <path id="Trazado_879829" data-name="Trazado 879829" d="M19.25,6.417h15.4V8.983H19.25Zm0,0" fill="#5da364"/>
          <path id="Trazado_879830" data-name="Trazado 879830" d="M6.417,12.833H26.95V15.4H6.417Zm0,0" fill="#5da364"/>
          <path id="Trazado_879831" data-name="Trazado 879831" d="M6.417,19.25h15.4v2.567H6.417Zm0,0" fill="#5da364"/>
          <path id="Trazado_879832" data-name="Trazado 879832" d="M6.417,25.667H16.683v2.567H6.417Zm0,0" fill="#5da364"/>
          <path id="Trazado_879833" data-name="Trazado 879833" d="M6.417,32.083h3.85V34.65H6.417Zm0,0" fill="#5da364"/>
          <path id="Trazado_879834" data-name="Trazado 879834" d="M6.417,57.75H42.35v2.567H6.417Zm0,0" fill="#5da364"/>
          <path id="Trazado_879835" data-name="Trazado 879835" d="M16.683,62.883h30.8V65.45h-30.8Zm0,0" fill="#5da364"/>
          <path id="Trazado_879836" data-name="Trazado 879836" d="M16.683,68.017h30.8v2.567h-30.8Zm0,0" fill="#5da364"/>
        </g>
        <path id="Trazado_879837" data-name="Trazado 879837" d="M60.445,61.215,53.9,54.67V21.817H51.333V52.1L35.8,36.575,41.58,30.8h2.31a3.781,3.781,0,0,0,3.85-3.85,3.5,3.5,0,0,0-1.156-2.7L36.062,13.732a3.85,3.85,0,0,0-6.545,2.695v2.31l-18.48,18.48H8.726a3.781,3.781,0,0,0-3.85,3.85,3.5,3.5,0,0,0,1.156,2.7L16.555,54.285A3.85,3.85,0,0,0,23.1,51.59V49.28l7.058-7.058L51.333,63.4V73.15a1.212,1.212,0,0,1-1.283,1.283H12.833V68.017a3.781,3.781,0,0,0-3.85-3.85H2.567V3.85A1.212,1.212,0,0,1,3.85,2.567h46.2A1.212,1.212,0,0,1,51.333,3.85V8.983H53.9V3.85A3.781,3.781,0,0,0,50.05,0H3.85A3.781,3.781,0,0,0,0,3.85V65.963L11.037,77H50.05a3.781,3.781,0,0,0,3.85-3.85V65.963l.9.9a3.993,3.993,0,1,0,5.647-5.647Zm-50.179,6.8v4.62l-5.9-5.9h4.62A1.212,1.212,0,0,1,10.267,68.017Zm22.2-52.488a1.241,1.241,0,0,1,1.8,0L44.788,26.052a1.241,1.241,0,0,1,0,1.8,1.165,1.165,0,0,1-.9.385H41.58l-9.5-9.5v-2.31a1.387,1.387,0,0,1,.385-.9ZM30.8,21.047l8.47,8.47L21.817,46.97l-8.47-8.47ZM20.149,52.488a1.241,1.241,0,0,1-1.8,0L7.828,41.965a1.241,1.241,0,0,1,0-1.8,1.165,1.165,0,0,1,.9-.385h2.31l9.5,9.5v2.31a1.387,1.387,0,0,1-.385.9ZM57.622,65.45a1.458,1.458,0,0,1-1.026-.385l-24.64-24.64,2.053-2.053,24.64,24.64a1.56,1.56,0,0,1,0,2.053,1.459,1.459,0,0,1-1.027.385Zm0,0"/>
        <path id="Trazado_879838" data-name="Trazado 879838" d="M38.889,11.913l2.54-2.541,1.815,1.815L40.7,13.728Zm0,0"/>
        <path id="Trazado_879839" data-name="Trazado 879839" d="M42.751,15.75l5.173-5.172,1.815,1.815-5.172,5.172Zm0,0"/>
        <path id="Trazado_879840" data-name="Trazado 879840" d="M46.614,19.587l7.713-7.713,1.815,1.815L48.429,21.4Zm0,0"/>
        <path id="Trazado_879841" data-name="Trazado 879841" d="M19.25,6.417h15.4V8.983H19.25Zm0,0"/>
        <path id="Trazado_879842" data-name="Trazado 879842" d="M6.417,12.833H26.95V15.4H6.417Zm0,0"/>
        <path id="Trazado_879843" data-name="Trazado 879843" d="M6.417,19.25h15.4v2.567H6.417Zm0,0"/>
        <path id="Trazado_879844" data-name="Trazado 879844" d="M6.417,25.667H16.683v2.567H6.417Zm0,0"/>
        <path id="Trazado_879845" data-name="Trazado 879845" d="M6.417,32.083h3.85V34.65H6.417Zm0,0"/>
        <path id="Trazado_879846" data-name="Trazado 879846" d="M6.417,57.75H42.35v2.567H6.417Zm0,0"/>
        <path id="Trazado_879847" data-name="Trazado 879847" d="M16.683,62.883h30.8V65.45h-30.8Zm0,0"/>
        <path id="Trazado_879848" data-name="Trazado 879848" d="M16.683,68.017h30.8v2.567h-30.8Zm0,0"/>
      </g>
    </g>
  </g>
</svg>
