<svg xmlns="http://www.w3.org/2000/svg" xmlns:xlink="http://www.w3.org/1999/xlink" width="77" height="121" viewBox="0 0 77 121">
  <defs>
    <clipPath id="clip-path">
      <rect id="Rect치ngulo_403455" data-name="Rect치ngulo 403455" width="77" height="77" transform="translate(649 6992)" fill="#fff" stroke="#707070" stroke-width="1"/>
    </clipPath>
  </defs>
  <g id="Grupo_1102496" data-name="Grupo 1102496" transform="translate(-649 -6970)">
    <g id="Rect치ngulo_403454" data-name="Rect치ngulo 403454" transform="translate(652 6970)" fill="#fff" stroke="#5169dd" stroke-width="2" stroke-dasharray="6">
      <rect width="71" height="121" rx="35" stroke="none"/>
      <rect x="1" y="1" width="69" height="119" rx="34" fill="none"/>
    </g>
    <g id="Enmascarar_grupo_1098837" data-name="Enmascarar grupo 1098837" clip-path="url(#clip-path)">
      <g id="terminacion" transform="translate(647.758 6990.758)">
        <g id="Grupo_1103030" data-name="Grupo 1103030">
          <g id="Grupo_1103027" data-name="Grupo 1103027">
            <path id="Trazado_879849" data-name="Trazado 879849" d="M19.889,12.591H53.448a1.057,1.057,0,0,1,.774.321l6.147,6.146a1.058,1.058,0,0,1,.321.774V65.8a1.1,1.1,0,0,1-1.095,1.095H19.888A1.1,1.1,0,0,1,18.794,65.8V13.686a1.1,1.1,0,0,1,1.1-1.095Z" fill="#eceff1" fill-rule="evenodd"/>
            <path id="Trazado_879850" data-name="Trazado 879850" d="M19.889,12.591h2v54.3h-2A1.1,1.1,0,0,1,18.794,65.8V13.686a1.1,1.1,0,0,1,1.095-1.095Z" fill="#d1d1d6" fill-rule="evenodd"/>
            <path id="Trazado_879851" data-name="Trazado 879851" d="M53.9,12.686a1.1,1.1,0,0,1,.321.226l6.147,6.147a1.1,1.1,0,0,1,.226.321H54.449a.548.548,0,0,1-.547-.547V12.686Z" fill="#a79ba7" fill-rule="evenodd"/>
            <path id="Trazado_879852" data-name="Trazado 879852" d="M23.957,23.045h6.778a.778.778,0,0,1,.776.776V30.6a.778.778,0,0,1-.776.776H23.957a.778.778,0,0,1-.776-.776V23.821A.778.778,0,0,1,23.957,23.045Z" fill="#8ac9fe" fill-rule="evenodd"/>
            <path id="Trazado_879853" data-name="Trazado 879853" d="M29.183,23.045h1.552a.778.778,0,0,1,.776.776V30.6a.778.778,0,0,1-.776.776H29.183a.778.778,0,0,0,.776-.776V23.821A.778.778,0,0,0,29.183,23.045Z" fill="#60b7ff" fill-rule="evenodd"/>
            <path id="Trazado_879854" data-name="Trazado 879854" d="M23.957,36.62h6.778a.778.778,0,0,1,.776.776v6.778a.778.778,0,0,1-.776.776H23.957a.778.778,0,0,1-.776-.776V37.4A.778.778,0,0,1,23.957,36.62Z" fill="#6cf5c2" fill-rule="evenodd"/>
            <path id="Trazado_879855" data-name="Trazado 879855" d="M29.183,36.62h1.552a.778.778,0,0,1,.776.776v6.778a.778.778,0,0,1-.776.776H29.183a.778.778,0,0,0,.776-.776V37.4A.778.778,0,0,0,29.183,36.62Z" fill="#00e499" fill-rule="evenodd"/>
            <path id="Trazado_879856" data-name="Trazado 879856" d="M23.957,50.2h6.778a.778.778,0,0,1,.776.776v6.778a.778.778,0,0,1-.776.776H23.957a.778.778,0,0,1-.776-.776V50.972A.778.778,0,0,1,23.957,50.2Z" fill="#ffe177" fill-rule="evenodd"/>
            <path id="Trazado_879857" data-name="Trazado 879857" d="M29.183,50.2h1.552a.778.778,0,0,1,.776.776v6.778a.778.778,0,0,1-.776.776H29.183a.778.778,0,0,0,.776-.776V50.972A.778.778,0,0,0,29.183,50.2Z" fill="#ffd064" fill-rule="evenodd"/>
          </g>
          <g id="Grupo_1103028" data-name="Grupo 1103028">
            <path id="Trazado_879858" data-name="Trazado 879858" d="M17.554,4.566a10.726,10.726,0,0,1,3.141,1.3l2.041-.906,2.405,2.405-.906,2.04a10.722,10.722,0,0,1,1.3,3.142l2.082.8v3.4l-2.083.8a10.728,10.728,0,0,1-1.3,3.141l.906,2.041L22.736,25.14l-2.04-.906a10.723,10.723,0,0,1-3.141,1.3l-.8,2.082h-3.4l-.8-2.083a10.726,10.726,0,0,1-3.141-1.3l-2.041.906L4.962,22.735l.906-2.04a10.727,10.727,0,0,1-1.3-3.141l-2.082-.8v-3.4l2.082-.8a10.726,10.726,0,0,1,1.3-3.141L4.962,7.367,7.367,4.962l2.041.906a10.726,10.726,0,0,1,3.141-1.3l.8-2.083h3.4Z" fill="#ffe177" fill-rule="evenodd"/>
            <path id="Trazado_879859" data-name="Trazado 879859" d="M9.408,24.234l-2.041.906-.314-.314,1.913-.85q.218.134.442.258ZM17.554,4.566a10.726,10.726,0,0,1,3.141,1.3l-.58.258a14.152,14.152,0,0,0-3.582-1.56l-.8-2.083h1.022ZM20.7,24.234a10.723,10.723,0,0,1-3.141,1.3l-.8,2.082H15.731l.8-2.082a14.147,14.147,0,0,0,3.583-1.56ZM7.053,5.276l.314-.314,2.041.906q-.224.123-.442.258Zm14.975,0,.707-.314,2.405,2.405-.906,2.04a10.722,10.722,0,0,1,1.3,3.142l2.082.8v3.4l-2.083.8a10.728,10.728,0,0,1-1.3,3.141l.906,2.041L22.736,25.14l-.708-.314,2.091-2.091-.906-2.041a10.726,10.726,0,0,0,1.3-3.141l2.083-.8v-3.4l-2.082-.8a10.724,10.724,0,0,0-1.3-3.142l.906-2.04Z" fill="#ffd064" fill-rule="evenodd"/>
            <circle id="Elipse_11634" data-name="Elipse 11634" cx="6.839" cy="6.839" r="6.839" transform="translate(5.377 15.051) rotate(-45)" fill="#eceff1"/>
            <path id="Trazado_879860" data-name="Trazado 879860" d="M15.051,8.211a6.84,6.84,0,0,0,0,13.68q.275,0,.544-.022a6.84,6.84,0,0,1,0-13.637q-.269-.021-.544-.022Z" fill="#d1d1d6" fill-rule="evenodd"/>
          </g>
          <g id="Grupo_1103029" data-name="Grupo 1103029">
            <ellipse id="Elipse_11635" data-name="Elipse 11635" cx="12.454" cy="12.454" rx="12.454" ry="12.454" transform="translate(51.833 76.695) rotate(-88.625)" fill="#8ac9fe"/>
            <path id="Trazado_879861" data-name="Trazado 879861" d="M64.549,52.1a12.45,12.45,0,1,1,0,24.9c-.261,0-.519-.009-.776-.025a12.45,12.45,0,0,0,0-24.851C64.03,52.108,64.289,52.1,64.549,52.1Z" fill="#60b7ff" fill-rule="evenodd"/>
          </g>
        </g>
        <path id="Trazado_879862" data-name="Trazado 879862" d="M20.65,15.051a5.6,5.6,0,1,0-5.6,5.6A5.605,5.605,0,0,0,20.65,15.051Zm-5.6,8.082a8.082,8.082,0,1,1,8.082-8.082A8.09,8.09,0,0,1,15.052,23.133Zm2.214,1.195a1.245,1.245,0,0,0-.871.763l-.5,1.287H14.2l-.5-1.287a1.245,1.245,0,0,0-.871-.763,9.424,9.424,0,0,1-2.777-1.152A1.245,1.245,0,0,0,8.9,23.1l-1.263.56-1.2-1.2L7,21.2a1.237,1.237,0,0,0-.077-1.155,9.475,9.475,0,0,1-1.15-2.777,1.248,1.248,0,0,0-.762-.872L3.725,15.9V14.2l1.288-.5a1.243,1.243,0,0,0,.762-.872,9.475,9.475,0,0,1,1.15-2.777A1.237,1.237,0,0,0,7,8.9l-.56-1.261,1.2-1.2L8.9,7a1.243,1.243,0,0,0,1.155-.078,9.5,9.5,0,0,1,2.777-1.152,1.241,1.241,0,0,0,.871-.761l.5-1.287h1.7l.5,1.287a1.24,1.24,0,0,0,.872.761,9.524,9.524,0,0,1,2.776,1.152A1.242,1.242,0,0,0,21.2,7l1.262-.56,1.2,1.2L23.1,8.9a1.243,1.243,0,0,0,.077,1.155,9.5,9.5,0,0,1,1.152,2.777,1.236,1.236,0,0,0,.762.872l1.285.5v1.7l-1.287.495a1.245,1.245,0,0,0-.763.872,9.473,9.473,0,0,1-1.15,2.777A1.239,1.239,0,0,0,23.1,21.2l.56,1.262-1.2,1.2L21.2,23.1a1.243,1.243,0,0,0-1.155.077A9.414,9.414,0,0,1,17.266,24.328Zm-.514,4.533h-3.4a1.243,1.243,0,0,1-1.16-.8l-.574-1.494a11.928,11.928,0,0,1-2.283-.946l-1.462.649a1.241,1.241,0,0,1-1.383-.256l-2.4-2.4a1.245,1.245,0,0,1-.257-1.383l.65-1.463a11.858,11.858,0,0,1-.947-2.283l-1.492-.574a1.242,1.242,0,0,1-.8-1.158v-3.4a1.244,1.244,0,0,1,.8-1.16l1.492-.574a11.9,11.9,0,0,1,.947-2.282l-.65-1.464A1.241,1.241,0,0,1,4.084,6.49l2.4-2.406a1.24,1.24,0,0,1,1.383-.256l1.462.649a12.13,12.13,0,0,1,2.283-.946l.574-1.494a1.243,1.243,0,0,1,1.16-.795h3.4a1.241,1.241,0,0,1,1.159.795l.575,1.494a12.044,12.044,0,0,1,2.282.946l1.464-.649a1.24,1.24,0,0,1,1.382.256l2.4,2.406a1.24,1.24,0,0,1,.258,1.381l-.651,1.463a11.985,11.985,0,0,1,.948,2.283l1.493.574a1.244,1.244,0,0,1,.795,1.16v3.4a1.242,1.242,0,0,1-.795,1.158l-1.493.574a11.985,11.985,0,0,1-.948,2.283l.651,1.463a1.243,1.243,0,0,1-.258,1.383l-2.4,2.4a1.239,1.239,0,0,1-1.382.256l-1.462-.649a12,12,0,0,1-2.283.947l-.575,1.492a1.242,1.242,0,0,1-1.159.8ZM69.568,59.868,62.152,66.6,59.574,64.02a1.242,1.242,0,1,0-1.756,1.756l3.414,3.414a1.246,1.246,0,0,0,1.714.042l8.291-7.526a1.241,1.241,0,1,0-1.669-1.838Zm6.19,4.682A11.209,11.209,0,1,1,64.549,53.341,11.222,11.222,0,0,1,75.758,64.549Zm2.484,0A13.692,13.692,0,1,1,64.549,50.857,13.709,13.709,0,0,1,78.242,64.549ZM53.787,28.231H35.966a1.242,1.242,0,1,0,0,2.484h17.82a1.242,1.242,0,0,0,0-2.484Zm0-4.525H35.966a1.242,1.242,0,1,0,0,2.484h17.82a1.242,1.242,0,0,0,0-2.484Zm0,13.576H35.966a1.242,1.242,0,1,0,0,2.484h17.82a1.242,1.242,0,0,0,0-2.484Zm1.241,5.767a1.241,1.241,0,0,0-1.241-1.242H35.966a1.242,1.242,0,1,0,0,2.484h17.82A1.241,1.241,0,0,0,55.028,43.049ZM52.864,52.1a1.242,1.242,0,0,0-1.242-1.242H35.966a1.242,1.242,0,1,0,0,2.484H51.622A1.242,1.242,0,0,0,52.864,52.1Zm-16.9,3.283a1.242,1.242,0,1,0,0,2.484H47.9a1.242,1.242,0,1,0,0-2.484Zm-5.7-3.944H24.423v5.846h5.846ZM32.753,50.2v8.33a1.241,1.241,0,0,1-1.241,1.242H23.18a1.241,1.241,0,0,1-1.241-1.242V50.2a1.241,1.241,0,0,1,1.241-1.242h8.331A1.242,1.242,0,0,1,32.753,50.2ZM30.269,37.862H24.423v5.848h5.846Zm2.484,7.09a1.242,1.242,0,0,1-1.241,1.242H23.18a1.242,1.242,0,0,1-1.241-1.242V36.62a1.242,1.242,0,0,1,1.241-1.242h8.331a1.242,1.242,0,0,1,1.241,1.242ZM27.774,23.044a1.241,1.241,0,0,0,1.241,1.241h1.253v5.849H24.423v-1.06a1.242,1.242,0,0,0-2.484,0v2.3a1.242,1.242,0,0,0,1.241,1.242h8.331a1.242,1.242,0,0,0,1.241-1.242V23.044A1.242,1.242,0,0,0,31.511,21.8h-2.5a1.243,1.243,0,0,0-1.241,1.242Zm27.369-4.907h2.547l-2.547-2.548ZM29.793,12.59a1.242,1.242,0,0,1,1.241-1.242H53.448a2.31,2.31,0,0,1,.925.19.987.987,0,0,1,.124.059,2.376,2.376,0,0,1,.6.436l6.146,6.148a2.292,2.292,0,0,1,.436.6,1.043,1.043,0,0,1,.061.126,2.326,2.326,0,0,1,.188.924V49.158a1.242,1.242,0,0,1-2.484,0V20.621h-5a1.792,1.792,0,0,1-1.79-1.789v-5H31.034a1.242,1.242,0,0,1-1.241-1.242ZM50.1,66.892a1.242,1.242,0,0,1-1.242,1.241H19.888A2.339,2.339,0,0,1,17.552,65.8V31.035a1.242,1.242,0,1,1,2.484,0V65.65H48.857A1.243,1.243,0,0,1,50.1,66.892Z" fill="#242222" fill-rule="evenodd"/>
      </g>
    </g>
  </g>
</svg>
