<svg xmlns="http://www.w3.org/2000/svg" xmlns:xlink="http://www.w3.org/1999/xlink" width="87.264" height="87.264" viewBox="0 0 87.264 87.264">
  <defs>
    <clipPath id="clip-path">
      <rect id="Rectángulo_403471" data-name="Rectángulo 403471" width="52.358" height="52.358" transform="translate(197.785 6306.453)" fill="#fff" stroke="#707070" stroke-width="1"/>
    </clipPath>
  </defs>
  <g id="Grupo_1102505" data-name="Grupo 1102505" transform="translate(-180.332 -6289)">
    <rect id="Rectángulo_400898" data-name="Rectángulo 400898" width="87.264" height="87.264" rx="43.632" transform="translate(180.332 6289)" fill="#fff" opacity="0.859"/>
    <g id="Rectángulo_400907" data-name="Rectángulo 400907" transform="translate(180.332 6289)" fill="none" stroke="#3b57de" stroke-linecap="round" stroke-width="2" stroke-dasharray="7">
      <rect width="87.264" height="87.264" rx="43.632" stroke="none"/>
      <rect x="1" y="1" width="85.264" height="85.264" rx="42.632" fill="none"/>
    </g>
    <g id="Enmascarar_grupo_1098845" data-name="Enmascarar grupo 1098845" clip-path="url(#clip-path)">
      <g id="dinero" transform="translate(197.785 6306.453)">
        <g id="Grupo_1103068" data-name="Grupo 1103068">
          <path id="Trazado_879995" data-name="Trazado 879995" d="M9.2,11.862H37.837a4.091,4.091,0,0,0,4.09,4.09v6.286a11.178,11.178,0,0,1,4.09,1.539V7.772h-45V33.337H28.838a11.219,11.219,0,0,1,.767-4.09H9.2a4.091,4.091,0,0,0-4.09-4.09v-9.2A4.091,4.091,0,0,0,9.2,11.862Z" fill="#cbe558" fill-rule="evenodd"/>
          <path id="Trazado_879996" data-name="Trazado 879996" d="M37.837,11.862H9.2a4.091,4.091,0,0,1-4.09,4.09v9.2a4.091,4.091,0,0,1,4.09,4.09H29.6a11.267,11.267,0,0,1,12.322-7.009V15.953A4.091,4.091,0,0,1,37.837,11.862Z" fill="#e0ef9b" fill-rule="evenodd"/>
          <path id="Trazado_879997" data-name="Trazado 879997" d="M40.087,22.089a11.213,11.213,0,1,0,1.841.15,11.253,11.253,0,0,0-1.841-.15Zm-1.818,9.431,2.545-2.545A2.571,2.571,0,0,1,44.45,32.61L41.9,35.155,39.36,37.7a2.571,2.571,0,0,1-3.636-3.636Z" fill="#fff" fill-rule="evenodd"/>
          <path id="Trazado_879998" data-name="Trazado 879998" d="M40.814,28.974l-2.545,2.545L41.9,35.155,44.45,32.61a2.571,2.571,0,0,0-3.636-3.636Z" fill="#ff9eb1" fill-rule="evenodd"/>
          <path id="Trazado_879999" data-name="Trazado 879999" d="M41.9,35.155l-3.636-3.636-2.545,2.545A2.571,2.571,0,0,0,39.36,37.7Z" fill="#ff5d7d" fill-rule="evenodd"/>
        </g>
        <g id="Grupo_1103069" data-name="Grupo 1103069">
          <path id="Trazado_880000" data-name="Trazado 880000" d="M28.327,33.337H1.023V7.772h45v15.5" fill="none" stroke="#000" stroke-linecap="round" stroke-linejoin="round" stroke-miterlimit="22.926" stroke-width="2.045" fill-rule="evenodd"/>
          <path id="Trazado_880001" data-name="Trazado 880001" d="M29.094,29.247H9.2a4.091,4.091,0,0,0-4.09-4.09v-9.2a4.091,4.091,0,0,0,4.09-4.09H37.837a4.091,4.091,0,0,0,4.09,4.09v5.775" fill="none" stroke="#000" stroke-linecap="round" stroke-linejoin="round" stroke-miterlimit="22.926" stroke-width="2.045" fill-rule="evenodd"/>
          <path id="Trazado_880002" data-name="Trazado 880002" d="M24.8,17.476l-.451-.187a1.666,1.666,0,0,0-1.275,3.079l.451.187.451.187A1.666,1.666,0,0,1,22.7,23.821l-.451-.187" fill="none" stroke="#000" stroke-linecap="round" stroke-linejoin="round" stroke-miterlimit="22.926" stroke-width="2.045" fill-rule="evenodd"/>
          <line id="Línea_4309" data-name="Línea 4309" y1="0.933" transform="translate(23.52 15.953)" fill="none" stroke="#000" stroke-linecap="round" stroke-linejoin="round" stroke-miterlimit="22.926" stroke-width="2.045"/>
          <line id="Línea_4310" data-name="Línea 4310" y1="1.017" transform="translate(23.52 24.14)" fill="none" stroke="#000" stroke-linecap="round" stroke-linejoin="round" stroke-miterlimit="22.926" stroke-width="2.045"/>
          <path id="Trazado_880003" data-name="Trazado 880003" d="M44.45,28.974h0a2.578,2.578,0,0,1,0,3.636L39.36,37.7a2.578,2.578,0,0,1-3.636,0h0a2.578,2.578,0,0,1,0-3.636l5.09-5.09A2.578,2.578,0,0,1,44.45,28.974Z" fill="none" stroke="#000" stroke-linecap="round" stroke-linejoin="round" stroke-miterlimit="22.926" stroke-width="2.045" fill-rule="evenodd"/>
          <line id="Línea_4311" data-name="Línea 4311" x2="2.969" y2="2.969" transform="translate(38.602 31.853)" fill="none" stroke="#000" stroke-linecap="round" stroke-linejoin="round" stroke-miterlimit="22.926" stroke-width="2.045"/>
          <path id="Trazado_880004" data-name="Trazado 880004" d="M38.834,22.158a11.249,11.249,0,1,1-10,11.179,11.2,11.2,0,0,1,2.193-6.674" fill="none" stroke="#000" stroke-linecap="round" stroke-linejoin="round" stroke-miterlimit="22.926" stroke-width="2.045" fill-rule="evenodd"/>
          <line id="Línea_4312" data-name="Línea 4312" x2="0.001" transform="translate(34.462 23.596)" fill="none" stroke="#000" stroke-linecap="round" stroke-linejoin="round" stroke-miterlimit="2.613" stroke-width="2.045"/>
        </g>
      </g>
    </g>
  </g>
</svg>
