<svg xmlns="http://www.w3.org/2000/svg" xmlns:xlink="http://www.w3.org/1999/xlink" width="77" height="121" viewBox="0 0 77 121">
  <defs>
    <clipPath id="clip-path">
      <rect id="Rect치ngulo_403455" data-name="Rect치ngulo 403455" width="77" height="77" transform="translate(649 6992)" fill="#fff" stroke="#707070" stroke-width="1"/>
    </clipPath>
    <clipPath id="clip-path-2">
      <path id="path7209" d="M0-77H77V0H0Z"/>
    </clipPath>
  </defs>
  <g id="Grupo_1102489" data-name="Grupo 1102489" transform="translate(-649 -6970)">
    <g id="Rect치ngulo_403454" data-name="Rect치ngulo 403454" transform="translate(652 6970)" fill="#fff" stroke="#5169dd" stroke-width="2" stroke-dasharray="6">
      <rect width="71" height="121" rx="35" stroke="none"/>
      <rect x="1" y="1" width="69" height="119" rx="34" fill="none"/>
    </g>
    <g id="Enmascarar_grupo_1098831" data-name="Enmascarar grupo 1098831" clip-path="url(#clip-path)">
      <g id="g7203" transform="translate(649 7069)">
        <g id="g7205">
          <g id="g7207" clip-path="url(#clip-path-2)">
            <g id="g7213" transform="translate(10.095 -75.872)">
              <path id="path7215" d="M0,0A4.646,4.646,0,0,0-4.646,4.646V64.493A4.646,4.646,0,0,0,0,69.139H43.682a4.646,4.646,0,0,0,4.646-4.646V14.327A3.52,3.52,0,0,0,47.3,11.838L36.49,1.031A3.52,3.52,0,0,0,34,0Z" fill="#f4f8f8"/>
            </g>
            <g id="g7217" transform="translate(50.201 -63.003)">
              <path id="path7219" d="M0,0A4.662,4.662,0,0,1-1.018-.113V51.624A4.646,4.646,0,0,1-5.664,56.27H3.577a4.646,4.646,0,0,0,4.646-4.646V1.458A3.519,3.519,0,0,0,7.906,0Z" fill="#e5ecf1"/>
            </g>
            <g id="g7221" transform="translate(57.392 -64.034)">
              <path id="path7223" d="M0,0-10.807-10.807a3.52,3.52,0,0,0-1.031-.714v7.906A4.646,4.646,0,0,0-7.192,1.031H.714A3.518,3.518,0,0,0,0,0" fill="#fc8086"/>
            </g>
            <g id="g7225" transform="translate(62.134 -15.443)">
              <path id="path7227" d="M0,0-16.595-9.827a1.792,1.792,0,0,1-.628-2.454l.849-1.433L-19.731-15.7c-2.215-1.271-3.251-1.506-5.249-.734l-2.178.842a4.636,4.636,0,0,1-4.035-.336l-5.829-3.437L-45.3-5.391l7.463,4.405A4.642,4.642,0,0,1-36.527.172l2.515,3.262a28.937,28.937,0,0,0,6.1,4.822l9.6,5.687a2.667,2.667,0,0,0,3.653-.935A2.667,2.667,0,0,0-15.6,9.354l3,1.777A2.666,2.666,0,0,0-8.947,10.2a2.667,2.667,0,0,0-.935-3.653l2,1.184A2.667,2.667,0,0,0-4.23,6.792a2.667,2.667,0,0,0-.935-3.653l2.447,1.45A2.666,2.666,0,0,0,.935,3.653,2.666,2.666,0,0,0,0,0" fill="#ffece3"/>
            </g>
            <g id="g7229" transform="translate(62.133 -15.443)">
              <path id="path7231" d="M0,0-5.719-3.387a3.059,3.059,0,0,1-.765,1.374,3.177,3.177,0,0,1-3.9.479L-12.011-2.5a.144.144,0,0,0-.178.025.143.143,0,0,0-.011.182,3.1,3.1,0,0,1,.133,3.369,3.105,3.105,0,0,1-4.254,1.089L-17.6,1.4a.124.124,0,0,0-.155.023.123.123,0,0,0-.006.158,3.1,3.1,0,0,1,.17,3.506,3.158,3.158,0,0,1-4.295,1l-1.05-.622A.614.614,0,0,0-23.6,5.5a.611.611,0,0,0-.247.62,3.088,3.088,0,0,1-.369,2.2A3.088,3.088,0,0,1-25.67,9.586l7.293,4.32a2.724,2.724,0,0,0,3.739-.944A2.666,2.666,0,0,0-15.6,9.354l2.939,1.741a2.723,2.723,0,0,0,3.739-.944,2.667,2.667,0,0,0-.961-3.609l1.939,1.149A2.724,2.724,0,0,0-4.2,6.748a2.667,2.667,0,0,0-.961-3.609l2.387,1.414A2.723,2.723,0,0,0,.961,3.609,2.666,2.666,0,0,0,0,0" fill="#ffddce"/>
            </g>
            <g id="g7233" transform="translate(56.969 -12.305)">
              <path id="path7235" d="M0,0-7.581-4.491" fill="none" stroke="#000" stroke-linecap="round" stroke-linejoin="round" stroke-miterlimit="10" stroke-width="2.256"/>
            </g>
            <g id="g7237" transform="translate(52.251 -8.901)">
              <path id="path7239" d="M0,0-5.586-3.309" fill="none" stroke="#000" stroke-linecap="round" stroke-linejoin="round" stroke-miterlimit="10" stroke-width="2.256"/>
            </g>
            <g id="g7241" transform="translate(46.534 -6.089)">
              <path id="path7243" d="M0,0-2.189-1.3" fill="none" stroke="#000" stroke-linecap="round" stroke-linejoin="round" stroke-miterlimit="10" stroke-width="2.256"/>
            </g>
            <g id="g7245" transform="translate(60.696 -33.973)">
              <path id="path7247" d="M0,0-4.477,2.6a4.636,4.636,0,0,1-4.035.336l-2.456-.965a3.947,3.947,0,0,0-2.412-.152l-3.763.952A3.947,3.947,0,0,0-20.12,6.6v5.023a1.288,1.288,0,0,0,1.286,1.288,3.876,3.876,0,0,0,3.878-3.876V8.822L1.15,18.36a4.637,4.637,0,0,1,1.017-.816l6.111-3.571Z" fill="#fcd0a3"/>
            </g>
            <g id="g7249" transform="translate(63.084 -29.942)">
              <path id="path7251" d="M0,0-.861,3.192-10.5,8.842l9.266,5.487a4.633,4.633,0,0,1,1.017-.816L5.891,9.943Z" fill="#ffb983"/>
            </g>
            <g id="g7253" transform="translate(27.569 -13.469)">
              <path id="path7255" d="M0,0-1.51,2.1a2.666,2.666,0,0,1-3.72.611,2.666,2.666,0,0,1-.611-3.72l1.51-2.1A2.666,2.666,0,0,1-.611-3.72h0A2.665,2.665,0,0,1,0,0" fill="#fcd0a3"/>
            </g>
            <g id="g7257" transform="translate(33.567 -12.681)">
              <path id="path7259" d="M0,0-3.177,4.424a2.666,2.666,0,0,1-3.72.611,2.666,2.666,0,0,1-.611-3.72l3.176-4.425A2.666,2.666,0,0,1-.611-3.72,2.666,2.666,0,0,1,0,0" fill="#fcd0a3"/>
            </g>
            <g id="g7261" transform="translate(37.898 -9.572)">
              <path id="path7263" d="M0,0-3.177,4.425a2.666,2.666,0,0,1-3.72.611,2.666,2.666,0,0,1-.611-3.72l3.177-4.424A2.666,2.666,0,0,1-.611-3.72,2.666,2.666,0,0,1,0,0" fill="#fcd0a3"/>
            </g>
            <g id="g7265" transform="translate(40.817 -4.497)">
              <path id="path7267" d="M0,0-1.056,1.471a2.666,2.666,0,0,1-3.72.611,2.666,2.666,0,0,1-.611-3.72l1.056-1.471A2.666,2.666,0,0,1-.611-3.72,2.666,2.666,0,0,1,0,0" fill="#ffb983"/>
            </g>
            <g id="g7269" transform="translate(28.233 -36.26)">
              <path id="path7271" d="M0,0-2.335-1.383a1.352,1.352,0,0,0-1.852.474l-9.6,16.2a1.352,1.352,0,0,0,.474,1.852l2.335,1.383a3.3,3.3,0,0,0,4.515-1.156L1.156,4.515A3.3,3.3,0,0,0,0,0" fill="#7c8b96"/>
            </g>
            <g id="g7273" transform="translate(59.911 -37.643)">
              <path id="path7275" d="M0,0-2.335,1.383A3.3,3.3,0,0,0-3.49,5.9L4.127,18.756a3.3,3.3,0,0,0,4.516,1.156l2.335-1.383a1.352,1.352,0,0,0,.474-1.852L1.852.474A1.352,1.352,0,0,0,0,0" fill="#7c8b96"/>
            </g>
            <g id="g7277" transform="translate(13.497 -55.145)">
              <path id="path7279" d="M0,0H36.879" fill="none" stroke="#000" stroke-linecap="round" stroke-linejoin="round" stroke-miterlimit="10" stroke-width="2.256"/>
            </g>
            <g id="g7281" transform="translate(13.497 -63.003)">
              <path id="path7283" d="M0,0H18.44" fill="none" stroke="#000" stroke-linecap="round" stroke-linejoin="round" stroke-miterlimit="10" stroke-width="2.256"/>
            </g>
            <g id="g7285" transform="translate(13.497 -48.182)">
              <path id="path7287" d="M0,0H36.879" fill="none" stroke="#000" stroke-linecap="round" stroke-linejoin="round" stroke-miterlimit="10" stroke-width="2.256"/>
            </g>
            <g id="g7289" transform="translate(45.554 -75.555)">
              <path id="path7291" d="M0,0V7.906a4.646,4.646,0,0,0,4.646,4.646h7.906" fill="none" stroke="#000" stroke-linecap="round" stroke-linejoin="round" stroke-miterlimit="10" stroke-width="2.256"/>
            </g>
            <g id="g7293" transform="translate(58.423 -42.253)">
              <path id="path7295" d="M0,0V-19.292a3.52,3.52,0,0,0-1.031-2.489L-11.838-32.588a3.52,3.52,0,0,0-2.489-1.031h-34a4.646,4.646,0,0,0-4.646,4.646V30.875a4.646,4.646,0,0,0,4.646,4.646h11.8" fill="none" stroke="#000" stroke-linecap="round" stroke-linejoin="round" stroke-miterlimit="10" stroke-width="2.256"/>
            </g>
            <g id="g7297" transform="translate(28.233 -36.26)">
              <path id="path7299" d="M0,0-2.335-1.383a1.352,1.352,0,0,0-1.852.474l-9.6,16.2a1.352,1.352,0,0,0,.474,1.852l2.335,1.383a3.3,3.3,0,0,0,4.515-1.156L1.156,4.515A3.3,3.3,0,0,0,0,0Z" fill="none" stroke="#000" stroke-linecap="round" stroke-linejoin="round" stroke-miterlimit="10" stroke-width="2.256"/>
            </g>
            <g id="g7301" transform="translate(60.467 -24.913)">
              <path id="path7303" d="M0,0,3.57,6.026A3.3,3.3,0,0,0,8.086,7.182L10.42,5.8a1.352,1.352,0,0,0,.474-1.852l-9.6-16.2A1.352,1.352,0,0,0-.557-12.73l-2.335,1.383A3.3,3.3,0,0,0-4.047-6.831L-2.7-4.558" fill="none" stroke="#000" stroke-linecap="round" stroke-linejoin="round" stroke-miterlimit="10" stroke-width="2.256"/>
            </g>
            <g id="g7305" transform="translate(42.788 -30.916)">
              <path id="path7307" d="M0,0-.385-.228C-2.6-1.5-3.636-1.734-5.634-.961l-2.178.842a4.637,4.637,0,0,1-4.035-.336l-1.347-.794" fill="none" stroke="#000" stroke-linecap="round" stroke-linejoin="round" stroke-miterlimit="10" stroke-width="2.256"/>
            </g>
            <g id="g7309" transform="translate(21.252 -18.226)">
              <path id="path7311" d="M0,0,2.257,1.332" fill="none" stroke="#000" stroke-linecap="round" stroke-linejoin="round" stroke-miterlimit="10" stroke-width="2.256"/>
            </g>
            <g id="g7313" transform="translate(40.203 -3.641)">
              <path id="path7315" d="M0,0,3.613,2.14a2.667,2.667,0,0,0,3.653-.935,2.667,2.667,0,0,0-.935-3.653l3,1.777a2.667,2.667,0,0,0,3.653-.935,2.667,2.667,0,0,0-.935-3.653l2,1.184A2.666,2.666,0,0,0,17.7-5.01a2.667,2.667,0,0,0-.935-3.653l2.447,1.449a2.666,2.666,0,0,0,3.653-.935,2.666,2.666,0,0,0-.935-3.653" fill="none" stroke="#000" stroke-linecap="round" stroke-linejoin="round" stroke-miterlimit="10" stroke-width="2.256"/>
            </g>
            <g id="g7317" transform="translate(56.534 -31.553)">
              <path id="path7319" d="M0,0-.314.183A4.636,4.636,0,0,1-4.349.518L-6.8-.447A3.947,3.947,0,0,0-9.216-.6l-3.763.952a3.947,3.947,0,0,0-2.979,3.826V9.2a1.288,1.288,0,0,0,1.286,1.288,3.876,3.876,0,0,0,3.878-3.876V6.4L5.313,15.94a4.64,4.64,0,0,1,1.017-.816l2.282-1.333" fill="none" stroke="#000" stroke-linecap="round" stroke-linejoin="round" stroke-miterlimit="10" stroke-width="2.256"/>
            </g>
            <g id="g7321" transform="translate(26.059 -11.366)">
              <path id="path7323" d="M0,0A2.666,2.666,0,0,1-3.72.611a2.666,2.666,0,0,1-.611-3.72l1.51-2.1A2.666,2.666,0,0,1,.9-5.824h0A2.666,2.666,0,0,1,1.51-2.1" fill="none" stroke="#000" stroke-linecap="round" stroke-linejoin="round" stroke-miterlimit="10" stroke-width="2.256"/>
            </g>
            <g id="g7325" transform="translate(33.567 -12.681)">
              <path id="path7327" d="M0,0-3.177,4.424a2.666,2.666,0,0,1-3.72.611,2.666,2.666,0,0,1-.611-3.72l3.176-4.425A2.666,2.666,0,0,1-.611-3.72,2.666,2.666,0,0,1,0,0Z" fill="none" stroke="#000" stroke-linecap="round" stroke-linejoin="round" stroke-miterlimit="10" stroke-width="2.256"/>
            </g>
            <g id="g7329" transform="translate(33.567 -12.681)">
              <path id="path7331" d="M0,0A2.666,2.666,0,0,1,4.331,3.109L1.154,7.534a2.666,2.666,0,0,1-3.72.611,2.666,2.666,0,0,1-.611-3.72" fill="none" stroke="#000" stroke-linecap="round" stroke-linejoin="round" stroke-miterlimit="10" stroke-width="2.256"/>
            </g>
            <g id="g7333" transform="translate(36.486 -7.606)">
              <path id="path7335" d="M0,0A2.666,2.666,0,0,1,4.331,3.109L3.275,4.581A2.666,2.666,0,1,1-1.056,1.471" fill="none" stroke="#000" stroke-linecap="round" stroke-linejoin="round" stroke-miterlimit="10" stroke-width="2.256"/>
            </g>
          </g>
        </g>
      </g>
    </g>
  </g>
</svg>
