<svg xmlns="http://www.w3.org/2000/svg" xmlns:xlink="http://www.w3.org/1999/xlink" width="77" height="121" viewBox="0 0 77 121">
  <defs>
    <clipPath id="clip-path">
      <rect id="Rect치ngulo_403455" data-name="Rect치ngulo 403455" width="77" height="77" transform="translate(649 6992)" fill="#fff" stroke="#707070" stroke-width="1"/>
    </clipPath>
  </defs>
  <g id="Grupo_1102493" data-name="Grupo 1102493" transform="translate(-649 -6970)">
    <g id="Rect치ngulo_403454" data-name="Rect치ngulo 403454" transform="translate(652 6970)" fill="#fff" stroke="#5169dd" stroke-width="2" stroke-dasharray="6">
      <rect width="71" height="121" rx="35" stroke="none"/>
      <rect x="1" y="1" width="69" height="119" rx="34" fill="none"/>
    </g>
    <g id="Enmascarar_grupo_1098834" data-name="Enmascarar grupo 1098834" clip-path="url(#clip-path)">
      <g id="condiciones-de-credito" transform="translate(644.264 6994.49)">
        <circle id="Elipse_11633" data-name="Elipse 11633" cx="20.016" cy="20.016" r="20.016" transform="translate(25.121 32.521) rotate(-45)" fill="#ffbf31"/>
        <path id="Trazado_879806" data-name="Trazado 879806" d="M8.306,41.673H50.93a2.515,2.515,0,0,1,2.507,2.507V64.239a2.515,2.515,0,0,1-2.507,2.507H8.306A2.515,2.515,0,0,1,5.8,64.239V44.18a2.515,2.515,0,0,1,2.507-2.507Z" fill="#999" fill-rule="evenodd"/>
        <path id="Trazado_879807" data-name="Trazado 879807" d="M13.32,45.434h32.6A3.761,3.761,0,0,0,49.676,49.2V59.224a3.761,3.761,0,0,0-3.761,3.761H13.32a3.761,3.761,0,0,0-3.761-3.761V49.2a3.761,3.761,0,0,0,3.761-3.761Z" fill="#ccc" fill-rule="evenodd"/>
        <path id="Trazado_879808" data-name="Trazado 879808" d="M29.618,50.392A3.817,3.817,0,1,1,25.8,54.21a3.817,3.817,0,0,1,3.817-3.817Z" fill="#999" fill-rule="evenodd"/>
        <path id="Trazado_879809" data-name="Trazado 879809" d="M29.614,56.971a2.76,2.76,0,1,1,2.764-2.761A2.762,2.762,0,0,1,29.614,56.971Zm0-7.635A4.875,4.875,0,1,0,34.49,54.21,4.881,4.881,0,0,0,29.614,49.336Zm19,8.949V50.137a4.846,4.846,0,0,1-3.646-3.644H14.258a4.833,4.833,0,0,1-3.646,3.644v8.149a4.829,4.829,0,0,1,3.646,3.644H44.97A4.842,4.842,0,0,1,48.617,58.285Zm1.06-10.146a2.707,2.707,0,0,1-2.7-2.7,1.058,1.058,0,0,0-1.06-1.057H13.317a1.058,1.058,0,0,0-1.06,1.057,2.705,2.705,0,0,1-2.7,2.7A1.059,1.059,0,0,0,8.5,49.2V59.226a1.059,1.059,0,0,0,1.06,1.057,2.7,2.7,0,0,1,2.7,2.7,1.057,1.057,0,0,0,1.06,1.057H45.912a1.058,1.058,0,0,0,1.06-1.057,2.707,2.707,0,0,1,2.7-2.7,1.052,1.052,0,0,0,1.051-1.057V49.2A1.052,1.052,0,0,0,49.677,48.139Zm10.9-9.965a1.056,1.056,0,0,1-1.492,1.495l-6.4-6.4a1.062,1.062,0,0,1-.305-.747V20.864a1.056,1.056,0,1,1,2.111,0V32.082ZM54.493,51.452v-7.27a3.57,3.57,0,0,0-3.561-3.565H36.288a18.429,18.429,0,0,1-1.781-7.04h2.12a1.057,1.057,0,1,0,0-2.114h-2.12A18.982,18.982,0,0,1,52.381,13.589v2.125a1.056,1.056,0,1,0,2.111,0V13.589A18.989,18.989,0,0,1,72.368,31.463H70.239a1.057,1.057,0,0,0,0,2.114h2.128A18.99,18.99,0,0,1,54.493,51.452ZM52.382,64.24V44.182a1.454,1.454,0,0,0-1.45-1.451H8.306a1.454,1.454,0,0,0-1.45,1.451V64.241a1.454,1.454,0,0,0,1.45,1.451H50.932a1.454,1.454,0,0,0,1.45-1.451ZM74.513,32.52a21.076,21.076,0,1,0-40.54,8.1H8.306a3.572,3.572,0,0,0-3.57,3.565V64.241a3.573,3.573,0,0,0,3.57,3.565H50.932a3.571,3.571,0,0,0,3.561-3.565V53.571A21.1,21.1,0,0,0,74.513,32.52Z" fill="#1e2f3f" fill-rule="evenodd"/>
      </g>
    </g>
  </g>
</svg>
