<svg xmlns="http://www.w3.org/2000/svg" xmlns:xlink="http://www.w3.org/1999/xlink" width="77" height="121" viewBox="0 0 77 121">
  <defs>
    <clipPath id="clip-path">
      <rect id="Rect치ngulo_403455" data-name="Rect치ngulo 403455" width="77" height="77" transform="translate(649 6992)" fill="#fff" stroke="#707070" stroke-width="1"/>
    </clipPath>
  </defs>
  <g id="Grupo_1102333" data-name="Grupo 1102333" transform="translate(-649 -6970)">
    <g id="Rect치ngulo_403454" data-name="Rect치ngulo 403454" transform="translate(652 6970)" fill="#fff" stroke="#5169dd" stroke-width="2" stroke-dasharray="6">
      <rect width="71" height="121" rx="35" stroke="none"/>
      <rect x="1" y="1" width="69" height="119" rx="34" fill="none"/>
    </g>
    <g id="Enmascarar_grupo_1098816" data-name="Enmascarar grupo 1098816" clip-path="url(#clip-path)">
      <g id="medicamentos_1_" data-name="medicamentos (1)" transform="translate(649 6992)">
        <path id="Trazado_878728" data-name="Trazado 878728" d="M1.5,52.715l5.088-5.088-.011-7.994a25.656,25.656,0,0,1,4.347-14.325L18.82,13.539a5.351,5.351,0,0,1,7.514-1.4h0a5.351,5.351,0,0,1,1.507,7.157l-4.423,7.3a.46.46,0,0,0,.718.563L48.252,3.035a5.236,5.236,0,0,1,7.4,0h0a5.236,5.236,0,0,1,0,7.4L42.639,23.457l-.013-.013L59.14,6.93a5.236,5.236,0,0,1,7.4,0h0a5.236,5.236,0,0,1,0,7.4L50.031,30.849l-.013-.013L63.035,17.818a5.236,5.236,0,0,1,7.4,0h0a5.236,5.236,0,0,1,0,7.4L57.422,38.24l-.013-.013,9.149-9.149a5.236,5.236,0,0,1,7.4,0h0a5.236,5.236,0,0,1,0,7.4L56.955,53.491l5.553-5.553L50.131,60.315a25.655,25.655,0,0,1-18.178,7.514l-5.167-.007L19.113,75.5H1.5Z" fill="#fdceae"/>
        <path id="Trazado_878729" data-name="Trazado 878729" d="M38.568,52.715h0a4.44,4.44,0,0,0-4.44-4.44H24.566a4.44,4.44,0,0,0-4.44,4.44h0a4.44,4.44,0,0,0,4.44,4.44h9.562A4.439,4.439,0,0,0,38.568,52.715Z" fill="#fe7c7a"/>
        <path id="Trazado_878730" data-name="Trazado 878730" d="M34.128,48.276H29.347v8.879h4.781a4.44,4.44,0,0,0,4.44-4.44h0A4.44,4.44,0,0,0,34.128,48.276Z" fill="#fff"/>
        <g id="Grupo_1102561" data-name="Grupo 1102561">
          <path id="Trazado_878731" data-name="Trazado 878731" d="M32.939,39.053a6.016,6.016,0,1,1,8.508,0A6.016,6.016,0,0,1,32.939,39.053Z" fill="#dde9ff"/>
        </g>
        <g id="Grupo_1102562" data-name="Grupo 1102562">
          <circle id="Elipse_11622" data-name="Elipse 11622" cx="3.609" cy="3.609" r="3.609" transform="translate(18.599 35.388)" fill="#fee891"/>
          <circle id="Elipse_11623" data-name="Elipse 11623" cx="3.609" cy="3.609" r="3.609" transform="translate(42.213 44.128)" fill="#fee891"/>
        </g>
        <path id="Trazado_878732" data-name="Trazado 878732" d="M75.026,28.015A6.7,6.7,0,0,0,71.6,26.179a6.734,6.734,0,0,0-3.556-11.267,6.739,6.739,0,0,0-9.482-9.489A6.742,6.742,0,0,0,47.189,1.972L29.183,19.978a6.855,6.855,0,0,0-7.177-10.2A6.8,6.8,0,0,0,17.571,12.7L9.679,24.471a27.068,27.068,0,0,0-4.6,15.165L5.087,47,.44,51.652a1.5,1.5,0,1,0,2.127,2.127l5.088-5.088a1.5,1.5,0,0,0,.44-1.066l-.011-7.994a24.069,24.069,0,0,1,4.093-13.485l7.892-11.769a3.847,3.847,0,0,1,6.485,4.137l-4.423,7.3A1.963,1.963,0,0,0,25.2,28.216L49.316,4.1a3.732,3.732,0,0,1,5.529,5L41.563,22.381a1.5,1.5,0,1,0,2.127,2.127L60.2,7.994a3.732,3.732,0,0,1,5.278,5.278L52.259,26.494a1.5,1.5,0,1,0,2.127,2.127l9.985-9.985a3.732,3.732,0,0,1,5.006,5.523l-13.031,13a1.5,1.5,0,0,0,0,2.127l.007.006.006.006a1.5,1.5,0,0,0,2.127,0L67.9,29.89a3.732,3.732,0,0,1,5,5.529L49.067,59.251A23.988,23.988,0,0,1,31.99,66.325h-.035l-5.167-.007h0a1.5,1.5,0,0,0-1.063.44l-7.674,7.674a1.5,1.5,0,1,0,2.127,2.127l7.232-7.232,4.542.006a27.16,27.16,0,0,0,19.243-7.955L75.026,37.546a6.74,6.74,0,0,0,0-9.531Z"/>
        <path id="Trazado_878733" data-name="Trazado 878733" d="M18.623,52.715a5.95,5.95,0,0,0,5.943,5.943h9.562a5.944,5.944,0,0,0,0-11.887H24.566A5.95,5.95,0,0,0,18.623,52.715Zm3.008,0a2.939,2.939,0,0,1,2.936-2.936h3.277v5.871H24.566A2.939,2.939,0,0,1,21.63,52.715Zm15.433,0a2.939,2.939,0,0,1-2.936,2.936H30.851V49.779h3.277A2.939,2.939,0,0,1,37.064,52.715Z"/>
        <path id="Trazado_878734" data-name="Trazado 878734" d="M37.193,27.28h0a7.52,7.52,0,1,0,5.317,2.2A7.47,7.47,0,0,0,37.193,27.28Zm3.19,10.71a4.519,4.519,0,0,1-5.136.882l4.128-4.128a1.5,1.5,0,1,0-2.127-2.127L33.12,36.745a4.513,4.513,0,1,1,7.263,1.245Z"/>
        <path id="Trazado_878735" data-name="Trazado 878735" d="M22.208,33.885A5.113,5.113,0,1,0,27.321,39,5.119,5.119,0,0,0,22.208,33.885Zm0,7.219A2.105,2.105,0,1,1,24.313,39,2.108,2.108,0,0,1,22.208,41.1Z"/>
        <path id="Trazado_878736" data-name="Trazado 878736" d="M40.709,47.737a5.113,5.113,0,1,0,5.113-5.113A5.119,5.119,0,0,0,40.709,47.737Zm7.219,0a2.105,2.105,0,1,1-2.105-2.105A2.108,2.108,0,0,1,47.928,47.737Z"/>
        <path id="Trazado_878737" data-name="Trazado 878737" d="M50.5,32.342a1.5,1.5,0,1,0-1.063.441A1.515,1.515,0,0,0,50.5,32.342Z"/>
      </g>
    </g>
  </g>
</svg>
