<svg xmlns="http://www.w3.org/2000/svg" xmlns:xlink="http://www.w3.org/1999/xlink" width="77" height="121" viewBox="0 0 77 121">
  <defs>
    <clipPath id="clip-path">
      <rect id="Rect치ngulo_403455" data-name="Rect치ngulo 403455" width="77" height="77" transform="translate(649 6992)" fill="#fff" stroke="#707070" stroke-width="1"/>
    </clipPath>
    <clipPath id="clip-path-2">
      <path id="path3369" d="M0-77H77V0H0Z"/>
    </clipPath>
  </defs>
  <g id="Grupo_1102334" data-name="Grupo 1102334" transform="translate(-649 -6970)">
    <g id="Rect치ngulo_403454" data-name="Rect치ngulo 403454" transform="translate(652 6970)" fill="#fff" stroke="#5169dd" stroke-width="2" stroke-dasharray="6">
      <rect width="71" height="121" rx="35" stroke="none"/>
      <rect x="1" y="1" width="69" height="119" rx="34" fill="none"/>
    </g>
    <g id="Enmascarar_grupo_1098817" data-name="Enmascarar grupo 1098817" clip-path="url(#clip-path)">
      <g id="g3363" transform="translate(649 7069)">
        <g id="g3365">
          <g id="g3367" clip-path="url(#clip-path-2)">
            <g id="g3373" transform="translate(71.36 -75.872)">
              <path id="path3375" d="M0,0H-32.86l-4.963,4.512,4.963,4.512H0A4.512,4.512,0,0,0,4.512,4.512,4.512,4.512,0,0,0,0,0" fill="#efedff"/>
            </g>
            <g id="g3377" transform="translate(38.5 -75.872)">
              <path id="path3379" d="M0,0H-32.86a4.512,4.512,0,0,0-4.512,4.512A4.512,4.512,0,0,0-32.86,9.023H0A6.381,6.381,0,0,1,0,0" fill="#d4d4ff"/>
            </g>
            <g id="g3381" transform="translate(71.36 -10.151)">
              <path id="path3383" d="M0,0H-32.86l-4.963,4.512,4.963,4.512H0A4.512,4.512,0,0,0,4.512,4.512,4.512,4.512,0,0,0,0,0" fill="#efedff"/>
            </g>
            <g id="g3385" transform="translate(38.5 -10.151)">
              <path id="path3387" d="M0,0H-32.86a4.512,4.512,0,0,0-4.512,4.512A4.512,4.512,0,0,0-32.86,9.023H0A6.381,6.381,0,0,1,0,0" fill="#d4d4ff"/>
            </g>
            <g id="g3389" transform="translate(71.36 -43.012)">
              <path id="path3391" d="M0,0H-32.86l-4.963,4.512,4.963,4.512H0A4.512,4.512,0,0,0,4.512,4.512,4.512,4.512,0,0,0,0,0" fill="#efedff"/>
            </g>
            <g id="g3393" transform="translate(38.5 -43.012)">
              <path id="path3395" d="M0,0H-32.86a4.512,4.512,0,0,0-4.512,4.512A4.512,4.512,0,0,0-32.86,9.023H0A6.381,6.381,0,0,1,0,0" fill="#d4d4ff"/>
            </g>
            <g id="g3397" transform="translate(68.443 -57.825)">
              <path id="path3399" d="M0,0-4.557,3.008-9.021,0V-1.128A3.384,3.384,0,0,1-5.637-4.512h2.253A3.384,3.384,0,0,1,0-1.128Z" fill="#efedff"/>
            </g>
            <g id="g3401" transform="translate(66.94 -57.825)">
              <path id="path3403" d="M0,0H-7.52a4.512,4.512,0,0,0-4.512,4.512l3.432,1.5L0,4.512Z" fill="#70dcba"/>
            </g>
            <g id="g3405" transform="translate(54.908 -47.523)">
              <path id="path3407" d="M0,0A4.512,4.512,0,0,0,4.512,4.512h7.52V0l-8.6-1.5Z" fill="#70dcba"/>
            </g>
            <g id="g3409" transform="translate(66.94 -43.012)">
              <path id="path3411" d="M0,0H1.5A4.512,4.512,0,0,0,6.016-4.512l-4.639-1.5-5.889,1.5A4.512,4.512,0,0,0,0,0" fill="#b0ebd8"/>
            </g>
            <g id="g3413" transform="translate(68.443 -57.825)">
              <path id="path3415" d="M0,0H-1.5A4.512,4.512,0,0,0-6.016,4.512l5.889,1.5,4.639-1.5A4.512,4.512,0,0,0,0,0" fill="#b0ebd8"/>
            </g>
            <g id="g3417" transform="translate(62.428 -53.313)">
              <path id="path3419" d="M0,0H-7.52V5.79H0L1.5,2.9Z" fill="#d4d4ff"/>
            </g>
            <path id="path3421" d="M62.428-47.523H72.955v-5.79H62.428Z" fill="#efedff"/>
            <g id="g3423" transform="translate(15.936 -47.06)">
              <path id="path3425" d="M0,0V-5.675A5.991,5.991,0,0,0-2.286-8.329v-3.118H-5.67L-8.4-7.8V.185A3.863,3.863,0,0,0-4.532,4.049h1.584a3.5,3.5,0,0,0,3.5-3.5Z" fill="#efedff"/>
            </g>
            <g id="g3427" transform="translate(8.319 -46.511)">
              <path id="path3429" d="M0,0V-3.5A6.216,6.216,0,0,1,1.948-8.123V-12H-1.436v3.118A5.915,5.915,0,0,0-3.722-6.224V-.549L-4.274,0a3.5,3.5,0,0,0,3.5,3.5H3.5A3.5,3.5,0,0,1,0,0" fill="#d4d4ff"/>
            </g>
            <g id="g3431" transform="translate(15.936 -52.736)">
              <path id="path3433" d="M0,0H-7.066L-8.4,1.329V5.447l.778.778H.551v-3.5A7,7,0,0,0,0,0" fill="#ff8e9e"/>
            </g>
            <g id="g3435" transform="translate(4.596 -52.736)">
              <path id="path3437" d="M0,0A7,7,0,0,0-.551,2.722v3.5H3.722v-3.5A7,7,0,0,1,4.274,0Z" fill="#ea5b70"/>
            </g>
            <g id="g3439" transform="translate(13.766 -62.337)">
              <path id="path3441" d="M0,0H-7A2.256,2.256,0,0,0-9.255,2.256v.932A2.256,2.256,0,0,0-7,5.444H0A2.256,2.256,0,0,0,2.256,3.188V2.256A2.256,2.256,0,0,0,0,0" fill="#ea5b70"/>
            </g>
            <g id="g3443" transform="translate(32.891 -47.06)">
              <path id="path3445" d="M0,0V-5.675A5.99,5.99,0,0,0-2.286-8.329v-3.118H-5.67L-8.4-7.8V.185A3.863,3.863,0,0,0-4.532,4.049h1.584a3.5,3.5,0,0,0,3.5-3.5Z" fill="#efedff"/>
            </g>
            <g id="g3447" transform="translate(25.273 -46.511)">
              <path id="path3449" d="M0,0V-3.5A6.216,6.216,0,0,1,1.948-8.123V-12H-1.436v3.118A5.916,5.916,0,0,0-3.722-6.224V-.549L-4.274,0a3.5,3.5,0,0,0,3.5,3.5H3.5A3.5,3.5,0,0,1,0,0" fill="#d4d4ff"/>
            </g>
            <g id="g3451" transform="translate(32.891 -52.736)">
              <path id="path3453" d="M0,0H-7.066L-8.4,1.329V5.447l.778.778H.551v-3.5A7,7,0,0,0,0,0" fill="#70dcba"/>
            </g>
            <g id="g3455" transform="translate(21.551 -52.736)">
              <path id="path3457" d="M0,0A7,7,0,0,0-.551,2.722v3.5H3.722v-3.5A7,7,0,0,1,4.274,0Z" fill="#30cd9c"/>
            </g>
            <g id="g3459" transform="translate(30.72 -62.337)">
              <path id="path3461" d="M0,0H-7A2.256,2.256,0,0,0-9.255,2.256v.932A2.256,2.256,0,0,0-7,5.444H0A2.256,2.256,0,0,0,2.256,3.188V2.256A2.256,2.256,0,0,0,0,0" fill="#30cd9c"/>
            </g>
            <g id="g3463" transform="translate(49.845 -52.736)">
              <path id="path3465" d="M0,0A5.992,5.992,0,0,0-2.286-2.654V-5.771H-5.67L-8.4-2.121V5.861A3.863,3.863,0,0,0-4.532,9.724h1.584a3.5,3.5,0,0,0,3.5-3.5v-3.5A7,7,0,0,0,0,0" fill="#70dcba"/>
            </g>
            <g id="g3467" transform="translate(42.228 -46.511)">
              <path id="path3469" d="M0,0V-3.5A6.211,6.211,0,0,1,1.948-8.123V-12H-1.436v3.118A5.916,5.916,0,0,0-3.722-6.224,7,7,0,0,0-4.274-3.5V0a3.5,3.5,0,0,0,3.5,3.5H3.5A3.5,3.5,0,0,1,0,0" fill="#30cd9c"/>
            </g>
            <g id="g3471" transform="translate(47.675 -62.337)">
              <path id="path3473" d="M0,0H-7A2.256,2.256,0,0,0-9.255,2.256v.932A2.256,2.256,0,0,0-7,5.444H0A2.256,2.256,0,0,0,2.256,3.188V2.256A2.256,2.256,0,0,0,0,0" fill="#676fb2"/>
            </g>
            <g id="g3475" transform="translate(44.967 -15.791)">
              <path id="path3477" d="M0,0H-2.817V3.819A1.826,1.826,0,0,0-.965,5.64H1.717A1.826,1.826,0,0,0,3.569,3.819V0Z" fill="#efedff"/>
            </g>
            <g id="g3479" transform="translate(51.447 -29.477)">
              <path id="path3481" d="M0,0H-6.1L-8.054.9V13.823l1.951.99h3.272A2,2,0,0,0-.956,13.5,73.689,73.689,0,0,0,2.214,2.7,2.255,2.255,0,0,0,0,0" fill="#b0ebd8"/>
            </g>
            <g id="g3483" transform="translate(45.343 -29.477)">
              <path id="path3485" d="M0,0H-6.121A2.253,2.253,0,0,0-8.334,2.693,70.808,70.808,0,0,0-5.156,13.51a2,2,0,0,0,1.874,1.3H0A16.769,16.769,0,0,1,0,0" fill="#70dcba"/>
            </g>
            <g id="g3487" transform="translate(66.322 -15.791)">
              <path id="path3489" d="M0,0H-2.817V3.819A1.826,1.826,0,0,0-.965,5.64H1.717A1.826,1.826,0,0,0,3.569,3.819V0Z" fill="#efedff"/>
            </g>
            <g id="g3491" transform="translate(72.802 -29.477)">
              <path id="path3493" d="M0,0H-6.1L-8.054.9V13.823l1.951.99h3.272A2,2,0,0,0-.956,13.5,73.689,73.689,0,0,0,2.214,2.7,2.255,2.255,0,0,0,0,0" fill="#b9f0ff"/>
            </g>
            <g id="g3495" transform="translate(66.698 -29.477)">
              <path id="path3497" d="M0,0H-6.121A2.253,2.253,0,0,0-8.334,2.693,70.827,70.827,0,0,0-5.156,13.51a2,2,0,0,0,1.874,1.3H0A16.769,16.769,0,0,1,0,0" fill="#7ce3ff"/>
            </g>
            <g id="g3499" transform="translate(8.105 -25.537)">
              <path id="path3501" d="M0,0V12.7a2.632,2.632,0,0,0,2.632,2.632h.191a2.255,2.255,0,0,0,1.77-2.2V0Z" fill="#ffce71"/>
            </g>
            <g id="g3503" transform="translate(9.158 -12.407)">
              <path id="path3505" d="M0,0V-13.13H-4.963V0A2.256,2.256,0,0,0-2.707,2.256H1.284A2.26,2.26,0,0,0,1.77,2.2,2.256,2.256,0,0,1,0,0" fill="#ffb357"/>
            </g>
            <g id="g3507" transform="translate(12.698 -29.477)">
              <path id="path3509" d="M0,0H-8.5a2.256,2.256,0,0,0-2.256,2.256v.932A2.256,2.256,0,0,0-8.5,5.444H0A2.256,2.256,0,0,0,2.256,3.188V2.256A2.256,2.256,0,0,0,0,0" fill="#efedff"/>
            </g>
            <g id="g3511" transform="translate(25.632 -25.537)">
              <path id="path3513" d="M0,0V12.7a2.632,2.632,0,0,0,2.632,2.632h.191a2.255,2.255,0,0,0,1.77-2.2V0Z" fill="#ffce71"/>
            </g>
            <g id="g3515" transform="translate(26.685 -12.407)">
              <path id="path3517" d="M0,0V-13.13H-4.963V0A2.256,2.256,0,0,0-2.707,2.256H1.284A2.257,2.257,0,0,0,1.77,2.2,2.256,2.256,0,0,1,0,0" fill="#ffb357"/>
            </g>
            <g id="g3519" transform="translate(30.225 -29.477)">
              <path id="path3521" d="M0,0H-8.5a2.256,2.256,0,0,0-2.256,2.256v.932A2.256,2.256,0,0,0-8.5,5.444H0A2.256,2.256,0,0,0,2.256,3.188V2.256A2.256,2.256,0,0,0,0,0" fill="#efedff"/>
            </g>
            <g id="g3523" transform="translate(45.867 -50.329)">
              <path id="path3525" d="M0,0H-.564V-.564A1.128,1.128,0,0,0-1.692-1.692,1.128,1.128,0,0,0-2.82-.564V0h-.564A1.128,1.128,0,0,0-4.512,1.128,1.128,1.128,0,0,0-3.384,2.256h.564V2.82A1.128,1.128,0,0,0-1.692,3.948,1.128,1.128,0,0,0-.564,2.82V2.256H0A1.128,1.128,0,0,0,0,0"/>
            </g>
            <g id="g3527" transform="translate(65.007 -20.34)">
              <path id="path3529" d="M0,0H.564V.564a1.128,1.128,0,0,0,2.256,0V0h.564A1.128,1.128,0,0,0,4.512-1.128,1.128,1.128,0,0,0,3.384-2.256H2.82V-2.82A1.128,1.128,0,0,0,1.692-3.948,1.128,1.128,0,0,0,.564-2.82v.564H0A1.128,1.128,0,0,0-1.128-1.128,1.128,1.128,0,0,0,0,0"/>
            </g>
            <g id="g3531" transform="translate(5.64 -65.721)">
              <path id="path3533" d="M0,0H65.721a5.646,5.646,0,0,0,5.64-5.64,5.646,5.646,0,0,0-5.64-5.64H9.841a1.128,1.128,0,0,0-1.128,1.128A1.128,1.128,0,0,0,9.841-9.023h55.88A3.388,3.388,0,0,1,69.1-5.64a3.388,3.388,0,0,1-3.384,3.384H0A3.388,3.388,0,0,1-3.384-5.64,3.388,3.388,0,0,1,0-9.023H5.313a1.128,1.128,0,0,0,1.128-1.128,1.128,1.128,0,0,0-1.128-1.128H0A5.646,5.646,0,0,0-5.64-5.64,5.646,5.646,0,0,0,0,0"/>
            </g>
            <g id="g3535" transform="translate(65.357 -11.279)">
              <path id="path3537" d="M0,0A.7.7,0,0,1-.724-.693V-2.256h4.13V-.693A.7.7,0,0,1,2.683,0ZM-21.355,0a.7.7,0,0,1-.724-.693V-2.256h4.13V-.693A.7.7,0,0,1-18.673,0ZM-41.38,0a1.129,1.129,0,0,1-1.128-1.128v-10.5h6.247v10.5a1.133,1.133,0,0,1-.885,1.1A1.138,1.138,0,0,1-37.388,0ZM-58.906,0a1.129,1.129,0,0,1-1.128-1.128v-10.5h6.247v10.5a1.133,1.133,0,0,1-.885,1.1A1.138,1.138,0,0,1-54.915,0ZM-62.29-15.941a1.129,1.129,0,0,1,1.128-1.128h8.5a1.129,1.129,0,0,1,1.128,1.128v.932a1.129,1.129,0,0,1-1.128,1.128h-8.5a1.129,1.129,0,0,1-1.128-1.128Zm17.526,0a1.129,1.129,0,0,1,1.128-1.128h8.5A1.129,1.129,0,0,1-34-15.941v.932a1.129,1.129,0,0,1-1.128,1.128h-8.5a1.129,1.129,0,0,1-1.128-1.128Zm17.521.214a1.125,1.125,0,0,1,1.108-1.341h12.225A1.127,1.127,0,0,1-12.8-15.725,71.932,71.932,0,0,1-15.926-5.079a.87.87,0,0,1-.816.568H-23.3a.878.878,0,0,1-.817-.571,69.706,69.706,0,0,1-3.128-10.646m21.355,0a1.125,1.125,0,0,1,1.108-1.342H7.445a1.127,1.127,0,0,1,1.108,1.345A71.931,71.931,0,0,1,5.43-5.079a.87.87,0,0,1-.816.568H-1.852a.875.875,0,0,1-.907-.571A69.709,69.709,0,0,1-5.887-15.728M6,0H5.576a2.911,2.911,0,0,0,.086-.693V-2.44A3.127,3.127,0,0,0,7.549-4.306a74.063,74.063,0,0,0,3.216-10.973,3.383,3.383,0,0,0-3.319-4.046H-4.779A3.381,3.381,0,0,0-8.1-15.281,71.971,71.971,0,0,0-4.872-4.292,3.067,3.067,0,0,0-2.98-2.443v1.75A2.9,2.9,0,0,0-2.893,0H-15.78a2.911,2.911,0,0,0,.086-.693V-2.44a3.127,3.127,0,0,0,1.886-1.866,74.063,74.063,0,0,0,3.216-10.973,3.383,3.383,0,0,0-3.319-4.046H-26.135a3.381,3.381,0,0,0-3.319,4.044A71.934,71.934,0,0,0-26.227-4.292a3.147,3.147,0,0,0,1.892,1.854V-.693A2.9,2.9,0,0,0-24.249,0H-34.2A3.338,3.338,0,0,0-34-1.128V-11.82a3.389,3.389,0,0,0,2.256-3.19v-.932a3.388,3.388,0,0,0-3.384-3.384h-8.5a3.388,3.388,0,0,0-3.384,3.384v.932a3.389,3.389,0,0,0,2.256,3.19V-1.128A3.37,3.37,0,0,0-44.569,0h-7.158a3.338,3.338,0,0,0,.2-1.128V-11.82a3.389,3.389,0,0,0,2.256-3.19v-.932a3.388,3.388,0,0,0-3.384-3.384h-8.5a3.388,3.388,0,0,0-3.384,3.384v.932a3.389,3.389,0,0,0,2.256,3.19V-1.128A3.362,3.362,0,0,0-61.9.441a5.648,5.648,0,0,0-3.454,5.2,5.646,5.646,0,0,0,5.64,5.64h55.88A1.128,1.128,0,0,0-2.71,10.151,1.128,1.128,0,0,0-3.838,9.023h-55.88A3.388,3.388,0,0,1-63.1,5.64a3.388,3.388,0,0,1,3.384-3.384H6A3.384,3.384,0,1,1,6,9.023H.69a1.128,1.128,0,0,0,0,2.256H6A5.64,5.64,0,1,0,6,0"/>
            </g>
            <g id="g3539" transform="translate(71.36 -35.116)">
              <path id="path3541" d="M0,0H-65.721A3.388,3.388,0,0,1-69.1-3.384a3.388,3.388,0,0,1,3.384-3.384H0A3.388,3.388,0,0,1,3.384-3.384,3.388,3.388,0,0,1,0,0M-63.972-19.245c.67-.48.622-.8.622-1.4h4.512a1.366,1.366,0,0,0,.421,1.255,4.976,4.976,0,0,1,1.954,2.214A5.84,5.84,0,0,1-56-14.9v3.5a2.374,2.374,0,0,1-2.372,2.372h-5.444A2.374,2.374,0,0,1-66.188-11.4c0-3.946-.4-5.974,2.215-7.85m-1.749-4.788v-.932a1.129,1.129,0,0,1,1.128-1.128h7a1.129,1.129,0,0,1,1.128,1.128v.932A1.129,1.129,0,0,1-57.595-22.9h-7a1.129,1.129,0,0,1-1.128-1.128M-49.233-14.9a4.948,4.948,0,0,1,2.215-4.347c.671-.48.622-.8.622-1.4h4.512a1.366,1.366,0,0,0,.421,1.255,4.974,4.974,0,0,1,1.954,2.214,5.84,5.84,0,0,1,.463,2.283v3.5a2.374,2.374,0,0,1-2.372,2.372h-5.444A2.374,2.374,0,0,1-49.233-11.4Zm.466-9.135v-.932a1.129,1.129,0,0,1,1.128-1.128h7a1.129,1.129,0,0,1,1.128,1.128v.932A1.129,1.129,0,0,1-40.64-22.9h-7a1.129,1.129,0,0,1-1.128-1.128M-32.279-14.9a4.948,4.948,0,0,1,2.215-4.347c.67-.48.622-.8.622-1.4h4.512a1.366,1.366,0,0,0,.421,1.255,4.976,4.976,0,0,1,1.954,2.214,5.839,5.839,0,0,1,.462,2.283v3.5a2.374,2.374,0,0,1-2.372,2.372h-5.444A2.374,2.374,0,0,1-32.279-11.4Zm.466-9.135v-.932a1.129,1.129,0,0,1,1.128-1.128h7a1.129,1.129,0,0,1,1.128,1.128v.932A1.129,1.129,0,0,1-23.686-22.9h-7a1.129,1.129,0,0,1-1.128-1.128M.273-11.279a3.389,3.389,0,0,1-3.19,2.256H-11.94a3.389,3.389,0,0,1-3.19-2.256Zm-15.6-5.79H.467v3.534H-15.324Zm3.387-4.512h9.021a3.389,3.389,0,0,1,3.19,2.256h-15.4a3.391,3.391,0,0,1,3.192-2.256m3.384-4.512H-6.3a2.258,2.258,0,0,1,2.256,2.256H-10.81a2.258,2.258,0,0,1,2.256-2.256m10,17.257a5.614,5.614,0,0,0,1.279-3.572V-18.2a5.649,5.649,0,0,0-4.512-5.526v-.114A4.517,4.517,0,0,0-6.3-28.349H-8.554a4.517,4.517,0,0,0-4.512,4.512v.113A5.649,5.649,0,0,0-17.58-18.2v5.79a5.61,5.61,0,0,0,1.131,3.384h-4.043a4.6,4.6,0,0,0,.656-2.372v-3.5a8.082,8.082,0,0,0-.64-3.16,6.319,6.319,0,0,0-2.179-2.752A3.389,3.389,0,0,0-20.3-24.033v-.932a3.388,3.388,0,0,0-3.384-3.384h-7a3.388,3.388,0,0,0-3.384,3.384v.932a3.389,3.389,0,0,0,2.342,3.219A7.206,7.206,0,0,0-34.535-14.9v3.5a4.6,4.6,0,0,0,.656,2.372h-3.568A4.6,4.6,0,0,0-36.79-11.4v-3.5a8.083,8.083,0,0,0-.64-3.16,6.319,6.319,0,0,0-2.178-2.752,3.389,3.389,0,0,0,2.353-3.223v-.932a3.388,3.388,0,0,0-3.384-3.384h-7a3.388,3.388,0,0,0-3.384,3.384v.932a3.389,3.389,0,0,0,2.342,3.219A7.206,7.206,0,0,0-51.489-14.9v3.5a4.6,4.6,0,0,0,.656,2.372H-54.4a4.6,4.6,0,0,0,.656-2.372v-3.5a8.083,8.083,0,0,0-.64-3.16,6.321,6.321,0,0,0-2.178-2.752,3.389,3.389,0,0,0,2.353-3.223v-.932a3.388,3.388,0,0,0-3.384-3.384h-7a3.388,3.388,0,0,0-3.384,3.384v.932a3.389,3.389,0,0,0,2.342,3.219A7.206,7.206,0,0,0-68.443-14.9v3.5a4.6,4.6,0,0,0,.864,2.688A5.649,5.649,0,0,0-71.36-3.384a5.646,5.646,0,0,0,5.64,5.64H0a5.646,5.646,0,0,0,5.64-5.64,5.649,5.649,0,0,0-4.2-5.452"/>
            </g>
          </g>
        </g>
      </g>
    </g>
  </g>
</svg>
