<svg xmlns="http://www.w3.org/2000/svg" xmlns:xlink="http://www.w3.org/1999/xlink" width="77" height="121" viewBox="0 0 77 121">
  <defs>
    <clipPath id="clip-path">
      <rect id="Rect치ngulo_403455" data-name="Rect치ngulo 403455" width="77" height="77" transform="translate(649 6992)" fill="#fff" stroke="#707070" stroke-width="1"/>
    </clipPath>
  </defs>
  <g id="Grupo_1102337" data-name="Grupo 1102337" transform="translate(-649 -6970)">
    <g id="Rect치ngulo_403454" data-name="Rect치ngulo 403454" transform="translate(652 6970)" fill="#fff" stroke="#5169dd" stroke-width="2" stroke-dasharray="6">
      <rect width="71" height="121" rx="35" stroke="none"/>
      <rect x="1" y="1" width="69" height="119" rx="34" fill="none"/>
    </g>
    <g id="Enmascarar_grupo_1098819" data-name="Enmascarar grupo 1098819" clip-path="url(#clip-path)">
      <g id="calendario" transform="translate(648.235 6991.234)">
        <path id="Trazado_878770" data-name="Trazado 878770" d="M11.23,10.229H53.268A1.988,1.988,0,0,1,55.25,12.21V70.379a1.988,1.988,0,0,1-1.982,1.982H11.23a1.988,1.988,0,0,1-1.982-1.982V12.21a1.987,1.987,0,0,1,1.982-1.982Z" fill="#dbd6d6" fill-rule="evenodd"/>
        <path id="Trazado_878771" data-name="Trazado 878771" d="M32.248,1.687a6,6,0,0,1,5.676,4.054A11.59,11.59,0,0,1,43.841,15.85H20.655A11.585,11.585,0,0,1,26.573,5.741,6,6,0,0,1,32.248,1.687Zm0,3.824a2.176,2.176,0,1,0,2.176,2.176A2.176,2.176,0,0,0,32.248,5.511Z" fill="#acd087" fill-rule="evenodd"/>
        <path id="Trazado_878772" data-name="Trazado 878772" d="M65.833,47.127a7.647,7.647,0,0,1,2.215,10.552L57.785,73.394a7.624,7.624,0,0,1-12.767-8.338L55.28,49.341a7.647,7.647,0,0,1,10.552-2.215Z" fill="#acd087" fill-rule="evenodd"/>
        <g id="Grupo_1102576" data-name="Grupo 1102576">
          <circle id="Elipse_11624" data-name="Elipse 11624" cx="5.361" cy="5.361" r="5.361" transform="translate(11.036 29.023) rotate(-45)" fill="#6eceec"/>
          <circle id="Elipse_11625" data-name="Elipse 11625" cx="5.361" cy="5.361" r="5.361" transform="translate(12.463 39.48) rotate(-9.208)" fill="#6eceec"/>
          <circle id="Elipse_11626" data-name="Elipse 11626" cx="5.361" cy="5.361" r="5.361" transform="translate(12.465 63.23) rotate(-80.792)" fill="#6eceec"/>
        </g>
        <g id="Grupo_1102577" data-name="Grupo 1102577">
          <path id="Trazado_878773" data-name="Trazado 878773" d="M62.491,65.622l-4.963,7.6a7.317,7.317,0,0,1-12.253-8l4.963-7.6Z" fill="#6eceec" fill-rule="evenodd"/>
          <path id="Trazado_878774" data-name="Trazado 878774" d="M21.545,56.421a.921.921,0,0,1,.074,1.3L18.27,61.467a.922.922,0,0,1-.672.307h-.015a.918.918,0,0,1-.666-.285l-1.675-1.753a.92.92,0,1,1,1.331-1.27L17.56,59.5l2.684-3a.922.922,0,0,1,1.3-.072Zm21,3.859H27.5a.92.92,0,0,1,0-1.841H42.548a.92.92,0,0,1,0,1.841ZM18.623,63.247A4.443,4.443,0,1,0,14.18,58.8,4.448,4.448,0,0,0,18.623,63.247Zm0-10.727A6.283,6.283,0,1,0,24.905,58.8,6.289,6.289,0,0,0,18.623,52.519Zm2.922-10.986a.921.921,0,0,1,.074,1.3L18.27,46.579a.922.922,0,0,1-.672.307h-.015a.918.918,0,0,1-.666-.285l-1.675-1.753a.92.92,0,1,1,1.331-1.271l.986,1.034,2.684-3a.919.919,0,0,1,1.3-.072Zm5.032,2.934a.921.921,0,0,1,.92-.92H49.372a.92.92,0,0,1,0,1.841H27.5A.918.918,0,0,1,26.577,44.467Zm-7.954,3.887a4.442,4.442,0,1,0-4.443-4.442A4.447,4.447,0,0,0,18.623,48.354Zm0-10.724a6.282,6.282,0,1,0,6.282,6.282,6.289,6.289,0,0,0-6.282-6.282ZM21.545,26.64a.923.923,0,0,1,.074,1.3L18.27,31.688a.927.927,0,0,1-.672.307h-.015a.918.918,0,0,1-.666-.285l-1.675-1.753a.92.92,0,1,1,1.331-1.271l.986,1.034,2.684-3a.922.922,0,0,1,1.3-.074Zm5.032,2.939a.921.921,0,0,1,.92-.92H49.372a.92.92,0,0,1,0,1.841H27.5A.922.922,0,0,1,26.577,29.579Zm-7.954,3.885a4.443,4.443,0,1,0-4.443-4.442,4.447,4.447,0,0,0,4.443,4.442Zm0-10.726a6.283,6.283,0,1,0,6.282,6.284A6.29,6.29,0,0,0,18.623,22.738Zm48,29.728a5.048,5.048,0,0,1-.706,3.821l-.891,1.364a.92.92,0,1,1-1.541-1.006l.891-1.364a3.277,3.277,0,0,0-.942-4.488.92.92,0,0,1,1.006-1.541A5.052,5.052,0,0,1,66.624,52.466Zm.65,4.709A6.712,6.712,0,0,0,65.326,47.9a6.633,6.633,0,0,0-3.638-1.084,6.8,6.8,0,0,0-1.4.146,6.658,6.658,0,0,0-4.238,2.887L51.42,56.931l11.226,7.331ZM57.013,72.888a6.7,6.7,0,0,1-11.226-7.33l4.627-7.088L61.641,65.8ZM11.229,71.435H43.157c-.04-.152-.078-.305-.11-.46a8.485,8.485,0,0,1,1.2-6.425L54.328,49.114V12.209a1.062,1.062,0,0,0-1.06-1.061H43.843a12.481,12.481,0,0,1,.92,4.7.92.92,0,0,1-.92.92H20.654a.92.92,0,0,1-.92-.92,12.481,12.481,0,0,1,.92-4.7H11.229a1.062,1.062,0,0,0-1.06,1.061V70.377a1.06,1.06,0,0,0,1.06,1.058ZM27.022,6.54a.916.916,0,0,0,.419-.5,5.08,5.08,0,0,1,9.611,0,.919.919,0,0,0,.42.5,10.7,10.7,0,0,1,5.408,8.387H21.614A10.7,10.7,0,0,1,27.022,6.54ZM70.015,51.754a8.554,8.554,0,0,0-13.848-4.792V12.209a2.905,2.905,0,0,0-2.9-2.9H42.91a12.531,12.531,0,0,0-4.239-4.2,6.921,6.921,0,0,0-12.847,0,12.544,12.544,0,0,0-4.239,4.2H11.229a2.9,2.9,0,0,0-2.9,2.9V70.377a2.9,2.9,0,0,0,2.9,2.9H43.883a8.543,8.543,0,0,0,14.671.618L68.816,58.181a8.489,8.489,0,0,0,1.2-6.427ZM32.248,6.428A1.256,1.256,0,1,0,33.5,7.684,1.257,1.257,0,0,0,32.248,6.428Zm0,4.354a3.1,3.1,0,1,0-3.1-3.1A3.1,3.1,0,0,0,32.248,10.782Z" fill="#222124" fill-rule="evenodd"/>
        </g>
      </g>
    </g>
  </g>
</svg>
