<svg xmlns="http://www.w3.org/2000/svg" xmlns:xlink="http://www.w3.org/1999/xlink" width="77" height="121" viewBox="0 0 77 121">
  <defs>
    <clipPath id="clip-path">
      <rect id="Rect치ngulo_403455" data-name="Rect치ngulo 403455" width="77" height="77" transform="translate(649 6992)" fill="#fff" stroke="#707070" stroke-width="1"/>
    </clipPath>
  </defs>
  <g id="Grupo_1102494" data-name="Grupo 1102494" transform="translate(-649 -6970)">
    <g id="Rect치ngulo_403454" data-name="Rect치ngulo 403454" transform="translate(652 6970)" fill="#fff" stroke="#5169dd" stroke-width="2" stroke-dasharray="6">
      <rect width="71" height="121" rx="35" stroke="none"/>
      <rect x="1" y="1" width="69" height="119" rx="34" fill="none"/>
    </g>
    <g id="Enmascarar_grupo_1098838" data-name="Enmascarar grupo 1098838" clip-path="url(#clip-path)">
      <g id="la-resolucion-de-conflictos_1_" data-name="la-resolucion-de-conflictos (1)" transform="translate(647.913 6990.913)">
        <g id="Grupo_1103036" data-name="Grupo 1103036">
          <g id="Grupo_1103031" data-name="Grupo 1103031">
            <path id="Trazado_879863" data-name="Trazado 879863" d="M42.157,45.877l-.818,7.935a.283.283,0,0,0,.279.312l5.757.04a.283.283,0,0,1,.225.451L38.163,67.362a.283.283,0,0,1-.5-.25l2.486-8.221a.283.283,0,0,0-.271-.365H34.226a.283.283,0,0,1-.241-.431l7.65-12.4a.283.283,0,0,1,.522.178Z" fill="#ffe177" fill-rule="evenodd"/>
            <path id="Trazado_879864" data-name="Trazado 879864" d="M40.42,47.668,41.635,45.7a.283.283,0,0,1,.522.178l-.818,7.935a.283.283,0,0,0,.279.312l5.757.04a.283.283,0,0,1,.225.451L38.163,67.362a.283.283,0,0,1-.5-.25l.6-1.985,7.783-10.512a.283.283,0,0,0-.225-.451l-5.757-.04a.283.283,0,0,1-.279-.312Z" fill="#ffd064" fill-rule="evenodd"/>
          </g>
          <g id="Grupo_1103032" data-name="Grupo 1103032">
            <path id="Trazado_879865" data-name="Trazado 879865" d="M34.067,37.175H18.574a3.346,3.346,0,0,1-3.346-3.346V5.63a3.346,3.346,0,0,1,3.346-3.346H60.6A3.346,3.346,0,0,1,63.945,5.63v28.2A3.346,3.346,0,0,1,60.6,37.175H40.825l-5.379,6.935a.776.776,0,0,1-1.39-.477C34.061,41.046,34.067,37.175,34.067,37.175Z" fill="#6cf5c2" fill-rule="evenodd"/>
            <path id="Trazado_879866" data-name="Trazado 879866" d="M59.047,2.284H60.6A3.346,3.346,0,0,1,63.945,5.63v28.2A3.346,3.346,0,0,1,60.6,37.175H59.047a3.346,3.346,0,0,0,3.346-3.346V5.63a3.346,3.346,0,0,0-3.346-3.346ZM40.825,37.175l-5.379,6.935a.776.776,0,0,1-1.357-.252l5.183-6.683Z" fill="#00e499" fill-rule="evenodd"/>
          </g>
          <g id="Grupo_1103033" data-name="Grupo 1103033">
            <path id="Trazado_879867" data-name="Trazado 879867" d="M2.338,76.09a.7.7,0,0,0,.689.8c4.582,0,27.6,0,32.184,0a.7.7,0,0,0,.691-.8,16.987,16.987,0,0,0-33.564,0Z" fill="#8ac9fe" fill-rule="evenodd"/>
            <path id="Trazado_879868" data-name="Trazado 879868" d="M32.927,76.89a.7.7,0,0,0,.691-.8A16.991,16.991,0,0,0,17.977,61.772q.566-.037,1.142-.038A16.988,16.988,0,0,1,35.9,76.09a.7.7,0,0,1-.691.8Z" fill="#60b7ff" fill-rule="evenodd"/>
            <path id="Trazado_879869" data-name="Trazado 879869" d="M19.119,61.734a8.588,8.588,0,1,0-8.583-8.588A8.6,8.6,0,0,0,19.119,61.734Z" fill="#f6dccd" fill-rule="evenodd"/>
            <path id="Trazado_879870" data-name="Trazado 879870" d="M18.548,61.715a8.588,8.588,0,0,0,0-17.138q.283-.019.571-.019a8.588,8.588,0,0,1,0,17.176q-.288,0-.571-.019Z" fill="#f1cbbc" fill-rule="evenodd"/>
          </g>
          <g id="Grupo_1103034" data-name="Grupo 1103034">
            <path id="Trazado_879871" data-name="Trazado 879871" d="M43.271,76.09a.7.7,0,0,0,.689.8c4.582,0,27.6,0,32.184,0a.7.7,0,0,0,.691-.8,16.987,16.987,0,0,0-33.564,0Z" fill="#8ac9fe" fill-rule="evenodd"/>
            <path id="Trazado_879872" data-name="Trazado 879872" d="M73.86,76.89a.7.7,0,0,0,.691-.8A16.991,16.991,0,0,0,58.91,61.772q.566-.037,1.142-.038A16.989,16.989,0,0,1,76.835,76.09a.7.7,0,0,1-.691.8Z" fill="#60b7ff" fill-rule="evenodd"/>
            <path id="Trazado_879873" data-name="Trazado 879873" d="M60.052,61.734a8.588,8.588,0,1,0-8.583-8.588A8.6,8.6,0,0,0,60.052,61.734Z" fill="#f6dccd" fill-rule="evenodd"/>
            <path id="Trazado_879874" data-name="Trazado 879874" d="M59.481,61.715a8.588,8.588,0,0,0,0-17.138q.283-.019.571-.019a8.588,8.588,0,1,1,0,17.176Q59.764,61.734,59.481,61.715Z" fill="#f1cbbc" fill-rule="evenodd"/>
          </g>
          <g id="Grupo_1103035" data-name="Grupo 1103035">
            <path id="Trazado_879875" data-name="Trazado 879875" d="M46.077,27.209l1.09.6A1.886,1.886,0,0,0,48.984,24.5a1.88,1.88,0,0,0,2.6-2.473l.283-.117L39.094,11.746c-3.643-2.456-6.182.709-8.686-.7L27.09,9.515a1.129,1.129,0,0,0-1.49.542l-3.562,7.582a1.126,1.126,0,0,0,.557,1.505c1.183.535,3,1.351,3.369,1.5,1.134.44.76,2.214,1.383,3.025.955,1.246,1.112,2.155,1.925,2.622L41.139,33.1A1.88,1.88,0,0,0,43.7,32.36a1.9,1.9,0,0,0-.74-2.566l1.295.721a1.887,1.887,0,0,0,1.82-3.306Z" fill="#f6dccd" fill-rule="evenodd"/>
            <path id="Trazado_879876" data-name="Trazado 879876" d="M39.475,12.048l-.381-.3c-3.643-2.456-6.182.709-8.686-.7L27.09,9.515a1.129,1.129,0,0,0-1.49.542l-.787,1.676a2.856,2.856,0,0,1,2.751.469c4.962,2.974,6.668-.249,10.56,1.126.156-.147.31-.3.459-.447q.425-.432.892-.833Z" fill="#f1cbbc" fill-rule="evenodd"/>
            <path id="Trazado_879877" data-name="Trazado 879877" d="M39.6,32.215l1.542.887a1.878,1.878,0,0,0,2.526-.679l-3.215-1.83Zm8.735-8.078.652.364a1.888,1.888,0,0,0,2.492-.628l-6.1-3.469a.9.9,0,0,0-.88,1.564c1.295.74,3.873,2.187,3.838,2.17Zm-2.89,2.722,1.725.948a1.893,1.893,0,0,0,2.485-.616l-7.516-4.271a.9.9,0,1,0-.88,1.561Zm-5.805.963a1.251,1.251,0,0,0,.52.371l2.93,1.671,1.17.65a1.892,1.892,0,0,0,2.5-.638L40.787,26.5a.9.9,0,0,0-1.151,1.327Z" fill="#f1cbbc" fill-rule="evenodd"/>
            <path id="Trazado_879878" data-name="Trazado 879878" d="M24.309,6.446l-5.524,12.5a1.206,1.206,0,0,0,.613,1.586l2.407,1.063a1.2,1.2,0,0,0,1.583-.613l5.527-12.5A1.207,1.207,0,0,0,28.3,6.9L25.9,5.833a1.2,1.2,0,0,0-1.586.613Z" fill="#d1d1d6" fill-rule="evenodd"/>
            <path id="Trazado_879879" data-name="Trazado 879879" d="M22.4,20.546a1.2,1.2,0,0,1-1.578.616l.98.433a1.2,1.2,0,0,0,1.583-.613l5.527-12.5a1.208,1.208,0,0,0-.5-1.529q-3.005,6.8-6.01,13.594Z" fill="#b1b1b5" fill-rule="evenodd"/>
            <path id="Trazado_879880" data-name="Trazado 879880" d="M37.679,28.34a1.943,1.943,0,0,1,3.159,2.214L39.69,32.7a1.942,1.942,0,0,1-3.626-1.256,1.942,1.942,0,0,1-3.5-1.422,1.943,1.943,0,1,1-3.43-1.825l.362-.677a1.942,1.942,0,0,1-3.02-2.353l1.2-2.24a1.943,1.943,0,0,1,3.482,1.723,1.942,1.942,0,0,1,3.2,1.911,1.943,1.943,0,0,1,3.328,1.779Z" fill="#d6b4a8" fill-rule="evenodd"/>
            <path id="Trazado_879881" data-name="Trazado 879881" d="M29.5,27.522a1.953,1.953,0,0,1-2.223.276,1.908,1.908,0,0,1-.435-.32c.594.027.863-.442,1.134-.919l2.035-3.582a1.105,1.105,0,0,0,.049-.955,1.6,1.6,0,0,1,.247.11,1.95,1.95,0,0,1,.853,2.519Zm3.069,2.5a1.952,1.952,0,0,1-2.634.8,2.03,2.03,0,0,1-.269-.174,1.18,1.18,0,0,0,.784-.454l2.693-5.214a1.121,1.121,0,0,0-.046-.745,1.718,1.718,0,0,1,.293.127,1.952,1.952,0,0,1,.967,2.192Zm7.257-2.2c.076.029.147.063.22.1a1.943,1.943,0,0,1,.8,2.629L39.69,32.7a1.949,1.949,0,0,1-2.629.8c-.012-.007-.022-.012-.032-.02a.683.683,0,0,0,.386-.3l2.4-4.642A.9.9,0,0,0,39.822,27.825Zm-3.758,3.621a1.953,1.953,0,0,1-2.495.582,1.722,1.722,0,0,1-.183-.112,1.627,1.627,0,0,0,.8-.76l2.233-4.327a.806.806,0,0,0-.007-.811,2.025,2.025,0,0,1,.3.13,1.949,1.949,0,0,1,.965,2.194Z" fill="#cca393" fill-rule="evenodd"/>
            <path id="Trazado_879882" data-name="Trazado 879882" d="M44.278,17.477,50.8,21.2a1.92,1.92,0,0,1,.782.836l3.682-1.537a1.124,1.124,0,0,0,.616-1.446L52.81,11.12a1.1,1.1,0,0,0-.66-.648,1.078,1.078,0,0,0-.921.063l-2.2,1.178c-2.631,1.368-5.163-3.237-9.927.032a12.026,12.026,0,0,0-1.727,1.463A22.907,22.907,0,0,1,32.609,16.8a.231.231,0,0,0-.108.152.218.218,0,0,0,.044.181c3.78,4.865,8.378-1.571,11.733.342Z" fill="#d6b4a8" fill-rule="evenodd"/>
            <path id="Trazado_879883" data-name="Trazado 879883" d="M49.338,20.361,50.8,21.2a1.92,1.92,0,0,1,.782.836l3.682-1.537a1.127,1.127,0,0,0,.618-1.446l-.9-2.324a1.517,1.517,0,0,1-.892,1.7ZM33.056,17.722c3.677,3.719,8.016-2.072,11.222-.244C39.2,14.04,37.315,18.57,33.056,17.722Z" fill="#cca393" fill-rule="evenodd"/>
            <path id="Trazado_879884" data-name="Trazado 879884" d="M55.034,7.333l4.94,12.744a1.2,1.2,0,0,1-.684,1.554l-2.453.95a1.2,1.2,0,0,1-1.556-.686L50.34,9.153A1.207,1.207,0,0,1,51.027,7.6l2.453-.951a1.2,1.2,0,0,1,1.554.687Z" fill="#d1d1d6" fill-rule="evenodd"/>
            <path id="Trazado_879885" data-name="Trazado 879885" d="M50.826,7.7a1.21,1.21,0,0,0-.486,1.456L55.281,21.9a1.2,1.2,0,0,0,1.554.686l.911-.352,0,0a1.2,1.2,0,0,1-1.554-.684Q53.511,14.62,50.826,7.7Z" fill="#b1b1b5" fill-rule="evenodd"/>
          </g>
        </g>
        <path id="Trazado_879886" data-name="Trazado 879886" d="M24.556,61.36A18.145,18.145,0,0,1,37.147,76.713a1.242,1.242,0,0,1-1.235,1.374H2.329a1.242,1.242,0,0,1-1.235-1.375A18.156,18.156,0,0,1,13.688,61.36a9.78,9.78,0,1,1,10.868,0Zm-5.435-.829a7.3,7.3,0,1,0-7.294-7.3,7.311,7.311,0,0,0,7.294,7.3Zm0,2.484A15.654,15.654,0,0,0,3.773,75.6h30.7A15.649,15.649,0,0,0,19.12,63.016ZM65.488,61.36A18.145,18.145,0,0,1,78.08,76.713a1.242,1.242,0,0,1-1.235,1.374H43.261a1.242,1.242,0,0,1-1.235-1.375A18.157,18.157,0,0,1,54.621,61.36a9.78,9.78,0,1,1,10.867,0Zm-5.435-.829a7.3,7.3,0,1,0-7.293-7.3A7.311,7.311,0,0,0,60.053,60.532Zm0,2.484A15.654,15.654,0,0,0,44.706,75.6H75.4A15.649,15.649,0,0,0,60.053,63.016ZM43.519,44.821l-.836,8.114,5.257.037a1.242,1.242,0,0,1,.99,1.981l-10.738,14.5A1.242,1.242,0,0,1,36,68.357l2.584-8.544H33.719a1.242,1.242,0,0,1-1.057-1.894l8.565-13.878a1.242,1.242,0,0,1,2.292.779Zm-3.027,5.14-4.547,7.368h4.316a1.242,1.242,0,0,1,1.189,1.6l-1,3.3,5.026-6.788L41.3,55.409a1.242,1.242,0,0,1-1.227-1.369Zm-7.67-11.5H18.574a4.588,4.588,0,0,1-4.588-4.588V5.675a4.588,4.588,0,0,1,4.588-4.588H60.6a4.588,4.588,0,0,1,4.588,4.588v28.2A4.588,4.588,0,0,1,60.6,38.462H41.434l-6.4,8.25a1.242,1.242,0,0,1-2.223-.763Zm2.486-1.24L35.3,42.316l4.543-5.857a1.242,1.242,0,0,1,.981-.481H60.6a2.1,2.1,0,0,0,2.1-2.1V5.675a2.1,2.1,0,0,0-2.1-2.1H18.574a2.1,2.1,0,0,0-2.1,2.1v28.2a2.1,2.1,0,0,0,2.1,2.1H34.067a1.242,1.242,0,0,1,1.242,1.244ZM24.568,21.435l-.041.092a2.441,2.441,0,0,1-3.222,1.247l-2.4-1.06a2.456,2.456,0,0,1-1.253-3.223l0,0,5.525-12.5,0,0A2.455,2.455,0,0,1,26.4,4.741l0,0,2.405,1.065A2.448,2.448,0,0,1,30.05,9.029l-.194.439,1.073.5c.03.014.06.029.089.046a2.17,2.17,0,0,0,1.488.165c.5-.08,1.016-.219,1.553-.337a6.773,6.773,0,0,1,5.019.5A6.7,6.7,0,0,1,45.291,9.9c.616.226,1.19.491,1.74.682a1.716,1.716,0,0,0,1.416.081l.932-.5-.2-.513,0,0a2.447,2.447,0,0,1,1.4-3.157l2.451-.954h0a2.451,2.451,0,0,1,3.159,1.4v0l4.938,12.739,0,0a2.449,2.449,0,0,1-1.394,3.157l-2.453.954-.006,0a2.447,2.447,0,0,1-3.157-1.4l-.009-.024-1.1.457a3.062,3.062,0,0,1-.384,1.578,3.116,3.116,0,0,1-1.468,1.349,3.1,3.1,0,0,1-.347,1.956v0a3.139,3.139,0,0,1-2.551,1.614,3.084,3.084,0,0,1-.357,1.093l0,0a3.149,3.149,0,0,1-2.778,1.617A3.1,3.1,0,0,1,44.79,33a3.129,3.129,0,0,1-4.267,1.224l-.278-.16a3.2,3.2,0,0,1-3.769.575h0a3.155,3.155,0,0,1-1.24-1.191,3.176,3.176,0,0,1-2.25-.28l-.007,0a3.179,3.179,0,0,1-1.108-.993,3.179,3.179,0,0,1-4.2-2.9,3.183,3.183,0,0,1-2.284-4.643l.546-1.022c-.1-.312-.431-1.733-.45-1.777-.161-.064-.5-.209-.913-.394ZM50.285,12.5l-.673.36-.012.007c-1.384.72-2.761.338-4.3-.291-1.443-.59-3.136-1.368-5.485.233l-.035.024a10.863,10.863,0,0,0-1.524,1.3,22.882,22.882,0,0,1-3.907,3.112c1.6,1.174,3.337.245,4.975-.415,1.989-.8,3.911-1.327,5.571-.381h0l6.521,3.719a3.188,3.188,0,0,1,.559.4l1.241-.518ZM37.277,31.849a.7.7,0,0,0,1.317.313l1.15-2.15,0,0a.706.706,0,0,0-.056-.739l-.006-.009a.766.766,0,0,0-.236-.2.707.707,0,0,0-.759.078ZM33.79,30.408a.7.7,0,0,0,1.224.411l1.48-2.844a.7.7,0,0,0-1.126-.622ZM22.272,20.485l5.49-12.423L25.432,7.03,19.938,19.456ZM26.148,7.607a1.071,1.071,0,0,1,1.024,1.122,1.077,1.077,0,1,1-1.024-1.122Zm10.6,4.52a7.131,7.131,0,0,0-2.971.324,5.272,5.272,0,0,1-3.929-.251l-.995-.459-3.28,7.423c.4.177.71.312.841.362h0A2.481,2.481,0,0,1,27.869,21.1a3.194,3.194,0,0,1,3.02-.014l0,0a3.177,3.177,0,0,1,1.531,1.859,3.178,3.178,0,0,1,1.546.372l0,0a3.169,3.169,0,0,1,1.369,1.438,3.162,3.162,0,0,1,3.326,1.777,3.172,3.172,0,0,1,1.958.339l.02.011a3.259,3.259,0,0,1,.869.7l3.344,1.9a.649.649,0,0,0,.874-.261.661.661,0,0,0-.271-.883l-4.814-2.721a1.242,1.242,0,0,1,1.218-2.165l5.906,3.323a.646.646,0,0,0,.867-.261.654.654,0,0,0-.263-.877h0c-1.5-.839-3.007-1.683-4.5-2.537a1.242,1.242,0,0,1,1.233-2.156c1.486.85,2.986,1.69,4.481,2.526a.638.638,0,0,0,.865-.258l0,0a.62.62,0,0,0,.009-.577l-.005-.011a.662.662,0,0,0-.274-.289l0,0L43.663,18.6a2.275,2.275,0,0,0-1.781-.056c-.926.249-1.895.709-2.878,1.076a7.17,7.17,0,0,1-4.446.475,5.73,5.73,0,0,1-2.994-2.151q-.028-.036-.053-.074a1.436,1.436,0,0,1-.223-1.131,1.464,1.464,0,0,1,.695-.966,21.717,21.717,0,0,0,4.505-3.394h0q.127-.128.258-.254ZM41.53,31.939l.231.133a.629.629,0,0,0,.852-.266.657.657,0,0,0-.256-.882l-.239-.148C42.066,30.914,41.53,31.939,41.53,31.939Zm-12.758-8.38-1.2,2.238v0a.7.7,0,0,0,.285.946h0a.7.7,0,0,0,.682-.013l1.5-2.594a.7.7,0,0,0-1.273-.58Zm3.342,1.965-1.879,3.3,0,.007a.7.7,0,0,0,.286.944h0a.708.708,0,0,0,.951-.291l1.7-3.293a.7.7,0,0,0-1.056-.669Zm19.4-16.733,4.914,12.665,2.375-.924L53.89,7.866ZM53.15,10.56a1.077,1.077,0,1,1,1.074-1.074A1.081,1.081,0,0,1,53.15,10.56Z" fill-rule="evenodd"/>
      </g>
    </g>
  </g>
</svg>
