<svg xmlns="http://www.w3.org/2000/svg" xmlns:xlink="http://www.w3.org/1999/xlink" width="77" height="121" viewBox="0 0 77 121">
  <defs>
    <clipPath id="clip-path">
      <rect id="Rect치ngulo_403455" data-name="Rect치ngulo 403455" width="77" height="77" transform="translate(649 6992)" fill="#fff" stroke="#707070" stroke-width="1"/>
    </clipPath>
  </defs>
  <g id="Grupo_1102495" data-name="Grupo 1102495" transform="translate(-649 -6970)">
    <g id="Rect치ngulo_403454" data-name="Rect치ngulo 403454" transform="translate(652 6970)" fill="#fff" stroke="#5169dd" stroke-width="2" stroke-dasharray="6">
      <rect width="71" height="121" rx="35" stroke="none"/>
      <rect x="1" y="1" width="69" height="119" rx="34" fill="none"/>
    </g>
    <g id="Enmascarar_grupo_1098839" data-name="Enmascarar grupo 1098839" clip-path="url(#clip-path)">
      <g id="evitar" transform="translate(649 6992)">
        <path id="Trazado_879887" data-name="Trazado 879887" d="M53.4,11.177V28.564a4.968,4.968,0,0,0-9.935,0V11.177a4.968,4.968,0,0,0,9.935,0Zm0,0" fill="#ffeaa7"/>
        <path id="Trazado_879888" data-name="Trazado 879888" d="M65.823,11.177H31.048a9.933,9.933,0,0,1-9.935-9.935V26.59a27.131,27.131,0,0,0,14.9,4.458V44.71A37.418,37.418,0,0,1,34.1,56.5a37.745,37.745,0,0,1-5.539,10.569L21.113,70.79v4.968H75.758V1.242a9.933,9.933,0,0,1-9.935,9.935Zm0,0" fill="#ecc19c"/>
        <path id="Trazado_879889" data-name="Trazado 879889" d="M45.952,55.887H70.79v14.9H45.952Zm0,0" fill="#b27946"/>
        <path id="Trazado_879890" data-name="Trazado 879890" d="M21.113,1.242H75.758a9.933,9.933,0,0,1-9.935,9.935H53.4a4.968,4.968,0,0,0-9.935,0H31.048A9.933,9.933,0,0,1,21.113,1.242Zm0,0" fill="#cf9e76"/>
        <path id="Trazado_879891" data-name="Trazado 879891" d="M48.435,23.6a4.968,4.968,0,1,1-4.968,4.968A4.966,4.966,0,0,1,48.435,23.6Zm0,0" fill="#e6e9ed"/>
        <path id="Trazado_879892" data-name="Trazado 879892" d="M48.435,6.21a4.968,4.968,0,1,1-4.968,4.968A4.966,4.966,0,0,1,48.435,6.21Zm0,0" fill="#e6e9ed"/>
        <path id="Trazado_879893" data-name="Trazado 879893" d="M36.016,31.048V44.71A37.418,37.418,0,0,1,34.1,56.5a37.745,37.745,0,0,1-5.539,10.569l-9.935,4.968L8.694,67.064A37.289,37.289,0,0,1,1.242,44.71V31.048a27.135,27.135,0,0,0,15.773-5.054l1.614-1.155,1.614,1.155c.286.2.571.4.87.583v.013a27.131,27.131,0,0,0,14.9,4.458Zm0,0" fill="#ccd1d9"/>
        <path id="Trazado_879894" data-name="Trazado 879894" d="M24.839,63.339H12.419a2.491,2.491,0,0,1-2.484-2.484V48.435a2.491,2.491,0,0,1,2.484-2.484H24.839a2.491,2.491,0,0,1,2.484,2.484V60.855A2.491,2.491,0,0,1,24.839,63.339Zm0,0" fill="#fcd770"/>
        <path id="Trazado_879895" data-name="Trazado 879895" d="M21.113,53.4a2.484,2.484,0,1,1-2.484-2.484A2.484,2.484,0,0,1,21.113,53.4Zm0,0" fill="#ffc729"/>
        <path id="Trazado_879896" data-name="Trazado 879896" d="M28.564,48.435a3.721,3.721,0,0,0-2.484-3.5v-5.2a7.452,7.452,0,0,0-14.9,0v5.2a3.721,3.721,0,0,0-2.484,3.5V60.855a3.731,3.731,0,0,0,3.726,3.726H24.839a3.731,3.731,0,0,0,3.726-3.726ZM18.629,34.774A4.973,4.973,0,0,1,23.6,39.742V44.71H13.661V39.742A4.973,4.973,0,0,1,18.629,34.774Zm7.452,26.081A1.244,1.244,0,0,1,24.839,62.1H12.419a1.244,1.244,0,0,1-1.242-1.242V48.435a1.244,1.244,0,0,1,1.242-1.242H24.839a1.244,1.244,0,0,1,1.242,1.242Zm0,0"/>
        <path id="Trazado_879897" data-name="Trazado 879897" d="M18.629,49.677A3.717,3.717,0,0,0,17.387,56.9v2.712h2.484V56.9a3.717,3.717,0,0,0-1.242-7.223Zm0,4.968A1.242,1.242,0,1,1,19.871,53.4,1.244,1.244,0,0,1,18.629,54.645Zm0,0"/>
        <path id="Trazado_879898" data-name="Trazado 879898" d="M19.871,0V24.2l-1.242-.888-2.341,1.674A25.752,25.752,0,0,1,1.242,29.806H0v14.9a38.744,38.744,0,0,0,7.7,23.1l.176.235,10.753,5.376,1.242-.621V77H77V0ZM48.435,14.9a3.726,3.726,0,1,1,3.726-3.726A3.731,3.731,0,0,1,48.435,14.9Zm3.726,1.21v7.515a6.087,6.087,0,0,0-7.452,0V16.114a6.087,6.087,0,0,0,7.452,0Zm-3.726,8.726a3.726,3.726,0,1,1-3.726,3.726A3.731,3.731,0,0,1,48.435,24.839Zm6.084-14.9a6.21,6.21,0,0,0-12.168,0h-11.3a8.7,8.7,0,0,1-8.594-7.452H74.417a8.7,8.7,0,0,1-8.594,7.452ZM9.513,66.086A36.244,36.244,0,0,1,2.484,44.71V32.264a28.212,28.212,0,0,0,15.248-5.257l.9-.642.9.641a28.2,28.2,0,0,0,15.247,5.257V44.71a36.244,36.244,0,0,1-7.03,21.376l-9.116,4.558Zm65,8.43H22.355V71.558l7.027-3.514.176-.235a38.744,38.744,0,0,0,7.7-23.1v-14.9H36.016A25.727,25.727,0,0,1,22.355,25.9V8.251a11.155,11.155,0,0,0,8.694,4.168H42.226V28.564a6.21,6.21,0,0,0,12.419,0V12.419H65.823a11.155,11.155,0,0,0,8.694-4.168Zm0,0"/>
        <path id="Trazado_879899" data-name="Trazado 879899" d="M49.677,11.177a1.242,1.242,0,1,1-1.242-1.242A1.242,1.242,0,0,1,49.677,11.177Zm0,0"/>
        <path id="Trazado_879900" data-name="Trazado 879900" d="M49.677,28.564a1.242,1.242,0,1,1-1.242-1.242A1.242,1.242,0,0,1,49.677,28.564Zm0,0"/>
        <path id="Trazado_879901" data-name="Trazado 879901" d="M44.71,72.032H72.032V54.645H44.71Zm2.484-14.9H69.548V69.548H47.194Zm0,0"/>
        <path id="Trazado_879902" data-name="Trazado 879902" d="M49.677,59.613H67.064V62.1H49.677Zm0,0"/>
        <path id="Trazado_879903" data-name="Trazado 879903" d="M49.677,64.581H62.1v2.484H49.677Zm0,0"/>
        <path id="Trazado_879904" data-name="Trazado 879904" d="M64.581,64.581h2.484v2.484H64.581Zm0,0"/>
      </g>
    </g>
  </g>
</svg>
