<svg xmlns="http://www.w3.org/2000/svg" xmlns:xlink="http://www.w3.org/1999/xlink" width="77" height="121" viewBox="0 0 77 121">
  <defs>
    <clipPath id="clip-path">
      <rect id="Rect치ngulo_403455" data-name="Rect치ngulo 403455" width="77" height="77" transform="translate(649 6992)" fill="#fff" stroke="#707070" stroke-width="1"/>
    </clipPath>
    <clipPath id="clip-path-2">
      <path id="path5626" d="M0-77H77V0H0Z"/>
    </clipPath>
  </defs>
  <g id="Grupo_1102338" data-name="Grupo 1102338" transform="translate(-649 -6970)">
    <g id="Rect치ngulo_403454" data-name="Rect치ngulo 403454" transform="translate(652 6970)" fill="#fff" stroke="#5169dd" stroke-width="2" stroke-dasharray="6">
      <rect width="71" height="121" rx="35" stroke="none"/>
      <rect x="1" y="1" width="69" height="119" rx="34" fill="none"/>
    </g>
    <g id="Enmascarar_grupo_1098823" data-name="Enmascarar grupo 1098823" clip-path="url(#clip-path)">
      <g id="g5616" transform="translate(649 7069)">
        <path id="path5618" d="M45.152-7.9h-13.3V-19.353h13.3Z" fill="#345e80"/>
        <path id="path5620" d="M40.64-7.9h4.512V-19.353H40.64Z" fill="#2a536e"/>
        <g id="g5622">
          <g id="g5624" clip-path="url(#clip-path-2)">
            <g id="g5630" transform="translate(71.36 -17.097)">
              <path id="path5632" d="M0,0H-65.721a4.512,4.512,0,0,1-4.512-4.512V-49.574a4.512,4.512,0,0,1,4.512-4.512H0a4.512,4.512,0,0,1,4.512,4.512V-4.512A4.512,4.512,0,0,1,0,0" fill="#3c6d92"/>
            </g>
            <g id="g5634" transform="translate(71.36 -71.182)">
              <path id="path5636" d="M0,0H-4.512A4.512,4.512,0,0,1,0,4.512V49.574a4.512,4.512,0,0,1-4.512,4.512H0a4.512,4.512,0,0,0,4.512-4.512V4.512A4.512,4.512,0,0,0,0,0" fill="#345e80"/>
            </g>
            <g id="g5638" transform="translate(5.64 -22.21)">
              <path id="path5640" d="M0,0V-43.859a.6.6,0,0,1,.6-.6H65.119a.6.6,0,0,1,.6.6V0a.6.6,0,0,1-.6.6H.6A.6.6,0,0,1,0,0" fill="#fff"/>
            </g>
            <g id="g5642" transform="translate(46.378 -9.333)">
              <path id="path5644" d="M0,0H-15.756a5.47,5.47,0,0,0-5.47,5.47V7.476a.729.729,0,0,0,.729.729H4.741a.729.729,0,0,0,.729-.729V5.47A5.47,5.47,0,0,0,0,0" fill="#3c6d92"/>
            </g>
            <g id="g5646" transform="translate(46.378 -9.333)">
              <path id="path5648" d="M0,0H-4.512A5.47,5.47,0,0,1,.959,5.47V7.476a.729.729,0,0,1-.729.729H4.741a.729.729,0,0,0,.729-.729V5.47A5.47,5.47,0,0,0,0,0" fill="#345e80"/>
            </g>
            <g id="g5650" transform="translate(58.402 -21.609)">
              <path id="path5652" d="M0,0H-39.8V-49.752a4.512,4.512,0,0,1,4.512-4.512H-4.512A4.512,4.512,0,0,1,0-49.752Z" fill="#eaf6ff"/>
            </g>
            <g id="g5654" transform="translate(53.89 -75.872)">
              <path id="path5656" d="M0,0H-4.512A4.512,4.512,0,0,1,0,4.512V54.263H4.512V4.512A4.512,4.512,0,0,0,0,0" fill="#d8ecfe"/>
            </g>
            <g id="g5658" transform="translate(38.5 -42.485)">
              <path id="path5660" d="M0,0A13.325,13.325,0,0,1-13.31-13.31,13.325,13.325,0,0,1,0-26.619,13.325,13.325,0,0,1,13.31-13.31,13.325,13.325,0,0,1,0,0" fill="#aee59a"/>
            </g>
            <g id="g5662" transform="translate(38.5 -69.104)">
              <path id="path5664" d="M0,0A13.343,13.343,0,0,0-2.256.192,13.331,13.331,0,0,1,8.8,13.31,13.331,13.331,0,0,1-2.256,26.427,13.343,13.343,0,0,0,0,26.619,13.325,13.325,0,0,0,13.31,13.31,13.325,13.325,0,0,0,0,0" fill="#88d9a3"/>
            </g>
            <g id="g5666" transform="translate(36.227 -49.908)">
              <path id="path5668" d="M0,0A3,3,0,0,1-2.127-.879l-2.5-2.5a2.256,2.256,0,0,1,0-3.19,2.256,2.256,0,0,1,3.19,0L-.319-5.452a.451.451,0,0,0,.638,0l5.617-5.617a2.3,2.3,0,0,1,3.156-.12,2.256,2.256,0,0,1,.079,3.265L2.127-.879A3,3,0,0,1,0,0" fill="#fff"/>
            </g>
            <g id="g5670" transform="translate(31.848 -9.333)">
              <path id="path5672" d="M0,0V-7.763" fill="none" stroke="#000" stroke-linecap="round" stroke-linejoin="round" stroke-miterlimit="10" stroke-width="2.256"/>
            </g>
            <g id="g5674" transform="translate(45.152 -9.333)">
              <path id="path5676" d="M0,0V-7.763" fill="none" stroke="#000" stroke-linecap="round" stroke-linejoin="round" stroke-miterlimit="10" stroke-width="2.256"/>
            </g>
            <g id="g5678" transform="translate(59.67 -17.096)">
              <path id="path5680" d="M0,0H-54.031a4.512,4.512,0,0,1-4.512-4.512V-49.575a4.513,4.513,0,0,1,4.512-4.512h12.958" fill="none" stroke="#000" stroke-linecap="round" stroke-linejoin="round" stroke-miterlimit="10" stroke-width="2.256"/>
            </g>
            <g id="g5682" transform="translate(58.403 -71.183)">
              <path id="path5684" d="M0,0H12.958a4.512,4.512,0,0,1,4.512,4.512V49.575a4.512,4.512,0,0,1-4.512,4.512H6.531" fill="none" stroke="#000" stroke-linecap="round" stroke-linejoin="round" stroke-miterlimit="10" stroke-width="2.256"/>
            </g>
            <g id="g5686" transform="translate(18.597 -66.671)">
              <path id="path5688" d="M0,0H-12.356a.6.6,0,0,0-.6.6v43.86a.6.6,0,0,0,.6.6H52.161a.6.6,0,0,0,.6-.6V.6a.6.6,0,0,0-.6-.6H39.805" fill="none" stroke="#000" stroke-linecap="round" stroke-linejoin="round" stroke-miterlimit="10" stroke-width="2.256"/>
            </g>
            <g id="g5690" transform="translate(46.378 -9.333)">
              <path id="path5692" d="M0,0H-15.756a5.47,5.47,0,0,0-5.47,5.47V7.476a.729.729,0,0,0,.729.729H4.741a.729.729,0,0,0,.729-.729V5.47A5.47,5.47,0,0,0,0,0Z" fill="none" stroke="#000" stroke-linecap="round" stroke-linejoin="round" stroke-miterlimit="10" stroke-width="2.256"/>
            </g>
            <g id="g5694" transform="translate(18.598 -61.409)">
              <path id="path5696" d="M0,0V-9.951a4.512,4.512,0,0,1,4.512-4.512H35.292A4.512,4.512,0,0,1,39.8-9.951V39.8H0V5.264" fill="none" stroke="#000" stroke-linecap="round" stroke-linejoin="round" stroke-miterlimit="10" stroke-width="2.256"/>
            </g>
            <g id="g5698" transform="translate(38.5 -42.485)">
              <path id="path5700" d="M0,0A13.325,13.325,0,0,1-13.31-13.31,13.325,13.325,0,0,1,0-26.619,13.325,13.325,0,0,1,13.31-13.31,13.325,13.325,0,0,1,0,0Z" fill="none" stroke="#000" stroke-linecap="round" stroke-linejoin="round" stroke-miterlimit="10" stroke-width="2.256"/>
            </g>
            <g id="g5702" transform="translate(36.227 -49.908)">
              <path id="path5704" d="M0,0A3,3,0,0,1-2.127-.879l-2.5-2.5a2.256,2.256,0,0,1,0-3.19,2.256,2.256,0,0,1,3.19,0L-.319-5.452a.451.451,0,0,0,.638,0l5.617-5.617a2.3,2.3,0,0,1,3.156-.12,2.256,2.256,0,0,1,.079,3.265L2.127-.879A3,3,0,0,1,0,0Z" fill="none" stroke="#000" stroke-linecap="round" stroke-linejoin="round" stroke-miterlimit="10" stroke-width="2.256"/>
            </g>
            <g id="g5706" transform="translate(25.513 -35.116)">
              <path id="path5708" d="M0,0H25.974" fill="none" stroke="#000" stroke-linecap="round" stroke-linejoin="round" stroke-miterlimit="10" stroke-width="2.256"/>
            </g>
            <g id="g5710" transform="translate(25.513 -28.349)">
              <path id="path5712" d="M0,0H25.974" fill="none" stroke="#000" stroke-linecap="round" stroke-linejoin="round" stroke-miterlimit="10" stroke-width="2.256"/>
            </g>
          </g>
        </g>
      </g>
    </g>
  </g>
</svg>
