<svg xmlns="http://www.w3.org/2000/svg" xmlns:xlink="http://www.w3.org/1999/xlink" width="141.688" height="141.688" viewBox="0 0 141.688 141.688">
  <defs>
    <clipPath id="clip-path">
      <rect id="Rect치ngulo_403305" data-name="Rect치ngulo 403305" width="102.33" height="102.33" transform="translate(724.347 6174.679)" fill="#e1f8e6"/>
    </clipPath>
    <clipPath id="clip-path-2">
      <path id="path3660" d="M0-102.33H102.33V0H0Z"/>
    </clipPath>
  </defs>
  <g id="Grupo_1102320" data-name="Grupo 1102320" transform="translate(-704.668 -6155)">
    <rect id="Rect치ngulo_402033" data-name="Rect치ngulo 402033" width="141.688" height="141.688" rx="5" transform="translate(704.668 6155)" fill="#3b57de"/>
    <g id="Enmascarar_grupo_1098808" data-name="Enmascarar grupo 1098808" clip-path="url(#clip-path)">
      <g id="g3654" transform="translate(724.347 6277.009)">
        <g id="g3656">
          <g id="g3658" clip-path="url(#clip-path-2)">
            <g id="g3664" transform="translate(100.439 -11.542)">
              <path id="path3666" d="M0,0A2.692,2.692,0,0,1-2.3,4.083H-43.91a2.7,2.7,0,0,1-2.7-2.676A2.68,2.68,0,0,1-46.212,0l1.175-1.945,19.629-32.462a2.691,2.691,0,0,1,4.459-.216,2.4,2.4,0,0,1,.146.216Z" fill="#feef8f"/>
            </g>
            <g id="g3668" transform="translate(58.845 -11.456)">
              <path id="path3670" d="M0,0,20.836-34.416l-.046-.076a2.4,2.4,0,0,0-.146-.216,2.691,2.691,0,0,0-4.459.216L-3.443-2.031-4.619-.086a2.68,2.68,0,0,0-.394,1.407A2.7,2.7,0,0,0-2.316,4H39.291a2.691,2.691,0,0,0,2.351-4Z" fill="#fcac42"/>
            </g>
            <g id="g3672" transform="translate(55.402 -13.487)">
              <path id="path3674" d="M0,0-1.175,1.945a2.68,2.68,0,0,0-.394,1.407H-42.731A11.173,11.173,0,0,1-53.9-7.821v-11.19H-3.2v11.19A11.122,11.122,0,0,0,0,0" fill="#bcbcc0"/>
            </g>
            <g id="g3676" transform="translate(5.496 -21.307)">
              <path id="path3678" d="M0,0V-7.193H46.706v-4H-4V0A11.173,11.173,0,0,0,7.175,11.172h6.316C5.9,11.172,0,3.956,0,0" fill="#8ca3b7"/>
            </g>
            <g id="g3680" transform="translate(79.49 -94.871)">
              <path id="path3682" d="M0,0V48.706a2.691,2.691,0,0,0-4.459.216L-24.087,81.384a11.121,11.121,0,0,1-3.2-7.821V62.373H-62.373V0Z" fill="#fff"/>
            </g>
            <g id="g3684" transform="translate(21.114 -90.874)">
              <path id="path3686" d="M0,0H58.376V-4H-4V58.376H0Z" fill="#bcbcc0"/>
            </g>
            <g id="g3688" transform="translate(17.116 -84.142)">
              <path id="path3690" d="M0,0V-10.729H62.373V37.978" fill="none" stroke="#000" stroke-miterlimit="10" stroke-width="2.998"/>
            </g>
            <g id="g3692" transform="translate(17.116 -32.498)">
              <path id="path3694" d="M0,0V-48.634" fill="none" stroke="#000" stroke-miterlimit="10" stroke-width="2.998"/>
            </g>
            <g id="g3696" transform="translate(39.198 -10.135)">
              <path id="path3698" d="M0,0H-26.527A11.173,11.173,0,0,1-37.7-11.172v-11.19H13v11.19a11.12,11.12,0,0,0,3.2,7.82" fill="none" stroke="#000" stroke-miterlimit="10" stroke-width="2.998"/>
            </g>
            <g id="g3700" transform="translate(53.833 -10.135)">
              <path id="path3702" d="M0,0H-11.662" fill="none" stroke="#000" stroke-miterlimit="10" stroke-width="2.998"/>
            </g>
            <g id="g3704" transform="translate(79.49 -46.164)">
              <path id="path3706" d="M0,0A2.426,2.426,0,0,1,.146.216l20.8,34.406a2.692,2.692,0,0,1-2.3,4.083H-22.96a2.7,2.7,0,0,1-2.7-2.676,2.68,2.68,0,0,1,.394-1.407l1.175-1.945L-4.459.216A2.691,2.691,0,0,1,0,0Z" fill="none" stroke="#000" stroke-miterlimit="10" stroke-width="2.998"/>
            </g>
            <g id="g3708" transform="translate(77.333 -35.502)">
              <path id="path3710" d="M0,0V15.184" fill="none" stroke="#000" stroke-miterlimit="10" stroke-width="2.998"/>
            </g>
            <g id="g3712" transform="translate(77.333 -17.308)">
              <path id="path3714" d="M0,0V2.986" fill="none" stroke="#000" stroke-miterlimit="10" stroke-width="2.998"/>
            </g>
            <g id="g3716" transform="translate(30.179 -84.142)">
              <path id="path3718" d="M0,0H-2.974" fill="none" stroke="#000" stroke-miterlimit="10" stroke-width="2.998"/>
            </g>
            <g id="g3720" transform="translate(69.153 -84.142)">
              <path id="path3722" d="M0,0H-35.949" fill="none" stroke="#000" stroke-miterlimit="10" stroke-width="2.998"/>
            </g>
            <g id="g3724" transform="translate(63.157 -75.137)">
              <path id="path3726" d="M0,0H-35.951" fill="none" stroke="#000" stroke-miterlimit="10" stroke-width="2.998"/>
            </g>
            <g id="g3728" transform="translate(69.153 -75.137)">
              <path id="path3730" d="M0,0H-3" fill="none" stroke="#000" stroke-miterlimit="10" stroke-width="2.998"/>
            </g>
            <g id="g3732" transform="translate(69.153 -66.129)">
              <path id="path3734" d="M0,0H-41.947" fill="none" stroke="#000" stroke-miterlimit="10" stroke-width="2.998"/>
            </g>
            <g id="g3736" transform="translate(30.179 -57.123)">
              <path id="path3738" d="M0,0H-2.974" fill="none" stroke="#000" stroke-miterlimit="10" stroke-width="2.998"/>
            </g>
            <g id="g3740" transform="translate(69.153 -57.123)">
              <path id="path3742" d="M0,0H-35.949" fill="none" stroke="#000" stroke-miterlimit="10" stroke-width="2.998"/>
            </g>
            <g id="g3744" transform="translate(69.153 -48.117)">
              <path id="path3746" d="M0,0H-3" fill="none" stroke="#000" stroke-miterlimit="10" stroke-width="2.998"/>
            </g>
            <g id="g3748" transform="translate(63.157 -48.117)">
              <path id="path3750" d="M0,0H-3" fill="none" stroke="#000" stroke-miterlimit="10" stroke-width="2.998"/>
            </g>
            <g id="g3752" transform="translate(57.161 -48.117)">
              <path id="path3754" d="M0,0H-3" fill="none" stroke="#000" stroke-miterlimit="10" stroke-width="2.998"/>
            </g>
            <g id="g3756" transform="translate(51.165 -48.117)">
              <path id="path3758" d="M0,0H-23.96" fill="none" stroke="#000" stroke-miterlimit="10" stroke-width="2.998"/>
            </g>
          </g>
        </g>
      </g>
    </g>
  </g>
</svg>
