<svg xmlns="http://www.w3.org/2000/svg" xmlns:xlink="http://www.w3.org/1999/xlink" width="106.508" height="106.508" viewBox="0 0 106.508 106.508">
  <defs>
    <clipPath id="clip-path">
      <rect id="Rect치ngulo_403305" data-name="Rect치ngulo 403305" width="106.508" height="106.508" transform="translate(704.668 6155)" fill="#e1f8e6"/>
    </clipPath>
  </defs>
  <g id="Grupo_1102986" data-name="Grupo 1102986" transform="translate(-704.668 -6155)">
    <rect id="Rect치ngulo_402033" data-name="Rect치ngulo 402033" width="106.508" height="106.508" rx="53" transform="translate(704.668 6155)" fill="#3b57de"/>
    <g id="Enmascarar_grupo_1098828" data-name="Enmascarar grupo 1098828" clip-path="url(#clip-path)">
      <g id="riesgo-aceptable" transform="translate(704.671 6155.001)">
        <path id="Trazado_879733" data-name="Trazado 879733" d="M7.466,10.936H71.877a5.9,5.9,0,0,1,5.883,5.883V99.172a5.9,5.9,0,0,1-5.883,5.883H7.466a5.9,5.9,0,0,1-5.883-5.883V16.819a5.9,5.9,0,0,1,5.883-5.883Z" fill="#77cedb" fill-rule="evenodd"/>
        <path id="Trazado_879734" data-name="Trazado 879734" d="M7.466,9.485H71.877a7.353,7.353,0,0,1,7.334,7.334V99.172a7.353,7.353,0,0,1-7.334,7.334H7.466A7.353,7.353,0,0,1,.132,99.172V16.819A7.353,7.353,0,0,1,7.466,9.485Zm64.413,2.9H7.466a4.451,4.451,0,0,0-4.433,4.433V99.172A4.451,4.451,0,0,0,7.466,103.6H71.877a4.451,4.451,0,0,0,4.433-4.433V16.819a4.451,4.451,0,0,0-4.431-4.433Z" fill="#010101" fill-rule="evenodd"/>
        <path id="Trazado_879735" data-name="Trazado 879735" d="M7.466,16.819H71.879V99.172H7.466Z" fill="#e6e6e5" fill-rule="evenodd"/>
        <path id="Trazado_879736" data-name="Trazado 879736" d="M7.466,15.368H71.877A1.449,1.449,0,0,1,73,15.9a1.435,1.435,0,0,1,.326.916V99.172a1.449,1.449,0,0,1-.535,1.125,1.435,1.435,0,0,1-.916.326H7.466a1.449,1.449,0,0,1-1.125-.535,1.435,1.435,0,0,1-.326-.914V16.821A1.449,1.449,0,0,1,6.55,15.7a1.466,1.466,0,0,1,.3-.192,1.411,1.411,0,0,1,.611-.136Zm62.963,2.9H8.916V97.719h61.51V18.268Zm2.684-2.211.011.019Zm-.473,84.349-.019.011ZM6.233,99.932l-.011-.019Zm.473-84.349.019-.011Z" fill="#010101" fill-rule="evenodd"/>
        <path id="Trazado_879737" data-name="Trazado 879737" d="M25.885,7.259H33.54a6.139,6.139,0,0,1,12.261,0h7.655A1.144,1.144,0,0,1,54.6,8.4V19.06a1.144,1.144,0,0,1-1.14,1.14H25.885a1.144,1.144,0,0,1-1.14-1.14V8.4a1.144,1.144,0,0,1,1.14-1.14Z" fill="#b4b4b4" fill-rule="evenodd"/>
        <g id="Grupo_1102988" data-name="Grupo 1102988">
          <path id="Trazado_879738" data-name="Trazado 879738" d="M25.885,5.809H32.3a7.586,7.586,0,0,1,14.749,0h6.412a2.58,2.58,0,0,1,1.825.76l.006.006a2.576,2.576,0,0,1,.76,1.825V19.062a2.58,2.58,0,0,1-.76,1.825l-.006.006a2.576,2.576,0,0,1-1.825.76H25.885a2.58,2.58,0,0,1-1.825-.76l-.006-.006a2.576,2.576,0,0,1-.76-1.825V8.4a2.58,2.58,0,0,1,.76-1.825l.006-.006a2.591,2.591,0,0,1,1.825-.758Zm7.658,2.9H26.2V18.751H53.15V8.71H45.805v0a1.447,1.447,0,0,1-1.444-1.374,4.693,4.693,0,0,0-9.366-.087v.013A1.455,1.455,0,0,1,33.542,8.71Z" fill="#010101" fill-rule="evenodd"/>
          <path id="Trazado_879739" data-name="Trazado 879739" d="M15.7,33.01a1.451,1.451,0,1,1,0-2.9h30a1.451,1.451,0,0,1,0,2.9Z" fill="#010101" fill-rule="evenodd"/>
          <path id="Trazado_879740" data-name="Trazado 879740" d="M15.7,43.8a1.451,1.451,0,1,1,0-2.9h30a1.451,1.451,0,0,1,0,2.9Z" fill="#010101" fill-rule="evenodd"/>
          <path id="Trazado_879741" data-name="Trazado 879741" d="M15.7,54.6a1.451,1.451,0,1,1,0-2.9H37.319a1.451,1.451,0,1,1,0,2.9Z" fill="#010101" fill-rule="evenodd"/>
          <path id="Trazado_879742" data-name="Trazado 879742" d="M15.7,65.393a1.451,1.451,0,0,1,0-2.9H37.319a1.451,1.451,0,1,1,0,2.9Z" fill="#010101" fill-rule="evenodd"/>
          <path id="Trazado_879743" data-name="Trazado 879743" d="M15.7,76.186a1.451,1.451,0,1,1,0-2.9h30a1.451,1.451,0,0,1,0,2.9Z" fill="#010101" fill-rule="evenodd"/>
          <path id="Trazado_879744" data-name="Trazado 879744" d="M15.7,86.982a1.451,1.451,0,1,1,0-2.9h30a1.451,1.451,0,0,1,0,2.9Z" fill="#010101" fill-rule="evenodd"/>
        </g>
        <circle id="Elipse_11629" data-name="Elipse 11629" cx="28.888" cy="28.888" r="28.888" transform="translate(47.143 29.107)" fill="#fcb13c"/>
        <path id="Trazado_879745" data-name="Trazado 879745" d="M76.031,27.655a30.341,30.341,0,1,1-21.452,8.887,30.237,30.237,0,0,1,21.452-8.887Zm19.4,10.938A27.44,27.44,0,1,0,103.468,58,27.352,27.352,0,0,0,95.432,38.593Z" fill="#010101" fill-rule="evenodd"/>
        <circle id="Elipse_11630" data-name="Elipse 11630" cx="23.356" cy="23.356" r="23.356" transform="translate(52.675 34.639)" fill="#eaeaea"/>
        <path id="Trazado_879746" data-name="Trazado 879746" d="M76.031,33.187A24.807,24.807,0,1,1,58.49,40.452a24.732,24.732,0,0,1,17.541-7.266ZM91.521,42.5a21.907,21.907,0,1,0,6.416,15.49A21.837,21.837,0,0,0,91.521,42.5Z" fill="#010101" fill-rule="evenodd"/>
        <path id="Trazado_879747" data-name="Trazado 879747" d="M68.382,67.685c1.666.829,4.036,2.269,5.862,2.269h7.645a3.24,3.24,0,0,0,3.325-2.712c.5-4.328,2.315-15.526-4.784-15.526,1.25-3.253,2.567-7.785.622-9.59a2.587,2.587,0,0,0-2.371-.65c-.875.19-1.169.882-1.444,1.736-3.027,9.4-4.275,8.78-9.055,8.9q.1,7.783.2,15.569Z" fill="#fad1a3" fill-rule="evenodd"/>
        <path id="Trazado_879748" data-name="Trazado 879748" d="M69.815,66.8l.156.081c1.4.733,3.108,1.625,4.273,1.625h7.645a2.123,2.123,0,0,0,1.336-.456,1.462,1.462,0,0,0,.55-.969c.04-.358.07-.6.1-.852a50.185,50.185,0,0,0,.464-5.992c0-3.544-.724-7.068-3.913-7.068a1.451,1.451,0,0,1-1.451-1.451,1.436,1.436,0,0,1,.153-.648A23.5,23.5,0,0,0,80.5,46.186c.183-1.336.124-2.477-.439-3a1.109,1.109,0,0,0-1.078-.294.112.112,0,0,0-.075.047,2.843,2.843,0,0,0-.3.714c-3.025,9.391-4.55,9.79-8.968,9.879Zm-1.182,2.641c-.207-.109-.407-.213-.9-.456l0,0a1.445,1.445,0,0,1-.8-1.276l-.2-15.554a1.444,1.444,0,0,1,1.41-1.478c.285-.006.592-.013.886-.017,3.282-.055,4.311-.072,6.825-7.883a5.362,5.362,0,0,1,.694-1.519,2.873,2.873,0,0,1,1.821-1.191,4.06,4.06,0,0,1,1.953.049,4.111,4.111,0,0,1,1.71.959c1.38,1.282,1.636,3.308,1.333,5.5a22.373,22.373,0,0,1-.976,3.941c3.894,1.057,4.846,5.376,4.846,9.724a52.442,52.442,0,0,1-.488,6.331c-.043.356-.083.682-.1.841a4.336,4.336,0,0,1-1.6,2.884,5.037,5.037,0,0,1-3.159,1.114H74.244c-1.853,0-3.915-1.08-5.611-1.968Z" fill="#010101" fill-rule="evenodd"/>
        <path id="Trazado_879749" data-name="Trazado 879749" d="M80.9,50.513h6.358a2.43,2.43,0,0,1,0,4.861H80.9a2.43,2.43,0,0,1,0-4.861Z" fill="#fad1a3" fill-rule="evenodd"/>
        <path id="Trazado_879750" data-name="Trazado 879750" d="M80.9,49.062h6.358a3.664,3.664,0,0,1,3.566,2.347,4.109,4.109,0,0,1,0,3.063,3.661,3.661,0,0,1-3.566,2.347H80.9a3.664,3.664,0,0,1-3.566-2.347,4.109,4.109,0,0,1,0-3.063A3.664,3.664,0,0,1,80.9,49.062Zm6.358,2.9H80.9a.881.881,0,0,0-.88.524,1.324,1.324,0,0,0,0,.912.879.879,0,0,0,.88.524h6.358a.881.881,0,0,0,.88-.524,1.324,1.324,0,0,0,0-.912A.881.881,0,0,0,87.256,51.963Z" fill="#010101" fill-rule="evenodd"/>
        <path id="Trazado_879751" data-name="Trazado 879751" d="M79.688,60.234h8.689a2.43,2.43,0,0,0,0-4.861H79.688A2.43,2.43,0,0,0,79.688,60.234Z" fill="#fad1a3" fill-rule="evenodd"/>
        <path id="Trazado_879752" data-name="Trazado 879752" d="M79.688,58.784h8.689a.881.881,0,0,0,.88-.524,1.324,1.324,0,0,0,0-.912.881.881,0,0,0-.88-.524H79.688a.881.881,0,0,0-.88.524,1.324,1.324,0,0,0,0,.912A.881.881,0,0,0,79.688,58.784Zm8.689,2.9H79.688a3.664,3.664,0,0,1-3.566-2.347,4.109,4.109,0,0,1,0-3.063,3.661,3.661,0,0,1,3.566-2.347h8.689a3.664,3.664,0,0,1,3.566,2.347,4.109,4.109,0,0,1,0,3.063A3.664,3.664,0,0,1,88.377,61.685Z" fill="#010101" fill-rule="evenodd"/>
        <path id="Trazado_879753" data-name="Trazado 879753" d="M80.508,60.234h6.639a2.43,2.43,0,0,1,0,4.861H80.508A2.43,2.43,0,0,1,80.508,60.234Z" fill="#fad1a3" fill-rule="evenodd"/>
        <path id="Trazado_879754" data-name="Trazado 879754" d="M80.508,58.784h6.639a3.664,3.664,0,0,1,3.566,2.347,4.109,4.109,0,0,1,0,3.063,3.661,3.661,0,0,1-3.566,2.347H80.508a3.664,3.664,0,0,1-3.566-2.347,4.109,4.109,0,0,1,0-3.063A3.663,3.663,0,0,1,80.508,58.784Zm6.639,2.9H80.508a.881.881,0,0,0-.88.524,1.324,1.324,0,0,0,0,.912.879.879,0,0,0,.88.524h6.639a.881.881,0,0,0,.88-.524,1.324,1.324,0,0,0,0-.912A.878.878,0,0,0,87.148,61.685Z" fill="#010101" fill-rule="evenodd"/>
        <path id="Trazado_879755" data-name="Trazado 879755" d="M80.9,69.954h4.8a2.43,2.43,0,0,0,0-4.861H80.9A2.43,2.43,0,0,0,80.9,69.954Z" fill="#fad1a3" fill-rule="evenodd"/>
        <path id="Trazado_879756" data-name="Trazado 879756" d="M80.9,68.5h4.8a.881.881,0,0,0,.88-.524,1.324,1.324,0,0,0,0-.912.879.879,0,0,0-.88-.524H80.9a.881.881,0,0,0-.88.524,1.324,1.324,0,0,0,0,.912A.879.879,0,0,0,80.9,68.5Zm4.8,2.9H80.9a3.664,3.664,0,0,1-3.566-2.347,4.109,4.109,0,0,1,0-3.063A3.663,3.663,0,0,1,80.9,63.644h4.8a3.664,3.664,0,0,1,3.566,2.347,4.109,4.109,0,0,1,0,3.063A3.66,3.66,0,0,1,85.7,71.4Z" fill="#010101" fill-rule="evenodd"/>
        <path id="Trazado_879757" data-name="Trazado 879757" d="M67.1,50.819H62.351A1.082,1.082,0,0,0,61.274,51.9V68.071a1.082,1.082,0,0,0,1.078,1.078H67.1a1.082,1.082,0,0,0,1.078-1.078V51.9A1.08,1.08,0,0,0,67.1,50.819Z" fill="#219ebc" fill-rule="evenodd"/>
        <path id="Trazado_879758" data-name="Trazado 879758" d="M66.731,52.268H62.722V67.7h4.009Zm-4.379-2.9H67.1a2.527,2.527,0,0,1,1.779.739l.009.009a2.521,2.521,0,0,1,.741,1.781V68.071a2.527,2.527,0,0,1-.739,1.779l-.009.009A2.521,2.521,0,0,1,67.1,70.6H62.351a2.527,2.527,0,0,1-1.779-.739l-.009-.009a2.521,2.521,0,0,1-.741-1.781V51.9a2.527,2.527,0,0,1,.739-1.779l.009-.009a2.521,2.521,0,0,1,1.781-.741Z" fill="#010101" fill-rule="evenodd"/>
        <circle id="Elipse_11631" data-name="Elipse 11631" cx="2.181" cy="2.181" r="2.181" transform="translate(37.418 9.626) rotate(-87.593)" fill="#b4b4b4"/>
        <path id="Trazado_879759" data-name="Trazado 879759" d="M39.673,3.9a3.629,3.629,0,1,1-2.567,1.063A3.619,3.619,0,0,1,39.673,3.9Zm.515,3.114a.735.735,0,1,0,.213.518A.72.72,0,0,0,40.188,7.012Z" fill="#010101" fill-rule="evenodd"/>
      </g>
    </g>
  </g>
</svg>
