<svg xmlns="http://www.w3.org/2000/svg" xmlns:xlink="http://www.w3.org/1999/xlink" width="141.688" height="141.688" viewBox="0 0 141.688 141.688">
  <defs>
    <clipPath id="clip-path">
      <rect id="Rect치ngulo_403305" data-name="Rect치ngulo 403305" width="102.33" height="102.33" transform="translate(724.347 6174.679)" fill="#e1f8e6"/>
    </clipPath>
  </defs>
  <g id="Grupo_1102322" data-name="Grupo 1102322" transform="translate(-704.668 -6155)">
    <rect id="Rect치ngulo_402033" data-name="Rect치ngulo 402033" width="141.688" height="141.688" rx="5" transform="translate(704.668 6155)" fill="#3b57de"/>
    <g id="Enmascarar_grupo_1098810" data-name="Enmascarar grupo 1098810" clip-path="url(#clip-path)">
      <g id="garantia-de-seguridad" transform="translate(722.902 6173.234)">
        <g id="Grupo_1102539" data-name="Grupo 1102539">
          <g id="Grupo_1102536" data-name="Grupo 1102536">
            <path id="Trazado_878597" data-name="Trazado 878597" d="M77.54,10.926A4.48,4.48,0,0,1,82.008,15.4V97.655a4.475,4.475,0,0,1-4.468,4.468H8.694A4.48,4.48,0,0,1,4.22,97.655V15.4a4.485,4.485,0,0,1,4.474-4.474Z" fill="#837683" fill-rule="evenodd"/>
            <path id="Trazado_878598" data-name="Trazado 878598" d="M77.54,10.926A4.48,4.48,0,0,1,82.008,15.4V97.655a4.475,4.475,0,0,1-4.468,4.468H72.13v-91.2Z" fill="#685e68" fill-rule="evenodd"/>
            <path id="Trazado_878599" data-name="Trazado 878599" d="M73.768,17.148H12.46a2.022,2.022,0,0,0-2.018,2.018V93.883a2.023,2.023,0,0,0,2.018,2.023H73.768a2.024,2.024,0,0,0,2.023-2.023V19.166a2.023,2.023,0,0,0-2.023-2.018Z" fill="#eceff1" fill-rule="evenodd"/>
            <path id="Trazado_878600" data-name="Trazado 878600" d="M73.768,17.148H72.13V95.907h1.637a2.024,2.024,0,0,0,2.023-2.023V19.166a2.023,2.023,0,0,0-2.023-2.018Z" fill="#d1d1d6" fill-rule="evenodd"/>
            <path id="Trazado_878601" data-name="Trazado 878601" d="M27.923,8.908H35.73a7.6,7.6,0,0,1,14.773,0h7.8a2.023,2.023,0,0,1,2.023,2.018v7.585A2.023,2.023,0,0,1,58.3,20.528H27.923a2.022,2.022,0,0,1-2.018-2.018V10.926a2.022,2.022,0,0,1,2.018-2.018Z" fill="#e3a76f" fill-rule="evenodd"/>
            <path id="Trazado_878602" data-name="Trazado 878602" d="M58.3,8.908a2.023,2.023,0,0,1,2.023,2.018v7.585A2.023,2.023,0,0,1,58.3,20.528H27.923a2.022,2.022,0,0,1-2.018-2.018H56.287A2.027,2.027,0,0,0,58.3,16.487Z" fill="#c48958" fill-rule="evenodd"/>
            <path id="Trazado_878603" data-name="Trazado 878603" d="M20.665,27.593H31.841A1.466,1.466,0,0,1,33.3,29.055V40.231a1.463,1.463,0,0,1-1.462,1.462H20.665A1.463,1.463,0,0,1,19.2,40.231V29.055A1.466,1.466,0,0,1,20.665,27.593Z" fill="#8ac9fe" fill-rule="evenodd"/>
            <path id="Trazado_878604" data-name="Trazado 878604" d="M29.479,27.593h2.363A1.466,1.466,0,0,1,33.3,29.055V40.231a1.463,1.463,0,0,1-1.462,1.462H29.479a1.466,1.466,0,0,0,1.462-1.462V29.055A1.47,1.47,0,0,0,29.479,27.593Z" fill="#60b7ff" fill-rule="evenodd"/>
            <path id="Trazado_878605" data-name="Trazado 878605" d="M20.665,49.787H31.841A1.466,1.466,0,0,1,33.3,51.249V62.431a1.461,1.461,0,0,1-1.462,1.456H20.665A1.461,1.461,0,0,1,19.2,62.431V51.249a1.466,1.466,0,0,1,1.462-1.462Z" fill="#6cf5c2" fill-rule="evenodd"/>
            <path id="Trazado_878606" data-name="Trazado 878606" d="M29.479,49.787h2.363A1.466,1.466,0,0,1,33.3,51.249V62.431a1.461,1.461,0,0,1-1.462,1.456H29.479a1.465,1.465,0,0,0,1.462-1.456V51.249a1.47,1.47,0,0,0-1.462-1.462Z" fill="#00e499" fill-rule="evenodd"/>
            <path id="Trazado_878607" data-name="Trazado 878607" d="M20.665,71.981H31.841A1.467,1.467,0,0,1,33.3,73.444V84.626a1.461,1.461,0,0,1-1.462,1.456H20.665A1.461,1.461,0,0,1,19.2,84.626V73.444A1.467,1.467,0,0,1,20.665,71.981Z" fill="#ffe177" fill-rule="evenodd"/>
            <path id="Trazado_878608" data-name="Trazado 878608" d="M29.479,71.981h2.363A1.467,1.467,0,0,1,33.3,73.444V84.626a1.461,1.461,0,0,1-1.462,1.456H29.479a1.465,1.465,0,0,0,1.462-1.456V73.444A1.47,1.47,0,0,0,29.479,71.981Z" fill="#ffd064" fill-rule="evenodd"/>
          </g>
          <g id="Grupo_1102537" data-name="Grupo 1102537">
            <path id="Trazado_878609" data-name="Trazado 878609" d="M75.159,26.376a.668.668,0,0,1,.527,0l24.906,10.677a.668.668,0,0,1,.405.615V57.9A29.845,29.845,0,0,1,76.354,87.19l-.93.165-.93-.165A29.846,29.846,0,0,1,49.854,57.9V37.668a.669.669,0,0,1,.405-.615l24.9-10.677Z" fill="#6cf5c2" fill-rule="evenodd"/>
            <path id="Trazado_878610" data-name="Trazado 878610" d="M74.754,26.55l.4-.174a.668.668,0,0,1,.527,0l24.906,10.677a.668.668,0,0,1,.405.615V57.9A29.845,29.845,0,0,1,76.354,87.19l-.93.165-.669-.119.262-.046A29.845,29.845,0,0,0,99.661,57.9V37.668a.668.668,0,0,0-.405-.615Z" fill="#00e499" fill-rule="evenodd"/>
            <path id="Trazado_878611" data-name="Trazado 878611" d="M75.687,34.365a.668.668,0,0,0-.527,0L57.6,41.889a.668.668,0,0,0-.405.615V57.9a22.507,22.507,0,0,0,18.223,22,22.506,22.506,0,0,0,18.23-22V42.5a.668.668,0,0,0-.405-.615L75.687,34.365Z" fill="#eceff1" fill-rule="evenodd"/>
            <path id="Trazado_878612" data-name="Trazado 878612" d="M76.092,34.538l-17.15,7.351a.668.668,0,0,0-.405.615V57.9A22.511,22.511,0,0,0,76.092,79.761q-.332.074-.669.138A22.507,22.507,0,0,1,57.2,57.9V42.5a.668.668,0,0,1,.405-.615L75.16,34.365a.668.668,0,0,1,.527,0Z" fill="#d1d1d6" fill-rule="evenodd"/>
          </g>
          <g id="Grupo_1102538" data-name="Grupo 1102538">
            <path id="Trazado_878613" data-name="Trazado 878613" d="M70.87,53.047s4.412-4.067,4.8-7.144a14.732,14.732,0,0,0,.141-2.9.633.633,0,0,1,.7-.814,3.106,3.106,0,0,1,2.8,2.868,15.033,15.033,0,0,1-.354,5.768h5.294a3.016,3.016,0,0,1,3.014,2.908,23.386,23.386,0,0,1-.7,6.642,5.878,5.878,0,0,1-5.665,4.31H70.87Z" fill="#f6dccd" fill-rule="evenodd"/>
            <path id="Trazado_878614" data-name="Trazado 878614" d="M75.784,42.771a.633.633,0,0,1,.731-.585,3.106,3.106,0,0,1,2.8,2.868,15.033,15.033,0,0,1-.354,5.768H76.7a15.035,15.035,0,0,0,.354-5.768A3.152,3.152,0,0,0,75.784,42.771Zm6.207,8.051h2.262a3.016,3.016,0,0,1,3.014,2.908,23.386,23.386,0,0,1-.7,6.642,5.878,5.878,0,0,1-5.665,4.31H78.638a5.877,5.877,0,0,0,5.665-4.31,23.386,23.386,0,0,0,.7-6.642A3.016,3.016,0,0,0,81.991,50.822Z" fill="#f1cbbc" fill-rule="evenodd"/>
            <path id="Trazado_878615" data-name="Trazado 878615" d="M70.87,50.788v14.4a.676.676,0,0,1-.676.676H65.882a.676.676,0,0,1-.676-.676v-14.4a.676.676,0,0,1,.676-.676h4.312a.676.676,0,0,1,.676.676Z" fill="#837683" fill-rule="evenodd"/>
            <path id="Trazado_878616" data-name="Trazado 878616" d="M70.87,64.895v.29a.676.676,0,0,1-.676.676H65.882a.676.676,0,0,1-.676-.676v-14.4a.676.676,0,0,1,.676-.676H66.1V64.218a.676.676,0,0,0,.676.676Z" fill="#685e68" fill-rule="evenodd"/>
          </g>
        </g>
        <path id="Trazado_878617" data-name="Trazado 878617" d="M24.233,13.2H8.8A2.8,2.8,0,0,0,6,15.991v81.7a2.8,2.8,0,0,0,2.8,2.787H77.162a2.8,2.8,0,0,0,2.8-2.787V91.94a1.65,1.65,0,0,1,3.3,0v5.746a6.1,6.1,0,0,1-6.1,6.088H8.8a6.1,6.1,0,0,1-6.1-6.088v-81.7A6.1,6.1,0,0,1,8.8,9.9H24.233V8.872a1.65,1.65,0,0,1,1.65-1.65h8.555a9.2,9.2,0,0,1,17.081,0h8.555a1.651,1.651,0,0,1,1.65,1.65V9.9H77.162a6.1,6.1,0,0,1,6.1,6.088v6.816a1.65,1.65,0,0,1-3.3,0V15.991a2.8,2.8,0,0,0-2.8-2.787H61.726V16.08H75.432a1.651,1.651,0,0,1,1.65,1.65v2.429a1.65,1.65,0,1,1-3.3,0v-.779H61.726v1.031a1.651,1.651,0,0,1-1.65,1.65H25.883a1.65,1.65,0,0,1-1.65-1.65V19.381H12.177V94.3h61.6v-.743a1.65,1.65,0,0,1,3.3,0v2.393a1.651,1.651,0,0,1-1.65,1.65h-64.9a1.651,1.651,0,0,1-1.65-1.65V17.73a1.651,1.651,0,0,1,1.65-1.65H24.233Zm34.192-1.65V10.523H50.318a1.65,1.65,0,0,1-1.6-1.265,5.9,5.9,0,0,0-11.468,0,1.651,1.651,0,0,1-1.6,1.265H27.534v8.238H58.425Zm-15.445-.272a2,2,0,1,1,1.994-1.994A2,2,0,0,1,42.979,11.282Zm13.914,21.1H42.071a1.65,1.65,0,1,1,0-3.3H64.592L74.638,24.77a1.649,1.649,0,0,1,1.3,0l25.58,10.966a1.65,1.65,0,0,1,1,1.517V57.928A31.507,31.507,0,0,1,76.505,88.85l-.929.165a1.644,1.644,0,0,1-.577,0l-.929-.165a31.113,31.113,0,0,1-9.3-3.2h-22.7a1.65,1.65,0,0,1,0-3.3H59.784a31.749,31.749,0,0,1-4.736-4.742H42.071a1.65,1.65,0,0,1,0-3.3H52.714a31.305,31.305,0,0,1-4.228-11.267H42.071a1.65,1.65,0,1,1,0-3.3h6.045q-.053-.9-.053-1.811V55H42.071a1.65,1.65,0,0,1,0-3.3h5.993V40.422H42.071a1.65,1.65,0,0,1,0-3.3h6a1.651,1.651,0,0,1,.995-1.385Zm18.4-4.3L51.365,38.341V57.928A28.2,28.2,0,0,0,74.641,85.6h.005l.642.114.642-.114h.006a28.2,28.2,0,0,0,23.282-27.67V38.341Zm.65,4.677,18.233,7.812a1.651,1.651,0,0,1,1,1.517V57.928A24.168,24.168,0,0,1,75.6,81.554a1.65,1.65,0,0,1-.617,0A24.169,24.169,0,0,1,55.411,57.928V42.089a1.651,1.651,0,0,1,1-1.517L74.638,32.76a1.65,1.65,0,0,1,1.3,0Zm-.65,3.313L58.712,43.178V57.928A20.855,20.855,0,0,0,75.289,78.25,20.854,20.854,0,0,0,91.871,57.928V43.178ZM72.319,66.329a1.651,1.651,0,0,1-1.582,1.178H65.076a1.651,1.651,0,0,1-1.65-1.65V50.113a1.65,1.65,0,0,1,1.65-1.65h5.662a1.648,1.648,0,0,1,1.333.676q.141-.182.281-.371A7.377,7.377,0,0,0,73.9,45.7a14,14,0,0,0,.141-2.448,2.283,2.283,0,0,1,2.583-2.692,4.648,4.648,0,0,1,4.191,4.283,17.2,17.2,0,0,1,.006,4.331h3.3a4.665,4.665,0,0,1,4.662,4.5v0a25.142,25.142,0,0,1-.761,7.135h0a7.526,7.526,0,0,1-7.253,5.519ZM69.087,51.764H66.726V64.206h2.361Zm3.3,1.981v9.283h8.375a4.225,4.225,0,0,0,4.072-3.1,21.618,21.618,0,0,0,.644-6.141,1.364,1.364,0,0,0-1.363-1.315H78.824a1.65,1.65,0,0,1-1.579-2.132,13.4,13.4,0,0,0,.3-5.068,1.886,1.886,0,0,0-.221-.692c-.027.44-.073.948-.147,1.531a10.8,10.8,0,0,1-2.166,4.615,27.949,27.949,0,0,1-2.619,3.016ZM20.53,71.287H31.7a3.11,3.11,0,0,1,3.11,3.11V85.571a3.11,3.11,0,0,1-3.11,3.11H20.53a3.11,3.11,0,0,1-3.11-3.11V74.4A3.11,3.11,0,0,1,20.53,71.287Zm.191,3.3V85.379H31.512V74.588Zm-.191-25.92H31.7a3.109,3.109,0,0,1,3.11,3.11V62.951a3.11,3.11,0,0,1-3.11,3.11H20.53a3.11,3.11,0,0,1-3.11-3.11V51.778a3.109,3.109,0,0,1,3.11-3.11Zm.191,14.092H31.512V51.969H20.721ZM20.53,26.049H31.7a3.11,3.11,0,0,1,3.11,3.11V40.341a3.121,3.121,0,0,1-3.11,3.11H20.53a3.121,3.121,0,0,1-3.11-3.11V29.158A3.11,3.11,0,0,1,20.53,26.049Zm.191,3.3v10.8H31.512V29.35Z" fill-rule="evenodd"/>
      </g>
    </g>
  </g>
</svg>
