<svg xmlns="http://www.w3.org/2000/svg" xmlns:xlink="http://www.w3.org/1999/xlink" width="106.508" height="106.508" viewBox="0 0 106.508 106.508">
  <defs>
    <clipPath id="clip-path">
      <rect id="Rect치ngulo_403305" data-name="Rect치ngulo 403305" width="106.508" height="106.508" transform="translate(704.668 6155)" fill="#e1f8e6"/>
    </clipPath>
  </defs>
  <g id="Grupo_1102987" data-name="Grupo 1102987" transform="translate(-704.668 -6155)">
    <rect id="Rect치ngulo_402033" data-name="Rect치ngulo 402033" width="106.508" height="106.508" rx="53" transform="translate(704.668 6155)" fill="#3b57de"/>
    <g id="Enmascarar_grupo_1098829" data-name="Enmascarar grupo 1098829" clip-path="url(#clip-path)">
      <g id="Dislike" transform="translate(704.668 6154.91)">
        <path id="Trazado_879760" data-name="Trazado 879760" d="M37.726,20.15c0,47.8.444,45.848-1.087,48.644a8.877,8.877,0,0,1-7.789,4.616H11.1a8.877,8.877,0,0,1-8.877-8.877V20.15a8.877,8.877,0,0,1,6.658-8.588c1.465-.422,1-.288,19.973-.288a8.877,8.877,0,0,1,8.877,8.877Z" fill="#db5669"/>
        <path id="Trazado_879761" data-name="Trazado 879761" d="M37.726,20.15c0,47.8.444,45.848-1.087,48.644a27.451,27.451,0,0,1-12.05-2.752,4.438,4.438,0,1,0-6.835-4.571A27.74,27.74,0,0,1,8.877,41.032V11.562c1.465-.422,1-.288,19.973-.288a8.877,8.877,0,0,1,8.877,8.877Z" fill="#f26674"/>
        <circle id="Elipse_11632" data-name="Elipse 11632" cx="4.438" cy="4.438" r="4.438" transform="translate(19.973 55.657)" fill="#dad7e5"/>
        <path id="Trazado_879762" data-name="Trazado 879762" d="M28.45,61.915a4.438,4.438,0,0,1-5.859-5.859,4.438,4.438,0,0,1,5.859,5.859Z" fill="#edebf2"/>
        <path id="Trazado_879763" data-name="Trazado 879763" d="M102.348,42.164a6.658,6.658,0,0,0-4.7-2.042,6.658,6.658,0,1,0,0-13.315,6.658,6.658,0,0,0,4.7-11.273c-2.663-2.663-1.664-1.953-37.992-1.953l-26.63,6.658V60.184a41.92,41.92,0,0,1,14.979,10.63c2.619,3.085,6.835,12.938,8.1,18.02l.666,2.641c1.842,7.234,13.981,3.95,13.981-4.749,0-5.215-2.73-15.046-4.438-19.973,28.317,0,28.694.688,31.335-1.953a6.658,6.658,0,0,0-4.7-11.362,6.658,6.658,0,0,0,4.7-11.273Z" fill="#f6ccaf"/>
        <path id="Trazado_879764" data-name="Trazado 879764" d="M70.3,89.7a10.23,10.23,0,0,1-2.841-5.37c-1.265-5.082-5.481-14.935-8.1-18.02-8.322-9.7-14.979-7.967-14.979-13.936V18.486L37.726,20.15V60.1a41.92,41.92,0,0,1,14.979,10.63c2.619,3.085,6.835,12.938,8.1,18.02l.666,2.641c1.465,5.814,9.676,5.1,12.76-.488A4.061,4.061,0,0,1,70.3,89.7Z" fill="#edb996"/>
        <path id="Trazado_879765" data-name="Trazado 879765" d="M24.411,53.438A6.658,6.658,0,1,0,31.068,60.1,6.658,6.658,0,0,0,24.411,53.438Zm0,8.877A2.219,2.219,0,1,1,26.63,60.1,2.219,2.219,0,0,1,24.411,62.314Z"/>
        <path id="Trazado_879766" data-name="Trazado 879766" d="M103.5,26.808a8.877,8.877,0,0,0-5.859-15.534H63.823L39.568,17.4A11.1,11.1,0,0,0,28.849,9.054H11.1A11.1,11.1,0,0,0,0,20.15V64.534a11.1,11.1,0,0,0,11.1,11.1H28.849a11.1,11.1,0,0,0,11.1-11.917,35.329,35.329,0,0,1,11.1,8.455,61.049,61.049,0,0,1,8.3,19.751c2.441,9.809,18.33,6.325,18.33-5.37A79.358,79.358,0,0,0,74.12,68.972H97.644A8.877,8.877,0,0,0,103.5,53.438a8.877,8.877,0,0,0,0-13.315,8.877,8.877,0,0,0,0-13.315Zm-68,37.726a6.658,6.658,0,0,1-6.658,6.658H11.1a6.658,6.658,0,0,1-6.658-6.658V20.15A6.658,6.658,0,0,1,11.1,13.493H28.849a6.658,6.658,0,0,1,6.658,6.658ZM97.644,29.027a4.438,4.438,0,1,1,0,8.877,2.219,2.219,0,0,0,0,4.438,4.438,4.438,0,1,1,0,8.877,2.219,2.219,0,0,0,0,4.438,4.438,4.438,0,0,1,3.129,7.567c-1.842,1.864-1.664,1.309-29.759,1.309a2.219,2.219,0,0,0-2.108,2.907c0,.133,4.172,12.871,4.216,19.285s-8.322,8.7-9.5,4.128c-1.753-7.013-5.637-17.332-9.232-21.57A42.5,42.5,0,0,0,39.945,58.719V21.881l24.677-6.169c35.329,0,34.331-.51,36.15,1.309a4.438,4.438,0,0,1-3.129,7.567,2.219,2.219,0,0,0,0,4.438Z"/>
      </g>
    </g>
  </g>
</svg>
