<svg xmlns="http://www.w3.org/2000/svg" xmlns:xlink="http://www.w3.org/1999/xlink" width="141.688" height="141.688" viewBox="0 0 141.688 141.688">
  <defs>
    <clipPath id="clip-path">
      <rect id="Rect치ngulo_403305" data-name="Rect치ngulo 403305" width="102.33" height="102.33" transform="translate(724.347 6174.679)" fill="#e1f8e6"/>
    </clipPath>
  </defs>
  <g id="Grupo_1102324" data-name="Grupo 1102324" transform="translate(-704.668 -6155)">
    <rect id="Rect치ngulo_402033" data-name="Rect치ngulo 402033" width="141.688" height="141.688" rx="5" transform="translate(704.668 6155)" fill="#3b57de"/>
    <g id="Enmascarar_grupo_1098811" data-name="Enmascarar grupo 1098811" clip-path="url(#clip-path)">
      <g id="documentos" transform="translate(724.347 6174.679)">
        <g id="Grupo_1102541" data-name="Grupo 1102541">
          <path id="Trazado_878618" data-name="Trazado 878618" d="M33.577,18.487H93.736a1,1,0,0,1,1,1V99.832a1,1,0,0,1-1,1H33.577a1,1,0,0,1-1-1V19.487A1,1,0,0,1,33.577,18.487Z" fill="#f5f5f5"/>
          <path id="Trazado_878619" data-name="Trazado 878619" d="M90.238,18.487V95.335a1,1,0,0,1-1,1H32.578V19.487a1,1,0,0,1,1-1Z" fill="#e6e6e6"/>
          <path id="Trazado_878620" data-name="Trazado 878620" d="M85.242,9.993H25.083a1,1,0,0,0-1,1V91.337a1,1,0,0,0,1,1H85.242a1,1,0,0,0,1-1V10.992A1,1,0,0,0,85.242,9.993Z" fill="#f5f5f5"/>
          <path id="Trazado_878621" data-name="Trazado 878621" d="M81.744,9.993V86.84a1,1,0,0,1-1,1H24.083V10.992a1,1,0,0,1,1-1Z" fill="#e6e6e6"/>
          <path id="Trazado_878622" data-name="Trazado 878622" d="M77.747,2.5V82.843a1,1,0,0,1-1,1H17.588a9.994,9.994,0,0,1-9.993-9.993v-2.6a1,1,0,0,1,1-1h6a.193.193,0,0,0,.034,0,1,1,0,0,0,.965-1V2.5a1,1,0,0,1,1-1H76.747A1,1,0,0,1,77.747,2.5Z" fill="#f5f5f5"/>
          <path id="Trazado_878623" data-name="Trazado 878623" d="M40.772,30.479H23.584a1,1,0,0,1-1-1V12.292a1,1,0,0,1,1-1H40.772a1,1,0,0,1,1,1V29.48A1,1,0,0,1,40.772,30.479Z" fill="#faa515"/>
          <g id="Grupo_1102540" data-name="Grupo 1102540">
            <path id="Trazado_878624" data-name="Trazado 878624" d="M70.752,29.38H48.767a1.5,1.5,0,0,1,0-3H70.752a1.5,1.5,0,0,1,0,3Z" fill="#2b597f"/>
            <path id="Trazado_878625" data-name="Trazado 878625" d="M57.76,42.971H35.576a1.5,1.5,0,1,1,0-3H57.76a1.5,1.5,0,1,1,0,3Z" fill="#2b597f"/>
            <path id="Trazado_878626" data-name="Trazado 878626" d="M70.752,22.385H48.767a1.5,1.5,0,0,1,0-3H70.752a1.5,1.5,0,0,1,0,3Z" fill="#2b597f"/>
            <path id="Trazado_878627" data-name="Trazado 878627" d="M70.752,15.389H48.767a1.5,1.5,0,0,1,0-3H70.752a1.5,1.5,0,0,1,0,3Z" fill="#2b597f"/>
            <path id="Trazado_878628" data-name="Trazado 878628" d="M70.752,60.758H22.585a1.5,1.5,0,0,1,0-3H70.752a1.5,1.5,0,0,1,0,3Z" fill="#2b597f"/>
            <path id="Trazado_878629" data-name="Trazado 878629" d="M70.752,51.765H44.569a1.5,1.5,0,0,1,0-3H70.752a1.5,1.5,0,0,1,0,3Z" fill="#2b597f"/>
            <path id="Trazado_878630" data-name="Trazado 878630" d="M37.574,51.765H22.485a1.5,1.5,0,0,1,0-3h15.09a1.5,1.5,0,1,1,0,3Z" fill="#2b597f"/>
            <path id="Trazado_878631" data-name="Trazado 878631" d="M67.909,83.843H17.588a9.993,9.993,0,0,1-9.993-9.993v-2.6a1,1,0,0,1,1-1h6a.193.193,0,0,0,.034,0H57.017a1,1,0,0,1,1,1v2.6A9.994,9.994,0,0,0,67.909,83.843Z" fill="#2b597f"/>
          </g>
        </g>
        <g id="Grupo_1102542" data-name="Grupo 1102542">
          <path id="Trazado_878632" data-name="Trazado 878632" d="M94.735,16.988h-7v-7a1.5,1.5,0,0,0-1.5-1.5h-7v-7a1.5,1.5,0,0,0-1.5-1.5H15.589a1.5,1.5,0,0,0-1.5,1.5V68.753h-6.5a1.5,1.5,0,0,0-1.5,1.5v3.6A11.505,11.505,0,0,0,17.588,85.342h5v7a1.5,1.5,0,0,0,1.5,1.5h7v7a1.5,1.5,0,0,0,1.5,1.5H62.657a1.5,1.5,0,1,0,0-3H34.077v-5.5H86.241a1.5,1.5,0,0,0,1.5-1.5V68.753a1.5,1.5,0,0,0-3,0V90.838H25.582v-5.5H77.747a1.5,1.5,0,0,0,1.5-1.5V11.492h5.5V61.958a1.5,1.5,0,1,0,3,0V19.986h5.5V99.332H69.452a1.5,1.5,0,1,0,0,3H94.735a1.5,1.5,0,0,0,1.5-1.5V18.487A1.5,1.5,0,0,0,94.735,16.988ZM76.248,82.344H67.953a8.5,8.5,0,0,1-8.494-8.494v-3.6a1.5,1.5,0,0,0-1.5-1.5H47.567a1.5,1.5,0,1,0,0,3h8.894v2.1a11.465,11.465,0,0,0,3.76,8.494H17.588a8.5,8.5,0,0,1-8.494-8.494v-2.1H40.572a1.5,1.5,0,0,0,0-3H17.088V3H76.248Z"/>
          <path id="Trazado_878633" data-name="Trazado 878633" d="M22.585,31.978H41.771a1.5,1.5,0,0,0,1.5-1.5V11.292a1.5,1.5,0,0,0-1.5-1.5H22.585a1.5,1.5,0,0,0-1.5,1.5V30.479A1.5,1.5,0,0,0,22.585,31.978Zm1.5-19.187H40.272V28.98H24.083Z"/>
          <path id="Trazado_878634" data-name="Trazado 878634" d="M70.752,26.382H48.767a1.5,1.5,0,0,0,0,3H70.752a1.5,1.5,0,0,0,0-3Z"/>
          <path id="Trazado_878635" data-name="Trazado 878635" d="M34.077,41.472a1.5,1.5,0,0,0,1.5,1.5H57.76a1.5,1.5,0,1,0,0-3H35.576A1.5,1.5,0,0,0,34.077,41.472Z"/>
          <path id="Trazado_878636" data-name="Trazado 878636" d="M70.752,19.387H48.767a1.5,1.5,0,0,0,0,3H70.752a1.5,1.5,0,0,0,0-3Z"/>
          <path id="Trazado_878637" data-name="Trazado 878637" d="M70.752,12.392H48.767a1.5,1.5,0,0,0,0,3H70.752a1.5,1.5,0,0,0,0-3Z"/>
          <path id="Trazado_878638" data-name="Trazado 878638" d="M70.752,57.76H22.585a1.5,1.5,0,0,0,0,3H70.752a1.5,1.5,0,0,0,0-3Z"/>
          <path id="Trazado_878639" data-name="Trazado 878639" d="M70.752,48.767H44.569a1.5,1.5,0,0,0,0,3H70.752a1.5,1.5,0,0,0,0-3Z"/>
          <path id="Trazado_878640" data-name="Trazado 878640" d="M22.485,51.765h15.09a1.5,1.5,0,1,0,0-3H22.485a1.5,1.5,0,0,0,0,3Z"/>
        </g>
      </g>
    </g>
  </g>
</svg>
