<svg xmlns="http://www.w3.org/2000/svg" xmlns:xlink="http://www.w3.org/1999/xlink" width="107" height="107" viewBox="0 0 107 107">
  <defs>
    <clipPath id="clip-path">
      <rect id="Rectángulo_403474" data-name="Rectángulo 403474" width="72" height="72" transform="translate(492.332 7363)" fill="#fff" stroke="#fff" stroke-width="1"/>
    </clipPath>
  </defs>
  <g id="Grupo_1102243" data-name="Grupo 1102243" transform="translate(-475.332 -7345)">
    <g id="Grupo_156312" data-name="Grupo 156312" transform="translate(186.664 2896.563)">
      <path id="Elipse_5845" data-name="Elipse 5845" d="M53.5,0A53.5,53.5,0,1,1,0,53.5,53.5,53.5,0,0,1,53.5,0Z" transform="translate(288.668 4448.437)" fill="#3b57de"/>
    </g>
    <g id="Enmascarar_grupo_1098805" data-name="Enmascarar grupo 1098805" clip-path="url(#clip-path)">
      <path id="negociacion-de-contrato" d="M73.559,54.664,66.392,35.405a.694.694,0,0,0-.879-.4l-4.805,1.79a.689.689,0,0,0-.4.877l7.167,19.26a.687.687,0,0,0,.877.4l4.806-1.788A.691.691,0,0,0,73.559,54.664Zm-9.324-.177-6.19,3.335c-.08-.109-.167-.217-.26-.324l-6.79-7.676a1.092,1.092,0,0,0-1.018-.351,18.948,18.948,0,0,1-10.032-.917,1.1,1.1,0,0,0-.976.119L29.9,54.717a2.174,2.174,0,0,1-2.921-.454l-.145-.182A2.183,2.183,0,0,1,27,51.169L39.24,38.926a15.858,15.858,0,0,1,5.209-1.348,21.06,21.06,0,0,1,7.186.988A39.754,39.754,0,0,0,58.8,39.887Zm-7.579,5.4a1.138,1.138,0,0,1-.11-.237,2.123,2.123,0,0,0-.414-.722l-6.37-7.2a21.062,21.062,0,0,1-10.035-.933l-8.615,5.743a4.343,4.343,0,0,1-5.834-.906l-.146-.182a4.364,4.364,0,0,1,.322-5.818L37.191,37.89c-5.074-1.118-8.346.728-13.091,1.555-1.108.194-2.227.339-3.338.444l-5.433,14.6,8.792,4.734a1.073,1.073,0,0,1,.264.2L34.678,69.971a.335.335,0,0,1,.036.038c1.425,1.61,2.746,2.327,3.631,1.97A2.571,2.571,0,0,0,39.4,69.01,1.093,1.093,0,0,1,41.132,67.8c2.6,2.192,5.138.79,3.966-2.09a1.093,1.093,0,0,1,1.73-1.233c2.825,2.478,4.811.69,4.315-1.882a1.094,1.094,0,0,1,1.89-.93c1.618,1.83,4.011-.12,3.623-1.781Zm-37.4-22.211L12.093,56.931a.688.688,0,0,1-.879.4L6.409,55.545a.688.688,0,0,1-.4-.879l7.166-19.259a.694.694,0,0,1,.879-.4l4.806,1.789A.689.689,0,0,1,19.259,37.671Zm7.646-1.092c2.663-.67,5.181-1.423,8.38-1.174a17.7,17.7,0,0,1,4.5.959,17.666,17.666,0,0,1,4.5-.96,24.384,24.384,0,0,1,8.38,1.174V8.388a.9.9,0,0,0-.9-.9H34.012v4.03a3.083,3.083,0,0,1-3.08,3.078H26.9Zm1.544-24.163L31.83,9.034V11.52a.9.9,0,0,1-.9.9ZM75.521,56.094a2.846,2.846,0,0,1-1.6,1.493l-4.806,1.789a2.866,2.866,0,0,1-3.683-1.686L65,56.552l-6.141,3.306A4.4,4.4,0,0,1,53.3,64.4a4.058,4.058,0,0,1-5.743,3.081,3.849,3.849,0,0,1-2.015,3.109,4.583,4.583,0,0,1-3.926.047,4.016,4.016,0,0,1-3.775,3.621c-1.233,0-2.84-.632-4.749-2.782L22.942,61.065l-8.38-4.512c-.434,1.166-.654,2.165-1.917,2.744a2.844,2.844,0,0,1-2.19.081L5.648,57.589a2.868,2.868,0,0,1-1.686-3.683l7.166-19.259a2.867,2.867,0,0,1,3.684-1.686l4.806,1.788a2.871,2.871,0,0,1,1.859,2.87c1.076-.125,2.185-.292,3.246-.517V13.508a1.09,1.09,0,0,1,.32-.771L32.15,5.63a1.088,1.088,0,0,1,.771-.32h18.84a3.082,3.082,0,0,1,3.078,3.079V37.1c1.062.226,2.169.392,3.248.517a2.865,2.865,0,0,1,1.858-2.87l4.806-1.788a2.867,2.867,0,0,1,3.683,1.684L75.6,53.9a2.846,2.846,0,0,1-.081,2.19ZM31.2,30.307a1.091,1.091,0,0,1,0-2.182H48.365a1.091,1.091,0,0,1,0,2.182Zm-1.091-9.326A1.091,1.091,0,0,1,31.2,19.89H48.365a1.091,1.091,0,0,1,0,2.182H31.2A1.091,1.091,0,0,1,30.107,20.981Z" transform="translate(488.549 7359.217)" fill="#fff" fill-rule="evenodd"/>
    </g>
  </g>
</svg>
