<svg xmlns="http://www.w3.org/2000/svg" xmlns:xlink="http://www.w3.org/1999/xlink" width="87.264" height="87.264" viewBox="0 0 87.264 87.264">
  <defs>
    <clipPath id="clip-path">
      <rect id="Rectángulo_403471" data-name="Rectángulo 403471" width="52.358" height="52.358" transform="translate(197.785 6306.453)" fill="#fff" stroke="#707070" stroke-width="1"/>
    </clipPath>
  </defs>
  <g id="Grupo_1102299" data-name="Grupo 1102299" transform="translate(-180.332 -6289)">
    <rect id="Rectángulo_400898" data-name="Rectángulo 400898" width="87.264" height="87.264" rx="43.632" transform="translate(180.332 6289)" fill="#fff" opacity="0.859"/>
    <g id="Rectángulo_400907" data-name="Rectángulo 400907" transform="translate(180.332 6289)" fill="none" stroke="#3b57de" stroke-linecap="round" stroke-width="2" stroke-dasharray="7">
      <rect width="87.264" height="87.264" rx="43.632" stroke="none"/>
      <rect x="1" y="1" width="85.264" height="85.264" rx="42.632" fill="none"/>
    </g>
    <g id="Enmascarar_grupo_1098801" data-name="Enmascarar grupo 1098801" clip-path="url(#clip-path)">
      <g id="carpetas" transform="translate(196.94 6305.608)">
        <path id="Trazado_878488" data-name="Trazado 878488" d="M6.756,3.378H47.291a2.533,2.533,0,0,1,2.533,2.533V16.045H4.222V5.911A2.533,2.533,0,0,1,6.756,3.378Z" fill="#71c5f4"/>
        <path id="Trazado_878489" data-name="Trazado 878489" d="M6.756,7.6v8.445H49.825V7.6a2.533,2.533,0,0,0-2.533-2.533h-38A2.533,2.533,0,0,0,6.756,7.6Z" fill="#61afe8"/>
        <path id="Trazado_878490" data-name="Trazado 878490" d="M6.756,7.6H47.291a2.533,2.533,0,0,1,2.533,2.533v5.911H4.222V10.134A2.533,2.533,0,0,1,6.756,7.6Z" fill="#ff6e8c"/>
        <path id="Trazado_878491" data-name="Trazado 878491" d="M6.756,11.823v4.222H49.825V11.823a2.533,2.533,0,0,0-2.533-2.533h-38a2.533,2.533,0,0,0-2.533,2.533Z" fill="#fa5378"/>
        <path id="Trazado_878492" data-name="Trazado 878492" d="M6.756,11.823H47.291a2.533,2.533,0,0,1,2.533,2.533v6.756H4.222V14.356a2.533,2.533,0,0,1,2.533-2.533Z" fill="#ffe76e"/>
        <path id="Trazado_878493" data-name="Trazado 878493" d="M6.756,16.045v5.067H49.825V16.045a2.533,2.533,0,0,0-2.533-2.533h-38A2.533,2.533,0,0,0,6.756,16.045Z" fill="#ffd73c"/>
        <path id="Trazado_878494" data-name="Trazado 878494" d="M18.579,16.89H4.222a2.533,2.533,0,0,0-2.533,2.533V48.136a2.533,2.533,0,0,0,2.533,2.533h45.6a2.533,2.533,0,0,0,2.533-2.533V19.423a2.533,2.533,0,0,0-2.533-2.533H35.468L33.7,19.254a2.533,2.533,0,0,1-2.027,1.013H22.379a2.533,2.533,0,0,1-2.027-1.013Z" fill="#7d8791"/>
        <path id="Trazado_878495" data-name="Trazado 878495" d="M49.825,19.423H33.535a2.523,2.523,0,0,1-1.866.844H22.379a2.523,2.523,0,0,1-1.866-.844H5.911a1.689,1.689,0,0,0-1.689,1.689V48.136a2.533,2.533,0,0,0,2.533,2.533H49.825a2.533,2.533,0,0,0,2.533-2.533V21.957a2.533,2.533,0,0,0-2.533-2.533Z" fill="#5a646e"/>
        <rect id="Rectángulo_403639" data-name="Rectángulo 403639" width="15.201" height="10.134" rx="1.689" transform="translate(5.911 36.313)" fill="#fafcff"/>
        <path id="Trazado_878496" data-name="Trazado 878496" d="M19.423,35.468H7.6A2.533,2.533,0,0,0,5.067,38v6.756A2.533,2.533,0,0,0,7.6,47.291H19.423a2.533,2.533,0,0,0,2.533-2.533V38A2.533,2.533,0,0,0,19.423,35.468Zm.844,9.289a.844.844,0,0,1-.844.844H7.6a.844.844,0,0,1-.844-.844V38a.844.844,0,0,1,.844-.844H19.423a.844.844,0,0,1,.844.844Z"/>
        <path id="Trazado_878497" data-name="Trazado 878497" d="M17.734,38.846H9.289a.844.844,0,1,0,0,1.689h8.445a.844.844,0,1,0,0-1.689Z"/>
        <path id="Trazado_878498" data-name="Trazado 878498" d="M17.734,42.224H9.289a.844.844,0,1,0,0,1.689h8.445a.844.844,0,1,0,0-1.689Z"/>
        <path id="Trazado_878499" data-name="Trazado 878499" d="M50.669,16.165V5.911a3.378,3.378,0,0,0-3.378-3.378H6.756A3.378,3.378,0,0,0,3.378,5.911V16.165A3.378,3.378,0,0,0,.844,19.423V48.136a3.378,3.378,0,0,0,3.378,3.378h45.6A3.378,3.378,0,0,0,53.2,48.136V19.423A3.378,3.378,0,0,0,50.669,16.165ZM5.067,5.911A1.689,1.689,0,0,1,6.756,4.222H47.291A1.689,1.689,0,0,1,48.98,5.911V7.225a3.343,3.343,0,0,0-1.689-.47H6.756a3.343,3.343,0,0,0-1.689.47Zm0,4.222A1.689,1.689,0,0,1,6.756,8.445H47.291a1.689,1.689,0,0,1,1.689,1.689v1.314a3.343,3.343,0,0,0-1.689-.47H6.756a3.343,3.343,0,0,0-1.689.47Zm0,4.222a1.689,1.689,0,0,1,1.689-1.689H47.291a1.689,1.689,0,0,1,1.689,1.689v1.689H35.468a.844.844,0,0,0-.676.338l-1.773,2.365a1.7,1.7,0,0,1-1.351.676H22.379a1.7,1.7,0,0,1-1.351-.676l-1.773-2.365a.844.844,0,0,0-.676-.338H5.067Zm46.447,33.78a1.689,1.689,0,0,1-1.689,1.689H4.222a1.689,1.689,0,0,1-1.689-1.689V19.423a1.689,1.689,0,0,1,1.689-1.689H18.156l1.52,2.027a3.4,3.4,0,0,0,2.7,1.351h9.289a3.393,3.393,0,0,0,2.7-1.351l1.52-2.027H49.825a1.689,1.689,0,0,1,1.689,1.689Z"/>
      </g>
    </g>
  </g>
</svg>
