<svg xmlns="http://www.w3.org/2000/svg" xmlns:xlink="http://www.w3.org/1999/xlink" width="87.264" height="87.264" viewBox="0 0 87.264 87.264">
  <defs>
    <clipPath id="clip-path">
      <rect id="Rectángulo_403471" data-name="Rectángulo 403471" width="52.358" height="52.358" transform="translate(197.785 6306.452)" fill="#fff" stroke="#707070" stroke-width="1"/>
    </clipPath>
  </defs>
  <g id="Grupo_1102354" data-name="Grupo 1102354" transform="translate(-180.332 -6289)">
    <rect id="Rectángulo_400898" data-name="Rectángulo 400898" width="87.264" height="87.264" rx="43.632" transform="translate(180.332 6289)" fill="#fff" opacity="0.859"/>
    <g id="Rectángulo_400907" data-name="Rectángulo 400907" transform="translate(180.332 6289)" fill="none" stroke="#3b57de" stroke-linecap="round" stroke-width="2" stroke-dasharray="7">
      <rect width="87.264" height="87.264" rx="43.632" stroke="none"/>
      <rect x="1" y="1" width="85.264" height="85.264" rx="42.632" fill="none"/>
    </g>
    <g id="Enmascarar_grupo_1098824" data-name="Enmascarar grupo 1098824" clip-path="url(#clip-path)">
      <g id="XMLID_1364_" transform="translate(197.785 6306.452)">
        <path id="XMLID_326_" d="M24.346,35.268,15.07,51.335l-1.8-6.719L6.526,46.424l9.286-16.083Z" fill="#adeefa"/>
        <path id="XMLID_324_" d="M36.547,30.341l9.285,16.083-6.743-1.807-1.8,6.719L28.012,35.268Z" fill="#adeefa"/>
        <path id="XMLID_1369_" d="M28,1.385a4.9,4.9,0,0,1,5.73,1.535,4.9,4.9,0,0,0,3.214,1.856,4.9,4.9,0,0,1,4.195,4.195A4.9,4.9,0,0,0,43,12.185a4.9,4.9,0,0,1,1.535,5.73,4.9,4.9,0,0,0,0,3.711A4.9,4.9,0,0,1,43,27.356a4.9,4.9,0,0,0-1.856,3.214,4.9,4.9,0,0,1-4.195,4.195,4.9,4.9,0,0,0-3.214,1.856A4.9,4.9,0,0,1,28,38.156a4.9,4.9,0,0,0-3.711,0,4.9,4.9,0,0,1-5.73-1.535,4.9,4.9,0,0,0-3.214-1.856,4.9,4.9,0,0,1-4.195-4.195A4.9,4.9,0,0,0,9.3,27.356a4.9,4.9,0,0,1-1.535-5.73,4.9,4.9,0,0,0,0-3.711A4.9,4.9,0,0,1,9.3,12.185a4.9,4.9,0,0,0,1.856-3.214,4.9,4.9,0,0,1,4.195-4.195,4.9,4.9,0,0,0,3.214-1.856,4.9,4.9,0,0,1,5.73-1.535,4.9,4.9,0,0,0,3.711,0Z" fill="#ffec80"/>
        <circle id="XMLID_1366_" cx="12.273" cy="12.273" r="12.273" transform="translate(13.906 7.842)" fill="#fff"/>
        <g id="XMLID_320_">
          <path id="XMLID_322_" d="M25.008,25.861,19.04,19.893l3.182-3.182L25.008,19.5l5.128-5.128,3.182,3.182Z" fill="#ff7d97"/>
        </g>
        <g id="XMLID_141_">
          <path id="XMLID_162_" d="M46.718,45.912,40.094,34.44a5.925,5.925,0,0,0,2.061-3.732,3.854,3.854,0,0,1,1.468-2.543,5.939,5.939,0,0,0,1.856-6.926,3.854,3.854,0,0,1,0-2.937,5.939,5.939,0,0,0-1.856-6.926,3.854,3.854,0,0,1-1.468-2.543,5.939,5.939,0,0,0-5.07-5.07,3.854,3.854,0,0,1-2.543-1.468A5.939,5.939,0,0,0,27.615.439a3.854,3.854,0,0,1-2.937,0,5.939,5.939,0,0,0-6.926,1.856,3.855,3.855,0,0,1-2.543,1.468,5.939,5.939,0,0,0-5.07,5.07,3.855,3.855,0,0,1-1.468,2.543A5.939,5.939,0,0,0,6.815,18.3a3.854,3.854,0,0,1,0,2.937,5.939,5.939,0,0,0,1.856,6.926,3.855,3.855,0,0,1,1.468,2.543,5.925,5.925,0,0,0,2.1,3.768L5.64,45.912a1.023,1.023,0,0,0,1.151,1.5l5.755-1.542L14.082,51.6a1.023,1.023,0,0,0,1.874.247L23.08,39.506a5.875,5.875,0,0,0,1.6-.4,3.854,3.854,0,0,1,2.937,0,5.877,5.877,0,0,0,1.668.411L36.4,51.847a1.023,1.023,0,0,0,1.874-.247l1.536-5.731,5.755,1.542a1.023,1.023,0,0,0,1.15-1.5Zm-31.3,2.773-1.161-4.333A1.023,1.023,0,0,0,13,43.629L8.646,44.8l5.374-9.308a5.882,5.882,0,0,0,1.189.29,3.855,3.855,0,0,1,2.543,1.468,5.912,5.912,0,0,0,3.075,2.069ZM23.9,37.21A3.888,3.888,0,0,1,19.37,36a5.888,5.888,0,0,0-3.885-2.243,3.888,3.888,0,0,1-3.319-3.319,5.889,5.889,0,0,0-2.243-3.885,3.888,3.888,0,0,1-1.215-4.534,5.887,5.887,0,0,0,0-4.486,3.888,3.888,0,0,1,1.215-4.534,5.888,5.888,0,0,0,2.243-3.885A3.888,3.888,0,0,1,15.485,5.79,5.888,5.888,0,0,0,19.37,3.547,3.884,3.884,0,0,1,23.9,2.332a5.889,5.889,0,0,0,4.486,0,3.888,3.888,0,0,1,4.534,1.215A5.888,5.888,0,0,0,36.809,5.79a3.888,3.888,0,0,1,3.319,3.319,5.888,5.888,0,0,0,2.243,3.885,3.888,3.888,0,0,1,1.215,4.534,5.888,5.888,0,0,0,0,4.486,3.888,3.888,0,0,1-1.215,4.534,5.888,5.888,0,0,0-2.243,3.885,3.888,3.888,0,0,1-3.319,3.319,5.887,5.887,0,0,0-3.885,2.243A3.887,3.887,0,0,1,28.39,37.21a5.889,5.889,0,0,0-4.486,0Zm15.45,6.419a1.023,1.023,0,0,0-1.253.723L36.94,48.686,31.521,39.3a5.912,5.912,0,0,0,3.02-2.053,3.853,3.853,0,0,1,2.543-1.468,5.877,5.877,0,0,0,1.242-.31L43.712,44.8Z"/>
          <path id="XMLID_1190_" d="M21.5,15.987,18.317,19.17a1.023,1.023,0,0,0,0,1.446l5.968,5.968a1.023,1.023,0,0,0,1.446,0l8.31-8.31a1.023,1.023,0,0,0,0-1.446l-3.182-3.182a1.023,1.023,0,0,0-1.446,0l-4.4,4.4-2.063-2.063a1.023,1.023,0,0,0-1.447,0Zm2.786,4.233a1.023,1.023,0,0,0,1.446,0l4.4-4.4,1.736,1.736-6.864,6.864-4.522-4.522,1.736-1.736Z"/>
          <path id="XMLID_1191_" d="M39.475,20.115a13.3,13.3,0,0,0-8.4-12.364,1.023,1.023,0,0,0-.754,1.9,11.25,11.25,0,1,1-8.29,0,1.023,1.023,0,0,0-.754-1.9,13.3,13.3,0,1,0,18.2,12.364Z"/>
          <path id="XMLID_1218_" d="M26.179,8.864a1.023,1.023,0,1,0-.723-.3A1.026,1.026,0,0,0,26.179,8.864Z"/>
        </g>
      </g>
    </g>
  </g>
</svg>
