<svg xmlns="http://www.w3.org/2000/svg" xmlns:xlink="http://www.w3.org/1999/xlink" width="87.264" height="87.264" viewBox="0 0 87.264 87.264">
  <defs>
    <clipPath id="clip-path">
      <rect id="Rectángulo_403471" data-name="Rectángulo 403471" width="52.358" height="52.358" transform="translate(197.785 6306.453)" fill="#fff" stroke="#707070" stroke-width="1"/>
    </clipPath>
  </defs>
  <g id="Grupo_1102300" data-name="Grupo 1102300" transform="translate(-180.332 -6289)">
    <rect id="Rectángulo_400898" data-name="Rectángulo 400898" width="87.264" height="87.264" rx="43.632" transform="translate(180.332 6289)" fill="#fff" opacity="0.859"/>
    <g id="Rectángulo_400907" data-name="Rectángulo 400907" transform="translate(180.332 6289)" fill="none" stroke="#3b57de" stroke-linecap="round" stroke-width="2" stroke-dasharray="7">
      <rect width="87.264" height="87.264" rx="43.632" stroke="none"/>
      <rect x="1" y="1" width="85.264" height="85.264" rx="42.632" fill="none"/>
    </g>
    <g id="Enmascarar_grupo_1098802" data-name="Enmascarar grupo 1098802" clip-path="url(#clip-path)">
      <g id="lista-de-verificacion" transform="translate(197.785 6306.453)">
        <g id="Grupo_1102507" data-name="Grupo 1102507">
          <path id="Trazado_878500" data-name="Trazado 878500" d="M41.106,51.591H6.4a1.653,1.653,0,0,1-1.653-1.653V2.42A1.653,1.653,0,0,1,6.4.767H41.106A1.653,1.653,0,0,1,42.759,2.42V49.939A1.653,1.653,0,0,1,41.106,51.591Z" fill="#ecf4ff"/>
        </g>
        <g id="Grupo_1102508" data-name="Grupo 1102508">
          <path id="Trazado_878501" data-name="Trazado 878501" d="M41.106.767H39.04A1.653,1.653,0,0,1,40.693,2.42V49.939a1.653,1.653,0,0,1-1.653,1.653h2.066a1.653,1.653,0,0,0,1.653-1.653V2.42A1.653,1.653,0,0,0,41.106.767Z" fill="#ddeafb"/>
        </g>
        <g id="Grupo_1102527" data-name="Grupo 1102527">
          <g id="Grupo_1102514" data-name="Grupo 1102514">
            <g id="Grupo_1102513" data-name="Grupo 1102513">
              <g id="Grupo_1102512" data-name="Grupo 1102512">
                <g id="Grupo_1102511" data-name="Grupo 1102511">
                  <g id="Grupo_1102509" data-name="Grupo 1102509">
                    <path id="Trazado_878502" data-name="Trazado 878502" d="M17.627,17.708H10.249a1.476,1.476,0,0,1-1.476-1.476V8.854a1.476,1.476,0,0,1,1.476-1.476h7.379A1.476,1.476,0,0,1,19.1,8.854v7.379a1.476,1.476,0,0,1-1.476,1.476Z" fill="#b3e59f"/>
                  </g>
                  <g id="Grupo_1102510" data-name="Grupo 1102510">
                    <path id="Trazado_878503" data-name="Trazado 878503" d="M17.751,7.385q.023.307.024.621a8.08,8.08,0,0,1-8.08,8.08,8.172,8.172,0,0,1-.922-.053v.2a1.476,1.476,0,0,0,1.476,1.476h7.379A1.476,1.476,0,0,0,19.1,16.233V8.854a1.475,1.475,0,0,0-1.352-1.469Z" fill="#95d6a4"/>
                  </g>
                </g>
              </g>
            </g>
          </g>
          <g id="Grupo_1102520" data-name="Grupo 1102520">
            <g id="Grupo_1102519" data-name="Grupo 1102519">
              <g id="Grupo_1102518" data-name="Grupo 1102518">
                <g id="Grupo_1102517" data-name="Grupo 1102517">
                  <g id="Grupo_1102515" data-name="Grupo 1102515">
                    <path id="Trazado_878504" data-name="Trazado 878504" d="M17.627,31.344H10.249a1.476,1.476,0,0,1-1.476-1.476V22.49a1.476,1.476,0,0,1,1.476-1.476h7.379A1.476,1.476,0,0,1,19.1,22.49v7.379A1.476,1.476,0,0,1,17.627,31.344Z" fill="#b3e59f"/>
                  </g>
                  <g id="Grupo_1102516" data-name="Grupo 1102516">
                    <path id="Trazado_878505" data-name="Trazado 878505" d="M17.751,21.02q.023.307.024.621a8.08,8.08,0,0,1-9,8.027v.2a1.476,1.476,0,0,0,1.476,1.476h7.379A1.476,1.476,0,0,0,19.1,29.868V22.49a1.475,1.475,0,0,0-1.352-1.47Z" fill="#95d6a4"/>
                  </g>
                </g>
              </g>
            </g>
          </g>
          <g id="Grupo_1102526" data-name="Grupo 1102526">
            <g id="Grupo_1102525" data-name="Grupo 1102525">
              <g id="Grupo_1102524" data-name="Grupo 1102524">
                <g id="Grupo_1102523" data-name="Grupo 1102523">
                  <g id="Grupo_1102521" data-name="Grupo 1102521">
                    <path id="Trazado_878506" data-name="Trazado 878506" d="M17.627,44.98H10.249A1.476,1.476,0,0,1,8.773,43.5V36.126a1.476,1.476,0,0,1,1.476-1.476h7.379A1.476,1.476,0,0,1,19.1,36.126V43.5A1.476,1.476,0,0,1,17.627,44.98Z" fill="#b3e59f"/>
                  </g>
                  <g id="Grupo_1102522" data-name="Grupo 1102522">
                    <path id="Trazado_878507" data-name="Trazado 878507" d="M17.751,34.656q.023.307.024.621a8.08,8.08,0,0,1-9,8.027v.2a1.476,1.476,0,0,0,1.476,1.476h7.379A1.476,1.476,0,0,0,19.1,43.5V36.126a1.475,1.475,0,0,0-1.352-1.47Z" fill="#95d6a4"/>
                  </g>
                </g>
              </g>
            </g>
          </g>
        </g>
        <g id="Grupo_1102532" data-name="Grupo 1102532">
          <g id="Grupo_1102528" data-name="Grupo 1102528">
            <path id="Trazado_878508" data-name="Trazado 878508" d="M33.089,50.752l-1.933.839-.24-2.094a4.132,4.132,0,0,1,.527-2.536L44.036,25.151l3.578,2.066L35.022,49.028a4.132,4.132,0,0,1-1.933,1.724Z" fill="#4a80aa"/>
          </g>
          <g id="Grupo_1102529" data-name="Grupo 1102529">
            <path id="Trazado_878509" data-name="Trazado 878509" d="M46,26.287,33.412,48.1a4.132,4.132,0,0,1-1.933,1.724l-.5.217.178,1.552,1.933-.839a4.132,4.132,0,0,0,1.933-1.724L47.614,27.217Z" fill="#407093"/>
          </g>
          <g id="Grupo_1102530" data-name="Grupo 1102530">
            <path id="Trazado_878510" data-name="Trazado 878510" d="M41.485,28.77h3.306V32.9H41.485Z" transform="translate(-5.135 52.778) rotate(-59.999)" fill="#ffe07d"/>
          </g>
          <g id="Grupo_1102531" data-name="Grupo 1102531">
            <path id="Trazado_878511" data-name="Trazado 878511" d="M42.469,30.474h3.306v1.859H42.469Z" transform="translate(-5.135 53.914) rotate(-59.999)" fill="#ffd064"/>
          </g>
        </g>
        <g id="Grupo_1102533" data-name="Grupo 1102533">
          <path id="Trazado_878512" data-name="Trazado 878512" d="M4.744,42.168a.767.767,0,0,0,.767-.767V2.42A.887.887,0,0,1,6.4,1.534h34.71a.887.887,0,0,1,.886.886v8.128a.767.767,0,1,0,1.534,0V2.42A2.422,2.422,0,0,0,41.106,0H6.4a2.422,2.422,0,0,0-2.42,2.42V41.4a.767.767,0,0,0,.767.767Z"/>
          <path id="Trazado_878513" data-name="Trazado 878513" d="M19.87,8.854a2.245,2.245,0,0,0-2.243-2.243H10.249A2.245,2.245,0,0,0,8.006,8.854v7.379a2.245,2.245,0,0,0,2.243,2.243h7.379a2.245,2.245,0,0,0,2.243-2.243Zm-1.534,7.379a.71.71,0,0,1-.709.709H10.249a.71.71,0,0,1-.709-.709V8.854a.71.71,0,0,1,.709-.709h7.379a.71.71,0,0,1,.709.709Z"/>
          <path id="Trazado_878514" data-name="Trazado 878514" d="M15.462,10.693l-2.075,2.075L12.621,12a.767.767,0,1,0-1.085,1.084l1.308,1.309a.767.767,0,0,0,1.085,0l2.617-2.617a.767.767,0,1,0-1.085-1.085Z"/>
          <path id="Trazado_878515" data-name="Trazado 878515" d="M23.855,13.1H35.941a.767.767,0,0,0,0-1.534H23.855a.767.767,0,0,0,0,1.534Z"/>
          <path id="Trazado_878516" data-name="Trazado 878516" d="M38.73,8.264H31.4a.767.767,0,0,0,0,1.534H38.73a.767.767,0,0,0,0-1.534Z"/>
          <path id="Trazado_878517" data-name="Trazado 878517" d="M23.855,9.8H27.78a.767.767,0,0,0,0-1.534H23.855a.767.767,0,0,0,0,1.534Z"/>
          <path id="Trazado_878518" data-name="Trazado 878518" d="M28.5,14.875a.767.767,0,0,0,0,1.534h4.029a.767.767,0,1,0,0-1.534Z"/>
          <path id="Trazado_878519" data-name="Trazado 878519" d="M23.855,16.409h1.033a.767.767,0,1,0,0-1.534H23.855a.767.767,0,0,0,0,1.534Z"/>
          <path id="Trazado_878520" data-name="Trazado 878520" d="M19.87,22.49a2.245,2.245,0,0,0-2.243-2.243H10.249A2.245,2.245,0,0,0,8.006,22.49v7.379a2.245,2.245,0,0,0,2.243,2.243h7.379a2.245,2.245,0,0,0,2.243-2.243Zm-1.534,7.379a.71.71,0,0,1-.709.709H10.249a.71.71,0,0,1-.709-.709V22.49a.71.71,0,0,1,.709-.709h7.379a.71.71,0,0,1,.709.709Z"/>
          <path id="Trazado_878521" data-name="Trazado 878521" d="M15.462,24.328,13.387,26.4l-.766-.766a.767.767,0,0,0-1.085,1.085l1.308,1.308a.767.767,0,0,0,1.085,0l2.617-2.617a.767.767,0,0,0-1.085-1.085Z"/>
          <path id="Trazado_878522" data-name="Trazado 878522" d="M36.708,25.972a.767.767,0,0,0-.767-.767H23.855a.767.767,0,0,0,0,1.534H35.941A.767.767,0,0,0,36.708,25.972Z"/>
          <path id="Trazado_878523" data-name="Trazado 878523" d="M39.5,22.667a.767.767,0,0,0-.767-.767H31.4a.767.767,0,0,0,0,1.534H38.73A.767.767,0,0,0,39.5,22.667Z"/>
          <path id="Trazado_878524" data-name="Trazado 878524" d="M23.855,23.434H27.78a.767.767,0,0,0,0-1.534H23.855a.767.767,0,1,0,0,1.534Z"/>
          <path id="Trazado_878525" data-name="Trazado 878525" d="M33.3,29.278a.767.767,0,0,0-.767-.767H28.5a.767.767,0,0,0,0,1.534h4.029A.767.767,0,0,0,33.3,29.278Z"/>
          <path id="Trazado_878526" data-name="Trazado 878526" d="M23.855,30.045h1.033a.767.767,0,1,0,0-1.534H23.855a.767.767,0,0,0,0,1.534Z"/>
          <path id="Trazado_878527" data-name="Trazado 878527" d="M17.627,33.883H10.249a2.245,2.245,0,0,0-2.243,2.243V43.5a2.245,2.245,0,0,0,2.243,2.243h7.379A2.245,2.245,0,0,0,19.87,43.5V36.126A2.245,2.245,0,0,0,17.627,33.883Zm.709,9.621a.71.71,0,0,1-.709.709H10.249A.71.71,0,0,1,9.54,43.5V36.126a.71.71,0,0,1,.709-.709h7.379a.71.71,0,0,1,.709.709Z"/>
          <path id="Trazado_878528" data-name="Trazado 878528" d="M15.462,37.964l-2.075,2.075-.766-.766a.767.767,0,0,0-1.085,1.085l1.308,1.308a.767.767,0,0,0,1.085,0l2.617-2.617a.767.767,0,0,0-1.085-1.085Z"/>
          <path id="Trazado_878529" data-name="Trazado 878529" d="M23.855,37.07H27.78a.767.767,0,0,0,0-1.534H23.855a.767.767,0,0,0,0,1.534Z"/>
          <path id="Trazado_878530" data-name="Trazado 878530" d="M24.888,43.681a.767.767,0,1,0,0-1.534H23.855a.767.767,0,1,0,0,1.534Z"/>
          <path id="Trazado_878531" data-name="Trazado 878531" d="M48.355,27.019A.767.767,0,0,0,48,26.553L44.42,24.487a.767.767,0,0,0-.894.092V14.127a.767.767,0,1,0-1.534,0V27.158l-4.837,8.378H31.4a.767.767,0,0,0,0,1.534h4.874l-1.023,1.771H23.855a.767.767,0,1,0,0,1.534H34.361l-1.023,1.772H28.5a.767.767,0,1,0,0,1.534h3.949l-1.673,2.9a4.861,4.861,0,0,0-.624,3.007l.142,1.239H6.4a.887.887,0,0,1-.886-.886V44.98a.767.767,0,1,0-1.534,0v4.959a2.422,2.422,0,0,0,2.42,2.42h34.71a2.422,2.422,0,0,0,2.42-2.42V35.833L48.278,27.6a.767.767,0,0,0,.077-.582Zm-4.534,5.234-2.25-1.3.886-1.534,2.25,1.3ZM41.992,49.939a.887.887,0,0,1-.886.886H34.452a4.921,4.921,0,0,0,1.234-1.413l3-5.2a.767.767,0,1,0-1.328-.767l-3,5.2a3.39,3.39,0,0,1-1.574,1.4l-.983.427-.122-1.065a3.339,3.339,0,0,1,.429-2.065l8.7-15.063,2.25,1.3-3.907,6.767a.767.767,0,1,0,1.328.767l1.516-2.626V49.939ZM45.474,29.39l-2.25-1.3L44.317,26.2l2.25,1.3Z"/>
        </g>
      </g>
    </g>
  </g>
</svg>
