<svg xmlns="http://www.w3.org/2000/svg" xmlns:xlink="http://www.w3.org/1999/xlink" width="107" height="107" viewBox="0 0 107 107">
  <defs>
    <clipPath id="clip-path">
      <rect id="Rectángulo_403474" data-name="Rectángulo 403474" width="72" height="72" transform="translate(492.332 7363)" fill="#fff" stroke="#fff" stroke-width="1"/>
    </clipPath>
  </defs>
  <g id="Grupo_1102245" data-name="Grupo 1102245" transform="translate(-475.332 -7345)">
    <g id="Grupo_156312" data-name="Grupo 156312" transform="translate(186.664 2896.563)">
      <path id="Elipse_5845" data-name="Elipse 5845" d="M53.5,0A53.5,53.5,0,1,1,0,53.5,53.5,53.5,0,0,1,53.5,0Z" transform="translate(288.668 4448.437)" fill="#3b57de"/>
    </g>
    <g id="Enmascarar_grupo_1098807" data-name="Enmascarar grupo 1098807" clip-path="url(#clip-path)">
      <path id="negociacion-de-contratos" d="M30.079,25.189a.984.984,0,0,1,.984-.984H50.3a.984.984,0,0,1,0,1.969H31.063a.984.984,0,0,1-.984-.984ZM50.426,15.23a.984.984,0,0,0,1.392,0l7.036-7.04A.984.984,0,0,0,57.462,6.8l-6.34,6.342-2.19-2.19a.984.984,0,0,0-1.392,1.392ZM31.064,30.9H50.3a.984.984,0,1,0,0-1.969H31.064a.984.984,0,0,0,0,1.969ZM20.711,19.313V13.143a.984.984,0,0,1,.984-.984h6.171a.984.984,0,0,1,.984.984v6.171a.984.984,0,0,1-.984.984H21.7A.984.984,0,0,1,20.711,19.313Zm1.969-.984h4.2v-4.2h-4.2Zm-1.969,12.31V24.468a.984.984,0,0,1,.984-.984h6.171a.984.984,0,0,1,.984.984v6.171a.984.984,0,0,1-.984.984H21.7a.984.984,0,0,1-.984-.984Zm1.969-.984h4.2v-4.2h-4.2ZM66.589,53.016a.984.984,0,0,1-.6.459l-7.355,1.969a.984.984,0,0,1-1.206-.7l-.267-1-2.545,1.61a3.65,3.65,0,0,1-3.774,4.978,3.649,3.649,0,0,1-3.649,3.52,3.731,3.731,0,0,1-.531-.038A3.647,3.647,0,0,1,42.7,67.192a3.641,3.641,0,0,1-1.069,2.5,3.526,3.526,0,0,1-2.513,1.03,3.9,3.9,0,0,1-1.464-.291l-.433.45a3.656,3.656,0,0,1-6.262-2.027,3.7,3.7,0,0,1-.87.1,3.651,3.651,0,0,1-3.655-3.585c0-.042,0-.083,0-.125-.069,0-.139.006-.208.006a3.65,3.65,0,0,1-3.649-3.859l-.064,0a3.657,3.657,0,0,1-2.926-5.852l-1.111-.93-3.6-1.032-.313,1.169a.984.984,0,0,1-1.206.7L6.01,53.475a.984.984,0,0,1-.7-1.206l5.245-19.581a.984.984,0,0,1,1.206-.7l4.955,1.327V9.727a.984.984,0,0,1,.288-.7l6.31-6.31a.984.984,0,0,1,.7-.288H46.3a11.011,11.011,0,1,1,8.977,19.4v11.49l4.951-1.326a.984.984,0,0,1,1.206.7l5.25,19.581a.984.984,0,0,1-.1.747Zm-22.438-42A9.047,9.047,0,1,0,53.2,1.969a9.047,9.047,0,0,0-9.046,9.045ZM20.083,8.742h2.948V5.794Zm-1.392,25.1.43.115a.984.984,0,0,1,.7,1.206l-.193.72.514-.067c5.462-.707,12.794-1.654,16.249.953l.789-.7c3.186-2.81,9.2-1.572,14.035-.577l1.125.229-.15-.561a.984.984,0,0,1,.7-1.206l.43-.115V22.025l-.116,0a10.96,10.96,0,0,1-6.917-2.452H31.064a.984.984,0,0,1,0-1.969H44.378a11,11,0,0,1-1.507-2.758H31.064a.984.984,0,0,1,0-1.969H42.342A10.965,10.965,0,0,1,44.394,4.4H25V9.727a.984.984,0,0,1-.984.984H18.691Zm-1.364,3a1.009,1.009,0,0,1,.03-.111l.3-1.131-5.452-1.46L7.471,51.827l5.449,1.46Zm6.409,22.056,1.292-1.347a1.689,1.689,0,0,0-1.218-2.86h-.035a1.681,1.681,0,0,0-1.188.519L21.3,56.568a1.69,1.69,0,1,0,2.44,2.338Zm5.647,1.843h0a1.689,1.689,0,0,0-1.258-2.86,1.671,1.671,0,0,0-1.181.517.99.99,0,0,1-.193.156,3.73,3.73,0,0,1-.3.36l-1.292,1.347c-.029.031-.06.06-.09.089s-.037.045-.058.066a1.691,1.691,0,0,0,2.443,2.339Zm3.864,3.7a1.69,1.69,0,0,0-2.439-2.338l-1.935,2.018h0a1.691,1.691,0,0,0,2.444,2.338l.554-.58c.023-.026.046-.052.07-.077.007-.007.015-.013.022-.02Zm4.316,2.512a1.689,1.689,0,0,0-2.9-1.135c-.007.007-.015.013-.023.02l-1.308,1.367a1.69,1.69,0,1,0,2.475,2.3l.923-.96c.016-.018.032-.035.05-.052l.323-.337a1.681,1.681,0,0,0,.464-1.206Zm14.9-11.393,0-.005-.042-.044L40.4,43.5l-7.643,7.467L32.729,51a4.012,4.012,0,0,1-5.383-5.95l7.548-6.916c-3-1.846-10.1-.927-14.5-.357l-1.318.169L15.39,51.677l3.831,1.1a.982.982,0,0,1,.36.192l1.35,1.131.232-.243a3.658,3.658,0,0,1,6.28,2.134,3.709,3.709,0,0,1,.639-.07,3.651,3.651,0,0,1,3.738,3.706,3.647,3.647,0,0,1,3.862,3.716l.116-.005a3.664,3.664,0,0,1,3.291,5.411,1.534,1.534,0,0,0,1.153-.455,1.683,1.683,0,0,0,.171-2.18l-5.074-5.07a.985.985,0,0,1,1.392-1.393l5.122,5.118a1.686,1.686,0,0,0,2.536-2.2L39.1,57.28a.985.985,0,0,1,1.392-1.393l5.35,5.346L46,61.4a1.684,1.684,0,0,0,2.555-2.179L42.875,53.5a.985.985,0,0,1,1.4-1.389l5.738,5.77a1.688,1.688,0,0,0,2.45-2.32Zm4.171-3.807L52.9,37.844c-.655-.122-1.356-.266-2.088-.417-4.172-.859-9.886-2.035-12.334.125l-1.093.966L28.679,46.5a2.066,2.066,0,0,0-.153,2.889,2.035,2.035,0,0,0,1.419.669,2.011,2.011,0,0,0,1.448-.506l8.325-8.134a.984.984,0,0,1,1.384.008L53.45,53.77Zm7.9.068L59.79,34.148l-5.449,1.46,4.736,17.678Z" transform="translate(492.332 7362.996)" fill="#fff"/>
    </g>
  </g>
</svg>
