<svg xmlns="http://www.w3.org/2000/svg" xmlns:xlink="http://www.w3.org/1999/xlink" width="87.264" height="87.264" viewBox="0 0 87.264 87.264">
  <defs>
    <clipPath id="clip-path">
      <rect id="Rectángulo_403471" data-name="Rectángulo 403471" width="52.358" height="52.358" transform="translate(197.785 6306.453)" fill="#fff" stroke="#707070" stroke-width="1"/>
    </clipPath>
  </defs>
  <g id="Grupo_1102301" data-name="Grupo 1102301" transform="translate(-180.332 -6289)">
    <rect id="Rectángulo_400898" data-name="Rectángulo 400898" width="87.264" height="87.264" rx="43.632" transform="translate(180.332 6289)" fill="#fff" opacity="0.859"/>
    <g id="Rectángulo_400907" data-name="Rectángulo 400907" transform="translate(180.332 6289)" fill="none" stroke="#3b57de" stroke-linecap="round" stroke-width="2" stroke-dasharray="7">
      <rect width="87.264" height="87.264" rx="43.632" stroke="none"/>
      <rect x="1" y="1" width="85.264" height="85.264" rx="42.632" fill="none"/>
    </g>
    <g id="Enmascarar_grupo_1098804" data-name="Enmascarar grupo 1098804" clip-path="url(#clip-path)">
      <g id="informado" transform="translate(198.238 6306.059)">
        <path id="Trazado_878558" data-name="Trazado 878558" d="M1.105,1.1H30.979l5.2,5.2V46.781H1.105Z" fill="#e3f1ff" fill-rule="evenodd"/>
        <path id="Trazado_878559" data-name="Trazado 878559" d="M36.182,6.3h-5.2V1.1Z" fill="#9cf" fill-rule="evenodd"/>
        <circle id="Elipse_11619" data-name="Elipse 11619" cx="7.792" cy="7.792" r="7.792" transform="matrix(0.383, -0.924, 0.924, 0.383, 26.017, 46.786)" fill="#a0d904"/>
        <g id="Grupo_1102534" data-name="Grupo 1102534">
          <path id="Trazado_878560" data-name="Trazado 878560" d="M35.341,50.307a7.79,7.79,0,0,1,0-15.489,7.79,7.79,0,0,1,0,15.489Z" fill="#baed2c" fill-rule="evenodd"/>
          <path id="Trazado_878561" data-name="Trazado 878561" d="M40.142,39.481a1.01,1.01,0,0,1,0,1.424l-4.673,4.673a1.227,1.227,0,0,1-1.93-.254l-1.475-2.555a1.007,1.007,0,1,1,1.745-1.007l.962,1.666,3.948-3.948a1.01,1.01,0,0,1,1.424,0Z" fill="#f3f3ff" fill-rule="evenodd"/>
          <path id="Trazado_878562" data-name="Trazado 878562" d="M8.268,5.813h3.291V8.476h2.663v3.291H11.559V14.43H8.268V11.767H5.605V8.476H8.268Z" fill="#e8333c" fill-rule="evenodd"/>
          <path id="Trazado_878563" data-name="Trazado 878563" d="M8.268,5.813H10.63V8.476h2.663v3.291H10.63V14.43H8.268V11.767H5.605V8.476H8.268Z" fill="#fb545c" fill-rule="evenodd"/>
          <path id="Trazado_878564" data-name="Trazado 878564" d="M48,2.955a4.678,4.678,0,0,1,.271,7.932,20.478,20.478,0,0,0-6.618,7.078l-1.094,1.894-3.478-2.008,1.094-1.894a20.479,20.479,0,0,0,2.821-9.27,4.678,4.678,0,0,1,7-3.732Z" fill="#a34f41" fill-rule="evenodd"/>
          <path id="Trazado_878565" data-name="Trazado 878565" d="M48,2.955a4.658,4.658,0,0,1,1.431,1.28A4.679,4.679,0,0,1,47.437,8.97a20.478,20.478,0,0,0-6.618,7.078L39.1,19.021l-2.027-1.17,1.094-1.894a20.479,20.479,0,0,0,2.821-9.27,4.678,4.678,0,0,1,7-3.732Z" fill="#c86f5c" fill-rule="evenodd"/>
          <path id="Trazado_878566" data-name="Trazado 878566" d="M36.852,17.722l3.925,2.266a1.726,1.726,0,0,1,.63,2.351l-1.292,2.237L33.21,20.589,34.5,18.352a1.726,1.726,0,0,1,2.351-.63Z" fill="#ea806f" fill-rule="evenodd"/>
          <path id="Trazado_878567" data-name="Trazado 878567" d="M36.852,17.722l2.48,1.432a1.726,1.726,0,0,1,.63,2.351l-1.292,2.237L33.21,20.589,34.5,18.352a1.726,1.726,0,0,1,2.351-.63h0Z" fill="#f29988" fill-rule="evenodd"/>
          <path id="Trazado_878568" data-name="Trazado 878568" d="M29.552,20.728l12.273,7.086a2.388,2.388,0,0,1,.872,3.253l-.732,1.267a.921.921,0,0,1-1.254.336L25.9,24.121a.921.921,0,0,1-.336-1.254L26.3,21.6a2.388,2.388,0,0,1,3.253-.871Z" fill="#283252" fill-rule="evenodd"/>
          <path id="Trazado_878569" data-name="Trazado 878569" d="M38.431,31.353,25.9,24.121a.921.921,0,0,1-.336-1.254L26.3,21.6a2.388,2.388,0,0,1,3.25-.873l9.993,5.77a2.388,2.388,0,0,1,.872,3.253l-.732,1.267a.921.921,0,0,1-1.252.337Z" fill="#3d4a75" fill-rule="evenodd"/>
          <path id="Trazado_878570" data-name="Trazado 878570" d="M29.318,17.347,44.87,26.326a2.388,2.388,0,0,1,.871,3.253l-.732,1.267a.921.921,0,0,1-1.254.336L25.67,20.74a.921.921,0,0,1-.336-1.254l.732-1.267a2.388,2.388,0,0,1,3.252-.872Z" fill="#a34f41" fill-rule="evenodd"/>
          <path id="Trazado_878571" data-name="Trazado 878571" d="M41.678,29.982h0L25.67,20.739a.921.921,0,0,1-.336-1.254l.732-1.267a2.388,2.388,0,0,1,3.252-.872l13.474,7.779a2.388,2.388,0,0,1,.871,3.252l-.731,1.267a.921.921,0,0,1-1.253.336Z" fill="#c86f5c" fill-rule="evenodd"/>
        </g>
        <path id="Trazado_878572" data-name="Trazado 878572" d="M1.105,1.1h.688V46.781H1.105Z" fill="#b6dbff"/>
        <path id="Trazado_878573" data-name="Trazado 878573" d="M4.9,26.134a.7.7,0,0,1,.7-.7H21.695a.7.7,0,0,1,0,1.407H5.6a.7.7,0,0,1-.7-.7Zm0-3.983a.7.7,0,0,1,.7-.7H21.695a.7.7,0,0,1,0,1.407H5.6a.7.7,0,0,1-.7-.7ZM29.939,34.1a.7.7,0,0,1-.7.7H5.6a.7.7,0,0,1,0-1.407H29.237a.7.7,0,0,1,.7.7Zm-16.58,7.966a.7.7,0,0,1-.707.7H5.6a.7.7,0,0,1,0-1.407h7.048A.7.7,0,0,1,13.359,42.067ZM5.6,29.414H29.237a.7.7,0,0,1,0,1.407H5.6a.7.7,0,0,1,0-1.407ZM4.9,18.168a.7.7,0,0,1,.7-.7H21.695a.7.7,0,0,1,0,1.407H5.6a.7.7,0,0,1-.7-.7ZM26.853,38.084a.7.7,0,0,1-.7.7H5.6a.7.7,0,0,1,0-1.407H26.151a.7.7,0,0,1,.7.7ZM6.307,9.179H8.268a.7.7,0,0,0,.7-.7V6.516h1.884v1.96a.7.7,0,0,0,.7.7h1.962v1.884H11.557a.7.7,0,0,0-.7.7v1.96H8.971v-1.96a.7.7,0,0,0-.7-.7H6.307ZM5.6,12.47H7.561v1.96a.707.707,0,0,0,.707.7h3.289a.7.7,0,0,0,.7-.7V12.47h1.962a.7.7,0,0,0,.7-.7V8.476a.7.7,0,0,0-.7-.7H12.259V5.812a.7.7,0,0,0-.7-.7H8.268a.707.707,0,0,0-.707.7v1.96H5.6a.7.7,0,0,0-.7.7v3.291a.7.7,0,0,0,.7.7Zm43.5-3.487A3.889,3.889,0,0,1,47.88,10.3a21.123,21.123,0,0,0-6.839,7.318L40.3,18.9l-2.267-1.307.746-1.287a21.134,21.134,0,0,0,2.916-9.583,3.976,3.976,0,1,1,7.411,2.26ZM34.6,19.587l5.691,3.287.509-.883a1.018,1.018,0,0,0-.373-1.393L36.5,18.331a1.018,1.018,0,0,0-1.39.373l-.509.883Zm10.54,9.651a1.679,1.679,0,0,0-.615-2.295L28.956,17.955a1.689,1.689,0,0,0-2.3.615l-.731,1.268a.223.223,0,0,0,.077.295L44.112,30.585a.22.22,0,0,0,.3-.079ZM41.36,31.995l.6-1.032L26.762,22.191l-.6,1.032a.217.217,0,0,0,.077.294l14.822,8.557a.206.206,0,0,0,.16.02.22.22,0,0,0,.136-.1ZM35.475,34.1V30.473l-9.934-5.737a1.627,1.627,0,0,1-.6-2.216l.6-1.032-.237-.137a1.62,1.62,0,0,1-.591-2.216l.731-1.269a3.091,3.091,0,0,1,4.214-1.13l3.72,2.146L33.887,18a2.43,2.43,0,0,1,1.589-1.158V7.005h-4.5a.7.7,0,0,1-.7-.7V1.8H1.807V46.077H28.452A8.484,8.484,0,0,1,35.475,34.1Zm7.794,8.462a7.086,7.086,0,1,1-7.086-7.087A7.1,7.1,0,0,1,43.269,42.563ZM31.683,2.8l2.8,2.8h-2.8ZM50.864,5.6A5.386,5.386,0,0,0,40.29,6.628,19.727,19.727,0,0,1,37.558,15.6l-.673,1.169V6.3a.69.69,0,0,0-.208-.5L31.474.6a.7.7,0,0,0-.5-.206H1.1a.7.7,0,0,0-.7.7V46.781a.7.7,0,0,0,.7.7H29.266A8.49,8.49,0,1,0,36.885,34.1V31.285l3.478,2.007a1.594,1.594,0,0,0,.8.217,1.674,1.674,0,0,0,.426-.056,1.62,1.62,0,0,0,.983-.755l.6-1.032.237.136a1.62,1.62,0,0,0,2.214-.594l.736-1.268a3.091,3.091,0,0,0-1.133-4.216L41.51,23.578l.509-.883a2.436,2.436,0,0,0-.523-3.056l.765-1.323a19.708,19.708,0,0,1,6.4-6.852,5.384,5.384,0,0,0,2.2-5.863ZM39.214,39.977a.3.3,0,0,1,.213-.088.292.292,0,0,1,.213.088.308.308,0,0,1,0,.43L34.971,45.08a.493.493,0,0,1-.441.149.483.483,0,0,1-.383-.257l-1.477-2.555A.311.311,0,0,1,32.782,42a.3.3,0,0,1,.15-.04.35.35,0,0,1,.082.011.308.308,0,0,1,.184.14l.959,1.667a.706.706,0,0,0,1.109.145l3.948-3.948Zm-4.8,1.432.5.872,3.3-3.3A1.712,1.712,0,0,1,40.638,41.4l-4.674,4.673a1.882,1.882,0,0,1-1.351.567,2.121,2.121,0,0,1-.266-.017,1.894,1.894,0,0,1-1.419-.949L31.455,43.12a1.709,1.709,0,1,1,2.96-1.71Z" fill-rule="evenodd"/>
      </g>
    </g>
  </g>
</svg>
