<svg xmlns="http://www.w3.org/2000/svg" width="72" height="84.322" viewBox="0 0 72 84.322">
  <path id="cumplimiento-normativo" d="M81.868,54.2h2.116V46.419H81.868Zm9.049,8.72V60.8H74.934v2.116Zm-13.064-4.36H88V56.441H77.853v2.116ZM67.869,42.938H63.933a4.093,4.093,0,0,0,7.872,0Zm30.113,0H94.046a4.093,4.093,0,0,0,7.873,0Zm-26.92-2.244-3.193-5.115-3.193,5.115Zm30.113,0-3.193-5.115-3.193,5.115ZM66.882,32.929a1.122,1.122,0,0,1,.987-.588H81.8V30.815a1.122,1.122,0,0,1,2.244,0v1.526H97.982a1.122,1.122,0,0,1,.987.588l5.142,8.236a1.117,1.117,0,0,1,.208.65,6.336,6.336,0,1,1-12.673,0,1.117,1.117,0,0,1,.208-.65l4.108-6.58H84.049v9.589h1.058A1.122,1.122,0,0,1,86.229,45.3v8.9h2.892a1.122,1.122,0,0,1,1.122,1.122v3.238h1.8a1.122,1.122,0,0,1,1.122,1.122v4.36a1.122,1.122,0,0,1-1.122,1.122H73.812a1.122,1.122,0,0,1-1.122-1.122v-4.36a1.122,1.122,0,0,1,1.122-1.122h1.8V55.319A1.122,1.122,0,0,1,76.731,54.2h2.893V45.3a1.122,1.122,0,0,1,1.122-1.122H81.8V34.585H69.89L74,41.165a1.117,1.117,0,0,1,.207.65,6.336,6.336,0,1,1-12.673,0,1.117,1.117,0,0,1,.208-.65l5.142-8.236Zm46.1,36.442a6.274,6.274,0,1,0,1.838,4.436A6.274,6.274,0,0,0,112.979,69.371Zm-4.436-4.082a8.518,8.518,0,1,1-6.023,2.495,8.518,8.518,0,0,1,6.023-2.495ZM103.9,74.853a1.121,1.121,0,1,1,1.385-1.762l2.385,1.876,3.975-4.592a1.119,1.119,0,1,1,1.692,1.464l-4.633,5.352-.007.009a1.121,1.121,0,0,1-1.574.188Zm9.862-12.42q-.051,0-.1,0h-.026c-.186.01-.4.037-.618.064a4.961,4.961,0,0,1-1.807,0,5.072,5.072,0,0,1-1.6-.78,2.7,2.7,0,0,0-1.067-.518,2.7,2.7,0,0,0-1.067.518,5.085,5.085,0,0,1-1.6.78,4.961,4.961,0,0,1-1.807,0A2.7,2.7,0,0,0,103,62.48a2.6,2.6,0,0,0-.629.85A3.784,3.784,0,0,1,99.654,65.5a2.511,2.511,0,0,0-.949.422,2.543,2.543,0,0,0-.206,1.02,3.864,3.864,0,0,1-1.519,3.13,2.6,2.6,0,0,0-.709.842,1.4,1.4,0,0,0,.1.626,1.145,1.145,0,0,1,.041.127c.037.112.078.228.119.344a4.195,4.195,0,0,1,0,3.592,2.8,2.8,0,0,0-.258,1.087c.007.02.013.041.019.062a3.144,3.144,0,0,0,.692.789,3.864,3.864,0,0,1,1.519,3.13,2.553,2.553,0,0,0,.206,1.02,2.536,2.536,0,0,0,.949.422,4.785,4.785,0,0,1,1.626.759,3.623,3.623,0,0,1,.76.872,1.136,1.136,0,0,1,.1.164c.077.124.15.25.224.376a2.581,2.581,0,0,0,.629.85,2.671,2.671,0,0,0,1.073-.022,4.964,4.964,0,0,1,1.807,0,5.069,5.069,0,0,1,1.6.78,2.7,2.7,0,0,0,1.067.518,2.7,2.7,0,0,0,1.067-.518,5.088,5.088,0,0,1,1.6-.78,4.964,4.964,0,0,1,1.807,0,2.693,2.693,0,0,0,1.073.022,2.6,2.6,0,0,0,.629-.85c.074-.126.148-.252.224-.376a1.129,1.129,0,0,1,.1-.165,3.619,3.619,0,0,1,.76-.872,4.783,4.783,0,0,1,1.626-.759,2.526,2.526,0,0,0,.95-.422,2.525,2.525,0,0,0,.206-1.02,3.864,3.864,0,0,1,1.519-3.13,2.6,2.6,0,0,0,.709-.842,2.706,2.706,0,0,0-.256-1.1,4.195,4.195,0,0,1,0-3.592,2.71,2.71,0,0,0,.256-1.1,2.6,2.6,0,0,0-.709-.842,3.864,3.864,0,0,1-1.519-3.13,2.549,2.549,0,0,0-.206-1.02,2.536,2.536,0,0,0-.95-.422,3.785,3.785,0,0,1-2.715-2.172,2.582,2.582,0,0,0-.629-.85.779.779,0,0,0-.326-.047ZM100.026,96.005H55.139a4.079,4.079,0,0,1-4.069-4.07V20.069A4.079,4.079,0,0,1,55.139,16h55.573a4.079,4.079,0,0,1,4.069,4.069V60.351a2.675,2.675,0,0,1,.289.122,3.848,3.848,0,0,1,1.575,1.727,3.316,3.316,0,0,0,.562.8,3.272,3.272,0,0,0,.9.373,3.161,3.161,0,0,1,2.707,3.371,3.372,3.372,0,0,0,.173.975,3.506,3.506,0,0,0,.663.735A3.935,3.935,0,0,1,123,70.406a4.026,4.026,0,0,1-.326,2.35,3.739,3.739,0,0,0-.273,1.051,3.739,3.739,0,0,0,.273,1.051,4.029,4.029,0,0,1,.326,2.35,3.934,3.934,0,0,1-1.349,1.955,3.51,3.51,0,0,0-.663.735,3.373,3.373,0,0,0-.173.975,3.161,3.161,0,0,1-2.707,3.37,3.268,3.268,0,0,0-.9.373,1.015,1.015,0,0,0-.148.154V99.2a1.122,1.122,0,0,1-1.772.915l-6.746-3.891-6.84,3.945a1.118,1.118,0,0,1-1.674-.969h0V96Zm7.4-36.817a7.2,7.2,0,0,0-1.155.647,3.636,3.636,0,0,1-.9.482,3.548,3.548,0,0,1-1.027-.042,3.2,3.2,0,0,0-3.9,1.924,3.313,3.313,0,0,1-.562.8,3.27,3.27,0,0,1-.9.373,3.161,3.161,0,0,0-2.707,3.371,3.373,3.373,0,0,1-.173.975,3.5,3.5,0,0,1-.663.735,3.937,3.937,0,0,0-1.349,1.955,2.668,2.668,0,0,0-.064.419H66.053a1.122,1.122,0,1,0,0,2.244H94.521a2.577,2.577,0,0,1,.165.738,3.74,3.74,0,0,1-.273,1.051,8.293,8.293,0,0,0-.325,1.07H66.053a1.122,1.122,0,1,0,0,2.244H94.524a6.583,6.583,0,0,0,.912.991,3.5,3.5,0,0,1,.663.735,3.372,3.372,0,0,1,.173.975,3.161,3.161,0,0,0,2.707,3.37,3.266,3.266,0,0,1,.9.373,1,1,0,0,1,.148.154v3.873H61.714a4.572,4.572,0,0,0-3.283-3.283V26.644a4.572,4.572,0,0,0,3.283-3.284h42.423a4.572,4.572,0,0,0,3.283,3.283V59.188Zm-7.4,31.7V93.76H55.139a1.834,1.834,0,0,1-1.825-1.825V20.069a1.833,1.833,0,0,1,1.825-1.825h55.573a1.833,1.833,0,0,1,1.825,1.825V60.3a2.738,2.738,0,0,1-.82.018,3.635,3.635,0,0,1-.9-.482,7.2,7.2,0,0,0-1.155-.647V25.663a1.122,1.122,0,0,0-1.122-1.122,2.312,2.312,0,0,1-2.3-2.3,1.122,1.122,0,0,0-1.122-1.122H60.733a1.122,1.122,0,0,0-1.122,1.122,2.312,2.312,0,0,1-2.3,2.3,1.122,1.122,0,0,0-1.121,1.122V86.341a1.122,1.122,0,0,0,1.122,1.122,2.312,2.312,0,0,1,2.3,2.3,1.122,1.122,0,0,0,1.122,1.122Zm2.244-1.126v7.5l5.7-3.289a1.117,1.117,0,0,1,1.129-.009l5.717,3.3V87.252a4.241,4.241,0,0,1-2.073.088,3.548,3.548,0,0,0-1.027-.042,3.634,3.634,0,0,0-.9.482,3.39,3.39,0,0,1-4.554,0,3.634,3.634,0,0,0-.9-.482,3.548,3.548,0,0,0-1.027.042,4.245,4.245,0,0,1-2.073-.088Z" transform="translate(-51.07 -16)" fill="#3b57de" fill-rule="evenodd"/>
</svg>
