<svg xmlns="http://www.w3.org/2000/svg" xmlns:xlink="http://www.w3.org/1999/xlink" width="87.264" height="87.264" viewBox="0 0 87.264 87.264">
  <defs>
    <clipPath id="clip-path">
      <rect id="Rectángulo_403471" data-name="Rectángulo 403471" width="52.358" height="52.358" transform="translate(197.785 6306.453)" fill="#fff" stroke="#707070" stroke-width="1"/>
    </clipPath>
  </defs>
  <g id="Grupo_1102499" data-name="Grupo 1102499" transform="translate(-180.332 -6289)">
    <rect id="Rectángulo_400898" data-name="Rectángulo 400898" width="87.264" height="87.264" rx="43.632" transform="translate(180.332 6289)" fill="#fff" opacity="0.859"/>
    <g id="Rectángulo_400907" data-name="Rectángulo 400907" transform="translate(180.332 6289)" fill="none" stroke="#3b57de" stroke-linecap="round" stroke-width="2" stroke-dasharray="7">
      <rect width="87.264" height="87.264" rx="43.632" stroke="none"/>
      <rect x="1" y="1" width="85.264" height="85.264" rx="42.632" fill="none"/>
    </g>
    <g id="Enmascarar_grupo_1098841" data-name="Enmascarar grupo 1098841" clip-path="url(#clip-path)">
      <g id="obediente" transform="translate(197.785 6306.453)">
        <g id="Grupo_1103037" data-name="Grupo 1103037">
          <path id="Trazado_879905" data-name="Trazado 879905" d="M44.972.767H12.406a.511.511,0,0,0-.511.511V15.455h3.353a2.506,2.506,0,0,1,.175,5.006v3.109h0a1.022,1.022,0,0,1,.867,1.01v6.348a1.022,1.022,0,0,1-.867,1.01h0v3.109a2.506,2.506,0,0,1-.175,5.006H11.895v4.2h7.057a1.023,1.023,0,0,1,1.023,1.023v2.037h.779a1.023,1.023,0,0,1,1.023,1.023v3.261H45.483V1.278A.511.511,0,0,0,44.972.767Z" fill="#fff3de"/>
        </g>
        <g id="Grupo_1103038" data-name="Grupo 1103038">
          <path id="Trazado_879906" data-name="Trazado 879906" d="M15.248,15.455l.091,0V1.278a.511.511,0,0,1,.511-.511H12.406a.511.511,0,0,0-.511.511V15.455Z" fill="#ffe5c2"/>
          <path id="Trazado_879907" data-name="Trazado 879907" d="M15.248,40.051H11.895v4.2h3.445v-4.2Z" fill="#ffe5c2"/>
        </g>
        <g id="Grupo_1103056" data-name="Grupo 1103056">
          <g id="Grupo_1103039" data-name="Grupo 1103039">
            <path id="Trazado_879908" data-name="Trazado 879908" d="M16.29,26h4.734v3.5H16.29Z" fill="#883f2e"/>
            <path id="Trazado_879909" data-name="Trazado 879909" d="M24.287,26h6.761v3.5H24.287Z" fill="#883f2e"/>
          </g>
          <g id="Grupo_1103040" data-name="Grupo 1103040">
            <path id="Trazado_879910" data-name="Trazado 879910" d="M16.29,27.815h4.734V29.5H16.29Z" fill="#6d3326"/>
            <path id="Trazado_879911" data-name="Trazado 879911" d="M24.287,27.815h6.761V29.5H24.287Z" fill="#6d3326"/>
          </g>
          <g id="Grupo_1103041" data-name="Grupo 1103041">
            <path id="Trazado_879912" data-name="Trazado 879912" d="M50.049,27.753a2.565,2.565,0,0,1-2.565,2.565H31.631a.583.583,0,0,1-.583-.583V25.771a.583.583,0,0,1,.583-.583H47.485A2.565,2.565,0,0,1,50.049,27.753Z" fill="#ca6e59"/>
          </g>
          <g id="Grupo_1103042" data-name="Grupo 1103042">
            <path id="Trazado_879913" data-name="Trazado 879913" d="M34.534,28.122a.583.583,0,0,1-.583-.583V25.188h-2.32a.583.583,0,0,0-.583.583v3.963a.583.583,0,0,0,.583.583H47.485a2.565,2.565,0,0,0,2.538-2.2Z" fill="#bb5d4c"/>
          </g>
          <g id="Grupo_1103043" data-name="Grupo 1103043">
            <path id="Trazado_879914" data-name="Trazado 879914" d="M24.287,25.7v4.106a.511.511,0,0,1-.511.511H21.535a.511.511,0,0,1-.511-.511V25.7a.511.511,0,0,1,.511-.511h2.241a.511.511,0,0,1,.511.511Z" fill="#ca6e59"/>
          </g>
          <g id="Grupo_1103044" data-name="Grupo 1103044">
            <path id="Trazado_879915" data-name="Trazado 879915" d="M22.506,29.806V25.7a.511.511,0,0,1,.511-.511H21.535a.511.511,0,0,0-.511.511v4.106a.511.511,0,0,0,.511.511h1.483A.511.511,0,0,1,22.506,29.806Z" fill="#bb5d4c"/>
          </g>
          <g id="Grupo_1103045" data-name="Grupo 1103045">
            <path id="Trazado_879916" data-name="Trazado 879916" d="M15.267,31.949H8.818a1.028,1.028,0,0,1-.156-.013v3.109c.058,0,.116-.007.175-.007h6.411c.059,0,.117,0,.175.007V31.936A1.015,1.015,0,0,1,15.267,31.949Z" fill="#883f2e"/>
            <path id="Trazado_879917" data-name="Trazado 879917" d="M8.818,31.949a1.028,1.028,0,0,1-.156-.013v3.109c.058,0,.116-.007.175-.007h2.4V31.949H8.818Z" fill="#6d3326"/>
            <path id="Trazado_879918" data-name="Trazado 879918" d="M8.818,23.556h6.45a1.028,1.028,0,0,1,.156.013V20.461c-.058,0-.116.007-.175.007H8.837c-.059,0-.117,0-.175-.007v3.109a1.028,1.028,0,0,1,.156-.013Z" fill="#883f2e"/>
            <path id="Trazado_879919" data-name="Trazado 879919" d="M8.818,23.556h2.42V20.467h-2.4c-.059,0-.117,0-.175-.007v3.109a1.041,1.041,0,0,1,.156-.013Z" fill="#6d3326"/>
          </g>
          <g id="Grupo_1103046" data-name="Grupo 1103046">
            <path id="Trazado_879920" data-name="Trazado 879920" d="M16.29,24.579v6.348a1.023,1.023,0,0,1-1.023,1.023H8.818a1.023,1.023,0,0,1-1.023-1.023V24.579a1.023,1.023,0,0,1,1.023-1.023h6.45a1.023,1.023,0,0,1,1.023,1.023Z" fill="#ca6e59"/>
          </g>
          <g id="Grupo_1103047" data-name="Grupo 1103047">
            <path id="Trazado_879921" data-name="Trazado 879921" d="M11.249,30.927V24.579a1.023,1.023,0,0,1,1.023-1.023H8.818a1.023,1.023,0,0,0-1.023,1.023v6.348a1.023,1.023,0,0,0,1.023,1.023h3.454A1.023,1.023,0,0,1,11.249,30.927Z" fill="#bb5d4c"/>
          </g>
          <g id="Grupo_1103050" data-name="Grupo 1103050">
            <path id="Trazado_879922" data-name="Trazado 879922" d="M19.969,47.41a1.046,1.046,0,0,0,.005-.1V45.27a1.023,1.023,0,0,0-1.023-1.023H5.133A1.023,1.023,0,0,0,4.11,45.27V47.3a1.046,1.046,0,0,0,.005.1Z" fill="#ca6e59"/>
            <path id="Trazado_879923" data-name="Trazado 879923" d="M7.573,47.41a1.046,1.046,0,0,1-.005-.1V45.27A1.023,1.023,0,0,1,8.59,44.247H5.133A1.023,1.023,0,0,0,4.11,45.27V47.3a1.046,1.046,0,0,0,.005.1Z" fill="#bb5d4c"/>
            <g id="Grupo_1103048" data-name="Grupo 1103048">
              <path id="Trazado_879924" data-name="Trazado 879924" d="M21.776,51.591H2.82a.511.511,0,0,1-.511-.511V48.33a1.023,1.023,0,0,1,1.023-1.023H20.753a1.023,1.023,0,0,1,1.023,1.023Z" fill="#883f2e"/>
            </g>
            <g id="Grupo_1103049" data-name="Grupo 1103049">
              <path id="Trazado_879925" data-name="Trazado 879925" d="M5.727,51.08V48.33a1.023,1.023,0,0,1,1.023-1.023H3.331A1.023,1.023,0,0,0,2.309,48.33v2.75a.511.511,0,0,0,.511.511H6.238A.511.511,0,0,1,5.727,51.08Z" fill="#6d3326"/>
            </g>
          </g>
          <g id="Grupo_1103055" data-name="Grupo 1103055">
            <g id="Grupo_1103051" data-name="Grupo 1103051">
              <path id="Trazado_879926" data-name="Trazado 879926" d="M17.754,37.545a2.506,2.506,0,0,1-2.506,2.506H8.837a2.506,2.506,0,0,1,0-5.012h6.411A2.506,2.506,0,0,1,17.754,37.545Z" fill="#ca6e59"/>
            </g>
            <g id="Grupo_1103052" data-name="Grupo 1103052">
              <path id="Trazado_879927" data-name="Trazado 879927" d="M9.744,37.545a2.506,2.506,0,0,1,2.506-2.506H8.837a2.506,2.506,0,0,0,0,5.012h3.414A2.506,2.506,0,0,1,9.744,37.545Z" fill="#bb5d4c"/>
            </g>
            <g id="Grupo_1103053" data-name="Grupo 1103053">
              <path id="Trazado_879928" data-name="Trazado 879928" d="M17.754,17.961a2.506,2.506,0,0,1-2.506,2.506H8.837a2.506,2.506,0,1,1,0-5.012h6.411A2.506,2.506,0,0,1,17.754,17.961Z" fill="#ca6e59"/>
            </g>
            <g id="Grupo_1103054" data-name="Grupo 1103054">
              <path id="Trazado_879929" data-name="Trazado 879929" d="M9.744,17.961a2.506,2.506,0,0,1,2.506-2.506H8.837a2.506,2.506,0,1,0,0,5.012h3.414A2.506,2.506,0,0,1,9.744,17.961Z" fill="#bb5d4c"/>
            </g>
          </g>
        </g>
        <g id="Grupo_1103059" data-name="Grupo 1103059">
          <g id="Grupo_1103057" data-name="Grupo 1103057">
            <circle id="Elipse_11636" data-name="Elipse 11636" cx="7.176" cy="7.176" r="7.176" transform="translate(21.513 5.533)" fill="#4fc123"/>
          </g>
          <g id="Grupo_1103058" data-name="Grupo 1103058">
            <path id="Trazado_879930" data-name="Trazado 879930" d="M24.952,12.709a7.177,7.177,0,0,1,5.456-6.967,7.176,7.176,0,1,0,0,13.934,7.178,7.178,0,0,1-5.456-6.967Z" fill="#47a920"/>
          </g>
        </g>
        <g id="Grupo_1103060" data-name="Grupo 1103060">
          <path id="Trazado_879931" data-name="Trazado 879931" d="M47.485,24.421H46.25V11.147a.767.767,0,0,0-.79-.767.788.788,0,0,0-.743.8V24.421H39.575a.767.767,0,0,0,0,1.534h7.909a1.8,1.8,0,0,1,0,3.6H31.816v-3.6H36a.767.767,0,1,0,0-1.534H31.631a1.351,1.351,0,0,0-1.239.816H24.967a1.279,1.279,0,0,0-1.19-.816H21.535a1.279,1.279,0,0,0-1.19.816H17.057v-.658a1.788,1.788,0,0,0-.867-1.531V21.1a3.273,3.273,0,0,0-.942-6.408H12.661V1.534H44.716V7.567a.767.767,0,0,0,.79.767.788.788,0,0,0,.743-.8V1.278A1.278,1.278,0,0,0,44.972,0H12.406a1.278,1.278,0,0,0-1.278,1.278V14.688H8.837A3.273,3.273,0,0,0,7.895,21.1v1.953a1.788,1.788,0,0,0-.867,1.531v6.348a1.788,1.788,0,0,0,.867,1.531V34.41a3.273,3.273,0,0,0,.942,6.408h2.291V43.48H5.133a1.792,1.792,0,0,0-1.79,1.79v1.27H3.331a1.792,1.792,0,0,0-1.79,1.79v2.75A1.28,1.28,0,0,0,2.82,52.358H44.972A1.278,1.278,0,0,0,46.25,51.08v-20h1.235a3.331,3.331,0,0,0,0-6.663Zm-22.43,2.35h5.227v1.963H25.054Zm-3.264-.816h1.73v3.6h-1.73Zm-4.734.816h3.2v1.963h-3.2ZM7.1,17.961a1.741,1.741,0,0,1,1.739-1.739h6.411a1.739,1.739,0,1,1,0,3.479H8.837A1.741,1.741,0,0,1,7.1,17.961Zm1.72,13.221a.256.256,0,0,1-.256-.256V24.579a.256.256,0,0,1,.256-.256h6.45a.256.256,0,0,1,.256.256v6.348a.256.256,0,0,1-.256.256Zm5.838,1.534v1.555H9.429V32.716ZM9.429,22.789V21.234h5.227v1.555ZM8.837,39.284a1.739,1.739,0,1,1,0-3.479h6.411a1.739,1.739,0,1,1,0,3.479Zm12.172,11.54H3.076V48.33a.256.256,0,0,1,.256-.256H8.079a.767.767,0,0,0,0-1.534h-3.2V45.27a.256.256,0,0,1,.256-.256H18.952a.256.256,0,0,1,.256.256v1.27h-7.55a.767.767,0,0,0,0,1.534h9.1a.256.256,0,0,1,.256.256Zm23.707,0H22.543V48.33a1.792,1.792,0,0,0-1.79-1.79h-.012V45.27a1.792,1.792,0,0,0-1.79-1.79h-6.29V40.818h2.587a3.273,3.273,0,0,0,.942-6.408V32.457a1.788,1.788,0,0,0,.867-1.531v-.658h3.288a1.279,1.279,0,0,0,1.19.816h2.241a1.279,1.279,0,0,0,1.19-.816h5.426a1.351,1.351,0,0,0,1.239.816H44.716v19.74Z"/>
          <path id="Trazado_879932" data-name="Trazado 879932" d="M20.746,12.709a7.943,7.943,0,1,0,7.943-7.943,7.952,7.952,0,0,0-7.943,7.943Zm14.351,0A6.409,6.409,0,1,1,28.689,6.3,6.416,6.416,0,0,1,35.1,12.709Z"/>
          <path id="Trazado_879933" data-name="Trazado 879933" d="M26.5,11.867a.767.767,0,0,0-1.085,1.085l2.359,2.359a.767.767,0,0,0,1.085,0l3.657-3.657a.767.767,0,1,0-1.085-1.085l-3.114,3.114Z"/>
          <path id="Trazado_879934" data-name="Trazado 879934" d="M24.919,34.214a.767.767,0,0,0,.767.767H39.791a.767.767,0,0,0,0-1.534H25.686A.767.767,0,0,0,24.919,34.214Z"/>
          <path id="Trazado_879935" data-name="Trazado 879935" d="M39.791,37.177H32.519a.767.767,0,1,0,0,1.534h7.272a.767.767,0,0,0,0-1.534Z"/>
          <path id="Trazado_879936" data-name="Trazado 879936" d="M25.686,38.711h4.174a.767.767,0,1,0,0-1.534H25.686a.767.767,0,1,0,0,1.534Z"/>
          <path id="Trazado_879937" data-name="Trazado 879937" d="M39.791,40.907H25.686a.767.767,0,1,0,0,1.534H39.791a.767.767,0,0,0,0-1.534Z"/>
          <path id="Trazado_879938" data-name="Trazado 879938" d="M39.791,44.637H36.1a.767.767,0,1,0,0,1.534h3.693a.767.767,0,0,0,0-1.534Z"/>
          <path id="Trazado_879939" data-name="Trazado 879939" d="M33.747,44.637h-8.06a.767.767,0,1,0,0,1.534h8.06a.767.767,0,1,0,0-1.534Z"/>
        </g>
      </g>
    </g>
  </g>
</svg>
