<svg xmlns="http://www.w3.org/2000/svg" xmlns:xlink="http://www.w3.org/1999/xlink" width="87.264" height="87.264" viewBox="0 0 87.264 87.264">
  <defs>
    <clipPath id="clip-path">
      <rect id="Rectángulo_403471" data-name="Rectángulo 403471" width="52.358" height="52.358" transform="translate(197.785 6306.453)" fill="#fff" stroke="#707070" stroke-width="1"/>
    </clipPath>
  </defs>
  <g id="Grupo_1102500" data-name="Grupo 1102500" transform="translate(-180.332 -6289)">
    <rect id="Rectángulo_400898" data-name="Rectángulo 400898" width="87.264" height="87.264" rx="43.632" transform="translate(180.332 6289)" fill="#fff" opacity="0.859"/>
    <g id="Rectángulo_400907" data-name="Rectángulo 400907" transform="translate(180.332 6289)" fill="none" stroke="#3b57de" stroke-linecap="round" stroke-width="2" stroke-dasharray="7">
      <rect width="87.264" height="87.264" rx="43.632" stroke="none"/>
      <rect x="1" y="1" width="85.264" height="85.264" rx="42.632" fill="none"/>
    </g>
    <g id="Enmascarar_grupo_1098842" data-name="Enmascarar grupo 1098842" clip-path="url(#clip-path)">
      <g id="medicamento_3_" data-name="medicamento (3)" transform="translate(197.785 6306.453)">
        <g id="Grupo_1103061" data-name="Grupo 1103061">
          <path id="Trazado_879940" data-name="Trazado 879940" d="M18.292,13.472H5.478a1.534,1.534,0,0,1-1.534-1.534V8.652A1.534,1.534,0,0,1,5.478,7.118H18.292a1.534,1.534,0,0,1,1.534,1.534v3.285A1.534,1.534,0,0,1,18.292,13.472Z" fill="#918291"/>
          <path id="Trazado_879941" data-name="Trazado 879941" d="M18.292,7.118H15.1a1.534,1.534,0,0,1,1.534,1.534v3.285A1.534,1.534,0,0,1,15.1,13.472h3.193a1.534,1.534,0,0,0,1.534-1.534V8.653A1.534,1.534,0,0,0,18.292,7.118Z" fill="#7a6d79"/>
          <rect id="Rectángulo_403789" data-name="Rectángulo 403789" width="9.53" height="3.176" transform="translate(7.12 13.472)" fill="#f2fbff"/>
          <rect id="Rectángulo_403790" data-name="Rectángulo 403790" width="3.068" height="3.176" transform="translate(13.582 13.472)" fill="#dff6fd"/>
          <path id="Trazado_879942" data-name="Trazado 879942" d="M19.833,45.239H3.937a3.17,3.17,0,0,1-3.17-3.17V19.818a3.17,3.17,0,0,1,3.17-3.17h15.9A3.17,3.17,0,0,1,23,19.818V42.069A3.17,3.17,0,0,1,19.833,45.239Z" fill="#6cf5c2"/>
          <path id="Trazado_879943" data-name="Trazado 879943" d="M19.833,16.648H16.656a3.17,3.17,0,0,1,3.17,3.17v4.66a3.584,3.584,0,0,0-2.045,3.234V43.7a3.558,3.558,0,0,0,.347,1.537h1.7A3.17,3.17,0,0,0,23,42.069V19.818A3.17,3.17,0,0,0,19.833,16.648Z" fill="#5de1c4"/>
          <rect id="Rectángulo_403791" data-name="Rectángulo 403791" width="22.236" height="15.883" transform="translate(0.767 23.001)" fill="#f2fbff"/>
          <path id="Trazado_879944" data-name="Trazado 879944" d="M19.826,23v1.477a3.584,3.584,0,0,0-2.045,3.234V38.884H23V23Z" fill="#dff6fd"/>
          <path id="Trazado_879945" data-name="Trazado 879945" d="M16.65,29.36H13.473V26.183H10.3V29.36H7.12v3.176H10.3v3.177h3.176V32.536H16.65Z" fill="#fe76a8"/>
          <path id="Trazado_879946" data-name="Trazado 879946" d="M26.083,13.511,31.7,19.127a2.382,2.382,0,0,0,3.369,0h0a2.382,2.382,0,0,0,0-3.369l-5.616-5.616a2.382,2.382,0,0,0-3.369,0h0A2.382,2.382,0,0,0,26.083,13.511Z" fill="#fe76a8"/>
          <path id="Trazado_879947" data-name="Trazado 879947" d="M35.068,19.127h0a2.382,2.382,0,0,0,0-3.369L32.26,12.95l-3.369,3.369L31.7,19.127A2.382,2.382,0,0,0,35.068,19.127Z" fill="#ffe588"/>
          <path id="Trazado_879948" data-name="Trazado 879948" d="M48.568,17.907l-5.616,5.616a2.382,2.382,0,0,1-3.369,0h0a2.382,2.382,0,0,1,0-3.369L45.2,14.538a2.382,2.382,0,0,1,3.369,0h0A2.382,2.382,0,0,1,48.568,17.907Z" fill="#fe76a8"/>
          <path id="Trazado_879949" data-name="Trazado 879949" d="M42.391,17.346l-2.808,2.808a2.382,2.382,0,0,0,0,3.369h0a2.382,2.382,0,0,0,3.369,0l2.808-2.808h0Z" fill="#ffe588"/>
          <path id="Trazado_879950" data-name="Trazado 879950" d="M50.057,45.237H21.36A1.534,1.534,0,0,1,19.826,43.7V27.712a1.534,1.534,0,0,1,1.534-1.534h28.7a1.534,1.534,0,0,1,1.534,1.534V43.7A1.534,1.534,0,0,1,50.057,45.237Z" fill="#f2fbff"/>
          <path id="Trazado_879951" data-name="Trazado 879951" d="M50.057,26.178H46.989a1.534,1.534,0,0,1,1.534,1.534V43.7a1.534,1.534,0,0,1-1.534,1.534h3.068A1.534,1.534,0,0,0,51.591,43.7V27.712A1.534,1.534,0,0,0,50.057,26.178Z" fill="#dff6fd"/>
          <circle id="Elipse_11637" data-name="Elipse 11637" cx="2.383" cy="2.383" r="2.383" transform="translate(22.982 29.377) rotate(-0.539)" fill="#ffe588"/>
          <circle id="Elipse_11638" data-name="Elipse 11638" cx="2.382" cy="2.382" r="2.382" transform="translate(23.003 37.236)" fill="#ffe588"/>
          <circle id="Elipse_11639" data-name="Elipse 11639" cx="2.382" cy="2.382" r="2.382" transform="translate(30.944 29.354)" fill="#ffe588"/>
          <circle id="Elipse_11640" data-name="Elipse 11640" cx="2.382" cy="2.382" r="2.382" transform="translate(30.944 37.236)" fill="#ffe588"/>
          <circle id="Elipse_11641" data-name="Elipse 11641" cx="2.382" cy="2.382" r="2.382" transform="translate(38.885 29.354)" fill="#ffe588"/>
          <circle id="Elipse_11642" data-name="Elipse 11642" cx="2.382" cy="2.382" r="2.382" transform="translate(38.885 37.236)" fill="#ffe588"/>
        </g>
        <g id="Grupo_1103062" data-name="Grupo 1103062">
          <path id="Trazado_879952" data-name="Trazado 879952" d="M23,26.178v-6.36a3.17,3.17,0,0,0-3.17-3.17H3.937a3.17,3.17,0,0,0-3.17,3.17V42.07a3.17,3.17,0,0,0,3.17,3.17h15.9a3.15,3.15,0,0,0,.91-.133" fill="none" stroke="#000" stroke-linecap="round" stroke-linejoin="round" stroke-miterlimit="10" stroke-width="1.534"/>
          <path id="Trazado_879953" data-name="Trazado 879953" d="M16.65,29.36H13.473V26.183H10.3V29.36H7.12v3.176H10.3v3.177h3.176V32.536H16.65Z" fill="none" stroke="#000" stroke-linecap="round" stroke-linejoin="round" stroke-miterlimit="10" stroke-width="1.534"/>
          <path id="Trazado_879954" data-name="Trazado 879954" d="M23,26.178h0V23H.767V38.883H5.449" fill="none" stroke="#000" stroke-linecap="round" stroke-linejoin="round" stroke-miterlimit="10" stroke-width="1.534"/>
          <line id="Línea_4301" data-name="Línea 4301" x1="11.035" transform="translate(8.791 38.883)" fill="none" stroke="#000" stroke-linecap="round" stroke-linejoin="round" stroke-miterlimit="10" stroke-width="1.534"/>
          <rect id="Rectángulo_403792" data-name="Rectángulo 403792" width="9.53" height="3.176" transform="translate(7.12 13.472)" fill="none" stroke="#000" stroke-linecap="round" stroke-linejoin="round" stroke-miterlimit="10" stroke-width="1.534"/>
          <path id="Trazado_879955" data-name="Trazado 879955" d="M18.292,13.472H5.478a1.534,1.534,0,0,1-1.534-1.534V8.652A1.534,1.534,0,0,1,5.478,7.118H18.292a1.534,1.534,0,0,1,1.534,1.534v3.285A1.534,1.534,0,0,1,18.292,13.472Z" fill="none" stroke="#000" stroke-linecap="round" stroke-linejoin="round" stroke-miterlimit="10" stroke-width="1.534"/>
          <line id="Línea_4302" data-name="Línea 4302" y1="3.177" transform="translate(7.12 7.118)" fill="none" stroke="#000" stroke-linecap="round" stroke-linejoin="round" stroke-miterlimit="10" stroke-width="1.534"/>
          <line id="Línea_4303" data-name="Línea 4303" y1="3.177" transform="translate(10.297 7.118)" fill="none" stroke="#000" stroke-linecap="round" stroke-linejoin="round" stroke-miterlimit="10" stroke-width="1.534"/>
          <line id="Línea_4304" data-name="Línea 4304" y1="3.177" transform="translate(13.473 7.118)" fill="none" stroke="#000" stroke-linecap="round" stroke-linejoin="round" stroke-miterlimit="10" stroke-width="1.534"/>
          <line id="Línea_4305" data-name="Línea 4305" y1="3.177" transform="translate(16.65 7.118)" fill="none" stroke="#000" stroke-linecap="round" stroke-linejoin="round" stroke-miterlimit="10" stroke-width="1.534"/>
          <path id="Trazado_879956" data-name="Trazado 879956" d="M48.568,17.907l-5.616,5.616a2.382,2.382,0,0,1-3.369,0h0a2.382,2.382,0,0,1,0-3.369L45.2,14.538a2.382,2.382,0,0,1,3.369,0h0A2.382,2.382,0,0,1,48.568,17.907Z" fill="none" stroke="#000" stroke-linecap="round" stroke-linejoin="round" stroke-miterlimit="10" stroke-width="1.534"/>
          <line id="Línea_4306" data-name="Línea 4306" x2="3.369" y2="3.369" transform="translate(42.391 17.346)" fill="none" stroke="#000" stroke-linecap="round" stroke-linejoin="round" stroke-miterlimit="10" stroke-width="1.534"/>
          <path id="Trazado_879957" data-name="Trazado 879957" d="M26.083,13.511,31.7,19.127a2.382,2.382,0,0,0,3.369,0h0a2.382,2.382,0,0,0,0-3.369l-5.616-5.616a2.382,2.382,0,0,0-3.369,0h0A2.382,2.382,0,0,0,26.083,13.511Z" fill="none" stroke="#000" stroke-linecap="round" stroke-linejoin="round" stroke-miterlimit="10" stroke-width="1.534"/>
          <line id="Línea_4307" data-name="Línea 4307" x1="3.369" y2="3.369" transform="translate(28.891 12.95)" fill="none" stroke="#000" stroke-linecap="round" stroke-linejoin="round" stroke-miterlimit="10" stroke-width="1.534"/>
          <path id="Trazado_879958" data-name="Trazado 879958" d="M35,26.177h15.06a1.534,1.534,0,0,1,1.534,1.534V43.7a1.534,1.534,0,0,1-1.534,1.534H42.939" fill="none" stroke="#000" stroke-linecap="round" stroke-linejoin="round" stroke-miterlimit="10" stroke-width="1.534"/>
          <path id="Trazado_879959" data-name="Trazado 879959" d="M39.6,45.237H21.361A1.534,1.534,0,0,1,19.827,43.7V27.711a1.534,1.534,0,0,1,1.534-1.534H31.655" fill="none" stroke="#000" stroke-linecap="round" stroke-linejoin="round" stroke-miterlimit="10" stroke-width="1.534"/>
          <circle id="Elipse_11643" data-name="Elipse 11643" cx="2.383" cy="2.383" r="2.383" transform="translate(22.982 29.377) rotate(-0.539)" fill="none" stroke="#000" stroke-linecap="round" stroke-linejoin="round" stroke-miterlimit="10" stroke-width="1.534"/>
          <circle id="Elipse_11644" data-name="Elipse 11644" cx="2.382" cy="2.382" r="2.382" transform="translate(23.003 37.236)" fill="none" stroke="#000" stroke-linecap="round" stroke-linejoin="round" stroke-miterlimit="10" stroke-width="1.534"/>
          <circle id="Elipse_11645" data-name="Elipse 11645" cx="2.382" cy="2.382" r="2.382" transform="translate(30.944 29.354)" fill="none" stroke="#000" stroke-linecap="round" stroke-linejoin="round" stroke-miterlimit="10" stroke-width="1.534"/>
          <circle id="Elipse_11646" data-name="Elipse 11646" cx="2.382" cy="2.382" r="2.382" transform="translate(30.944 37.236)" fill="none" stroke="#000" stroke-linecap="round" stroke-linejoin="round" stroke-miterlimit="10" stroke-width="1.534"/>
          <circle id="Elipse_11647" data-name="Elipse 11647" cx="2.382" cy="2.382" r="2.382" transform="translate(38.885 29.354)" fill="none" stroke="#000" stroke-linecap="round" stroke-linejoin="round" stroke-miterlimit="10" stroke-width="1.534"/>
          <circle id="Elipse_11648" data-name="Elipse 11648" cx="2.382" cy="2.382" r="2.382" transform="translate(38.885 37.236)" fill="none" stroke="#000" stroke-linecap="round" stroke-linejoin="round" stroke-miterlimit="10" stroke-width="1.534"/>
          <line id="Línea_4308" data-name="Línea 4308" y2="6.353" transform="translate(48.415 32.531)" fill="none" stroke="#000" stroke-linecap="round" stroke-linejoin="round" stroke-miterlimit="10" stroke-width="1.534"/>
        </g>
      </g>
    </g>
  </g>
</svg>
