<svg xmlns="http://www.w3.org/2000/svg" xmlns:xlink="http://www.w3.org/1999/xlink" width="87.264" height="87.264" viewBox="0 0 87.264 87.264">
  <defs>
    <clipPath id="clip-path">
      <rect id="Rectángulo_403471" data-name="Rectángulo 403471" width="52.358" height="52.358" transform="translate(197.785 6306.453)" fill="#fff" stroke="#707070" stroke-width="1"/>
    </clipPath>
  </defs>
  <g id="Grupo_1102501" data-name="Grupo 1102501" transform="translate(-180.332 -6289)">
    <rect id="Rectángulo_400898" data-name="Rectángulo 400898" width="87.264" height="87.264" rx="43.632" transform="translate(180.332 6289)" fill="#fff" opacity="0.859"/>
    <g id="Rectángulo_400907" data-name="Rectángulo 400907" transform="translate(180.332 6289)" fill="none" stroke="#3b57de" stroke-linecap="round" stroke-width="2" stroke-dasharray="7">
      <rect width="87.264" height="87.264" rx="43.632" stroke="none"/>
      <rect x="1" y="1" width="85.264" height="85.264" rx="42.632" fill="none"/>
    </g>
    <g id="Enmascarar_grupo_1098843" data-name="Enmascarar grupo 1098843" clip-path="url(#clip-path)">
      <g id="certeza" transform="translate(197.046 6305.714)">
        <g id="Grupo_1103066" data-name="Grupo 1103066">
          <g id="Grupo_1103063" data-name="Grupo 1103063">
            <path id="Trazado_879960" data-name="Trazado 879960" d="M2.648,1.582H30.611a1.031,1.031,0,0,1,.754.312l5.074,5.074a1.03,1.03,0,0,1,.312.754V46.1a1.066,1.066,0,0,1-1.063,1.063H2.648A1.066,1.066,0,0,1,1.582,46.1V2.648A1.068,1.068,0,0,1,2.648,1.582Z" fill="#eceff1" fill-rule="evenodd"/>
            <path id="Trazado_879961" data-name="Trazado 879961" d="M31.052,1.674V6.748a.534.534,0,0,0,.533.533H36.66a1.065,1.065,0,0,0-.221-.312L31.365,1.894A1.119,1.119,0,0,0,31.052,1.674Z" fill="#a79ba7" fill-rule="evenodd"/>
            <path id="Trazado_879962" data-name="Trazado 879962" d="M2.648,1.582H3.711V47.163H2.648A1.066,1.066,0,0,1,1.582,46.1V2.648A1.068,1.068,0,0,1,2.648,1.582Z" fill="#d1d1d6" fill-rule="evenodd"/>
          </g>
          <g id="Grupo_1103064" data-name="Grupo 1103064">
            <path id="Trazado_879963" data-name="Trazado 879963" d="M19.167,22.311A7.806,7.806,0,1,0,11.36,14.5,7.818,7.818,0,0,0,19.167,22.311Z" fill="#8ac9fe" fill-rule="evenodd"/>
            <path id="Trazado_879964" data-name="Trazado 879964" d="M18.62,22.292a7.806,7.806,0,0,0,0-15.574q.271-.019.546-.019a7.806,7.806,0,1,1,0,15.612q-.275,0-.546-.019Z" fill="#60b7ff" fill-rule="evenodd"/>
            <path id="Trazado_879965" data-name="Trazado 879965" d="M14.881,15.343a.874.874,0,0,1,1.236-1.236l1.552,1.552L22.251,11.5a.874.874,0,1,1,1.175,1.3l-5.2,4.716a.874.874,0,0,1-1.206-.029Z" fill="#eceff1" fill-rule="evenodd"/>
          </g>
          <g id="Grupo_1103065" data-name="Grupo 1103065">
            <path id="Trazado_879966" data-name="Trazado 879966" d="M41.743,47.353l.819.45a1.418,1.418,0,0,0,1.367-2.486,1.413,1.413,0,0,0,1.955-1.859l.213-.088-9.6-7.645c-2.739-1.846-4.648.533-6.531-.527l-2.495-1.15a.849.849,0,0,0-1.121.408l-2.679,5.7a.846.846,0,0,0,.419,1.132c.889.4,2.252,1.016,2.533,1.124.853.331.571,1.664,1.04,2.274.718.937.836,1.62,1.448,1.971l8.923,5.126a1.413,1.413,0,0,0,1.927-.559A1.429,1.429,0,0,0,39.4,49.3l.974.542a1.419,1.419,0,0,0,1.369-2.486Z" fill="#f6dccd" fill-rule="evenodd"/>
            <path id="Trazado_879967" data-name="Trazado 879967" d="M36.779,35.953l-.287-.228c-2.739-1.846-4.648.533-6.531-.527l-2.495-1.15a.849.849,0,0,0-1.121.408l-.592,1.26a2.148,2.148,0,0,1,2.069.353c3.731,2.236,5.014-.187,7.94.847.117-.11.233-.222.345-.336q.32-.325.671-.627Z" fill="#f1cbbc" fill-rule="evenodd"/>
            <path id="Trazado_879968" data-name="Trazado 879968" d="M36.871,51.117l1.159.667a1.412,1.412,0,0,0,1.9-.511L37.512,49.9Zm6.568-6.074.491.274a1.419,1.419,0,0,0,1.874-.472l-4.589-2.609a.674.674,0,1,0-.661,1.176c.974.557,2.912,1.644,2.886,1.631ZM41.266,47.09l1.3.713a1.423,1.423,0,0,0,1.868-.463L38.78,44.128a.674.674,0,1,0-.661,1.174Zm-4.365.724a.943.943,0,0,0,.391.279l2.2,1.257.88.489a1.423,1.423,0,0,0,1.88-.479l-4.488-2.543a.674.674,0,0,0-.865,1Z" fill="#f1cbbc" fill-rule="evenodd"/>
            <path id="Trazado_879969" data-name="Trazado 879969" d="M25.376,31.74l-4.154,9.4a.907.907,0,0,0,.461,1.192l1.81.8a.906.906,0,0,0,1.19-.461l4.156-9.4a.908.908,0,0,0-.461-1.192l-1.81-.8a.906.906,0,0,0-1.192.461Z" fill="#d1d1d6" fill-rule="evenodd"/>
            <path id="Trazado_879970" data-name="Trazado 879970" d="M23.943,42.343a.9.9,0,0,1-1.187.463l.737.325a.906.906,0,0,0,1.19-.461l4.156-9.4a.908.908,0,0,0-.377-1.15L23.943,42.343Z" fill="#b1b1b5" fill-rule="evenodd"/>
            <path id="Trazado_879971" data-name="Trazado 879971" d="M35.429,48.2A1.461,1.461,0,0,1,37.8,49.868l-.863,1.615a1.461,1.461,0,0,1-2.726-.944,1.46,1.46,0,0,1-2.631-1.069A1.461,1.461,0,1,1,29,48.1l.272-.509a1.461,1.461,0,0,1-2.271-1.769l.9-1.685a1.461,1.461,0,0,1,2.618,1.3,1.46,1.46,0,0,1,2.4,1.437,1.461,1.461,0,0,1,2.5,1.337Z" fill="#d6b4a8" fill-rule="evenodd"/>
            <path id="Trazado_879972" data-name="Trazado 879972" d="M29.276,47.588A1.468,1.468,0,0,1,27.6,47.8a1.431,1.431,0,0,1-.327-.241c.446.02.648-.333.852-.691l1.53-2.693a.831.831,0,0,0,.037-.718,1.2,1.2,0,0,1,.186.083,1.466,1.466,0,0,1,.641,1.894Zm2.308,1.881a1.468,1.468,0,0,1-1.981.6,1.514,1.514,0,0,1-.2-.13.887.887,0,0,0,.59-.342l2.025-3.921a.843.843,0,0,0-.035-.56,1.283,1.283,0,0,1,.22.1,1.468,1.468,0,0,1,.728,1.648Zm5.456-1.653c.057.022.11.048.165.075a1.461,1.461,0,0,1,.6,1.977l-.863,1.615a1.465,1.465,0,0,1-1.977.6.263.263,0,0,1-.024-.015.513.513,0,0,0,.29-.222l1.8-3.491a.677.677,0,0,0,.007-.54Zm-2.826,2.723a1.468,1.468,0,0,1-1.876.437,1.3,1.3,0,0,1-.138-.084,1.223,1.223,0,0,0,.6-.571l1.679-3.254a.606.606,0,0,0-.005-.61,1.52,1.52,0,0,1,.226.1,1.466,1.466,0,0,1,.726,1.65Z" fill="#cca393" fill-rule="evenodd"/>
            <path id="Trazado_879973" data-name="Trazado 879973" d="M40.391,40.035l4.905,2.8a1.444,1.444,0,0,1,.588.628L48.653,42.3a.845.845,0,0,0,.463-1.088l-2.309-5.962a.823.823,0,0,0-.5-.487.811.811,0,0,0-.693.048l-1.657.886c-1.979,1.029-3.882-2.434-7.464.024a9.048,9.048,0,0,0-1.3,1.1,17.222,17.222,0,0,1-3.581,2.7.173.173,0,0,0-.081.114.164.164,0,0,0,.033.136c2.842,3.658,6.3-1.181,8.822.257Z" fill="#d6b4a8" fill-rule="evenodd"/>
            <path id="Trazado_879974" data-name="Trazado 879974" d="M44.2,42.2l1.1.628a1.444,1.444,0,0,1,.588.628L48.653,42.3a.847.847,0,0,0,.465-1.088l-.678-1.747a1.141,1.141,0,0,1-.671,1.277ZM31.953,40.219c2.765,2.8,6.028-1.558,8.438-.184C36.575,37.45,35.155,40.856,31.953,40.219Z" fill="#cca393" fill-rule="evenodd"/>
            <path id="Trazado_879975" data-name="Trazado 879975" d="M48.478,32.407l3.715,9.583a.905.905,0,0,1-.514,1.168l-1.845.715a.906.906,0,0,1-1.17-.516l-3.715-9.581a.908.908,0,0,1,.516-1.17l1.844-.715a.905.905,0,0,1,1.168.516Z" fill="#d1d1d6" fill-rule="evenodd"/>
            <path id="Trazado_879976" data-name="Trazado 879976" d="M45.315,32.681a.91.91,0,0,0-.366,1.095l3.715,9.581a.9.9,0,0,0,1.168.516l.685-.265,0,0a.905.905,0,0,1-1.168-.514Q47.334,37.887,45.315,32.681Z" fill="#b1b1b5" fill-rule="evenodd"/>
          </g>
        </g>
        <path id="Trazado_879977" data-name="Trazado 879977" d="M26.545,48.007H2.5A1.767,1.767,0,0,1,.739,46.244V2.505A1.767,1.767,0,0,1,2.5.739H30.672a1.707,1.707,0,0,1,1.239.511l.006.006,5.16,5.16a1.707,1.707,0,0,1,.517,1.246V34.221a5.083,5.083,0,0,1,3.618.2c.444.168.859.358,1.258.493a1.337,1.337,0,0,0,1.1.042l.771-.413-.178-.46v0a1.751,1.751,0,0,1,1-2.259L47,31.105h0a1.754,1.754,0,0,1,2.26,1v0l3.713,9.579v0a1.752,1.752,0,0,1-1,2.258l-1.844.717h0a1.751,1.751,0,0,1-2.259-1l-.04-.1-.967.4a2.223,2.223,0,0,1-.276,1.2,2.255,2.255,0,0,1-1.124,1,2.242,2.242,0,0,1-.24,1.482h0a2.271,2.271,0,0,1-1.92,1.171,2.235,2.235,0,0,1-.266.864l0,0a2.279,2.279,0,0,1-2.087,1.168,2.238,2.238,0,0,1-.256.775,2.263,2.263,0,0,1-3.086.886l-.269-.155a2.317,2.317,0,0,1-2.776.466h0a2.284,2.284,0,0,1-.93-.92,2.3,2.3,0,0,1-1.694-.186l0,0a2.3,2.3,0,0,1-.84-.776,2.3,2.3,0,0,1-3.107-2.152,2.306,2.306,0,0,1-1.445-.784ZM30.207,2.428H2.5a.077.077,0,0,0-.077.077V46.244a.075.075,0,0,0,.077.073H26a2.285,2.285,0,0,1,.266-.9l.428-.8a5.691,5.691,0,0,1-.19-.777,3.486,3.486,0,0,0-.116-.5c-.019-.054-.016-.12-.071-.141-.116-.045-.415-.175-.79-.341l-.067.151a1.746,1.746,0,0,1-2.3.892l-1.807-.8a1.757,1.757,0,0,1-.9-2.306v0l4.154-9.4v0a1.756,1.756,0,0,1,2.3-.891h0l1.809.8a1.751,1.751,0,0,1,.889,2.3l-.182.411.887.409q.031.014.061.031a1.716,1.716,0,0,0,1.176.134c.379-.06.768-.166,1.173-.254a5.191,5.191,0,0,1,3.18.119V8.127H31.512a1.312,1.312,0,0,1-1.305-1.305Zm4.5,4.01L31.9,3.622V6.438ZM44.955,36.13l-.6.318-.008,0a3.512,3.512,0,0,1-3.1-.2c-1.078-.439-2.333-1.053-4.06.02a16.848,16.848,0,0,0-1.4,1.145,17.246,17.246,0,0,1-3.03,2.4c1.257,1.024,2.634.3,3.93-.223,1.468-.592,2.886-.99,4.111-.291h0l4.9,2.795a2.3,2.3,0,0,1,.449.331l1.067-.445Zm.782-2.654,3.716,9.576v0a.06.06,0,0,0,.077.032l1.841-.716h0a.06.06,0,0,0,.03-.078l-3.711-9.574v0a.061.061,0,0,0-.077-.036l-1.843.717h0A.06.06,0,0,0,45.736,33.476Zm-.615,10.348a.587.587,0,0,0-.242-.257l-4.905-2.8a1.8,1.8,0,0,0-1.406-.051c-.7.188-1.43.535-2.172.812a5.3,5.3,0,0,1-3.287.355A4.224,4.224,0,0,1,30.9,40.3q-.019-.024-.036-.05a.993.993,0,0,1-.155-.782,1.012,1.012,0,0,1,.48-.668A16.424,16.424,0,0,0,34.6,36.233h0q.154-.155.315-.307a5.076,5.076,0,0,0-2.439.209,3.879,3.879,0,0,1-2.894-.182l-.833-.384-2.539,5.746c.341.151.61.269.718.31h0A1.816,1.816,0,0,1,28,42.853a2.314,2.314,0,0,1,2.278-.063h0A2.3,2.3,0,0,1,31.412,44.2a2.3,2.3,0,0,1,1.186.268h0a2.3,2.3,0,0,1,1.019,1.1,2.29,2.29,0,0,1,2.5,1.337,2.3,2.3,0,0,1,1.483.235l.014.007a2.36,2.36,0,0,1,.639.516L40.785,49.1a.578.578,0,0,0,.778-.231.587.587,0,0,0-.237-.785l-3.62-2.046a.845.845,0,0,1,.828-1.472l4.435,2.5h0l0,0a.576.576,0,0,0,.774-.231.582.582,0,0,0-.232-.781h0c-1.129-.631-2.261-1.266-3.383-1.907a.844.844,0,0,1,.838-1.466c1.118.639,2.246,1.271,3.37,1.9a.57.57,0,0,0,.772-.229l0,0a.556.556,0,0,0,.009-.516l0-.007ZM38.205,50.91l.248.143a.563.563,0,0,0,.763-.234.584.584,0,0,0-.227-.784l-.273-.164a2.248,2.248,0,0,1-.167.4Zm-9.552-6.377-.9,1.683h0a.615.615,0,0,0,.251.832h0a.617.617,0,0,0,.621-.024l1.143-1.976a.617.617,0,0,0-1.117-.517Zm2.525,1.456-1.425,2.5,0,0a.614.614,0,0,0,.252.831h0a.622.622,0,0,0,.836-.255l1.286-2.492a.616.616,0,0,0-.948-.593ZM32.414,49.7a.614.614,0,0,0,1.085.379l1.125-2.163a.614.614,0,0,0-1-.552Zm2.623,1.082a.616.616,0,0,0,1.159.3l.864-1.617v0a.621.621,0,0,0-.047-.649l-.006-.009a.664.664,0,0,0-.206-.177.622.622,0,0,0-.684.079ZM23.912,42.33l4.154-9.4v0a.056.056,0,0,0-.029-.073h0l-1.809-.8a.064.064,0,0,0-.08.033L22,41.479a.061.061,0,0,0,.028.079h0l1.809.8h0a.054.054,0,0,0,.072-.026v0ZM5.414,31.5a.844.844,0,1,1,0-1.689h7.765a.844.844,0,1,1,0,1.689ZM10.8,35.541a.844.844,0,1,1,0-1.689H20.943a.844.844,0,1,1,0,1.689ZM5.414,39.586a.844.844,0,1,1,0-1.689h13.26a.844.844,0,1,1,0,1.689ZM19.168,23.158a8.653,8.653,0,1,1,8.652-8.652,8.67,8.67,0,0,1-8.652,8.652Zm0-1.689A6.964,6.964,0,1,0,12.2,14.506,6.976,6.976,0,0,0,19.168,21.469ZM18.14,14l3.2-3.232,0,0a2,2,0,0,1,2.839,2.821h0c-1.541,1.555-3.07,3.119-4.618,4.667a2,2,0,0,1-2.832,0l-2.565-2.568a2,2,0,0,1,0-2.831h0a2,2,0,0,1,2.832,0Zm-.594,1.795L15.8,14.045a.314.314,0,1,0-.444.444l2.565,2.568a.314.314,0,0,0,.444,0c1.546-1.546,3.073-3.108,4.612-4.661a.312.312,0,1,0-.441-.442l-3.794,3.834a.844.844,0,0,1-1.2,0Zm7.826,11.659a.844.844,0,1,1,0-1.689h3.9a.844.844,0,1,1,0,1.689Zm-19.958,0a.844.844,0,1,1,0-1.689H20.943a.844.844,0,1,1,0,1.689Zm0,8.091a.844.844,0,1,1,0-1.689h2.25a.844.844,0,1,1,0,1.689ZM16.63,31.5a.844.844,0,0,1,0-1.689H22.95a.844.844,0,1,1,0,1.689ZM47.062,34.8a.81.81,0,1,1,.808-.808A.813.813,0,0,1,47.062,34.8Zm-20.3-2.221a.806.806,0,0,1,.77.844.81.81,0,1,1-.77-.844Z" fill-rule="evenodd"/>
      </g>
    </g>
  </g>
</svg>
