<svg xmlns="http://www.w3.org/2000/svg" xmlns:xlink="http://www.w3.org/1999/xlink" width="87.264" height="87.264" viewBox="0 0 87.264 87.264">
  <defs>
    <clipPath id="clip-path">
      <rect id="Rectángulo_403471" data-name="Rectángulo 403471" width="52.358" height="52.358" transform="translate(197.785 6306.453)" fill="#fff" stroke="#707070" stroke-width="1"/>
    </clipPath>
  </defs>
  <g id="Grupo_1102502" data-name="Grupo 1102502" transform="translate(-180.332 -6289)">
    <rect id="Rectángulo_400898" data-name="Rectángulo 400898" width="87.264" height="87.264" rx="43.632" transform="translate(180.332 6289)" fill="#fff" opacity="0.859"/>
    <g id="Rectángulo_400907" data-name="Rectángulo 400907" transform="translate(180.332 6289)" fill="none" stroke="#3b57de" stroke-linecap="round" stroke-width="2" stroke-dasharray="7">
      <rect width="87.264" height="87.264" rx="43.632" stroke="none"/>
      <rect x="1" y="1" width="85.264" height="85.264" rx="42.632" fill="none"/>
    </g>
    <g id="Enmascarar_grupo_1098844" data-name="Enmascarar grupo 1098844" clip-path="url(#clip-path)">
      <g id="garantia-del-producto" transform="translate(197.37 6306.038)">
        <g id="Grupo_1103067" data-name="Grupo 1103067">
          <path id="Trazado_879978" data-name="Trazado 879978" d="M21.908,50.691C15.07,48.86,1.039,43.318,1.039,31.483V7.805a43.685,43.685,0,0,1,41.735,0V31.483c0,11.835-14.028,17.376-20.866,19.208Z" fill="#3cb54b" fill-rule="evenodd"/>
          <path id="Trazado_879979" data-name="Trazado 879979" d="M21.908,47.437c7.376-2.126,17.733-7.144,17.733-15.954V9.713a40.564,40.564,0,0,0-35.466,0v21.77C4.175,40.294,14.528,45.311,21.908,47.437Z" fill="#cad1d8" fill-rule="evenodd"/>
          <path id="Trazado_879980" data-name="Trazado 879980" d="M21.908,47.437c7.376-2.126,17.733-7.144,17.733-15.954V9.713A40.621,40.621,0,0,0,9.083,7.705V31.483c0,8.81,7.315,13.048,12.824,15.954Z" fill="#e2e5e7" fill-rule="evenodd"/>
          <path id="Trazado_879981" data-name="Trazado 879981" d="M30.733,34.534H13.079a1.451,1.451,0,0,1-1.449-1.449V15.429a1.453,1.453,0,0,1,1.449-1.449H30.733a1.456,1.456,0,0,1,1.452,1.449V33.085a1.454,1.454,0,0,1-1.452,1.449Z" fill="#b06328" fill-rule="evenodd"/>
          <path id="Trazado_879982" data-name="Trazado 879982" d="M30.733,34.534H17.052A1.453,1.453,0,0,1,15.6,33.085V15.429a1.455,1.455,0,0,1,1.449-1.449H30.733a1.456,1.456,0,0,1,1.452,1.449V33.085a1.454,1.454,0,0,1-1.452,1.449Z" fill="#c97629" fill-rule="evenodd"/>
          <path id="Trazado_879983" data-name="Trazado 879983" d="M24.734,22.04V13.98H19.081v8.06l.618-.356,2.209-1.275,2.209,1.275Z" fill="#cd212d" fill-rule="evenodd"/>
          <path id="Trazado_879984" data-name="Trazado 879984" d="M24.734,22.04V13.98H21.908v6.428l2.209,1.275Z" fill="#ee2b39" fill-rule="evenodd"/>
          <path id="Trazado_879985" data-name="Trazado 879985" d="M41.207,38.68l6.617-1.773,3.219,12.011-4.125-2.164-2.491,3.937Z" fill="#cd212d" fill-rule="evenodd"/>
          <path id="Trazado_879986" data-name="Trazado 879986" d="M44.514,37.794l3.31-.886,3.219,12.011-4.125-2.164Z" fill="#ee2b39" fill-rule="evenodd"/>
          <path id="Trazado_879987" data-name="Trazado 879987" d="M41.207,38.68,34.59,36.907,31.372,48.919,35.5,46.754l2.491,3.937Z" fill="#cd212d" fill-rule="evenodd"/>
          <path id="Trazado_879988" data-name="Trazado 879988" d="M41.207,38.68l-3.31-.886-2.4,8.961,2.491,3.937Z" fill="#ee2b39" fill-rule="evenodd"/>
          <path id="Trazado_879989" data-name="Trazado 879989" d="M39.458,22.317a3.04,3.04,0,0,1,3.5,0,2.807,2.807,0,0,0,1.932.515,3.054,3.054,0,0,1,3.03,1.749A2.808,2.808,0,0,0,49.331,26a3.046,3.046,0,0,1,1.749,3.027,2.809,2.809,0,0,0,.518,1.932,3.053,3.053,0,0,1,0,3.5,2.809,2.809,0,0,0-.518,1.932,3.054,3.054,0,0,1-1.749,3.03,2.814,2.814,0,0,0-1.413,1.413,3.054,3.054,0,0,1-3.03,1.749,2.825,2.825,0,0,0-1.932.518,3.053,3.053,0,0,1-3.5,0,2.825,2.825,0,0,0-1.932-.518A3.054,3.054,0,0,1,34.5,40.83a2.813,2.813,0,0,0-1.413-1.413,3.054,3.054,0,0,1-1.749-3.03,2.809,2.809,0,0,0-.518-1.932,3.053,3.053,0,0,1,0-3.5,2.809,2.809,0,0,0,.518-1.932A3.046,3.046,0,0,1,33.083,26,2.808,2.808,0,0,0,34.5,24.581a3.054,3.054,0,0,1,3.03-1.749A2.807,2.807,0,0,0,39.458,22.317Z" fill="#f7b84e" fill-rule="evenodd"/>
          <path id="Trazado_879990" data-name="Trazado 879990" d="M43.23,22.487a2.79,2.79,0,0,0,1.658.345,3.054,3.054,0,0,1,3.03,1.749A2.808,2.808,0,0,0,49.331,26a3.046,3.046,0,0,1,1.749,3.027,2.809,2.809,0,0,0,.518,1.932,3.053,3.053,0,0,1,0,3.5,2.809,2.809,0,0,0-.518,1.932,3.054,3.054,0,0,1-1.749,3.03,2.814,2.814,0,0,0-1.413,1.413,3.054,3.054,0,0,1-3.03,1.749,2.8,2.8,0,0,0-1.661.347.514.514,0,0,0-.091-.012A2.832,2.832,0,0,1,41.5,42.4a2.609,2.609,0,0,0-1.8-.483,2.848,2.848,0,0,1-2.827-1.634,2.63,2.63,0,0,0-1.319-1.319,2.844,2.844,0,0,1-1.631-2.824,2.62,2.62,0,0,0-.483-1.8,2.844,2.844,0,0,1,0-3.266,2.624,2.624,0,0,0,.483-1.8,2.851,2.851,0,0,1,1.631-2.827,2.608,2.608,0,0,0,1.319-1.319A2.851,2.851,0,0,1,39.7,23.495a2.624,2.624,0,0,0,1.8-.483,2.832,2.832,0,0,1,1.631-.512.557.557,0,0,0,.094-.012Z" fill="#ffcb5b" fill-rule="evenodd"/>
          <path id="Trazado_879991" data-name="Trazado 879991" d="M41.207,39.761a7.054,7.054,0,1,0-7.053-7.055,7.067,7.067,0,0,0,7.053,7.055Z" fill="#f2992c" fill-rule="evenodd"/>
          <path id="Trazado_879992" data-name="Trazado 879992" d="M42.668,25.806a7.054,7.054,0,0,1,0,13.8,7.054,7.054,0,0,1,0-13.8Z" fill="#faa845" fill-rule="evenodd"/>
        </g>
        <path id="Trazado_879993" data-name="Trazado 879993" d="M44.078,29.961a.624.624,0,0,1,.883.881l-4.608,4.611a.629.629,0,0,1-.883,0l-2.017-2.02a.624.624,0,0,1,.883-.881l1.575,1.578Z" fill="#3cb54b"/>
        <path id="Trazado_879994" data-name="Trazado 879994" d="M44.958,29.961a.624.624,0,0,1,0,.883L40.35,35.453a.626.626,0,0,1-.883,0L37.45,33.436a.625.625,0,0,1,.883-.883l1.575,1.575,4.167-4.167a.624.624,0,0,1,.883,0ZM41.2,39.137a6.428,6.428,0,1,1,6.431-6.428A6.436,6.436,0,0,1,41.2,39.137Zm0-14.105a7.677,7.677,0,1,0,7.68,7.677,7.687,7.687,0,0,0-7.68-7.677ZM51.086,34.1a3.453,3.453,0,0,0-.633,2.347,2.432,2.432,0,0,1-1.39,2.409,3.431,3.431,0,0,0-.816.527.386.386,0,0,0-.088.079,3.509,3.509,0,0,0-.81,1.11,2.431,2.431,0,0,1-2.412,1.39,3.45,3.45,0,0,0-2.341.63,2.442,2.442,0,0,1-2.783,0,3.418,3.418,0,0,0-2.014-.645c-.109,0-.221.006-.33.015a2.438,2.438,0,0,1-2.412-1.39,3.462,3.462,0,0,0-.8-1.107.846.846,0,0,0-.091-.085,3.687,3.687,0,0,0-.822-.524,2.434,2.434,0,0,1-1.393-2.409,3.418,3.418,0,0,0-.627-2.344,2.432,2.432,0,0,1,0-2.783,3.422,3.422,0,0,0,.627-2.344,2.431,2.431,0,0,1,1.39-2.409,3.434,3.434,0,0,0,1.717-1.717,2.436,2.436,0,0,1,2.412-1.393,3.441,3.441,0,0,0,2.344-.627,2.417,2.417,0,0,1,2.78,0,3.448,3.448,0,0,0,2.347.627,2.431,2.431,0,0,1,2.409,1.393,3.434,3.434,0,0,0,1.714,1.714,2.433,2.433,0,0,1,1.39,2.412,3.44,3.44,0,0,0,.633,2.344,2.427,2.427,0,0,1,0,2.78ZM47.205,46.2a.628.628,0,0,0-.819.221l-1.728,2.73-1.463-5.465c.038-.026.079-.05.118-.077a2.2,2.2,0,0,1,1.519-.409A3.678,3.678,0,0,0,48.36,41.33l1.708,6.375-2.862-1.5ZM37.75,49.157l-1.728-2.733a.624.624,0,0,0-.816-.221l-2.865,1.5,1.708-6.372a3.688,3.688,0,0,0,3.531,1.87,2.2,2.2,0,0,1,1.519.409c.038.026.079.05.121.077L37.75,49.157Zm-7.017-35.8H13.077A2.076,2.076,0,0,0,11,15.432V33.085a2.077,2.077,0,0,0,2.073,2.076h17.43a2.158,2.158,0,0,1,.2,1.175,3.689,3.689,0,0,0,2.108,3.651,2.757,2.757,0,0,1,.262.138l-.465,1.74A38.108,38.108,0,0,1,21.9,46.79a37.162,37.162,0,0,1-11.258-5.321C6.766,38.571,4.8,35.211,4.8,31.486V10.1a40.11,40.11,0,0,1,34.217,0V21.86a2.165,2.165,0,0,1-1.434.353,3.686,3.686,0,0,0-3.651,2.108,2.167,2.167,0,0,1-1.113,1.11s-.006,0-.009.006V15.432a2.076,2.076,0,0,0-2.073-2.073ZM19.7,14.607h4.405v6.355l-1.89-1.093a.622.622,0,0,0-.624,0L19.7,20.962V14.607ZM30.709,29.083A2.164,2.164,0,0,1,30.3,30.6a3.69,3.69,0,0,0-.456,3.31H13.077a.828.828,0,0,1-.825-.827V15.432a.827.827,0,0,1,.825-.825h5.377v7.435a.629.629,0,0,0,.312.542.622.622,0,0,0,.624,0L21.9,21.13l2.515,1.455a.626.626,0,0,0,.312.082.622.622,0,0,0,.624-.624V14.607h5.377a.825.825,0,0,1,.825.825V26.4a3.676,3.676,0,0,0-.848,2.68ZM21.9,50.046c-4.965-1.352-20.242-6.5-20.242-18.56V8.176a43.353,43.353,0,0,1,40.483,0V21.265a3.716,3.716,0,0,0-1.885,0V9.713a.619.619,0,0,0-.35-.56,41.175,41.175,0,0,0-36.013,0,.619.619,0,0,0-.35.56V31.486c0,4.14,2.138,7.836,6.352,10.984a38.685,38.685,0,0,0,11.832,5.571.7.7,0,0,0,.174.024.685.685,0,0,0,.174-.024,40.415,40.415,0,0,0,10.047-4.352l-.689,2.574A45.343,45.343,0,0,1,21.9,50.047ZM52.108,30.6a2.178,2.178,0,0,1-.409-1.516,3.682,3.682,0,0,0-2.105-3.651,2.2,2.2,0,0,1-1.113-1.11,3.675,3.675,0,0,0-3.648-2.108,2.172,2.172,0,0,1-1.437-.353V7.805a.624.624,0,0,0-.324-.548,44.279,44.279,0,0,0-42.33,0,.627.627,0,0,0-.327.548V31.486c0,13.08,16.325,18.469,21.328,19.809a.61.61,0,0,0,.162.021.6.6,0,0,0,.162-.021,47.5,47.5,0,0,0,8.928-3.389l-.227.851a.622.622,0,0,0,.889.716l3.616-1.893,2.185,3.448a.621.621,0,0,0,.527.289.93.93,0,0,0,.094-.006.63.63,0,0,0,.509-.456l1.79-6.673a3.706,3.706,0,0,0,.825.091,3.564,3.564,0,0,0,.827-.094l1.79,6.676a.623.623,0,0,0,.507.456c.032,0,.065.006.094.006a.621.621,0,0,0,.527-.289l2.185-3.448,3.613,1.893a.628.628,0,0,0,.68-.065.62.62,0,0,0,.215-.651l-2.309-8.631a2.707,2.707,0,0,1,.259-.141A3.68,3.68,0,0,0,51.7,36.336a2.182,2.182,0,0,1,.409-1.519,3.676,3.676,0,0,0,0-4.217Z" fill="#070202"/>
      </g>
    </g>
  </g>
</svg>
