<svg xmlns="http://www.w3.org/2000/svg" xmlns:xlink="http://www.w3.org/1999/xlink" width="87.264" height="87.264" viewBox="0 0 87.264 87.264">
  <defs>
    <clipPath id="clip-path">
      <rect id="Rectángulo_403471" data-name="Rectángulo 403471" width="52.358" height="52.358" transform="translate(197.785 6306.453)" fill="#fff" stroke="#707070" stroke-width="1"/>
    </clipPath>
  </defs>
  <g id="Grupo_1102503" data-name="Grupo 1102503" transform="translate(-180.332 -6289)">
    <rect id="Rectángulo_400898" data-name="Rectángulo 400898" width="87.264" height="87.264" rx="43.632" transform="translate(180.332 6289)" fill="#fff" opacity="0.859"/>
    <g id="Rectángulo_400907" data-name="Rectángulo 400907" transform="translate(180.332 6289)" fill="none" stroke="#3b57de" stroke-linecap="round" stroke-width="2" stroke-dasharray="7">
      <rect width="87.264" height="87.264" rx="43.632" stroke="none"/>
      <rect x="1" y="1" width="85.264" height="85.264" rx="42.632" fill="none"/>
    </g>
    <g id="Enmascarar_grupo_1098846" data-name="Enmascarar grupo 1098846" clip-path="url(#clip-path)">
      <g id="archivo-secreto" transform="translate(197.785 6306.453)">
        <path id="XMLID_1594_" d="M51.336,15.237V3.784H39.175L33.449,9.51H14.93l5.727,5.727Z" fill="#ffcd69"/>
        <path id="XMLID_1552_" d="M51.336,15.237H20.657L14.93,9.51H1.023V48.575H51.336Z" fill="#ffda8f"/>
        <g id="XMLID_485_">
          <path id="XMLID_1015_" d="M35.732,14.214a1.023,1.023,0,1,0,.723.3A1.03,1.03,0,0,0,35.732,14.214Z"/>
        </g>
        <path id="Trazado_880005" data-name="Trazado 880005" d="M51.336,2.761H39.175a1.023,1.023,0,0,0-.723.3L33.025,8.488h-32A1.023,1.023,0,0,0,0,9.51V48.575A1.023,1.023,0,0,0,1.023,49.6H51.336a1.023,1.023,0,0,0,1.023-1.023V3.784A1.023,1.023,0,0,0,51.336,2.761ZM50.313,14.214H40.334a1.023,1.023,0,0,0,0,2.045h9.979V47.552H2.045V10.533H14.507l5.427,5.427a1.023,1.023,0,0,0,.723.3H31.13a1.023,1.023,0,0,0,0-2.045H21.081L17.4,10.533H33.449a1.023,1.023,0,0,0,.723-.3L39.6,4.806H50.313Z"/>
        <path id="Trazado_880006" data-name="Trazado 880006" d="M16.2,29.356a1.023,1.023,0,0,0,0-2.045h-2.6a1.023,1.023,0,0,0-1.023,1.023v7.179a1.023,1.023,0,0,0,1.023,1.023h2.6a1.023,1.023,0,0,0,0-2.045H14.617V32.945H16A1.023,1.023,0,0,0,16,30.9H14.617V29.356Z"/>
        <path id="Trazado_880007" data-name="Trazado 880007" d="M37.162,27.311a1.023,1.023,0,0,0-1.023,1.023v7.179a1.023,1.023,0,0,0,1.023,1.023h2.717a1.023,1.023,0,1,0,0-2.045H38.185V32.945h1.494a1.023,1.023,0,0,0,0-2.045H38.185V29.356h1.694a1.023,1.023,0,1,0,0-2.045Z"/>
        <path id="Trazado_880008" data-name="Trazado 880008" d="M26.473,33.739a1.023,1.023,0,0,0-1.441.126,1.831,1.831,0,0,1-1.5.658,2.6,2.6,0,1,1,1.453-4.756,1.023,1.023,0,1,0,1.145-1.695,4.645,4.645,0,1,0-2.6,8.5A3.874,3.874,0,0,0,26.6,35.18,1.023,1.023,0,0,0,26.473,33.739Z"/>
        <path id="Trazado_880009" data-name="Trazado 880009" d="M8.649,31.021c-.87-.321-1.681-.67-1.951-.788a.383.383,0,0,1-.124-.354.616.616,0,0,1,.494-.485,2.3,2.3,0,0,1,1.886.44,1.023,1.023,0,0,0,1.31-1.571,4.345,4.345,0,0,0-3.786-.827A2.664,2.664,0,0,0,4.55,29.588a2.418,2.418,0,0,0,1.079,2.394,1.018,1.018,0,0,0,.142.077c.042.019,1.043.464,2.17.88.226.083.958.392.875.856a1.121,1.121,0,0,1-1.15.727A2.4,2.4,0,0,1,5.9,33.784a1.023,1.023,0,0,0-1.516,1.373,4.418,4.418,0,0,0,3.282,1.41,3.1,3.1,0,0,0,3.164-2.413c.188-1.056-.285-2.435-2.181-3.134Z"/>
        <path id="Trazado_880010" data-name="Trazado 880010" d="M43.594,29.323h.781v6.222a1.023,1.023,0,0,0,2.045,0V29.323h.8a1.023,1.023,0,0,0,0-2.045H43.594a1.023,1.023,0,1,0,0,2.045Z"/>
        <path id="Trazado_880011" data-name="Trazado 880011" d="M34.47,30.183a2.964,2.964,0,0,0-3.012-2.905H29.53A1.023,1.023,0,0,0,28.508,28.3v7.245a1.023,1.023,0,0,0,2.045,0V33.8l2.127,2.416a1.023,1.023,0,1,0,1.535-1.351l-1.723-1.957a2.918,2.918,0,0,0,1.978-2.729Zm-3.012-.86a.866.866,0,1,1,0,1.72l-.895,0c0-.328,0-.659,0-.863,0-.174,0-.515,0-.86Z"/>
      </g>
    </g>
  </g>
</svg>
