<svg xmlns="http://www.w3.org/2000/svg" xmlns:xlink="http://www.w3.org/1999/xlink" width="87.264" height="87.264" viewBox="0 0 87.264 87.264">
  <defs>
    <clipPath id="clip-path">
      <rect id="Rectángulo_403471" data-name="Rectángulo 403471" width="52.358" height="52.358" transform="translate(197.785 6306.453)" fill="#fff" stroke="#707070" stroke-width="1"/>
    </clipPath>
  </defs>
  <g id="Grupo_1102504" data-name="Grupo 1102504" transform="translate(-180.332 -6289)">
    <rect id="Rectángulo_400898" data-name="Rectángulo 400898" width="87.264" height="87.264" rx="43.632" transform="translate(180.332 6289)" fill="#fff" opacity="0.859"/>
    <g id="Rectángulo_400907" data-name="Rectángulo 400907" transform="translate(180.332 6289)" fill="none" stroke="#3b57de" stroke-linecap="round" stroke-width="2" stroke-dasharray="7">
      <rect width="87.264" height="87.264" rx="43.632" stroke="none"/>
      <rect x="1" y="1" width="85.264" height="85.264" rx="42.632" fill="none"/>
    </g>
    <g id="Enmascarar_grupo_1098847" data-name="Enmascarar grupo 1098847" clip-path="url(#clip-path)">
      <g id="la-resolucion-de-conflictos_2_" data-name="la-resolucion-de-conflictos (2)" transform="translate(197.369 6306.037)">
        <path id="Trazado_880012" data-name="Trazado 880012" d="M41.254,1.143H11.938A3.6,3.6,0,0,0,8.351,4.73V24.083a3.6,3.6,0,0,0,3.587,3.587h9.171l.014,5.489L24.3,27.67H41.254a3.6,3.6,0,0,0,3.587-3.587V4.73a3.6,3.6,0,0,0-3.587-3.587Z" fill="#43f043" fill-rule="evenodd"/>
        <path id="Trazado_880013" data-name="Trazado 880013" d="M38.948,1.143H11.938A3.6,3.6,0,0,0,8.351,4.73V24.083a3.6,3.6,0,0,0,3.587,3.587h9.171l.01,3.882,2.25-3.882h15.58a3.6,3.6,0,0,0,3.587-3.587V4.73a3.6,3.6,0,0,0-3.587-3.587Z" fill="#adffad" fill-rule="evenodd"/>
        <path id="Trazado_880014" data-name="Trazado 880014" d="M26.885,29.705h4.367l-2.616,4.532h4.911l-9.4,10.38,2.484-6.992H22.3Z" fill="#f9ac00" fill-rule="evenodd"/>
        <path id="Trazado_880015" data-name="Trazado 880015" d="M26.885,29.705h2.746l-2.616,4.532h4.911L25.19,41.673l1.438-4.048H22.3Z" fill="#fcdb35" fill-rule="evenodd"/>
        <path id="Trazado_880016" data-name="Trazado 880016" d="M26.8,22.664l1.275.725c1.646.95,2.641-1.07,1.355-1.819l.716.413a1.2,1.2,0,0,0,1.2-2.077l.383.221a1.278,1.278,0,0,0,1.283-2.211h0l.38.22A1.276,1.276,0,0,0,35.266,16.7a1.435,1.435,0,0,0-.594-.777l-3.841-2.218a46.786,46.786,0,0,1-4.651-4.111c-2.638-1.9-4.537.463-8.027-1.5L15.671,6.7a7.128,7.128,0,0,0-2.693,7.748l4.434,2.285,1.143,1.23,8.242,4.7Z" fill="#ffcec0" fill-rule="evenodd"/>
        <path id="Trazado_880017" data-name="Trazado 880017" d="M34.924,17.947a1.267,1.267,0,0,0,.217-.278,1.284,1.284,0,0,0,.126-.969,1.435,1.435,0,0,0-.594-.777l-3.841-2.218a46.786,46.786,0,0,1-4.651-4.111,4.315,4.315,0,0,0-.958-.528l-3.356,2.092a1.9,1.9,0,0,0-.129,3.158,3.067,3.067,0,0,0,2.109.763c1.59-.062,2.843-1.382,4.286-1.39a4.525,4.525,0,0,1,2.222.843l3.8,2.192c.325.208.971.576.773,1.222Z" fill="#fdb0a0" fill-rule="evenodd"/>
        <path id="Trazado_880018" data-name="Trazado 880018" d="M29.242,21.464a.5.5,0,0,0-.5.858L29.913,23a1.09,1.09,0,0,0-.486-1.425l-.185-.106Z" fill="#fdb0a0" fill-rule="evenodd"/>
        <path id="Trazado_880019" data-name="Trazado 880019" d="M30.64,19.5a.553.553,0,0,0-.553.958l1.74,1a1.206,1.206,0,0,0-.48-1.554L30.64,19.5Z" fill="#fdb0a0" fill-rule="evenodd"/>
        <path id="Trazado_880020" data-name="Trazado 880020" d="M33.013,17.917l-1.092-.63a.553.553,0,0,0-.553.958l2.183,1.261a1.284,1.284,0,0,0-.539-1.588Z" fill="#fdb0a0" fill-rule="evenodd"/>
        <path id="Trazado_880021" data-name="Trazado 880021" d="M18.34,18.333A1.264,1.264,0,1,0,20.53,19.6l.908-1.573a1.264,1.264,0,0,0-2.189-1.264l-.908,1.573Z" fill="#f0e3df" fill-rule="evenodd"/>
        <path id="Trazado_880022" data-name="Trazado 880022" d="M24.908,22.125A1.264,1.264,0,0,0,27.1,23.389l.908-1.573a1.264,1.264,0,1,0-2.189-1.264l-.908,1.573Z" fill="#f0e3df" fill-rule="evenodd"/>
        <path id="Trazado_880023" data-name="Trazado 880023" d="M22.412,21.392A1.264,1.264,0,0,0,24.6,22.656l1.215-2.1a1.264,1.264,0,1,0-2.189-1.264l-1.215,2.1Z" fill="#f0e3df" fill-rule="evenodd"/>
        <path id="Trazado_880024" data-name="Trazado 880024" d="M19.965,20.574a1.264,1.264,0,0,0,2.189,1.264l1.473-2.551a1.264,1.264,0,1,0-2.189-1.264l-1.473,2.551Z" fill="#f0e3df" fill-rule="evenodd"/>
        <path id="Trazado_880025" data-name="Trazado 880025" d="M40.137,14.446,35.266,16.7a1.435,1.435,0,0,0-.594-.777l-3.841-2.218a5.242,5.242,0,0,0-2.706-.971c-2.3.014-3.843,2.45-5.779.847a.954.954,0,0,1,.025-1.612l4.107-2.561a5.055,5.055,0,0,1,4.342-.768A4.522,4.522,0,0,0,34.556,8.3L37.444,6.7a6.947,6.947,0,0,1,2.693,7.748Z" fill="#d9c5bf" fill-rule="evenodd"/>
        <path id="Trazado_880026" data-name="Trazado 880026" d="M40.137,14.446,35.266,16.7a1.435,1.435,0,0,0-.594-.777l-3.841-2.218a5.243,5.243,0,0,0-2.706-.971c-2.3.014-3.843,2.45-5.779.847l-.009-.007a.9.9,0,0,1,.447-.62l4.107-2.561a5.055,5.055,0,0,1,4.342-.768,4.522,4.522,0,0,0,3.734-.336l2.156-1.2,1.19-.681a6.948,6.948,0,0,1,1.823,7.037Z" fill="#f0e3df" fill-rule="evenodd"/>
        <path id="Trazado_880027" data-name="Trazado 880027" d="M40.946,14.821l-1.22.518a.487.487,0,0,1-.677-.443,9.02,9.02,0,0,0-3.32-7.046.487.487,0,0,1,.077-.8l1.556-.866a.717.717,0,0,1,.807.065A8.664,8.664,0,0,1,41.376,14.3a.711.711,0,0,1-.43.526Z" fill="#5d689e" fill-rule="evenodd"/>
        <path id="Trazado_880028" data-name="Trazado 880028" d="M40.946,14.821l-.841.357-.015-.009a.5.5,0,0,1-.233-.427,9.564,9.564,0,0,0-3.52-7.471.5.5,0,0,1-.184-.413l1.208-.672a.717.717,0,0,1,.807.065A8.664,8.664,0,0,1,41.376,14.3a.711.711,0,0,1-.43.526Z" fill="#909cd1" fill-rule="evenodd"/>
        <path id="Trazado_880029" data-name="Trazado 880029" d="M12.245,14.821l1.22.518a.487.487,0,0,0,.677-.443,9.02,9.02,0,0,1,3.32-7.046.487.487,0,0,0-.077-.8l-1.556-.866a.717.717,0,0,0-.807.065A8.664,8.664,0,0,0,11.815,14.3a.711.711,0,0,0,.43.526Z" fill="#4eb1fc" fill-rule="evenodd"/>
        <path id="Trazado_880030" data-name="Trazado 880030" d="M12.245,14.821l.841.357.015-.009a.5.5,0,0,0,.233-.427,9.563,9.563,0,0,1,3.52-7.471.5.5,0,0,0,.184-.413l-1.208-.672a.717.717,0,0,0-.807.065A8.664,8.664,0,0,0,11.815,14.3a.711.711,0,0,0,.43.526Z" fill="#85caff" fill-rule="evenodd"/>
        <g id="Grupo_1103070" data-name="Grupo 1103070">
          <path id="Trazado_880031" data-name="Trazado 880031" d="M19.038,20.165A1.271,1.271,0,0,0,20.53,19.6l.908-1.573a1.269,1.269,0,0,0-.254-1.576l-2.146,3.717Z" fill="#d9c5bf" fill-rule="evenodd"/>
          <path id="Trazado_880032" data-name="Trazado 880032" d="M25.606,23.957a1.27,1.27,0,0,0,1.492-.568l.908-1.573a1.269,1.269,0,0,0-.254-1.576l-2.146,3.717Z" fill="#d9c5bf" fill-rule="evenodd"/>
          <path id="Trazado_880033" data-name="Trazado 880033" d="M23.11,23.224a1.27,1.27,0,0,0,1.492-.568l1.215-2.1a1.269,1.269,0,0,0-.254-1.576L23.11,23.224Z" fill="#d9c5bf" fill-rule="evenodd"/>
          <path id="Trazado_880034" data-name="Trazado 880034" d="M20.663,22.406a1.27,1.27,0,0,0,1.49-.565l1.474-2.554a1.269,1.269,0,0,0-.254-1.576l-2.71,4.694Z" fill="#d9c5bf" fill-rule="evenodd"/>
          <path id="Trazado_880035" data-name="Trazado 880035" d="M38.716,34.225c-1.931-2.8-1.337-7.609,3.288-7.609s5.219,4.811,3.288,7.609a3.783,3.783,0,0,1-6.577,0Z" fill="#d9c5bf" fill-rule="evenodd"/>
        </g>
        <path id="Trazado_880036" data-name="Trazado 880036" d="M38.716,34.225c-1.778-2.576-1.415-6.858,2.263-7.521,3.679.663,4.041,4.945,2.263,7.521a4.345,4.345,0,0,1-2.263,1.757A4.345,4.345,0,0,1,38.716,34.225Z" fill="#f0e3df" fill-rule="evenodd"/>
        <path id="Trazado_880037" data-name="Trazado 880037" d="M40.173,36.369l-3.121.768a15.417,15.417,0,0,0-3.443,1.155c-1.034.606-1.4,1.225-1.529,2.872-.16,2.91-.107,5.614.01,8.393a2.574,2.574,0,0,0,2.572,2.466H49.347a2.574,2.574,0,0,0,2.572-2.466c.117-2.779.17-5.484.01-8.393-.127-1.647-.5-2.266-1.529-2.872a15.421,15.421,0,0,0-3.443-1.155l-3.121-.768a7.337,7.337,0,0,0-3.663,0Z" fill="#4eb1fc" fill-rule="evenodd"/>
        <path id="Trazado_880038" data-name="Trazado 880038" d="M40.173,36.369l-3.121.768a15.422,15.422,0,0,0-3.443,1.155c-1.034.606-1.4,1.225-1.529,2.872-.16,2.91-.107,5.614.01,8.393a2.574,2.574,0,0,0,2.572,2.466H47.371a2.574,2.574,0,0,0,2.572-2.466c.117-2.779.17-5.484.01-8.393-.127-1.647-.5-2.266-1.529-2.872a15.427,15.427,0,0,0-3.443-1.155l-3.121-.768a8.28,8.28,0,0,0-.844-.163,8.279,8.279,0,0,0-.844.163Z" fill="#85caff" fill-rule="evenodd"/>
        <path id="Trazado_880039" data-name="Trazado 880039" d="M7.9,34.248c-1.931-2.8-1.337-7.609,3.288-7.609s5.219,4.811,3.288,7.609a4.022,4.022,0,0,1-3.288,1.912A4.023,4.023,0,0,1,7.9,34.248Z" fill="#d9c5bf" fill-rule="evenodd"/>
        <path id="Trazado_880040" data-name="Trazado 880040" d="M7.9,34.248c-1.778-2.576-1.416-6.858,2.263-7.521,3.679.663,4.041,4.945,2.263,7.521a4.345,4.345,0,0,1-2.263,1.757A4.345,4.345,0,0,1,7.9,34.248Z" fill="#f0e3df" fill-rule="evenodd"/>
        <path id="Trazado_880041" data-name="Trazado 880041" d="M9.354,36.393l-3.121.768A15.421,15.421,0,0,0,2.79,38.316c-1.034.606-1.4,1.225-1.529,2.872-.16,2.91-.107,5.614.01,8.393a2.574,2.574,0,0,0,2.572,2.466H18.528A2.574,2.574,0,0,0,21.1,49.581c.117-2.779.17-5.484.01-8.393-.127-1.647-.5-2.266-1.529-2.872a15.421,15.421,0,0,0-3.443-1.155l-3.121-.768a7.337,7.337,0,0,0-3.663,0Z" fill="#4eb1fc" fill-rule="evenodd"/>
        <path id="Trazado_880042" data-name="Trazado 880042" d="M9.354,36.393l-3.121.768A15.421,15.421,0,0,0,2.79,38.316c-1.034.606-1.4,1.225-1.529,2.872-.16,2.91-.107,5.614.01,8.393a2.574,2.574,0,0,0,2.572,2.466H16.553a2.574,2.574,0,0,0,2.572-2.466c.117-2.779.17-5.484.01-8.393-.127-1.647-.5-2.266-1.529-2.872a15.427,15.427,0,0,0-3.443-1.155l-3.121-.768a8.284,8.284,0,0,0-.844-.163,8.274,8.274,0,0,0-.844.163Z" fill="#85caff" fill-rule="evenodd"/>
        <path id="Trazado_880043" data-name="Trazado 880043" d="M10.337,36.214,8.907,46.492l2.279,3.192,2.279-3.192-1.43-10.277a7.066,7.066,0,0,0-1.7,0Z" fill="#f23353" fill-rule="evenodd"/>
        <path id="Trazado_880044" data-name="Trazado 880044" d="M10.337,36.214,8.907,46.492l1.685,2.361,1.817-2.545L11,36.166c-.219.006-.439.022-.661.049Z" fill="#ff6b84" fill-rule="evenodd"/>
        <path id="Trazado_880045" data-name="Trazado 880045" d="M26.046,41.433l1.267-3.564a.726.726,0,0,0-.686-.971h-3.07L27.3,30.432h2.689l-1.983,3.441a.727.727,0,0,0,0,.728.714.714,0,0,0,.626.363H31.91l-5.864,6.469Zm8.167-7.492a.73.73,0,0,0-.666-.432H29.9l1.988-3.441a.726.726,0,0,0,0-.727.737.737,0,0,0-.631-.364H26.887a.729.729,0,0,0-.631.363l-4.587,7.92a.714.714,0,0,0,0,.727.729.729,0,0,0,.631.365h3.3l-2.143,6.021a.73.73,0,0,0,.686.97.735.735,0,0,0,.541-.239l9.4-10.381a.735.735,0,0,0,.125-.783ZM31.128,13.025a5.759,5.759,0,0,0-2.949-1.011h-.025a6.3,6.3,0,0,0-2.764.831c-1.167.57-1.763.817-2.534.18a.419.419,0,0,1-.165-.3c0-.015,0-.062.115-.131l4.1-2.555a4.288,4.288,0,0,1,3.72-.693,5.259,5.259,0,0,0,4.306-.391l.576-.321a8.222,8.222,0,0,1,2.819,5.856l-2.739,1.266a2.586,2.586,0,0,0-.466-.424.376.376,0,0,0-.065-.04Zm3.4,4.276a.544.544,0,0,0,.06-.387.7.7,0,0,0-.29-.382l-3.9-2.249a4.443,4.443,0,0,0-2.223-.816h-.015a5,5,0,0,0-2.133.683c-1.147.56-2.574,1.257-4.1-.006a1.831,1.831,0,0,1-.691-1.518,1.6,1.6,0,0,1,.8-1.268l2.7-1.686A5.613,5.613,0,0,0,22.656,9.6a7.463,7.463,0,0,1-4.8-.859l-.18-.1a8.227,8.227,0,0,0-2.809,5.925L17.8,16.083a.758.758,0,0,1,.2.151l.471.506.2-.347a1.986,1.986,0,0,1,3.58.3,1.983,1.983,0,0,1,2.183,1.261,1.974,1.974,0,0,1,2.183,1.261A1.981,1.981,0,0,1,28.915,20.9a.725.725,0,0,1,.791-.043l.11.063h0l.721.414a.472.472,0,0,0,.641-.172.465.465,0,0,0,.045-.357.479.479,0,0,0-.215-.286l-.6-.343a.727.727,0,0,1,.726-1.26l.6.343h0l.386.222a.548.548,0,0,0,.746-.2.551.551,0,0,0-.2-.749l-.576-.333a.727.727,0,0,1,.726-1.259l.966.556a.547.547,0,0,0,.746-.2Zm-5.4,5.544a.688.688,0,0,1-.666-.107l-.1-.053.3-.521a1.935,1.935,0,0,0,.105-.219.743.743,0,0,0,.205.176l.11.063a.369.369,0,0,1,.04.661Zm-3.355.358a.53.53,0,0,1-.2-.728l.906-1.571a.531.531,0,0,1,.461-.266.533.533,0,0,1,.461.8l-.9,1.57a.537.537,0,0,1-.731.2Zm-2.489-.731a.516.516,0,0,1-.25-.324.539.539,0,0,1,.05-.4h0l1.212-2.1a.555.555,0,0,1,.325-.247.581.581,0,0,1,.145-.019.518.518,0,0,1,.26.071.537.537,0,0,1,.25.325.542.542,0,0,1-.055.4l-.906,1.57h0l-.305.529a.531.531,0,0,1-.726.2Zm-2.038-.764a.53.53,0,0,1-.406-.052.553.553,0,0,1-.25-.324.542.542,0,0,1,.055-.4l.561-.975.906-1.57a.555.555,0,0,1,.325-.247.542.542,0,0,1,.14-.018.523.523,0,0,1,.265.071.51.51,0,0,1,.245.324.518.518,0,0,1-.05.4l-1.212,2.1-.255.445A.527.527,0,0,1,21.249,21.708ZM19.025,18.69l.906-1.57a.531.531,0,0,1,.977.129.518.518,0,0,1-.05.4l-.906,1.57a.535.535,0,0,1-.926-.534Zm-5.618-4.128-.9-.381v0A7.913,7.913,0,0,1,15.46,6.841l1.262.7a9.754,9.754,0,0,0-3.315,7.021ZM37.733,6.841l-1.262.7a9.747,9.747,0,0,1,3.31,7.021l.9-.381h0a7.93,7.93,0,0,0-2.949-7.34Zm-1.683,10.3L38.8,15.873c.03.022.055.045.085.065a1.2,1.2,0,0,0,1.142.1l1.222-.519a1.443,1.443,0,0,0,.861-1.05A9.461,9.461,0,0,0,38.634,5.7a1.456,1.456,0,0,0-1.612-.129l-1.557.867a1.19,1.19,0,0,0-.611.9l-.631.351a3.791,3.791,0,0,1-3.145.28,5.676,5.676,0,0,0-4.847.781,5.6,5.6,0,0,0-3.7-.592,6,6,0,0,1-3.966-.678l-.225-.128a1.185,1.185,0,0,0-.611-.913L16.166,5.57a1.455,1.455,0,0,0-1.612.129,9.458,9.458,0,0,0-3.47,8.771,1.437,1.437,0,0,0,.856,1.05l1.222.519a1.252,1.252,0,0,0,.481.1,1.193,1.193,0,0,0,.661-.2.077.077,0,0,1,.02-.014l2.7,1.393.691.745a1.987,1.987,0,0,0,1.427,2.853,2.029,2.029,0,0,0,.05.793,1.98,1.98,0,0,0,.926,1.208,1.975,1.975,0,0,0,1.507.2,2.366,2.366,0,0,0,.225-.076,1.963,1.963,0,0,0,.706.7,1.992,1.992,0,0,0,.991.266,2.013,2.013,0,0,0,.826-.179,1.983,1.983,0,0,0,1.667.91,2,2,0,0,0,1.587-.791l.115.064a2.4,2.4,0,0,0,1.2.346,1.809,1.809,0,0,0,1.8-1.491h.03A1.921,1.921,0,0,0,32.7,20.99a2.059,2.059,0,0,0,.215-.045A1.992,1.992,0,0,0,34.393,19c.06-.01.12-.023.18-.039a1.99,1.99,0,0,0,1.217-.931,2.028,2.028,0,0,0,.26-.883Zm15.162,32.4A1.851,1.851,0,0,1,49.36,51.32h-.576V45.307a.729.729,0,0,0-1.457,0V51.32H36.681V45.307a.729.729,0,0,0-1.457,0V51.32h-.576A1.851,1.851,0,0,1,32.8,49.546c-.1-2.388-.18-5.243-.01-8.331.12-1.533.436-1.864,1.177-2.3a15.518,15.518,0,0,1,3.255-1.079l3.125-.77a6.958,6.958,0,0,1,1.617-.213l.04,0h.01l.035,0a6.959,6.959,0,0,1,1.622.213l3.12.768a15.593,15.593,0,0,1,3.26,1.081c.741.434,1.057.765,1.177,2.3.17,3.09.09,5.944-.01,8.33ZM38.83,28.989A3.309,3.309,0,0,1,42,27.32a3.309,3.309,0,0,1,3.175,1.669A4.936,4.936,0,0,1,44.7,33.8a3.32,3.32,0,0,1-2.649,1.6h-.1a3.316,3.316,0,0,1-2.644-1.6,4.922,4.922,0,0,1-.481-4.813ZM24.3,26.943H38.654A5.2,5.2,0,0,1,42,25.865a6.319,6.319,0,0,1,1.357.143,2.85,2.85,0,0,0,.751-1.925V4.73a2.862,2.862,0,0,0-2.859-2.86H11.935A2.865,2.865,0,0,0,9.076,4.73V24.083a2.86,2.86,0,0,0,.756,1.927,6.34,6.34,0,0,1,1.352-.142,5.2,5.2,0,0,1,3.345,1.075h6.58a.726.726,0,0,1,.726.726l.01,2.8,1.828-3.16a.729.729,0,0,1,.631-.363ZM13.883,33.8a3.33,3.33,0,0,1-2.649,1.6h-.1A3.323,3.323,0,0,1,8.49,33.8a4.934,4.934,0,0,1-.481-4.813,3.314,3.314,0,0,1,3.175-1.669,3.327,3.327,0,0,1,3.18,1.669A4.947,4.947,0,0,1,13.883,33.8Zm5.343,5.115c.741.434,1.057.764,1.177,2.3.17,3.087.09,5.943-.01,8.33A1.851,1.851,0,0,1,18.54,51.32h-.576V44.1a.726.726,0,1,0-1.452,0V51.32H5.861V44.1a.726.726,0,1,0-1.452,0V51.32H3.833a1.848,1.848,0,0,1-1.853-1.773c-.1-2.386-.18-5.242-.01-8.33.115-1.533.431-1.863,1.172-2.3A15.707,15.707,0,0,1,6.4,37.84l3.079-.756-1.3,9.3a.721.721,0,0,0,.13.522l2.283,3.2a.726.726,0,0,0,1.182,0l2.288-3.2a.717.717,0,0,0,.125-.522l-1.292-9.3,3.07.755a15.617,15.617,0,0,1,3.26,1.081Zm-8.047-2.059-.035,0-.17,0L9.662,46.3l1.522,2.136L12.711,46.3l-1.317-9.439-.165,0-.04,0Zm41.5,4.267c0-.006,0-.01,0-.015-.14-1.833-.616-2.7-1.888-3.449a15.594,15.594,0,0,0-3.645-1.236l-2.364-.582a5.561,5.561,0,0,0,1.122-1.217,6.374,6.374,0,0,0,.576-6.314,4.368,4.368,0,0,0-1.682-1.762,4.317,4.317,0,0,0,.781-2.469V4.73A4.321,4.321,0,0,0,41.253.416H11.935A4.316,4.316,0,0,0,7.624,4.73V24.083a4.32,4.32,0,0,0,.781,2.47,4.335,4.335,0,0,0-1.682,1.763,6.373,6.373,0,0,0,.571,6.314A5.717,5.717,0,0,0,8.42,35.847l-2.378.584a15.715,15.715,0,0,0-3.635,1.234C1.134,38.409.659,39.28.518,41.113v.017c-.175,3.152-.1,6.054.01,8.478a3.3,3.3,0,0,0,3.3,3.167H18.54a3.3,3.3,0,0,0,3.3-3.167c.1-2.424.18-5.326.01-8.478v-.017c-.14-1.833-.621-2.7-1.893-3.448a15.6,15.6,0,0,0-3.64-1.236l-2.368-.582A5.717,5.717,0,0,0,15.08,34.63a6.4,6.4,0,0,0,.611-6.233h4.692l.01,4.763a.736.736,0,0,0,.541.7.752.752,0,0,0,.19.025.719.719,0,0,0,.626-.363L24.724,28.4H37.5a6.4,6.4,0,0,0,.616,6.231,5.561,5.561,0,0,0,1.122,1.217l-2.373.584a15.573,15.573,0,0,0-3.635,1.234c-1.272.746-1.748,1.616-1.893,3.449v.015c-.17,3.153-.09,6.055.01,8.48a3.3,3.3,0,0,0,3.3,3.167H49.36a3.3,3.3,0,0,0,3.3-3.167c.1-2.424.18-5.325.01-8.48Z" fill-rule="evenodd"/>
      </g>
    </g>
  </g>
</svg>
