<svg xmlns="http://www.w3.org/2000/svg" xmlns:xlink="http://www.w3.org/1999/xlink" width="144" height="151" viewBox="0 0 144 151">
  <defs>
    <clipPath id="clip-path">
      <rect id="Rectángulo_403605" data-name="Rectángulo 403605" width="109.311" height="151" fill="none"/>
    </clipPath>
    <clipPath id="clip-path-3">
      <rect id="Rectángulo_403558" data-name="Rectángulo 403558" width="109.311" height="64.283" fill="none"/>
    </clipPath>
    <clipPath id="clip-path-4">
      <path id="Trazado_878254" data-name="Trazado 878254" d="M108.25,128,90.737,117.885a4.852,4.852,0,0,0-4.349-.18l-9.909,5.721-3.9-2.254c-2.6-1.5-7.128-1.31-10.125.42L17.4,147.6c-3,1.73-3.322,4.348-.727,5.846l3.811,2.2L1.22,166.77c-1.474.851-1.636,2.15-.359,2.887l19.748,11.4a5.579,5.579,0,0,0,5-.208l19.375-11.186a11.754,11.754,0,0,0,9.083-.9l45.046-26.007c3-1.73,3.322-4.348.727-5.846l-1.189-.687,9.91-5.721c1.11-.641.969-1.771-.312-2.511" transform="translate(0 -117.273)" fill="none"/>
    </clipPath>
    <linearGradient id="linear-gradient" x1="0.004" y1="0.996" x2="0.01" y2="0.996" gradientUnits="objectBoundingBox">
      <stop offset="0" stop-color="#d8d9d9"/>
      <stop offset="0.214" stop-color="#d8d9d9"/>
      <stop offset="0.787" stop-color="#cecfd1"/>
      <stop offset="1" stop-color="#c9cacd"/>
    </linearGradient>
    <clipPath id="clip-path-5">
      <path id="Trazado_878271" data-name="Trazado 878271" d="M120.221,38.182l-.056.026a3.465,3.465,0,0,0-1.729,2.627l-2,22.433-.274,12.716,1.906,2.942,16.015,9.247,3.23-40.709-15.965-9.2v0a.787.787,0,0,0-.564-.221,1.335,1.335,0,0,0-.558.138" transform="translate(-116.157 -38.044)" fill="none"/>
    </clipPath>
    <linearGradient id="linear-gradient-2" x1="-1.287" y1="2.754" x2="-1.273" y2="2.754" gradientUnits="objectBoundingBox">
      <stop offset="0" stop-color="#282e3b"/>
      <stop offset="0.825" stop-color="#282e3b"/>
      <stop offset="0.868" stop-color="#31394c"/>
      <stop offset="0.926" stop-color="#39445c"/>
      <stop offset="0.97" stop-color="#3d4862"/>
      <stop offset="1" stop-color="#3d4862"/>
    </linearGradient>
    <clipPath id="clip-path-6">
      <path id="Trazado_878272" data-name="Trazado 878272" d="M141.878,50.686l-.056.027a3.462,3.462,0,0,0-1.728,2.627l-2,22.433-.276,12.716,1.907,2.944,1.692-.986.38-16.585,1.515-22.074c.041-.773-.317-1.239-.87-1.239a1.34,1.34,0,0,0-.56.138" transform="translate(-137.813 -50.548)" fill="none"/>
    </clipPath>
    <linearGradient id="linear-gradient-3" x1="-3.648" y1="2.941" x2="-3.618" y2="2.941" gradientUnits="objectBoundingBox">
      <stop offset="0" stop-color="#2c3240"/>
      <stop offset="0.681" stop-color="#2c3240"/>
      <stop offset="0.825" stop-color="#2d3342"/>
      <stop offset="0.904" stop-color="#31384a"/>
      <stop offset="0.966" stop-color="#384157"/>
      <stop offset="1" stop-color="#3e4963"/>
    </linearGradient>
    <clipPath id="clip-path-7">
      <path id="Trazado_878273" data-name="Trazado 878273" d="M95.976,97.787a2.579,2.579,0,0,0-1.165,1.968l-.036,1.391a.833.833,0,0,0,.333.785l16.008,9.243L126.6,98.6l-16.013-9.245Z" transform="translate(-94.774 -89.353)" fill="none"/>
    </clipPath>
    <linearGradient id="linear-gradient-4" x1="-1.97" y1="2.424" x2="-1.949" y2="2.424" gradientUnits="objectBoundingBox">
      <stop offset="0" stop-color="#2d3341"/>
      <stop offset="0.101" stop-color="#2d3341"/>
      <stop offset="0.162" stop-color="#3d4862"/>
      <stop offset="0.902" stop-color="#3e4962"/>
      <stop offset="1" stop-color="#3e4962"/>
    </linearGradient>
    <clipPath id="clip-path-8">
      <path id="Trazado_878274" data-name="Trazado 878274" d="M117.632,110.291a2.574,2.574,0,0,0-1.164,1.968l-.038,1.391c-.02.766.507,1.086,1.165.706l16.552-9.557-1.907-2.944Z" transform="translate(-116.43 -101.856)" fill="none"/>
    </clipPath>
    <linearGradient id="linear-gradient-5" x1="-3.855" y1="3.964" x2="-3.821" y2="3.964" gradientUnits="objectBoundingBox">
      <stop offset="0" stop-color="#2d3341"/>
      <stop offset="0.504" stop-color="#2d3341"/>
      <stop offset="0.686" stop-color="#2e3443"/>
      <stop offset="0.785" stop-color="#32394b"/>
      <stop offset="0.864" stop-color="#384258"/>
      <stop offset="0.899" stop-color="#3d4862"/>
      <stop offset="1" stop-color="#3d4862"/>
    </linearGradient>
    <clipPath id="clip-path-10">
      <path id="Trazado_878293" data-name="Trazado 878293" d="M127.964,98.18v35.631h0a1.116,1.116,0,0,0,.655.912,3.53,3.53,0,0,0,3.194-.006,1.126,1.126,0,0,0,.665-.932h0V98.15Z" transform="translate(-127.964 -98.15)" fill="none"/>
    </clipPath>
    <linearGradient id="linear-gradient-6" x1="-20.943" y1="2.115" x2="-20.78" y2="2.115" gradientUnits="objectBoundingBox">
      <stop offset="0" stop-color="#8c909d"/>
      <stop offset="0.034" stop-color="#8c909d"/>
      <stop offset="0.642" stop-color="#a8abb5"/>
      <stop offset="1" stop-color="#a8abb5"/>
    </linearGradient>
    <clipPath id="clip-path-12">
      <path id="Trazado_878316" data-name="Trazado 878316" d="M50.985,150.509l-16.235,9.373L32.632,165.6,51.025,154.98a2.838,2.838,0,0,0,1.294-2.278l-.041-1.5c-.015-.554-.3-.87-.713-.87a1.178,1.178,0,0,0-.58.177" transform="translate(-32.632 -150.332)" fill="none"/>
    </clipPath>
    <linearGradient id="linear-gradient-7" x1="-0.876" y1="1.897" x2="-0.846" y2="1.897" gradientUnits="objectBoundingBox">
      <stop offset="0" stop-color="#2c3240"/>
      <stop offset="0.504" stop-color="#2c3240"/>
      <stop offset="0.682" stop-color="#2d3342"/>
      <stop offset="0.78" stop-color="#31384a"/>
      <stop offset="0.858" stop-color="#384157"/>
      <stop offset="0.899" stop-color="#3e4963"/>
      <stop offset="1" stop-color="#3e4963"/>
    </linearGradient>
    <clipPath id="clip-path-14">
      <path id="Trazado_878319" data-name="Trazado 878319" d="M62.968,135.707v35.63h0a1.116,1.116,0,0,0,.655.912,3.53,3.53,0,0,0,3.194-.005,1.126,1.126,0,0,0,.665-.934h0V135.676Z" transform="translate(-62.968 -135.676)" fill="none"/>
    </clipPath>
    <linearGradient id="linear-gradient-8" x1="-10.307" y1="1.366" x2="-10.144" y2="1.366" xlink:href="#linear-gradient-6"/>
    <clipPath id="clip-path-16">
      <path id="Trazado_878351" data-name="Trazado 878351" d="M5.816,107.683l-.063.044a3.867,3.867,0,0,0-1.588,3.056l.951,16.476.424,17.94,17.795,10.274,1.75-37.712L7.3,107.5v0a.894.894,0,0,0-.532-.164,1.73,1.73,0,0,0-.956.347" transform="translate(-4.161 -107.336)" fill="none"/>
    </clipPath>
    <linearGradient id="linear-gradient-9" x1="0.241" y1="1.626" x2="0.255" y2="1.626" xlink:href="#linear-gradient-2"/>
    <clipPath id="clip-path-17">
      <path id="Trazado_878352" data-name="Trazado 878352" d="M29.881,121.576l-.062.044a3.868,3.868,0,0,0-1.588,3.057l.95,16.474.424,17.941,1.88-1.076L33.6,152.3,33.3,138.524,31.8,122.277c-.062-.678-.441-1.049-.962-1.049a1.736,1.736,0,0,0-.959.348" transform="translate(-28.227 -121.228)" fill="none"/>
    </clipPath>
    <linearGradient id="linear-gradient-10" x1="-0.496" y1="1.695" x2="-0.464" y2="1.695" xlink:href="#linear-gradient-3"/>
    <clipPath id="clip-path-19">
      <path id="Trazado_878373" data-name="Trazado 878373" d="M29.454,26.591v5.663l5.379,5.379A15.107,15.107,0,0,1,37,36.426a10.729,10.729,0,0,0,3.221.2c.311-.016.644-.043,1.009-.081l8.251-9.566-3.221-1.154-8.213-2.936s-5.578,2.378-8.589,3.7" transform="translate(-29.454 -22.893)" fill="none"/>
    </clipPath>
    <linearGradient id="linear-gradient-11" x1="-0.787" y1="6.063" x2="-0.757" y2="6.063" gradientUnits="objectBoundingBox">
      <stop offset="0" stop-color="#ff9874"/>
      <stop offset="0.312" stop-color="#ff9874"/>
      <stop offset="0.817" stop-color="#ffb69c"/>
      <stop offset="1" stop-color="#ffb69c"/>
    </linearGradient>
    <clipPath id="clip-path-21">
      <rect id="Rectángulo_403576" data-name="Rectángulo 403576" width="9.327" height="7.739" fill="none"/>
    </clipPath>
    <clipPath id="clip-path-22">
      <path id="Trazado_878374" data-name="Trazado 878374" d="M37.914,35.381c.555-1.088,3.576-1.851,3.576-1.851a4.56,4.56,0,0,0-2.743,2.984c-.671,1.852.509,2.238.509,2.238s.907.516,3.439-.155a3.2,3.2,0,0,1,.318-.071l-.621.72-.137.083A12.475,12.475,0,0,1,38.1,39.2a14.951,14.951,0,0,0-2.923,1.746,4.108,4.108,0,0,1-1.49.305,37.333,37.333,0,0,1,4.043-2.5,7.309,7.309,0,0,1,.185-3.371" transform="translate(-33.686 -33.53)" fill="none"/>
    </clipPath>
    <linearGradient id="linear-gradient-12" x1="-2.671" y1="16.116" x2="-2.591" y2="16.116" gradientUnits="objectBoundingBox">
      <stop offset="0" stop-color="#fcd8ca"/>
      <stop offset="0.126" stop-color="#fcd8ca"/>
      <stop offset="0.745" stop-color="#feefe8"/>
      <stop offset="1" stop-color="#feefe8"/>
    </linearGradient>
    <clipPath id="clip-path-23">
      <rect id="Rectángulo_403577" data-name="Rectángulo 403577" width="5.805" height="9.326" fill="none"/>
    </clipPath>
    <clipPath id="clip-path-24">
      <path id="Trazado_878378" data-name="Trazado 878378" d="M61.965,6.148c-.01.006-.016.011-.021.011a.269.269,0,0,1-.026.016.105.105,0,0,0-.022.017.031.031,0,0,0-.016.01,2.029,2.029,0,0,0-.268.193l-.006.006c-.832.6-3.065,2.217-3.188,2.217-.155.011-4.133,1.734-4.724,2.55s-1.466,2.126-1.466,2.126l.048,3.666a33.677,33.677,0,0,1-2.265,4.466c-.757,1.251-1.438,2.2-1.949,2.915a29.2,29.2,0,0,0-2.013,3.586,29.772,29.772,0,0,0-2.12,3.055,2.32,2.32,0,0,0,.043,1.245.9.9,0,0,0,.7.6.838.838,0,0,0-.091,1.482c.462.311,2.083-.579,2.083-.579l2.786-.4a2.384,2.384,0,0,0,1.063-.07c.579-.177.821-.247.821-.247s1.46-.392,2.072-.586a8.169,8.169,0,0,0,2.6-2.222c.59-.81,4.944-6.946,4.944-6.946s.9-.844,1.433-1.412a.173.173,0,0,0,.027-.038.88.88,0,0,0,.07-.07c.027-.032.058-.064.086-.1a2.086,2.086,0,0,0,.129-.166c.322-.451,1.315-.586,1.54-1.557a2.886,2.886,0,0,1,1.8-1.739l.032-.016c.51-.231,1.809-.966,2.131-1.154l.032-.016a.045.045,0,0,1,.022-.011.032.032,0,0,1,.021-.011,1.92,1.92,0,0,0,.274-.2,1.452,1.452,0,0,0,.129-.118,2.172,2.172,0,0,0,.285-.344c.033-.054.07-.107.1-.16a2.707,2.707,0,0,0,.188-.4V12.923l-6.93-6.93a1.681,1.681,0,0,0-.36.155" transform="translate(-43.863 -5.993)" fill="none"/>
    </clipPath>
    <linearGradient id="linear-gradient-13" x1="-0.702" y1="4.138" x2="-0.682" y2="4.138" gradientUnits="objectBoundingBox">
      <stop offset="0" stop-color="#ff9c78"/>
      <stop offset="0.173" stop-color="#ff9c78"/>
      <stop offset="0.817" stop-color="#ffa98a"/>
      <stop offset="1" stop-color="#ffa98a"/>
    </linearGradient>
    <clipPath id="clip-path-26">
      <rect id="Rectángulo_403581" data-name="Rectángulo 403581" width="7.435" height="10.124" fill="none"/>
    </clipPath>
    <clipPath id="clip-path-27">
      <path id="Trazado_878379" data-name="Trazado 878379" d="M75.582,14.94v2.823a2.785,2.785,0,0,1-.188.4c-.032.053-.07.107-.1.16a2.206,2.206,0,0,1-.285.344,1.452,1.452,0,0,1-.129.118,2.043,2.043,0,0,1-.274.2.032.032,0,0,0-.021.011.039.039,0,0,0-.021.01l-.033.016c-.322.188-1.621.924-2.131,1.154l-.032.016a2.885,2.885,0,0,0-1.8,1.739c-.226.972-1.219,1.105-1.541,1.557a2.085,2.085,0,0,1-.129.166c-.027.033-.059.064-.086.1a.881.881,0,0,1-.069.07.173.173,0,0,1-.027.038,6.016,6.016,0,0,1-.569-.37,43.893,43.893,0,0,1,1.783-5.056,6.3,6.3,0,0,1,.333-.591,10.844,10.844,0,0,1,3.129-3.484c.166-.1.328-.2.478-.3.183-.112.349-.22.505-.327Z" transform="translate(-68.147 -13.732)" fill="none"/>
    </clipPath>
    <linearGradient id="linear-gradient-14" x1="-4.205" y1="11.374" x2="-4.14" y2="11.374" gradientUnits="objectBoundingBox">
      <stop offset="0" stop-color="#fcd8ca"/>
      <stop offset="0.845" stop-color="#fef4ef"/>
      <stop offset="1" stop-color="#fef4ef"/>
    </linearGradient>
    <clipPath id="clip-path-28">
      <rect id="Rectángulo_403583" data-name="Rectángulo 403583" width="10.037" height="9.33" fill="none"/>
    </clipPath>
    <clipPath id="clip-path-29">
      <path id="Trazado_878380" data-name="Trazado 878380" d="M59.048,22.012a9.565,9.565,0,0,0-2.886,0,7.1,7.1,0,0,1-2.792,1.15,29.97,29.97,0,0,1-2.791,3.671,21.232,21.232,0,0,1-1.568,1.489s1.783-7.276,3.449-8.159,5.114-1.391,5.693-1.079.9,2.927.9,2.927" transform="translate(-49.011 -18.992)" fill="none"/>
    </clipPath>
    <linearGradient id="linear-gradient-15" x1="-3.611" y1="14.365" x2="-3.537" y2="14.365" gradientUnits="objectBoundingBox">
      <stop offset="0" stop-color="#f2c7b5"/>
      <stop offset="0.126" stop-color="#f2c7b5"/>
      <stop offset="0.745" stop-color="#f4ddd2"/>
      <stop offset="1" stop-color="#f4ddd2"/>
    </linearGradient>
    <clipPath id="clip-path-30">
      <path id="Trazado_878381" data-name="Trazado 878381" d="M53.242,9.728a7.354,7.354,0,0,0-1.678.347c-.983.313-3.842,1.5-4.189,1.643a4.323,4.323,0,0,0-1.331.648s-1.261,1.925-1.323,2.056-1.735,1.728-1.735,1.728a1.123,1.123,0,0,0-.254.595c.016.262.269,1.118,1.612.932s7.923-3.948,7.923-3.948l5.854-4.182Z" transform="translate(-42.731 -9.546)" fill="none"/>
    </clipPath>
    <linearGradient id="linear-gradient-16" x1="-2.05" y1="17.309" x2="-2.002" y2="17.309" xlink:href="#linear-gradient-13"/>
    <clipPath id="clip-path-32">
      <rect id="Rectángulo_403586" data-name="Rectángulo 403586" width="10.6" height="5.712" fill="none"/>
    </clipPath>
    <clipPath id="clip-path-33">
      <rect id="Rectángulo_403587" data-name="Rectángulo 403587" width="3.578" height="2.478" fill="none"/>
    </clipPath>
    <clipPath id="clip-path-34">
      <path id="Trazado_878385" data-name="Trazado 878385" d="M53.334,14.867c-.671.081-4.037.081-4.512.136a3.312,3.312,0,0,0-1.516.6l-6.1,4.605a12.4,12.4,0,0,0-2.129,2.082,6.276,6.276,0,0,0,1.551,5.254,3.076,3.076,0,0,0,4.4.517,24.625,24.625,0,0,0,3.363-3.779,15.9,15.9,0,0,0,2.234-4.162s.166-.005.745-.479a14.171,14.171,0,0,0,3.1-.255,3.52,3.52,0,0,0,.88.915,3.708,3.708,0,0,0,2.464.856c1-.023,2.268-.07,2.245-.856s-1.18-1.84-1.585-2.187-1.307-2.292-1.955-2.777a5.344,5.344,0,0,0-2.577-.5,5.286,5.286,0,0,0-.606.029" transform="translate(-38.958 -14.838)" fill="none"/>
    </clipPath>
    <linearGradient id="linear-gradient-17" x1="-1.011" y1="6.098" x2="-0.983" y2="6.098" gradientUnits="objectBoundingBox">
      <stop offset="0" stop-color="#ff9c78"/>
      <stop offset="0.173" stop-color="#ff9c78"/>
      <stop offset="0.915" stop-color="#ffb69c"/>
      <stop offset="1" stop-color="#ffb69c"/>
    </linearGradient>
    <clipPath id="clip-path-36">
      <rect id="Rectángulo_403591" data-name="Rectángulo 403591" width="8.942" height="3.16" fill="none"/>
    </clipPath>
    <clipPath id="clip-path-37">
      <path id="Trazado_878386" data-name="Trazado 878386" d="M55.709,20.622s2.869-.213,3.008-.3,1.1-1.2,1.1-1.2a3.357,3.357,0,0,1-.88,1.435,4.24,4.24,0,0,0,3.657,1.355,4.764,4.764,0,0,0,1.745-.411c-.059.714-1.281.758-2.243.78a3.708,3.708,0,0,1-2.465-.856,3.532,3.532,0,0,1-.879-.914,14.14,14.14,0,0,1-3.1.254c-.049.041-.094.076-.138.11A1.9,1.9,0,0,0,55.4,20.2Z" transform="translate(-55.396 -19.117)" fill="none"/>
    </clipPath>
    <linearGradient id="linear-gradient-18" x1="-4.581" y1="43.004" x2="-4.498" y2="43.004" xlink:href="#linear-gradient-12"/>
    <clipPath id="clip-path-38">
      <rect id="Rectángulo_403593" data-name="Rectángulo 403593" width="3.496" height="4.68" fill="none"/>
    </clipPath>
    <clipPath id="clip-path-39">
      <path id="Trazado_878387" data-name="Trazado 878387" d="M62.693,15.511l.008.005c.648.487,1.551,2.43,1.955,2.777a5.439,5.439,0,0,1,1.532,1.9,7.624,7.624,0,0,1-2-.885c-1.023-1.278-1.22-1.418-1.117-2.25a1.943,1.943,0,0,0-.378-1.545" transform="translate(-62.693 -15.511)" fill="none"/>
    </clipPath>
    <linearGradient id="linear-gradient-19" x1="-13.263" y1="29.815" x2="-13.051" y2="29.815" xlink:href="#linear-gradient-12"/>
    <clipPath id="clip-path-40">
      <rect id="Rectángulo_403594" data-name="Rectángulo 403594" width="0.03" height="0.013" fill="none"/>
    </clipPath>
    <clipPath id="clip-path-41">
      <rect id="Rectángulo_403596" data-name="Rectángulo 403596" width="10.72" height="13.373" fill="none"/>
    </clipPath>
    <clipPath id="clip-path-42">
      <path id="Trazado_878394" data-name="Trazado 878394" d="M48.575,34.987c.185-.231,3.066-3.748,3.3-4.142s2.326-4.316,3.158-5.8a54.38,54.38,0,0,1-2.723,5.608,15.065,15.065,0,0,1-1.358,1.774s-1.566,2.121-2,2.569a18.958,18.958,0,0,1-2.236,2.036c-.763.532-2.221,1.022-2.4,1.386a1.074,1.074,0,0,1,.477-.634,4.64,4.64,0,0,0,1.238-.613,30.874,30.874,0,0,0,2.546-2.187" transform="translate(-44.314 -25.048)" fill="none"/>
    </clipPath>
    <linearGradient id="linear-gradient-20" x1="-3.029" y1="9.907" x2="-2.961" y2="9.907" gradientUnits="objectBoundingBox">
      <stop offset="0" stop-color="#fde3d9"/>
      <stop offset="0.809" stop-color="#fcd8ca"/>
      <stop offset="1" stop-color="#fcd8ca"/>
    </linearGradient>
    <clipPath id="clip-path-43">
      <rect id="Rectángulo_403598" data-name="Rectángulo 403598" width="10.328" height="9.901" fill="none"/>
    </clipPath>
    <clipPath id="clip-path-44">
      <path id="Trazado_878395" data-name="Trazado 878395" d="M50.006,38.95c.428-.3,4.031-3.16,4.231-3.376S57.415,30.852,58,30.1c0,0,.174-.042-.139.49s-3.356,4.732-3.529,5.045-4.177,3.379-4.177,3.379l-1.817.9L47.722,40a20.345,20.345,0,0,0,2.284-1.047" transform="translate(-47.722 -30.096)" fill="none"/>
    </clipPath>
    <linearGradient id="linear-gradient-21" x1="-3.376" y1="12.953" x2="-3.305" y2="12.953" xlink:href="#linear-gradient-20"/>
    <clipPath id="clip-path-45">
      <rect id="Rectángulo_403599" data-name="Rectángulo 403599" width="5.808" height="4.636" fill="none"/>
    </clipPath>
    <clipPath id="clip-path-46">
      <rect id="Rectángulo_403600" data-name="Rectángulo 403600" width="4.661" height="6.486" fill="none"/>
    </clipPath>
    <clipPath id="clip-path-47">
      <rect id="Rectángulo_403601" data-name="Rectángulo 403601" width="2.935" height="3.861" fill="none"/>
    </clipPath>
  </defs>
  <g id="Grupo_1102482" data-name="Grupo 1102482" transform="translate(-179.711 -2136)">
    <rect id="Rectángulo_403556" data-name="Rectángulo 403556" width="144" height="92" rx="20" transform="translate(179.711 2195)" fill="#00cbda"/>
    <g id="Grupo_1102481" data-name="Grupo 1102481" transform="translate(197.056 2136)">
      <g id="Grupo_1102480" data-name="Grupo 1102480" clip-path="url(#clip-path)">
        <g id="Grupo_1102379" data-name="Grupo 1102379">
          <g id="Grupo_1102378" data-name="Grupo 1102378" clip-path="url(#clip-path)">
            <g id="Grupo_1102377" data-name="Grupo 1102377" transform="translate(0 86.717)" style="mix-blend-mode: multiply;isolation: isolate">
              <g id="Grupo_1102376" data-name="Grupo 1102376">
                <g id="Grupo_1102375" data-name="Grupo 1102375" clip-path="url(#clip-path-3)">
                  <g id="Grupo_1102374" data-name="Grupo 1102374" transform="translate(0 0)">
                    <g id="Grupo_1102373" data-name="Grupo 1102373" clip-path="url(#clip-path-4)">
                      <rect id="Rectángulo_403557" data-name="Rectángulo 403557" width="110.088" height="64.731" transform="translate(-0.416 -0.208)" fill="url(#linear-gradient)"/>
                    </g>
                  </g>
                </g>
              </g>
            </g>
            <path id="Trazado_878255" data-name="Trazado 878255" d="M135.793,126.979a.672.672,0,1,0,.672-.672.672.672,0,0,0-.672.672" transform="translate(-35.381 -32.91)" fill="#202020"/>
            <path id="Trazado_878256" data-name="Trazado 878256" d="M131.914,140.554a.672.672,0,1,0,.672-.672.672.672,0,0,0-.672.672" transform="translate(-34.371 -36.447)" fill="#202020"/>
            <path id="Trazado_878257" data-name="Trazado 878257" d="M108.349,142.875a.672.672,0,1,0,.671-.672.672.672,0,0,0-.671.672" transform="translate(-28.231 -37.052)" fill="#202020"/>
            <path id="Trazado_878258" data-name="Trazado 878258" d="M97.711,130.475a.672.672,0,1,0,.672-.672.672.672,0,0,0-.672.672" transform="translate(-25.459 -33.821)" fill="#202020"/>
            <path id="Trazado_878259" data-name="Trazado 878259" d="M114.46,120.837a.672.672,0,1,0,.672-.672.672.672,0,0,0-.672.672" transform="translate(-29.823 -31.309)" fill="#202020"/>
            <path id="Trazado_878260" data-name="Trazado 878260" d="M113.5,128.429l-6.737,7.914-.244.222-.852-.243V135.8l6.026-7.9-13.948-.6v-.521l14.272-.039-1.605-6.929-.03-.261v-.521l3.643,7.524,13.369-2.539v.521L114.943,127.6l9.62,6.435v.521l-.3.188-.373.216Z" transform="translate(-25.468 -31.014)" fill="#929fb3"/>
            <path id="Trazado_878261" data-name="Trazado 878261" d="M113.5,127.338l-6.737,8.452-.244.221-.852-.243,6.026-8.96-13.948-.061.155-.559,14.118-.539-1.605-6.391-.03-.261.943-.091,2.7,6.556,12.92-1.979.45.5-12.452,2.524,9.333,7.3.288.192-.3.188-.373.216Z" transform="translate(-25.468 -30.982)" fill="#acafb2"/>
            <path id="Trazado_878262" data-name="Trazado 878262" d="M106.738,135.6l6.8-8.531,10.424,7.088.3-.175.122-.078-.121-.08L114.7,126.34l12.506-2.533-.25-.279-12.951,1.985-2.7-6.561-.714.069.015.129,1.642,6.53-14.183.541-.084.3,14.021.062-6.062,9.013.609.174Z" transform="translate(-25.529 -30.993)" fill="silver"/>
            <path id="Trazado_878263" data-name="Trazado 878263" d="M116.645,126.762h0V120.92h2.991v5.839h0v0h0a.749.749,0,0,1-.441.609,2.337,2.337,0,0,1-2.115,0,.733.733,0,0,1-.434-.612" transform="translate(-30.392 -31.506)" fill="#979da7"/>
            <path id="Trazado_878264" data-name="Trazado 878264" d="M117.079,121.228a2.335,2.335,0,0,0,2.115,0A.644.644,0,0,0,119.2,120a2.337,2.337,0,0,0-2.115,0,.644.644,0,0,0-.007,1.221" transform="translate(-30.392 -31.202)" fill="#aaa"/>
            <path id="Trazado_878265" data-name="Trazado 878265" d="M117.195,117.932h0v-8h2.176v8a.548.548,0,0,1-.321.443,1.7,1.7,0,0,1-1.54,0,.536.536,0,0,1-.316-.446" transform="translate(-30.536 -28.643)" fill="#979da7"/>
            <path id="Trazado_878266" data-name="Trazado 878266" d="M117.511,110.154a1.7,1.7,0,0,0,1.54,0,.469.469,0,0,0,0-.889,1.7,1.7,0,0,0-1.539,0,.469.469,0,0,0-.005.889" transform="translate(-30.535 -28.421)" fill="#464646"/>
            <path id="Trazado_878267" data-name="Trazado 878267" d="M97.573,92.8a8.165,8.165,0,0,1-3.417-4.3c-.022-.56-.021-1.117,0-1.653a4.34,4.34,0,0,1,1.985-3.311l11.021-6.363a5.13,5.13,0,0,1,3.142-.761h.1a.753.753,0,0,1,.611.4,2.1,2.1,0,0,1,.29,1.21h0c-.009.3-.007.714-.005,1.188,0,.964.007,2.166-.058,3.192a9.927,9.927,0,0,1-3,5.86L100.2,92.91a2.275,2.275,0,0,1-1.154.312,3.049,3.049,0,0,1-1.472-.418m13.1-14.795a1.484,1.484,0,0,0-.183-.845.793.793,0,0,0-.1-.118h-.1a4.5,4.5,0,0,0-2.817.676L96.457,84.085a3.772,3.772,0,0,0-1.67,2.794c-.023.519-.023,1.057,0,1.6a7.927,7.927,0,0,0,3.092,3.773,1.947,1.947,0,0,0,2.007.112l8.044-4.644a9.551,9.551,0,0,0,2.683-5.355c.064-1,.059-2.194.057-3.149,0-.482,0-.9,0-1.206" transform="translate(-24.529 -19.909)" fill="#e0e0e0"/>
            <path id="Trazado_878268" data-name="Trazado 878268" d="M98.349,93.347a8.291,8.291,0,0,1-3.468-4.38c-.015-.342-.029-.938,0-1.661a4.443,4.443,0,0,1,2.031-3.39l11.022-6.363a5.3,5.3,0,0,1,3.288-.771.846.846,0,0,1,.688.439,2.178,2.178,0,0,1,.3,1.266c-.009.3-.007.711-.005,1.182,0,.967.008,2.171-.058,3.2a10.046,10.046,0,0,1-3.043,5.936l-8.044,4.644a2.37,2.37,0,0,1-1.2.325,3.138,3.138,0,0,1-1.514-.429M111.113,77.6a4.393,4.393,0,0,0-2.767.663L97.324,84.625A3.668,3.668,0,0,0,95.7,87.34c-.029.694-.014,1.266,0,1.593a7.942,7.942,0,0,0,3.1,3.727,1.813,1.813,0,0,0,1.855.082L108.7,88.1a9.4,9.4,0,0,0,2.635-5.28c.066-1,.061-2.191.058-3.146,0-.481,0-.9,0-1.205h0a1.405,1.405,0,0,0-.164-.789c-.039-.059-.065-.081-.1-.081a.071.071,0,0,0-.021,0" transform="translate(-24.717 -20.004)" fill="#e0e0e0"/>
            <path id="Trazado_878269" data-name="Trazado 878269" d="M109.173,76.46a7.254,7.254,0,0,0-1.071.517L97.08,83.339a5.565,5.565,0,0,0-2.1,2.453l-1.261-.728-.452-.441a24.3,24.3,0,0,1,2.556-2.011l11.021-6.363a7.181,7.181,0,0,1,1.071-.517l1.244.149Z" transform="translate(-24.3 -19.732)" fill="#2c3240"/>
            <path id="Trazado_878270" data-name="Trazado 878270" d="M109.156,75.677a12.835,12.835,0,0,0-1.506.654L96.629,82.695a5.562,5.562,0,0,0-2.105,2.453l-1.261-.728a5.565,5.565,0,0,1,2.1-2.453L106.389,75.6a12.962,12.962,0,0,1,1.506-.654Z" transform="translate(-24.3 -19.528)" fill="#31394c"/>
          </g>
        </g>
        <g id="Grupo_1102381" data-name="Grupo 1102381" transform="translate(85.892 28.131)">
          <g id="Grupo_1102380" data-name="Grupo 1102380" clip-path="url(#clip-path-5)">
            <rect id="Rectángulo_403560" data-name="Rectángulo 403560" width="53.988" height="43.381" transform="matrix(0.5, -0.866, 0.866, 0.5, -21.707, 37.597)" fill="url(#linear-gradient-2)"/>
          </g>
        </g>
        <g id="Grupo_1102383" data-name="Grupo 1102383" transform="translate(101.905 37.378)">
          <g id="Grupo_1102382" data-name="Grupo 1102382" clip-path="url(#clip-path-6)">
            <rect id="Rectángulo_403561" data-name="Rectángulo 403561" width="25.236" height="38.174" transform="translate(-17.703 10.22) rotate(-30)" fill="url(#linear-gradient-3)"/>
          </g>
        </g>
        <g id="Grupo_1102385" data-name="Grupo 1102385" transform="translate(70.08 66.072)">
          <g id="Grupo_1102384" data-name="Grupo 1102384" clip-path="url(#clip-path-7)">
            <rect id="Rectángulo_403562" data-name="Rectángulo 403562" width="34.816" height="38.48" transform="matrix(0.5, -0.866, 0.866, 0.5, -9.459, 16.366)" fill="url(#linear-gradient-4)"/>
          </g>
        </g>
        <g id="Grupo_1102387" data-name="Grupo 1102387" transform="translate(86.094 75.317)">
          <g id="Grupo_1102386" data-name="Grupo 1102386" clip-path="url(#clip-path-8)">
            <rect id="Rectángulo_403563" data-name="Rectángulo 403563" width="21.801" height="20.023" transform="translate(-5.596 3.22) rotate(-30)" fill="url(#linear-gradient-5)"/>
          </g>
        </g>
        <g id="Grupo_1102389" data-name="Grupo 1102389">
          <g id="Grupo_1102388" data-name="Grupo 1102388" clip-path="url(#clip-path)">
            <path id="Trazado_878275" data-name="Trazado 878275" d="M106.963,46.17c-2.136-.414-5.671,3.16-7.4,5.082s-6.718,8.03-7.922,10.232c-.225.411,2.353,4.117,5.549,1.9s7.947-6.927,9.3-9.805.472-7.414.472-7.414" transform="translate(-23.874 -12.021)" fill="#3b3f51"/>
            <path id="Trazado_878276" data-name="Trazado 878276" d="M85.956,132.451c0,.731-.882,1.315-.882,1.315s-5.661,3.033-5.972,3.417a5.051,5.051,0,0,0-.512,2.323c-.061.583,1.188,1.536,2.871,1.279a9.14,9.14,0,0,0,3.835-1.463c.827-.585,1.168-1.169,1.9-1.42.29-.1.152.291.6.3a7.216,7.216,0,0,0,2.712-.683,1.962,1.962,0,0,0,1.3-2.23c-.022-1.179-.211-2.944-.211-2.944L90.509,130.8Z" transform="translate(-20.476 -34.08)" fill="#33374a"/>
            <path id="Trazado_878277" data-name="Trazado 878277" d="M99.487,138.8c-.049.472-.544,2.237-.544,2.237s-5.32,6.134-5.676,6.738a4.72,4.72,0,0,0-.389,1.782s.766.938,3.3,1.126a5.9,5.9,0,0,0,5.757-3.126,10.535,10.535,0,0,1,1.176-1.9c.344-.344.418.037.742-.041.841-.909,1.948-2.233,1.948-2.747a21.491,21.491,0,0,0-1.316-4.38Z" transform="translate(-24.2 -36.084)" fill="#33374a"/>
            <path id="Trazado_878278" data-name="Trazado 878278" d="M107.787,84.831c-7.57,4.608-18.138,13.348-18.54,14.7a7.782,7.782,0,0,0,.4,4.9c.658,1.279,3.186,1.9,4.622,1.421s1.27-.6,1.27-.6,15.573-9.123,16.524-10.184,1.48-8,1.48-8Z" transform="translate(-23.195 -22.103)" fill="#363c53"/>
            <path id="Trazado_878279" data-name="Trazado 878279" d="M115.847,87.153s-1.316.475-2.852,3.182-1.39,4.132-1.39,4.132-8.923,6.217-9.471,7.57a10.032,10.032,0,0,0-.256,5.741c.548,1.829,4.059,1.609,5.155,1.28s1.033-1.03,1.033-1.03.978-.872,2.661-2.334,6.729-2.706,12.507-6.18,5.116-7.339,4.607-11.077a11.66,11.66,0,0,0-2.3-5.781Z" transform="translate(-26.465 -21.536)" fill="#3b4157"/>
            <path id="Trazado_878280" data-name="Trazado 878280" d="M105.733,111.717s-4.578-.568-4.305,2.088-.2,15.137-.532,19.443c-.1.793,2.6,1.046,3.536.932a3.01,3.01,0,0,0,2.624-2.025c.055-.741,1.029-8.98,1.371-11.528s-.172-6.442-.007-7.511-2.687-1.4-2.687-1.4" transform="translate(-26.288 -29.095)" fill="#3b4157"/>
            <path id="Trazado_878281" data-name="Trazado 878281" d="M93.177,104.323s-4.149-1.547-4.289,1.12-.219,16.106-.548,20.412c0,.826,1.812,1.455,3.279,1.208,1.868-.316,2.472-1.336,2.51-1.857.055-.741,2.019-11.671,1.742-14.227a20.1,20.1,0,0,1-.007-5.256c.164-1.07-2.688-1.4-2.688-1.4" transform="translate(-23.017 -27.065)" fill="#363c53"/>
            <path id="Trazado_878282" data-name="Trazado 878282" d="M126.783,59.032s1.367-6.486-.91-8.076-9.7-4.887-9.7-4.887-7.548.382-8.179,1.836a19.4,19.4,0,0,0-.639,8.395c.412,3.511,2.659,7.575,5.238,18.685.191.82,2.76,3.849,8.767,3.849s6.9-2.765,6.932-3.532-.106-4.428-.106-4.428Z" transform="translate(-27.93 -12.003)" fill="#eaeef9"/>
            <path id="Trazado_878283" data-name="Trazado 878283" d="M114.533,69.384c-3.073-5.285-4.755-15.328-3.511-19.041s2.65-4.4,2.65-4.4-3.694-.421-5.182,1.2-1.9,4.023-1.371,8.521,4.624,16.115,4.941,18.9,4.085,3.041,4.91,2.924-2.437-8.107-2.437-8.107" transform="translate(-27.853 -11.959)" fill="#33374a"/>
            <path id="Trazado_878284" data-name="Trazado 878284" d="M115.392,70.106s-2.68-9.2-3.308-12.375.142-7.2,1.057-7.979-.243-1.7-1.542-.521-1.609,4.477-1.279,7.139,2.235,11.312,5.073,13.737" transform="translate(-28.712 -12.681)" fill="#3b3f51"/>
            <path id="Trazado_878285" data-name="Trazado 878285" d="M121.045,47.3c1.888,1.752,3.281,1.6,1.114,7.756s-5.084,13.5-4.962,14.786.79,9.2,3.325,9.694,6.353,1.213,9.282-1.042,1.833-4.008,1.1-7.085-.528-18.61-2.125-20.2-9.353-5.148-9.353-5.148-1.571-.3,1.617,1.239" transform="translate(-30.535 -11.995)" fill="#33374a"/>
            <path id="Trazado_878286" data-name="Trazado 878286" d="M122.641,107.277a8.157,8.157,0,0,1-3.417-4.3c-.023-.561-.021-1.117,0-1.653a4.4,4.4,0,0,1,1.984-3.312l11.021-6.363a5.11,5.11,0,0,1,3.145-.76h.1a.755.755,0,0,1,.609.4,2.1,2.1,0,0,1,.29,1.21h0c-.008.3-.006.714-.005,1.188,0,.964.007,2.165-.058,3.191a9.927,9.927,0,0,1-3,5.861l-8.044,4.644a2.275,2.275,0,0,1-1.154.313,3.045,3.045,0,0,1-1.471-.419m13.1-14.794a1.491,1.491,0,0,0-.182-.845.747.747,0,0,0-.1-.117l-.1,0a4.493,4.493,0,0,0-2.818.675l-11.021,6.364a3.769,3.769,0,0,0-1.67,2.794c-.022.52-.022,1.058,0,1.6a7.924,7.924,0,0,0,3.092,3.772,1.948,1.948,0,0,0,2.006.113L133,102.192a9.551,9.551,0,0,0,2.683-5.354c.064-1.006.059-2.194.057-3.149,0-.482,0-.9,0-1.206" transform="translate(-31.06 -23.68)" fill="#e0e0e0"/>
            <path id="Trazado_878287" data-name="Trazado 878287" d="M123.414,107.817a8.282,8.282,0,0,1-3.464-4.378c-.015-.343-.029-.938,0-1.661a4.441,4.441,0,0,1,2.031-3.39L133,92.025a5.3,5.3,0,0,1,3.289-.771.848.848,0,0,1,.688.44,2.175,2.175,0,0,1,.3,1.264c-.008.3-.006.711,0,1.182,0,.967.008,2.17-.058,3.2a10.048,10.048,0,0,1-3.044,5.936l-8.044,4.644a2.377,2.377,0,0,1-1.2.325,3.144,3.144,0,0,1-1.517-.43m12.769-15.746a4.375,4.375,0,0,0-2.771.663L122.392,99.1a3.665,3.665,0,0,0-1.623,2.716c-.029.694-.015,1.265,0,1.594a7.93,7.93,0,0,0,3.1,3.725,1.813,1.813,0,0,0,1.855.082l8.044-4.645A9.4,9.4,0,0,0,136.4,97.29c.066-1,.061-2.191.057-3.145,0-.482,0-.9,0-1.206h0a1.4,1.4,0,0,0-.164-.788c-.039-.058-.066-.081-.1-.081a.07.07,0,0,0-.021,0" transform="translate(-31.249 -23.775)" fill="#e0e0e0"/>
            <path id="Trazado_878288" data-name="Trazado 878288" d="M134.241,90.932a7.259,7.259,0,0,0-1.071.517l-11.021,6.363a5.556,5.556,0,0,0-2.1,2.453l-1.261-.728-.452-.441a24.485,24.485,0,0,1,2.556-2.011l11.021-6.364a7.255,7.255,0,0,1,1.071-.517l1.244.149Z" transform="translate(-30.832 -23.503)" fill="#2c3240"/>
            <path id="Trazado_878289" data-name="Trazado 878289" d="M134.224,90.15a12.961,12.961,0,0,0-1.506.654L121.7,97.167a5.557,5.557,0,0,0-2.105,2.453l-1.261-.728a5.552,5.552,0,0,1,2.1-2.453l11.021-6.363a12.713,12.713,0,0,1,1.506-.654Z" transform="translate(-30.832 -23.299)" fill="#31394c"/>
            <path id="Trazado_878290" data-name="Trazado 878290" d="M122,48.27c1.215,1.307.612,4.233-.626,6.925s-4.156,14.459-4.156,14.459a71.805,71.805,0,0,0,5.842-12.107c1.949-5.757,1.779-7.428,1.408-8.124a5.729,5.729,0,0,0-4.068-2.49c1.159,1.02,1.6,1.338,1.6,1.338" transform="translate(-30.543 -12.228)" fill="#3b3f51"/>
            <path id="Trazado_878291" data-name="Trazado 878291" d="M93.7,75.759l-4.517.03v35.63h0a1.117,1.117,0,0,0,.655.912,3.531,3.531,0,0,0,3.194-.006,1.125,1.125,0,0,0,.665-.933h0Z" transform="translate(-23.236 -19.739)" fill="#a8abb5"/>
            <path id="Trazado_878292" data-name="Trazado 878292" d="M128.621,98.629a3.531,3.531,0,0,0,3.194-.006.974.974,0,0,0,.01-1.844,3.53,3.53,0,0,0-3.194.006.973.973,0,0,0-.01,1.844" transform="translate(-33.342 -25.117)" fill="#a8abb5"/>
          </g>
        </g>
        <g id="Grupo_1102391" data-name="Grupo 1102391" transform="translate(94.622 72.577)">
          <g id="Grupo_1102390" data-name="Grupo 1102390" clip-path="url(#clip-path-10)">
            <rect id="Rectángulo_403565" data-name="Rectángulo 403565" width="4.518" height="37.08" fill="url(#linear-gradient-6)"/>
          </g>
        </g>
        <g id="Grupo_1102393" data-name="Grupo 1102393">
          <g id="Grupo_1102392" data-name="Grupo 1102392" clip-path="url(#clip-path)">
            <path id="Trazado_878294" data-name="Trazado 878294" d="M28.7,113.285l-4.517.03v35.63h0a1.115,1.115,0,0,0,.655.912,3.53,3.53,0,0,0,3.194-.005,1.126,1.126,0,0,0,.666-.933h0Z" transform="translate(-6.301 -29.517)" fill="#a8abb5"/>
            <path id="Trazado_878295" data-name="Trazado 878295" d="M46.181,158.073a9.759,9.759,0,0,0-1.069,2.828c-.084.993-.248,3.059-.266,3.754s.567,1.609,2.743,1.316a5.057,5.057,0,0,0,2.777-1.423c.291-.43.393-.643.818-.821.877-.365.741-.118,2.843-.606s2.76-1.227,2.668-2.855-.64-1.442-3.126-1.315-4.205.163-4.205.163Z" transform="translate(-11.685 -41.187)" fill="#33374a"/>
            <path id="Trazado_878296" data-name="Trazado 878296" d="M45.659,136.166s-.529,18.275-.566,19.044,4.99,1.383,5.33-.66c.2-1.175,1.038-22.132,1.038-22.132Z" transform="translate(-11.749 -34.502)" fill="#363c53"/>
            <path id="Trazado_878297" data-name="Trazado 878297" d="M59.94,166.3c.549-.036,5.488-.853,6.457-.487a1.95,1.95,0,0,1,1.111,1.969c-.025.492-.143,1.431-1.9,2.357-.749.395-2.888.713-3.382.951s-2.513,1.594-4.378,1.52-2.723-.773-2.669-1.6a22.877,22.877,0,0,1,.648-4.355c.274-.384,4.114-.36,4.114-.36" transform="translate(-14.377 -43.179)" fill="#33374a"/>
            <path id="Trazado_878298" data-name="Trazado 878298" d="M59.468,138.356c-2.289.1-4.022,2.445-4.006,8.067s.027,13.006.123,13.768c.108.855,5.584,1.783,5.832-.584.192-1.831.583-7.192,1.012-12.256.846-9.985-.135-11.677-.135-11.677Z" transform="translate(-14.451 -35.35)" fill="#3b4157"/>
            <path id="Trazado_878299" data-name="Trazado 878299" d="M48.247,178.933a.747.747,0,1,0,.747-.747.747.747,0,0,0-.747.747" transform="translate(-12.571 -46.427)" fill="#202020"/>
            <path id="Trazado_878300" data-name="Trazado 878300" d="M43.937,194.018a.747.747,0,1,0,.747-.747.747.747,0,0,0-.747.747" transform="translate(-11.448 -50.358)" fill="#202020"/>
            <path id="Trazado_878301" data-name="Trazado 878301" d="M17.75,196.6a.747.747,0,1,0,.747-.747.747.747,0,0,0-.747.747" transform="translate(-4.625 -51.03)" fill="#202020"/>
            <path id="Trazado_878302" data-name="Trazado 878302" d="M5.93,182.819a.747.747,0,1,0,.747-.747.747.747,0,0,0-.747.747" transform="translate(-1.545 -47.44)" fill="#202020"/>
            <path id="Trazado_878303" data-name="Trazado 878303" d="M24.541,172.109a.747.747,0,1,0,.747-.747.747.747,0,0,0-.747.747" transform="translate(-6.394 -44.649)" fill="#202020"/>
            <path id="Trazado_878304" data-name="Trazado 878304" d="M23.477,180.544l-7.486,8.795-.271.245-.946-.269v-.58l6.7-8.779-15.5-.665v-.58l15.86-.043-1.784-7.7-.033-.291v-.58l4.048,8.361,14.855-2.82v.579l-13.837,3.4,10.689,7.15v.58l-.328.208-.416.24Z" transform="translate(-1.555 -44.32)" fill="#929fb3"/>
            <path id="Trazado_878305" data-name="Trazado 878305" d="M23.477,179.333l-7.486,9.392-.271.246-.946-.27,6.7-9.956-15.5-.069.172-.621,15.688-.6-1.784-7.1-.033-.291,1.048-.1,3,7.285,14.356-2.2.5.555-13.837,2.8,10.371,8.114.319.213-.328.209-.416.24Z" transform="translate(-1.555 -44.285)" fill="#acafb2"/>
            <path id="Trazado_878306" data-name="Trazado 878306" d="M15.961,188.512l7.553-9.48L35.1,186.908l.336-.194.135-.086-.134-.089-10.627-8.315,13.9-2.816-.278-.309L24.036,177.3l-3-7.292-.794.076.016.145,1.824,7.256-15.761.6-.093.336,15.581.07-6.736,10.015.677.193Z" transform="translate(-1.622 -44.298)" fill="silver"/>
            <path id="Trazado_878307" data-name="Trazado 878307" d="M26.969,178.692h0V172.2h3.323v6.492h0a.835.835,0,0,1-.49.677,2.6,2.6,0,0,1-2.35,0,.816.816,0,0,1-.483-.68" transform="translate(-7.027 -44.867)" fill="#979da7"/>
            <path id="Trazado_878308" data-name="Trazado 878308" d="M27.451,172.543a2.6,2.6,0,0,0,2.35,0,.716.716,0,0,0,.007-1.357,2.6,2.6,0,0,0-2.35,0,.716.716,0,0,0-.007,1.357" transform="translate(-7.027 -44.529)" fill="#aaa"/>
            <path id="Trazado_878309" data-name="Trazado 878309" d="M27.581,168.88h0v-8.891H30v8.891a.609.609,0,0,1-.356.492,1.894,1.894,0,0,1-1.71,0,.593.593,0,0,1-.351-.5" transform="translate(-7.186 -41.686)" fill="#979da7"/>
            <path id="Trazado_878310" data-name="Trazado 878310" d="M27.932,160.238a1.891,1.891,0,0,0,1.71,0,.521.521,0,0,0,.005-.987,1.889,1.889,0,0,0-1.71,0,.521.521,0,0,0-.005.987" transform="translate(-7.186 -41.44)" fill="#464646"/>
            <path id="Trazado_878311" data-name="Trazado 878311" d="M6.954,144.7A3.2,3.2,0,0,1,5.3,141.938c-.075-1.071-.07-2.425-.066-3.511,0-.516,0-.966,0-1.283a4.332,4.332,0,0,1,.291-1.617,2.921,2.921,0,0,1,.474-.875l.108-.129A12.514,12.514,0,0,1,9.525,131.4l12.247-7.07a1.879,1.879,0,0,1,1.868-.16,1.788,1.788,0,0,1,.845,1.582c.035.762.018,1.444,0,1.842-.037.957-3.424,10.4-6.418,12.131l-8.939,5.161a1.582,1.582,0,0,1-.777.172,3.074,3.074,0,0,1-1.4-.359M22.228,125.12,9.981,132.19a11.633,11.633,0,0,0-3.189,2.924l-.11.129a2.112,2.112,0,0,0-.314.606,3.4,3.4,0,0,0-.231,1.273c.007.324.005.783,0,1.31,0,1.072-.01,2.406.064,3.444A2.3,2.3,0,0,0,7.382,143.9a1.74,1.74,0,0,0,1.3.2l8.939-5.161c2.592-1.5,5.925-10.495,5.962-11.379.015-.382.03-1.035,0-1.766a.939.939,0,0,0-.375-.824.605.605,0,0,0-.291-.068,1.424,1.424,0,0,0-.684.217" transform="translate(-1.361 -32.306)" fill="#e0e0e0"/>
            <path id="Trazado_878312" data-name="Trazado 878312" d="M7.9,145.249a3.208,3.208,0,0,1-1.66-2.765c-.072-1.06-.069-2.4-.064-3.481,0-.529,0-.989-.005-1.312h0a4.339,4.339,0,0,1,.291-1.614,2.937,2.937,0,0,1,.474-.876l.1-.123a12.5,12.5,0,0,1,3.433-3.127l12.246-7.07a1.87,1.87,0,0,1,1.866-.16,1.786,1.786,0,0,1,.846,1.58c.026.569.027,1.19,0,1.842-.035.956-3.418,10.4-6.418,12.132l-8.939,5.161a1.579,1.579,0,0,1-.776.172,3.075,3.075,0,0,1-1.4-.359m15.273-19.582-12.247,7.07a11.67,11.67,0,0,0-3.2,2.93l-.1.122a2.046,2.046,0,0,0-.314.607,3.387,3.387,0,0,0-.233,1.273c.008.329.007.8,0,1.336,0,1.065-.007,2.388.064,3.416a2.3,2.3,0,0,0,1.179,2.025,1.73,1.73,0,0,0,1.294.2l8.939-5.161c2.6-1.5,5.927-10.494,5.963-11.378.014-.382.032-1.035,0-1.767a.936.936,0,0,0-.375-.824.592.592,0,0,0-.291-.068,1.42,1.42,0,0,0-.683.217" transform="translate(-1.608 -32.449)" fill="#e0e0e0"/>
            <path id="Trazado_878313" data-name="Trazado 878313" d="M26.538,125.126A1.852,1.852,0,0,0,24.2,125.1l-12.247,7.071a10.328,10.328,0,0,0-1.191.8l-1.4-.809v-.8a3.65,3.65,0,0,0,1.191,0L22.8,124.292c.961-.554,2.11-.958,2.635-.425a5.463,5.463,0,0,1,1.105.459c.339.191,0,.8,0,.8" transform="translate(-2.439 -32.209)" fill="#a06238"/>
            <path id="Trazado_878314" data-name="Trazado 878314" d="M26.538,124.173a2.1,2.1,0,0,0-2.339-.025l-12.247,7.071a10.423,10.423,0,0,0-1.191.8l-1.4-.809a10.328,10.328,0,0,1,1.191-.8L22.8,123.339a2.347,2.347,0,0,1,2.339.025Z" transform="translate(-2.439 -32.056)" fill="#c48358"/>
            <path id="Trazado_878315" data-name="Trazado 878315" d="M10.685,145.988l16.235-9.372a.886.886,0,0,1,.952-.069h0l17.784,10.267-19.3,15.167L8.566,151.7Z" transform="translate(-2.232 -35.55)" fill="#3e4963"/>
          </g>
        </g>
        <g id="Grupo_1102395" data-name="Grupo 1102395" transform="translate(24.13 111.162)">
          <g id="Grupo_1102394" data-name="Grupo 1102394" clip-path="url(#clip-path-12)">
            <rect id="Rectángulo_403567" data-name="Rectángulo 403567" width="24.703" height="23.077" transform="matrix(0.866, -0.5, 0.5, 0.866, -6.611, 3.817)" fill="url(#linear-gradient-7)"/>
          </g>
        </g>
        <g id="Grupo_1102397" data-name="Grupo 1102397">
          <g id="Grupo_1102396" data-name="Grupo 1102396" clip-path="url(#clip-path)">
            <path id="Trazado_878317" data-name="Trazado 878317" d="M35.461,127.942c4.968-2.866,6.66-1.885,8.3-.927s1.219,3.068,1.192,3.742S31.5,145.3,24.871,144.7c-3.154-.285-5.592-4.823-4.475-8.811,1.588-5.674,15.065-7.945,15.065-7.945" transform="translate(-5.243 -32.842)" fill="#363c53"/>
            <path id="Trazado_878318" data-name="Trazado 878318" d="M25.624,138.574c-.22,4.242-.282,7.6,2.973,9.5s9.571.807,13.077-1,9.279-5.718,10.3-6.232,2.732-5.48,2.522-5.944-.237-.795-1.641-1.673-3.749-.45-4.641-.1-8.905,4.417-8.905,4.417l-3.4-.768Z" transform="translate(-6.653 -34.578)" fill="#3b4157"/>
          </g>
        </g>
        <g id="Grupo_1102399" data-name="Grupo 1102399" transform="translate(46.561 100.325)">
          <g id="Grupo_1102398" data-name="Grupo 1102398" clip-path="url(#clip-path-14)">
            <rect id="Rectángulo_403569" data-name="Rectángulo 403569" width="4.517" height="37.081" fill="url(#linear-gradient-8)"/>
          </g>
        </g>
        <g id="Grupo_1102401" data-name="Grupo 1102401">
          <g id="Grupo_1102400" data-name="Grupo 1102400" clip-path="url(#clip-path)">
            <path id="Trazado_878320" data-name="Trazado 878320" d="M106.853,92.255l-1.554.2c-.067-.043-.127-.088-.2-.129L77.833,76.589c-2.595-1.5-7.128-1.31-10.125.42L22.662,103.016a7.565,7.565,0,0,0-.654.427l-1.825.241v2.606l.007,0a2.986,2.986,0,0,0,1.744,2.569L49.2,124.6c2.6,1.5,7.129,1.31,10.125-.42l45.046-26.007c1.647-.951,2.482-2.169,2.473-3.322l.006,0Z" transform="translate(-5.259 -19.692)" fill="#d67e4a"/>
            <path id="Trazado_878321" data-name="Trazado 878321" d="M49.2,121.089,21.935,105.346c-2.6-1.5-2.27-4.116.727-5.846L67.708,73.493c3-1.73,7.531-1.918,10.126-.42L105.1,88.815c2.595,1.5,2.269,4.116-.728,5.846L59.328,120.669c-3,1.73-7.531,1.918-10.126.42" transform="translate(-5.259 -18.776)" fill="#f8bb72"/>
            <path id="Trazado_878322" data-name="Trazado 878322" d="M89.837,76.237a3.529,3.529,0,0,0,3.194-.006.973.973,0,0,0,.01-1.843,3.528,3.528,0,0,0-3.194.005.973.973,0,0,0-.01,1.844" transform="translate(-23.236 -19.283)" fill="#a8abb5"/>
            <path id="Trazado_878323" data-name="Trazado 878323" d="M24.84,113.763a3.529,3.529,0,0,0,3.194-.006.974.974,0,0,0,.01-1.844,3.53,3.53,0,0,0-3.194.006.973.973,0,0,0-.01,1.844" transform="translate(-6.301 -29.061)" fill="#a8abb5"/>
            <path id="Trazado_878324" data-name="Trazado 878324" d="M128.621,98.629a3.531,3.531,0,0,0,3.194-.006.974.974,0,0,0,.01-1.844,3.53,3.53,0,0,0-3.194.006.973.973,0,0,0-.01,1.844" transform="translate(-33.342 -25.117)" fill="#a8abb5"/>
            <path id="Trazado_878325" data-name="Trazado 878325" d="M83.639,96.265,69.222,87.941,88.7,76.7l14.416,8.324Z" transform="translate(-18.036 -19.984)" fill="#fff"/>
            <path id="Trazado_878326" data-name="Trazado 878326" d="M110.954,47.233a11.59,11.59,0,0,1,2.147,3.886c.413.692,2.424,1.33,3.782.69a5.862,5.862,0,0,0,3.136-4.007,1.874,1.874,0,0,0-.308-1.73,7.213,7.213,0,0,1-2.23-3.446c-.414-1.945-2.084-4.278-3.126-3.876s-4.333,3.967-4.333,3.967Z" transform="translate(-28.667 -10.084)" fill="#ff9c78"/>
            <path id="Trazado_878327" data-name="Trazado 878327" d="M120.208,47.447c.475.686.072,2.888-1.135,4.157a4.352,4.352,0,0,1-3.546,1.636v.7l.65,1.676s2.291.31,4.766-2.181,1.238-4.357.975-4.755a10.348,10.348,0,0,0-1.7-1.605l-.252-.146s-.138.186.246.515" transform="translate(-30.101 -12.228)" fill="#f8f7fb"/>
            <path id="Trazado_878328" data-name="Trazado 878328" d="M115.274,54.976s.325.147-.311-.147a2.625,2.625,0,0,1-1.346-1.8,6.1,6.1,0,0,0,.038,3.6c.543-.449,1.307-1.1,1.307-1.1Z" transform="translate(-29.538 -13.817)" fill="#f8f7fb"/>
            <path id="Trazado_878329" data-name="Trazado 878329" d="M112.178,40.279c.109.365,1.938,4.187,1.92,4.772s1.4,1.763-3.641,4.54c-1.012.557-2.411-.371-2.7-.664a70.121,70.121,0,0,1-3.6-7.113,9.774,9.774,0,0,1-.723-5.4c.348-1.079,2.752-2.046,4.837-1.753s3.913,5.613,3.913,5.613" transform="translate(-26.911 -9.019)" fill="#ff9c78"/>
            <path id="Trazado_878330" data-name="Trazado 878330" d="M96.508,66.355c-.6-1.07-3.549-1.168-4.209-.887s-1.25.128-1.992,2.506c-.241.77-1.655,6.464-1.436,7.589s3.745,2.609,4.732.387,3.183-7.108,3.252-7.834a4.416,4.416,0,0,0-.347-1.761" transform="translate(-23.15 -17.023)" fill="#3b3f51"/>
            <path id="Trazado_878331" data-name="Trazado 878331" d="M92.062,77.183c-.672-.384-1.372-.6-1.8-.22s-.37.233-.809.453-.795.919-.973,1.125-.659.576-.905.823-.22,1.152-.22,1.152a13.592,13.592,0,0,0,1.179,1.961c.329.3,1.974.219,2.07.206a5.712,5.712,0,0,0,1.838-.055.845.845,0,0,0,.425-.741Z" transform="translate(-22.761 -20.001)" fill="#ff9c78"/>
            <path id="Trazado_878332" data-name="Trazado 878332" d="M94.912,79.676l-1.33-2.345s-.535.878-.356,1.316.727,1.426.727,1.426-.521,1.193-.233,1.673.918.6.973.22.22-2.29.22-2.29" transform="translate(-24.281 -20.149)" fill="#ff9c78"/>
            <path id="Trazado_878333" data-name="Trazado 878333" d="M91.081,77.068a9.1,9.1,0,0,0,.316,2.1s.987,3.716,1.385,3.908.905.138.864-.369-.685-3.443-.685-3.443l-.324-2.314a1.06,1.06,0,0,0-1.555.113" transform="translate(-23.728 -19.974)" fill="#ff9c78"/>
            <path id="Trazado_878334" data-name="Trazado 878334" d="M103.874,87.318s-1.341.9-1.835.758-.878,0-.969.2.109.75,1.115.951,3.912-1.079,3.912-1.079Z" transform="translate(-26.329 -22.751)" fill="#ff9c78"/>
            <path id="Trazado_878335" data-name="Trazado 878335" d="M104.666,37.6a7.815,7.815,0,0,0,5.493.922s.5.9.612,1.073.755.85.755.85l.816,1.314.881-.538s-.62-2.186.751-2.643.378,1.263,1.146,2.251,1.151.93,1.151.93a3.454,3.454,0,0,1,.072-1.838,8.635,8.635,0,0,0-.773-7.2,4.35,4.35,0,0,0-3.545-2.244s-1.7-2.161-5.338-.882-4.077,4.551-3.827,6.629c.06.5.563,2.179.563,2.179s-.351-2.739-.12-2.231a4.444,4.444,0,0,0,1.362,1.423" transform="translate(-26.786 -7.606)" fill="#553012"/>
            <path id="Trazado_878336" data-name="Trazado 878336" d="M116.989,43.2a1.411,1.411,0,0,1,.77-1.838c1.056-.384,1.069.836,1.015,1.645s-.137,1.742-.795,1.988-.823-.576-.823-.809a8.347,8.347,0,0,0-.167-.987" transform="translate(-30.457 -10.759)" fill="#ff9c78"/>
            <path id="Trazado_878337" data-name="Trazado 878337" d="M122.013,77.6c-5.449,2.962-11.848,6.4-14.115,6.583s-4.425.475-4.425.475-4.012,2.666-4.213,2.885,0,.658,0,.658-.457.073-.22.622a.646.646,0,0,0,.841.311,1.03,1.03,0,0,0,.694.292,4.283,4.283,0,0,0,1.207-.347.73.73,0,0,0,.841.53c.658-.128,3.666-1.3,3.666-1.3a7.12,7.12,0,0,0,2.487-.41c1.006-.439,1-.842,1.424-1.19S116.949,86,120.624,84.6s5.787-2.3,6.2-3.7a2.248,2.248,0,0,0-.74-2.3s-2.815-1.667-4.068-.987" transform="translate(-25.787 -20.177)" fill="#ff9c78"/>
            <path id="Trazado_878338" data-name="Trazado 878338" d="M130.2,72.686c-.109-.082-.073,1.1-.832-1.673a90.864,90.864,0,0,1-1.965-11.485c-.192-2.414-.685-5.211,1.4-7.048l.714-.329a2.831,2.831,0,0,1,1.96.688c.777.763,1.523,1.643,2.127,6.058s1.6,12.847.665,15.727a27.626,27.626,0,0,1-4.065-1.937" transform="translate(-33.146 -13.587)" fill="#3b3f51"/>
            <path id="Trazado_878339" data-name="Trazado 878339" d="M125.553,77.66c-2.252.862-12.383,5.464-12.757,5.7a.5.5,0,0,0-.2.629,3.314,3.314,0,0,1,1.12,1.319,1.472,1.472,0,0,1,.116,1.409s.274.311.448.283a47.243,47.243,0,0,0,9.537-1.991c5.6-2.048,6-2.606,6.629-3.74.211-1.041-4.9-3.611-4.9-3.611" transform="translate(-29.328 -20.235)" fill="#3b3f51"/>
            <path id="Trazado_878340" data-name="Trazado 878340" d="M63.624,136.155a3.529,3.529,0,0,0,3.194-.006.974.974,0,0,0,.01-1.844,3.53,3.53,0,0,0-3.194.006.973.973,0,0,0-.01,1.844" transform="translate(-16.406 -34.895)" fill="#a8abb5"/>
            <path id="Trazado_878341" data-name="Trazado 878341" d="M51.488,110.49c1.051-.337,1.162-.977,2.173-1.08s1.339-.287,1.471-.57-.711-.685-.824-.677a19.069,19.069,0,0,0-2.469-.964,8.815,8.815,0,0,0-2.489,0c-.5.165-2.6,2.148-3.008,2.2s-2.473,2.063,0,2.255a11.414,11.414,0,0,0,5.147-1.162" transform="translate(-11.763 -27.907)" fill="#ff9c78"/>
            <path id="Trazado_878342" data-name="Trazado 878342" d="M46.061,112.631c.043-1.154-.563-3.441-2.424-2.763-1.95.71-6.423,1.833-6.423,1.833s-3.6,6.571-.632,6,9.479-5.071,9.479-5.071" transform="translate(-9.227 -28.594)" fill="#3b3f51"/>
            <path id="Trazado_878343" data-name="Trazado 878343" d="M51.112,111.726a3.328,3.328,0,0,0,2.2-.555c.681-.346,1.216-.485,1.41-.8s.007-.63-.534-.612a6.824,6.824,0,0,0-1.723.518,9.731,9.731,0,0,0-1.682.07c-.568.171-.845,1.236.326,1.383" transform="translate(-13.105 -28.597)" fill="#ff9c78"/>
            <path id="Trazado_878344" data-name="Trazado 878344" d="M35.778,127.214c.585,2.56-2.018,4.165-6.333,4.494s-9.483-3.432-9.532-4.648.285-9.121-.007-10.8-2.757-11.087-1.3-15.843c1.3-4.254,7.054-2.652,7.054-2.652s9.168,4.233,10.521,5.879-.366,11.994-.439,14.444.038,9.128.038,9.128" transform="translate(-4.729 -25.395)" fill="#33374a"/>
            <path id="Trazado_878345" data-name="Trazado 878345" d="M38.081,104.675a4.079,4.079,0,0,0-2.669,3.8c-.037,2.084,3.364,6.583,3.364,6.583s8.294,7.709,10.087,7.453,2.925-2.706,3-3.254-1.791-3.235-1.791-3.235-8.164-9.776-9.517-10.639a4,4,0,0,0-2.472-.71" transform="translate(-9.227 -27.271)" fill="#3b3f51"/>
            <path id="Trazado_878346" data-name="Trazado 878346" d="M63.885,117.393a9.561,9.561,0,0,0,1.1-.727.974.974,0,0,1,.178-.864,4.2,4.2,0,0,1,1.33-.974,5.209,5.209,0,0,0,1.494-.165.827.827,0,0,1,.823.083s1.358-.261,1.687-.288a.912.912,0,0,1,.631.33.887.887,0,0,1,.8-.041c.37.206.206.466.206.466s.438.206.247.535a1.69,1.69,0,0,1-.329.438s.493.22.151.563-1.523,1.015-1.866,1.344a11.053,11.053,0,0,1-2.176,1.358c-.607.26-1.535-.175-1.815,0s-1.933,1.412-1.933,1.412Z" transform="translate(-16.646 -29.822)" fill="#ff9c78"/>
            <path id="Trazado_878347" data-name="Trazado 878347" d="M25.885,88.09a7.594,7.594,0,0,1,.377,4.573c-.263,1.483-.538,1.406-.233,1.8a7.359,7.359,0,0,0,3.328,1.375,5.6,5.6,0,0,0,3.907-.42s-.257-2.709.018-3.092,2.637.112,3.5-.877S38.5,85.238,38.5,85.238s-.26-4.349-.452-5.53S37.121,76.823,36,76.791s-10.119,11.3-10.119,11.3" transform="translate(-6.744 -20.008)" fill="#ff9c78"/>
            <path id="Trazado_878348" data-name="Trazado 878348" d="M38.1,87.836c-.223-.328-1.213-.24-1.492.846s.223,2.849.894,3.008.6-.91.6-.91Z" transform="translate(-9.517 -22.842)" fill="#ff9c78"/>
            <path id="Trazado_878349" data-name="Trazado 878349" d="M34.57,85.585s-.606-2.266-1.372-1.692-2.2,4.182-3.384,5.2-3.424,1.231-4.521.169-.586-2.02-2.087-3.935-2.108-7.437,1-9.225c2.411-2.617,5.124-3.191,8.89-1.883s3.416,2.841,3.416,2.841-.513,2.2-.128,2.681-.287,2.331-.287,2.331L35.5,84.6Z" transform="translate(-5.726 -19.163)" fill="#553012"/>
            <path id="Trazado_878350" data-name="Trazado 878350" d="M63,121.3c.549-1.838.438-3.566-1.618-3.291a51.486,51.486,0,0,0-6.72,1.92s-3.6,6.572-.632,6S63,121.3,63,121.3" transform="translate(-13.773 -30.74)" fill="#3b3f51"/>
          </g>
        </g>
        <g id="Grupo_1102403" data-name="Grupo 1102403" transform="translate(3.077 79.369)">
          <g id="Grupo_1102402" data-name="Grupo 1102402" clip-path="url(#clip-path-16)">
            <rect id="Rectángulo_403571" data-name="Rectángulo 403571" width="52.177" height="42.237" transform="translate(-20.901 36.102) rotate(-60)" fill="url(#linear-gradient-9)"/>
          </g>
        </g>
        <g id="Grupo_1102405" data-name="Grupo 1102405" transform="translate(20.872 89.642)">
          <g id="Grupo_1102404" data-name="Grupo 1102404" clip-path="url(#clip-path-17)">
            <rect id="Rectángulo_403572" data-name="Rectángulo 403572" width="23.637" height="35.508" transform="translate(-16.453 9.466) rotate(-30)" fill="url(#linear-gradient-10)"/>
          </g>
        </g>
        <g id="Grupo_1102407" data-name="Grupo 1102407">
          <g id="Grupo_1102406" data-name="Grupo 1102406" clip-path="url(#clip-path)">
            <path id="Trazado_878353" data-name="Trazado 878353" d="M32.726,159.58a3.2,3.2,0,0,1-1.659-2.764c-.073-1.062-.069-2.4-.065-3.482,0-.529,0-.989-.005-1.311h0a4.361,4.361,0,0,1,.291-1.616,2.9,2.9,0,0,1,.473-.875l.109-.129a12.469,12.469,0,0,1,3.427-3.12l12.247-7.071a1.878,1.878,0,0,1,1.866-.16,1.789,1.789,0,0,1,.846,1.582c.034.762.018,1.444,0,1.841-.035.956-3.418,10.4-6.418,12.131L34.9,159.768a1.578,1.578,0,0,1-.775.172,3.077,3.077,0,0,1-1.4-.359M48,140,35.754,147.07a11.588,11.588,0,0,0-3.191,2.924l-.109.129a2.052,2.052,0,0,0-.314.606A3.4,3.4,0,0,0,31.907,152c.008.329.007.8,0,1.338,0,1.064-.007,2.388.064,3.416a2.3,2.3,0,0,0,1.179,2.025,1.723,1.723,0,0,0,1.295.2l8.939-5.161c2.595-1.5,5.926-10.494,5.962-11.378.015-.382.03-1.035,0-1.766a.939.939,0,0,0-.375-.824.6.6,0,0,0-.291-.069A1.429,1.429,0,0,0,48,140" transform="translate(-8.076 -36.183)" fill="#e0e0e0"/>
            <path id="Trazado_878354" data-name="Trazado 878354" d="M33.675,160.128a3.2,3.2,0,0,1-1.661-2.765c-.073-1.061-.07-2.4-.065-3.483,0-.527,0-.988-.005-1.31h0a4.328,4.328,0,0,1,.291-1.615,2.964,2.964,0,0,1,.475-.876l.108-.129a12.5,12.5,0,0,1,3.427-3.121l12.247-7.07a1.875,1.875,0,0,1,1.868-.16,1.788,1.788,0,0,1,.844,1.58c.028.58.03,1.2.006,1.843-.037.957-3.425,10.4-6.419,12.131l-8.939,5.161a1.567,1.567,0,0,1-.776.173,3.076,3.076,0,0,1-1.4-.359m15.272-19.582L36.7,147.617a11.619,11.619,0,0,0-3.189,2.923l-.11.129a2.232,2.232,0,0,0-.315.607,3.408,3.408,0,0,0-.231,1.272c.007.329.007.8,0,1.337,0,1.064-.007,2.388.064,3.416a2.3,2.3,0,0,0,1.181,2.024,1.717,1.717,0,0,0,1.293.2l8.939-5.161c2.593-1.5,5.927-10.495,5.964-11.379.015-.381.03-1.034,0-1.767a.934.934,0,0,0-.373-.824.605.605,0,0,0-.291-.068,1.419,1.419,0,0,0-.684.217" transform="translate(-8.323 -36.326)" fill="#e0e0e0"/>
            <path id="Trazado_878355" data-name="Trazado 878355" d="M52.31,140a1.852,1.852,0,0,0-2.339-.025L37.724,147.05a10.518,10.518,0,0,0-1.191.8l-1.4-.808v-.8a3.65,3.65,0,0,0,1.191,0l12.246-7.071c.961-.554,2.11-.958,2.635-.425a5.464,5.464,0,0,1,1.105.459c.339.191,0,.8,0,.8" transform="translate(-9.154 -36.086)" fill="#2c3240"/>
            <path id="Trazado_878356" data-name="Trazado 878356" d="M52.31,139.051a2.1,2.1,0,0,0-2.339-.024L37.724,146.1a10.425,10.425,0,0,0-1.191.8l-1.4-.808a10.294,10.294,0,0,1,1.191-.8l12.246-7.071a2.345,2.345,0,0,1,2.339.026Z" transform="translate(-9.154 -35.933)" fill="#374056"/>
            <path id="Trazado_878357" data-name="Trazado 878357" d="M51.348,70.208l.712.414a.745.745,0,0,1-.091-.064l-.713-.414a.679.679,0,0,0,.092.064" transform="translate(-13.355 -18.276)" fill="#3e97dc"/>
            <path id="Trazado_878358" data-name="Trazado 878358" d="M59.9,57.212l-.712-.414a.89.89,0,0,0-.89.087,2.513,2.513,0,0,0-.834.85l.713.414a2.506,2.506,0,0,1,.834-.85.888.888,0,0,1,.89-.087" transform="translate(-14.973 -14.777)" fill="#3e97dc"/>
            <path id="Trazado_878359" data-name="Trazado 878359" d="M57,58.509l-.712-.414-3.352,5.413.712.414Z" transform="translate(-13.792 -15.137)" fill="#3e97dc"/>
            <path id="Trazado_878360" data-name="Trazado 878360" d="M49.225,68.324l-.712-.414,2.028,1.652.713.414Z" transform="translate(-12.64 -17.694)" fill="#3e97dc"/>
            <path id="Trazado_878361" data-name="Trazado 878361" d="M51.411,64.246l-.712-.414a.893.893,0,0,0-.893.088l.713.414a.891.891,0,0,1,.892-.088" transform="translate(-12.977 -16.61)" fill="#3e97dc"/>
            <path id="Trazado_878362" data-name="Trazado 878362" d="M50.08,64.4l-.712-.414a2.449,2.449,0,0,0-.793.785c-.532.814-.606,1.763-.164,2.12l.712.414c-.442-.357-.368-1.306.165-2.121a2.445,2.445,0,0,1,.792-.785" transform="translate(-12.538 -16.671)" fill="#3e97dc"/>
            <path id="Trazado_878363" data-name="Trazado 878363" d="M50.331,62.648a2.444,2.444,0,0,0-.792.785c-.533.815-.607,1.764-.165,2.121L51.4,67.206a.989.989,0,0,0,1.139-.041,2.928,2.928,0,0,0,.981-1l4.148-6.7c.513-.826.552-1.759.09-2.083a.861.861,0,0,0-.932.061,2.5,2.5,0,0,0-.834.849l-3.352,5.413-1.344-1.1a.842.842,0,0,0-.968.035" transform="translate(-12.789 -14.923)" fill="#54bdff"/>
            <path id="Trazado_878364" data-name="Trazado 878364" d="M66.834,61.267l.712.414a.746.746,0,0,1-.091-.064l-.713-.414a.678.678,0,0,0,.092.064" transform="translate(-17.39 -15.947)" fill="#3e97dc"/>
            <path id="Trazado_878365" data-name="Trazado 878365" d="M75.387,48.272l-.712-.414a.888.888,0,0,0-.89.088,2.5,2.5,0,0,0-.834.849l.713.414a2.5,2.5,0,0,1,.834-.85.888.888,0,0,1,.89-.087" transform="translate(-19.008 -12.448)" fill="#3e97dc"/>
            <path id="Trazado_878366" data-name="Trazado 878366" d="M72.482,49.569l-.712-.414-3.352,5.413.712.414Z" transform="translate(-17.827 -12.807)" fill="#3e97dc"/>
            <path id="Trazado_878367" data-name="Trazado 878367" d="M64.711,59.384,64,58.97l2.028,1.652.713.414Z" transform="translate(-16.675 -15.365)" fill="#3e97dc"/>
            <path id="Trazado_878368" data-name="Trazado 878368" d="M66.9,55.306l-.712-.414a.891.891,0,0,0-.892.088l.712.414a.891.891,0,0,1,.892-.088" transform="translate(-17.012 -14.281)" fill="#3e97dc"/>
            <path id="Trazado_878369" data-name="Trazado 878369" d="M65.565,55.455l-.712-.414a2.456,2.456,0,0,0-.793.785c-.532.814-.606,1.763-.164,2.12l.712.414c-.441-.357-.368-1.306.165-2.121a2.444,2.444,0,0,1,.792-.785" transform="translate(-16.573 -14.341)" fill="#3e97dc"/>
            <path id="Trazado_878370" data-name="Trazado 878370" d="M65.816,53.707a2.445,2.445,0,0,0-.792.785c-.533.815-.606,1.764-.165,2.121l2.029,1.652a.989.989,0,0,0,1.139-.041,2.927,2.927,0,0,0,.981-1l4.148-6.7c.513-.826.552-1.759.09-2.083a.861.861,0,0,0-.932.061,2.5,2.5,0,0,0-.834.849l-3.352,5.413-1.344-1.1a.842.842,0,0,0-.968.035" transform="translate(-16.824 -12.594)" fill="#54bdff"/>
            <path id="Trazado_878371" data-name="Trazado 878371" d="M66.02,11.029V26.623L54.991,37.652H39.4L28.369,26.623V11.029L39.4,0H54.991Z" transform="translate(-7.392 0)" fill="#54bdff"/>
            <path id="Trazado_878372" data-name="Trazado 878372" d="M65.5,11.644V26.573L54.942,37.132H40.014L29.455,26.573V11.644L40.014,1.085H54.942Z" transform="translate(-7.675 -0.283)" fill="#4070a0"/>
          </g>
        </g>
        <g id="Grupo_1102409" data-name="Grupo 1102409" transform="translate(21.78 16.928)">
          <g id="Grupo_1102408" data-name="Grupo 1102408" clip-path="url(#clip-path-19)">
            <rect id="Rectángulo_403574" data-name="Rectángulo 403574" width="24.711" height="22.777" transform="matrix(0.866, -0.5, 0.5, 0.866, -6.383, 3.685)" fill="url(#linear-gradient-11)"/>
          </g>
        </g>
        <g id="Grupo_1102419" data-name="Grupo 1102419">
          <g id="Grupo_1102418" data-name="Grupo 1102418" clip-path="url(#clip-path)">
            <g id="Grupo_1102414" data-name="Grupo 1102414" transform="translate(24.909 24.794)" style="mix-blend-mode: multiply;isolation: isolate">
              <g id="Grupo_1102413" data-name="Grupo 1102413">
                <g id="Grupo_1102412" data-name="Grupo 1102412" clip-path="url(#clip-path-21)">
                  <g id="Grupo_1102411" data-name="Grupo 1102411">
                    <g id="Grupo_1102410" data-name="Grupo 1102410" clip-path="url(#clip-path-22)">
                      <rect id="Rectángulo_403575" data-name="Rectángulo 403575" width="9.327" height="7.831" transform="translate(0 0)" fill="url(#linear-gradient-12)"/>
                    </g>
                  </g>
                </g>
              </g>
            </g>
            <path id="Trazado_878375" data-name="Trazado 878375" d="M69.959,23.076c1.145.243,1.279.243,1.4.932a1.251,1.251,0,0,1-.92,1.5A19.335,19.335,0,0,1,67.3,25.35Z" transform="translate(-17.536 -6.013)" fill="#ff9c78"/>
            <path id="Trazado_878376" data-name="Trazado 878376" d="M58.273,37.055a7.972,7.972,0,0,0,2.939.087c.122-1.048,1.447-6.324,1.447-6.324a9.6,9.6,0,0,0,2.465.425c1.25.025,1.1-1.874-.989-2.076A9.606,9.606,0,0,0,59.9,29.4a61.341,61.341,0,0,0-3.363,5.676Z" transform="translate(-14.73 -7.575)" fill="#ff9c78"/>
            <g id="Grupo_1102417" data-name="Grupo 1102417" transform="translate(32.244 21.615)" style="mix-blend-mode: multiply;isolation: isolate">
              <g id="Grupo_1102416" data-name="Grupo 1102416">
                <g id="Grupo_1102415" data-name="Grupo 1102415" clip-path="url(#clip-path-23)">
                  <path id="Trazado_878377" data-name="Trazado 878377" d="M48.813,29.231c-.847.918-1.063,1.691-2.49,2.527.316.6-.347,1.747-.4,1.885a20.872,20.872,0,0,1-1.589,2.469c-.571.694-.617.787-.71,1.273s.193,1.157.617,1.173,4.23-2.809,4.931-4.641-.357-4.686-.357-4.686" transform="translate(-43.605 -29.231)" fill="#f2c7b5"/>
                </g>
              </g>
            </g>
          </g>
        </g>
        <g id="Grupo_1102421" data-name="Grupo 1102421" transform="translate(32.434 4.431)">
          <g id="Grupo_1102420" data-name="Grupo 1102420" clip-path="url(#clip-path-24)">
            <rect id="Rectángulo_403579" data-name="Rectángulo 403579" width="37.517" height="36.36" transform="translate(-12.462 21.466) rotate(-60)" fill="url(#linear-gradient-13)"/>
          </g>
        </g>
        <g id="Grupo_1102433" data-name="Grupo 1102433">
          <g id="Grupo_1102432" data-name="Grupo 1102432" clip-path="url(#clip-path)">
            <g id="Grupo_1102426" data-name="Grupo 1102426" transform="translate(50.391 10.154)" style="mix-blend-mode: multiply;isolation: isolate">
              <g id="Grupo_1102425" data-name="Grupo 1102425">
                <g id="Grupo_1102424" data-name="Grupo 1102424" clip-path="url(#clip-path-26)">
                  <g id="Grupo_1102423" data-name="Grupo 1102423" transform="translate(0 0)">
                    <g id="Grupo_1102422" data-name="Grupo 1102422" clip-path="url(#clip-path-27)">
                      <rect id="Rectángulo_403580" data-name="Rectángulo 403580" width="11.501" height="12.485" transform="matrix(0.866, -0.5, 0.5, 0.866, -4.384, 2.531)" fill="url(#linear-gradient-14)"/>
                    </g>
                  </g>
                </g>
              </g>
            </g>
            <g id="Grupo_1102431" data-name="Grupo 1102431" transform="translate(36.241 14.044)" style="mix-blend-mode: multiply;isolation: isolate">
              <g id="Grupo_1102430" data-name="Grupo 1102430">
                <g id="Grupo_1102429" data-name="Grupo 1102429" clip-path="url(#clip-path-28)">
                  <g id="Grupo_1102428" data-name="Grupo 1102428" transform="translate(0 0)">
                    <g id="Grupo_1102427" data-name="Grupo 1102427" clip-path="url(#clip-path-29)">
                      <rect id="Rectángulo_403582" data-name="Rectángulo 403582" width="10.037" height="9.55" transform="translate(0 -0.22)" fill="url(#linear-gradient-15)"/>
                    </g>
                  </g>
                </g>
              </g>
            </g>
          </g>
        </g>
        <g id="Grupo_1102435" data-name="Grupo 1102435" transform="translate(31.597 7.059)">
          <g id="Grupo_1102434" data-name="Grupo 1102434" clip-path="url(#clip-path-30)">
            <rect id="Rectángulo_403585" data-name="Rectángulo 403585" width="15.405" height="8.316" transform="translate(-0.015 0)" fill="url(#linear-gradient-16)"/>
          </g>
        </g>
        <g id="Grupo_1102443" data-name="Grupo 1102443">
          <g id="Grupo_1102442" data-name="Grupo 1102442" clip-path="url(#clip-path)">
            <g id="Grupo_1102438" data-name="Grupo 1102438" transform="translate(31.7 9.503)" style="mix-blend-mode: multiply;isolation: isolate">
              <g id="Grupo_1102437" data-name="Grupo 1102437">
                <g id="Grupo_1102436" data-name="Grupo 1102436" clip-path="url(#clip-path-32)">
                  <path id="Trazado_878382" data-name="Trazado 878382" d="M45.214,17.366A23.487,23.487,0,0,0,47.636,15.2c.339-.5.262-.94.9-1.264s3.171-.6,3.834-.895,1.13-.177,1.1-.135c-.013.016-.353.635-.81,1.424l-.356.254s-6.58,3.763-7.923,3.949c-.938.129-1.344-.25-1.509-.58,1.046.7,2.343-.593,2.343-.593" transform="translate(-42.87 -12.852)" fill="#fcf4f0"/>
                </g>
              </g>
            </g>
            <path id="Trazado_878383" data-name="Trazado 878383" d="M44.695,16.111a.909.909,0,0,1,1.134.393c.031.193-.054.609-.8,1.165s-.872.725-1.273.795a3.556,3.556,0,0,1-1.049-.031c-.139-.023-.085-.209.131-.548a22.533,22.533,0,0,1,1.859-1.774" transform="translate(-11.107 -4.177)" fill="#ffb9ae"/>
            <g id="Grupo_1102441" data-name="Grupo 1102441" transform="translate(38.75 9.31)" style="mix-blend-mode: multiply;isolation: isolate">
              <g id="Grupo_1102440" data-name="Grupo 1102440">
                <g id="Grupo_1102439" data-name="Grupo 1102439" clip-path="url(#clip-path-33)">
                  <path id="Trazado_878384" data-name="Trazado 878384" d="M54.778,13.263c.162-.263.285.031.209.254s-.162.54-.162.54.409-.412.416-.449.339-.539.447-.824.426-.26.231.1a13.974,13.974,0,0,1-.893,1.464,6.348,6.348,0,0,1-1,.719L52.4,14.411a11.57,11.57,0,0,0,2-.106,4.506,4.506,0,0,0,.37-1.041" transform="translate(-52.403 -12.59)" fill="#f2c7b5"/>
                </g>
              </g>
            </g>
          </g>
        </g>
        <g id="Grupo_1102445" data-name="Grupo 1102445" transform="translate(28.807 10.972)">
          <g id="Grupo_1102444" data-name="Grupo 1102444" clip-path="url(#clip-path-34)">
            <rect id="Rectángulo_403589" data-name="Rectángulo 403589" width="25.98" height="23.674" transform="translate(-6.708 3.756) rotate(-30)" fill="url(#linear-gradient-17)"/>
          </g>
        </g>
        <g id="Grupo_1102479" data-name="Grupo 1102479">
          <g id="Grupo_1102478" data-name="Grupo 1102478" clip-path="url(#clip-path)">
            <g id="Grupo_1102450" data-name="Grupo 1102450" transform="translate(40.962 14.136)" style="mix-blend-mode: multiply;isolation: isolate">
              <g id="Grupo_1102449" data-name="Grupo 1102449">
                <g id="Grupo_1102448" data-name="Grupo 1102448" clip-path="url(#clip-path-36)">
                  <g id="Grupo_1102447" data-name="Grupo 1102447" transform="translate(0 0)">
                    <g id="Grupo_1102446" data-name="Grupo 1102446" clip-path="url(#clip-path-37)">
                      <rect id="Rectángulo_403590" data-name="Rectángulo 403590" width="8.942" height="3.183" transform="translate(0 0)" fill="url(#linear-gradient-18)"/>
                    </g>
                  </g>
                </g>
              </g>
            </g>
            <g id="Grupo_1102455" data-name="Grupo 1102455" transform="translate(46.358 11.47)" style="mix-blend-mode: multiply;isolation: isolate">
              <g id="Grupo_1102454" data-name="Grupo 1102454">
                <g id="Grupo_1102453" data-name="Grupo 1102453" clip-path="url(#clip-path-38)">
                  <g id="Grupo_1102452" data-name="Grupo 1102452" transform="translate(0 0)">
                    <g id="Grupo_1102451" data-name="Grupo 1102451" clip-path="url(#clip-path-39)">
                      <rect id="Rectángulo_403592" data-name="Rectángulo 403592" width="3.495" height="4.68" transform="translate(0 0)" fill="url(#linear-gradient-19)"/>
                    </g>
                  </g>
                </g>
              </g>
            </g>
            <g id="Grupo_1102458" data-name="Grupo 1102458" transform="translate(46.062 11.308)" style="mix-blend-mode: multiply;isolation: isolate">
              <g id="Grupo_1102457" data-name="Grupo 1102457">
                <g id="Grupo_1102456" data-name="Grupo 1102456" clip-path="url(#clip-path-40)">
                  <path id="Trazado_878388" data-name="Trazado 878388" d="M62.323,15.307a.089.089,0,0,1-.03-.013l.03.013" transform="translate(-62.293 -15.293)" fill="#fcf4f0"/>
                </g>
              </g>
            </g>
            <path id="Trazado_878389" data-name="Trazado 878389" d="M65.169,19.26a.325.325,0,0,0-.469.162,2.348,2.348,0,0,0,0,.85,7.58,7.58,0,0,0,.972,1.151,4.323,4.323,0,0,0,1.082.023c-.041-.4-.087-.9-1.585-2.187" transform="translate(-16.848 -5.008)" fill="#ffb9ae"/>
            <path id="Trazado_878390" data-name="Trazado 878390" d="M44.685,40.1c.756-.424.972-.571,1.335-.571a.62.62,0,0,1,.594.571c-.016.209-.247.509-.686.849a5.353,5.353,0,0,1-1.239.613s-.119.05-.4-.1a.664.664,0,0,1-.356-.642,5.341,5.341,0,0,1,.75-.716" transform="translate(-11.444 -10.299)" fill="#ffb9ae"/>
            <path id="Trazado_878391" data-name="Trazado 878391" d="M44.287,43.057a2.838,2.838,0,0,1,1.939-.276.685.685,0,0,1,.424.563,3.958,3.958,0,0,1-1.879.586.646.646,0,0,1-.484-.874" transform="translate(-11.527 -11.123)" fill="#ffb9ae"/>
            <path id="Trazado_878392" data-name="Trazado 878392" d="M48.727,42.795c.393-.109.431.188.231.27a8.41,8.41,0,0,1-1.02.2l-.287.042Z" transform="translate(-12.416 -11.144)" fill="#ffb9ae"/>
            <path id="Trazado_878393" data-name="Trazado 878393" d="M51.422,42.72a5.438,5.438,0,0,0,1-.316c.3-.162.6-.331.6-.331s.363-.031.186.158a4.484,4.484,0,0,1-1.022.49s-.614.1-.76,0" transform="translate(-13.398 -10.962)" fill="#ffb9ae"/>
            <g id="Grupo_1102463" data-name="Grupo 1102463" transform="translate(32.768 18.522)" style="mix-blend-mode: multiply;isolation: isolate">
              <g id="Grupo_1102462" data-name="Grupo 1102462">
                <g id="Grupo_1102461" data-name="Grupo 1102461" clip-path="url(#clip-path-41)">
                  <g id="Grupo_1102460" data-name="Grupo 1102460" transform="translate(0 0)">
                    <g id="Grupo_1102459" data-name="Grupo 1102459" clip-path="url(#clip-path-42)">
                      <rect id="Rectángulo_403595" data-name="Rectángulo 403595" width="10.817" height="13.373" transform="translate(0 0)" fill="url(#linear-gradient-20)"/>
                    </g>
                  </g>
                </g>
              </g>
            </g>
            <g id="Grupo_1102468" data-name="Grupo 1102468" transform="translate(35.288 22.254)" style="mix-blend-mode: multiply;isolation: isolate">
              <g id="Grupo_1102467" data-name="Grupo 1102467">
                <g id="Grupo_1102466" data-name="Grupo 1102466" clip-path="url(#clip-path-43)">
                  <g id="Grupo_1102465" data-name="Grupo 1102465" transform="translate(0 0)">
                    <g id="Grupo_1102464" data-name="Grupo 1102464" clip-path="url(#clip-path-44)">
                      <rect id="Rectángulo_403597" data-name="Rectángulo 403597" width="10.454" height="9.943" transform="translate(0 -0.041)" fill="url(#linear-gradient-21)"/>
                    </g>
                  </g>
                </g>
              </g>
            </g>
            <g id="Grupo_1102471" data-name="Grupo 1102471" transform="translate(38.772 26.991)" style="mix-blend-mode: multiply;isolation: isolate">
              <g id="Grupo_1102470" data-name="Grupo 1102470">
                <g id="Grupo_1102469" data-name="Grupo 1102469" clip-path="url(#clip-path-45)">
                  <path id="Trazado_878396" data-name="Trazado 878396" d="M58.242,36.5c-1.574,1.512-3.594,3.363-3.594,3.363l-1.366.756-.848.516a6.231,6.231,0,0,0,1.078-.466,9.5,9.5,0,0,0,1.467-.953c.294-.285,3.009-2.731,3.009-2.731Z" transform="translate(-52.434 -36.502)" fill="#f2c7b5"/>
                </g>
              </g>
            </g>
            <path id="Trazado_878397" data-name="Trazado 878397" d="M66.7,29.913a1.226,1.226,0,0,0,.648.687,5.368,5.368,0,0,0,1.493.146,1.213,1.213,0,0,0,.465-.211,1.966,1.966,0,0,0,.626-.684,3.48,3.48,0,0,0,0-1.744,1.882,1.882,0,0,0-.406-.481h0a9.112,9.112,0,0,0-.9-.706,1.161,1.161,0,0,0-.992.277,4.536,4.536,0,0,0-1.042,1.908,2.273,2.273,0,0,0,.108.807" transform="translate(-17.35 -7.01)" fill="#ff9c78"/>
            <path id="Trazado_878398" data-name="Trazado 878398" d="M61.789,31.644a1.626,1.626,0,0,1,1.435-.494,7.686,7.686,0,0,1,.846.075s1.376.38,1.669.974a2.444,2.444,0,0,1,0,1.967c-.254.393-.494.795-1.057.879a1.617,1.617,0,0,1-.764,0,1.682,1.682,0,0,1,.193.864,1.814,1.814,0,0,1-.407,1.13,1.694,1.694,0,0,1-1.042.608,2.267,2.267,0,0,1-1.29-.118c-.285-.209-1.412-.734-1.6-1.273a1.519,1.519,0,0,1,.3-1.5,1.3,1.3,0,0,1,1.612-.594,2.079,2.079,0,0,1-.278-1.6,1.9,1.9,0,0,1,.386-.91" transform="translate(-15.55 -8.116)" fill="#ff9c78"/>
            <g id="Grupo_1102474" data-name="Grupo 1102474" transform="translate(44.131 23.059)" style="mix-blend-mode: multiply;isolation: isolate">
              <g id="Grupo_1102473" data-name="Grupo 1102473">
                <g id="Grupo_1102472" data-name="Grupo 1102472" clip-path="url(#clip-path-46)">
                  <path id="Trazado_878399" data-name="Trazado 878399" d="M61.681,34.168a2.082,2.082,0,0,1-.279-1.6,1.9,1.9,0,0,1,.387-.91,1.18,1.18,0,0,1,.85-.469c-1.333.8-.829,2.861-.829,2.861a10.741,10.741,0,0,0,2.532,1.045,1.116,1.116,0,0,1-.424-.035,1.427,1.427,0,0,1,.112.261A8.267,8.267,0,0,0,61.1,34.239c-.648-.072-1.034.985-1.043,1.479a1.406,1.406,0,0,0,.61,1.173,11.8,11.8,0,0,0,1.088.779.885.885,0,0,1-.387-.132c-.285-.209-1.411-.733-1.6-1.273a1.517,1.517,0,0,1,.3-1.5,1.3,1.3,0,0,1,1.612-.594" transform="translate(-59.681 -31.184)" fill="#f2c7b5"/>
                </g>
              </g>
            </g>
            <path id="Trazado_878400" data-name="Trazado 878400" d="M64.277,31.973c1.03.3,1.287.364,1.565.908s.22,1.412-.405,1.516a2.523,2.523,0,0,1-1.508-.121,9.307,9.307,0,0,1,.2-1.3c.044-.416-.133-.714.145-1.006" transform="translate(-16.653 -8.331)" fill="#ffb9ae"/>
            <path id="Trazado_878401" data-name="Trazado 878401" d="M61.26,35.908c1.25.115,1.743.548,1.8.987a.957.957,0,0,1-.817,1.162,3.628,3.628,0,0,1-1.3-.189,2.9,2.9,0,0,0,.308-1.034,3.583,3.583,0,0,0,.016-.926" transform="translate(-15.877 -9.356)" fill="#ffb9ae"/>
            <path id="Trazado_878402" data-name="Trazado 878402" d="M69.5,28.668c.671.193.864.37.864.756s0,.957-.378,1.2a.72.72,0,0,1-.656.123,1.537,1.537,0,0,0,.4-1.026,1.92,1.92,0,0,0-.231-1.057" transform="translate(-18.065 -7.47)" fill="#ffb9ae"/>
            <g id="Grupo_1102477" data-name="Grupo 1102477" transform="translate(49.238 19.894)" style="mix-blend-mode: multiply;isolation: isolate">
              <g id="Grupo_1102476" data-name="Grupo 1102476">
                <g id="Grupo_1102475" data-name="Grupo 1102475" clip-path="url(#clip-path-47)">
                  <path id="Trazado_878403" data-name="Trazado 878403" d="M66.7,29.913a1.226,1.226,0,0,0,.648.687,5.368,5.368,0,0,0,1.493.146,1.213,1.213,0,0,0,.465-.211l-1.236-.052a1.686,1.686,0,0,1-.949-.705c-.359-.567.381-2.036.626-2.4s.612-.37,1.779.244h0a9.112,9.112,0,0,0-.9-.706,1.161,1.161,0,0,0-.992.277,4.536,4.536,0,0,0-1.042,1.908,2.273,2.273,0,0,0,.108.807" transform="translate(-66.588 -26.904)" fill="#f2c7b5"/>
                </g>
              </g>
            </g>
            <path id="Trazado_878404" data-name="Trazado 878404" d="M7.812,91.23v1.885a.395.395,0,1,1-.79,0V91.23a.395.395,0,1,1,.79,0" transform="translate(-1.83 -23.665)" fill="#6aaede"/>
            <path id="Trazado_878405" data-name="Trazado 878405" d="M7.812,85.189v1.885a.395.395,0,1,1-.79,0V85.189a.395.395,0,1,1,.79,0" transform="translate(-1.83 -22.091)" fill="#6aaede"/>
            <path id="Trazado_878406" data-name="Trazado 878406" d="M7.812,79.148v1.886a.395.395,0,1,1-.79,0V79.148a.395.395,0,1,1,.79,0" transform="translate(-1.83 -20.517)" fill="#6aaede"/>
            <path id="Trazado_878407" data-name="Trazado 878407" d="M7.812,73.106v1.886a.395.395,0,1,1-.79,0V73.106a.395.395,0,1,1,.79,0" transform="translate(-1.83 -18.943)" fill="#6aaede"/>
            <path id="Trazado_878408" data-name="Trazado 878408" d="M7.812,67.065V68.95a.395.395,0,1,1-.79,0V67.065a.395.395,0,1,1,.79,0" transform="translate(-1.83 -17.369)" fill="#6aaede"/>
            <path id="Trazado_878409" data-name="Trazado 878409" d="M7.812,61.024v1.885a.395.395,0,1,1-.79,0V61.024a.395.395,0,1,1,.79,0" transform="translate(-1.83 -15.795)" fill="#6aaede"/>
            <path id="Trazado_878410" data-name="Trazado 878410" d="M7.812,54.983v1.886a.395.395,0,1,1-.79,0V54.983a.395.395,0,1,1,.79,0" transform="translate(-1.83 -14.221)" fill="#6aaede"/>
            <path id="Trazado_878411" data-name="Trazado 878411" d="M7.812,48.942v1.885a.395.395,0,1,1-.79,0V48.942a.395.395,0,1,1,.79,0" transform="translate(-1.83 -12.647)" fill="#6aaede"/>
            <path id="Trazado_878412" data-name="Trazado 878412" d="M7.823,42.924c-.023.58-.007,1.244-.012,1.861a.395.395,0,1,1-.789,0c.005-.639-.013-1.233.013-1.909a.393.393,0,0,1,.432-.379.41.41,0,0,1,.356.426" transform="translate(-1.829 -11.072)" fill="#6aaede"/>
            <path id="Trazado_878413" data-name="Trazado 878413" d="M9.769,37.815a5.568,5.568,0,0,0-1.05,1.406.414.414,0,0,1-.526.178.389.389,0,0,1-.172-.548,6.374,6.374,0,0,1,1.2-1.6.39.39,0,0,1,.575.011.413.413,0,0,1-.023.555" transform="translate(-2.076 -9.674)" fill="#6aaede"/>
            <path id="Trazado_878414" data-name="Trazado 878414" d="M14.6,34.646l-1.633.943a.395.395,0,1,1-.395-.684l1.633-.943a.395.395,0,1,1,.395.684" transform="translate(-3.222 -8.835)" fill="#6aaede"/>
            <path id="Trazado_878415" data-name="Trazado 878415" d="M19.828,31.625l-1.633.943a.395.395,0,1,1-.395-.684l1.633-.943a.395.395,0,1,1,.395.684" transform="translate(-4.585 -8.047)" fill="#6aaede"/>
            <path id="Trazado_878416" data-name="Trazado 878416" d="M92.919,41.672v2.034a.4.4,0,1,1-.79,0V41.672a.4.4,0,1,1,.79,0" transform="translate(-24.005 -10.744)" fill="#6aaede"/>
            <path id="Trazado_878417" data-name="Trazado 878417" d="M92.919,35.154v2.034a.4.4,0,1,1-.79,0V35.154a.4.4,0,1,1,.79,0" transform="translate(-24.005 -9.046)" fill="#6aaede"/>
            <path id="Trazado_878418" data-name="Trazado 878418" d="M92.919,28.635v2.034a.4.4,0,1,1-.79,0V28.635a.4.4,0,1,1,.79,0" transform="translate(-24.005 -7.347)" fill="#6aaede"/>
            <path id="Trazado_878419" data-name="Trazado 878419" d="M92.919,22.118v2.034a.4.4,0,1,1-.79,0V22.118a.4.4,0,1,1,.79,0" transform="translate(-24.005 -5.649)" fill="#6aaede"/>
            <path id="Trazado_878420" data-name="Trazado 878420" d="M89.382,16.9a3.037,3.037,0,0,1,2.011,1.075.4.4,0,0,1-.055.609.45.45,0,0,1-.552-.1,2.253,2.253,0,0,0-1.486-.794.454.454,0,0,1-.393-.4.4.4,0,0,1,.476-.385" transform="translate(-23.164 -4.401)" fill="#6aaede"/>
            <path id="Trazado_878421" data-name="Trazado 878421" d="M83.292,19.2l1.761-1.017a.4.4,0,1,1,.395.684l-1.761,1.017a.4.4,0,1,1-.395-.684" transform="translate(-21.643 -4.72)" fill="#6aaede"/>
            <rect id="Rectángulo_403602" data-name="Rectángulo 403602" width="2.898" height="2.898" transform="translate(4.138 68.178)" fill="#6aaede"/>
            <rect id="Rectángulo_403603" data-name="Rectángulo 403603" width="2.898" height="2.898" transform="translate(67.07 32.768)" fill="#6aaede"/>
          </g>
        </g>
      </g>
    </g>
  </g>
</svg>
