<svg xmlns="http://www.w3.org/2000/svg" xmlns:xlink="http://www.w3.org/1999/xlink" width="83" height="88" viewBox="0 0 83 88">
  <defs>
    <clipPath id="clip-path">
      <rect id="Rectángulo_403433" data-name="Rectángulo 403433" width="83" height="88" transform="translate(195.468 835.333)" fill="#3b57de" stroke="#707070" stroke-width="1"/>
    </clipPath>
  </defs>
  <g id="Enmascarar_grupo_1098769" data-name="Enmascarar grupo 1098769" transform="translate(-195.468 -835.333)" clip-path="url(#clip-path)">
    <g id="farmaceutico" transform="translate(195.69 837.408)">
      <path id="Trazado_877909" data-name="Trazado 877909" d="M3.825,27.14a1.218,1.218,0,0,0-1.639.53A19.758,19.758,0,0,0,.029,36.623V41a1.218,1.218,0,1,0,2.436,0V36.623a17.31,17.31,0,0,1,1.89-7.844,1.218,1.218,0,0,0-.53-1.639Z" transform="translate(-0.029 41.007)" fill="#3b57de"/>
      <path id="Trazado_877910" data-name="Trazado 877910" d="M74.4,48.363a1.218,1.218,0,0,0-1.783,1.659,18.292,18.292,0,1,1-3.758-3.094,1.218,1.218,0,1,0,1.286-2.069A20.758,20.758,0,0,0,39.8,55.134L39,54.744a2.353,2.353,0,0,0-2.455.22V50.6a17.107,17.107,0,0,0,6.077-9.373h.051A5.595,5.595,0,0,0,45.827,31l2.92-11.832a8.3,8.3,0,0,0-7.2-10.24A12.947,12.947,0,0,0,29.26,0h-3.9a16.756,16.756,0,0,0-4.577.637,18.944,18.944,0,0,0-7.254,3.9,1.218,1.218,0,1,0,1.591,1.844,16.527,16.527,0,0,1,6.329-3.4,14.31,14.31,0,0,1,3.912-.545h3.9a10.5,10.5,0,0,1,10.49,10.49,3,3,0,0,1-.463,1.6l-.467.742q-.136-.082-.276-.159L34.93,13.122a1.576,1.576,0,0,0-1.866.265L30.471,15.98a.3.3,0,0,1-.209.087H18.638a6.8,6.8,0,0,0-6.787,6.787V30.06q-.143.015-.284.037L9.818,23.012a16.527,16.527,0,0,1,2.131-12.96A1.218,1.218,0,0,0,9.9,8.742,18.942,18.942,0,0,0,7.454,23.6L9.283,31A5.594,5.594,0,0,0,12.335,41.22a17.128,17.128,0,0,0,6.09,9.423v4.116a2.378,2.378,0,0,0-2.121-.016l-5.96,2.929a2.368,2.368,0,0,0-1.3,1.759A19.551,19.551,0,0,0,2.47,63.86a1.218,1.218,0,0,0,1.74,1.7,17.106,17.106,0,0,1,4.94-3.518l.6,9.612a1.218,1.218,0,0,0,.928,1.107l2.544.619L15.185,82.3a1.218,1.218,0,1,0,2.379-.523l-2.125-9.657a1.218,1.218,0,0,0-.9-.922l-2.411-.586-.673-10.769,5.85-2.874,2.952,25.181a1.218,1.218,0,1,0,2.419-.284L20.688,64.926a14.839,14.839,0,0,0,13.929,0L32.632,81.864a1.218,1.218,0,1,0,2.419.284L38,56.967l1.056.519A20.75,20.75,0,0,0,40.426,71.34a1.217,1.217,0,0,0-.559.778l-2.125,9.657a1.218,1.218,0,1,0,2.378.524l1.823-8.282A20.752,20.752,0,1,0,74.4,48.363Zm-31.358-9.6c.05-.53.079-1.066.079-1.606V32.5a3.158,3.158,0,0,1-.079,6.264ZM45.306,13.57a5.826,5.826,0,0,1,1.076,5.019L43.542,30.1c-.139-.022-.28-.037-.423-.048V22.854a8.838,8.838,0,0,0-2.391-6.045l.619-.983a5.433,5.433,0,0,0,.837-2.9,12.981,12.981,0,0,0-.081-1.431,5.823,5.823,0,0,1,3.2,2.075ZM9.272,35.626a3.165,3.165,0,0,1,2.579-3.105v4.686c0,.516.026,1.028.072,1.535A3.163,3.163,0,0,1,9.272,35.626Zm5.015,1.581V22.854A4.356,4.356,0,0,1,18.639,18.5H30.262a2.712,2.712,0,0,0,1.932-.8l2.133-2.133,3.043,1.675a6.4,6.4,0,0,1,3.315,5.609v14.3a14.627,14.627,0,0,1-9.719,13.76l-.12.043a10.278,10.278,0,0,1-6.9-.014,14.637,14.637,0,0,1-9.663-13.74Zm6.04,24.632-.49-4.181.052-.021a1.555,1.555,0,0,0,.971-1.446V52.23a16.942,16.942,0,0,0,2.266,1.01,12.721,12.721,0,0,0,8.533.017l.12-.043a16.957,16.957,0,0,0,2.332-1.032v4.009a1.556,1.556,0,0,0,.971,1.446l.372.152-.475,4.051a12.446,12.446,0,0,1-14.653,0Z" transform="translate(3.15 0)" fill="#3b57de"/>
      <path id="Trazado_877911" data-name="Trazado 877911" d="M18.357,15.257h1.908a5.464,5.464,0,1,0,.572-2.436H17.785a5.456,5.456,0,1,0,.572,2.436Zm7.367-3.03A3.024,3.024,0,1,1,22.7,15.251a3.027,3.027,0,0,1,3.024-3.024ZM9.873,15.251A3.024,3.024,0,1,1,12.9,18.275,3.027,3.027,0,0,1,9.873,15.251Z" transform="translate(11.22 14.868)" fill="#3b57de"/>
      <path id="Trazado_877912" data-name="Trazado 877912" d="M34.084,21.671,21.642,34.113a6.465,6.465,0,1,0,9.143,9.143L43.227,30.814a6.465,6.465,0,0,0-9.143-9.143ZM29.062,41.534a4.029,4.029,0,0,1-5.7-5.7l5.36-5.36,5.7,5.7ZM41.5,29.091l-5.36,5.36-5.7-5.7,5.36-5.36a4.029,4.029,0,1,1,5.7,5.7Z" transform="translate(29.917 30.035)" fill="#3b57de"/>
    </g>
  </g>
</svg>
