<svg xmlns="http://www.w3.org/2000/svg" xmlns:xlink="http://www.w3.org/1999/xlink" width="295.145" height="277" viewBox="0 0 295.145 277">
  <defs>
    <clipPath id="clip-path">
      <rect id="Rectángulo_403443" data-name="Rectángulo 403443" width="295" height="183.129" transform="translate(0 0)" fill="none"/>
    </clipPath>
  </defs>
  <g id="Grupo_1102184" data-name="Grupo 1102184" transform="translate(-705 -3407.677)">
    <rect id="Rectángulo_35929" data-name="Rectángulo 35929" width="295" height="277" transform="translate(705.145 3407.677)" fill="#e5fafb"/>
    <g id="Grupo_1102183" data-name="Grupo 1102183" transform="translate(705 3501.548)">
      <g id="Grupo_1102182" data-name="Grupo 1102182" clip-path="url(#clip-path)">
        <path id="Trazado_877951" data-name="Trazado 877951" d="M524.536,69.031l-1.249.142L446.414,79.9,435.552,14.973a4.983,4.983,0,0,1,4.239-5.759L506.7.048a4.983,4.983,0,0,1,5.573,4.013Z" transform="translate(-372.326 -0.002)" fill="#b3b3b3" fill-rule="evenodd"/>
        <path id="Trazado_877952" data-name="Trazado 877952" d="M529.913,103.991a13.68,13.68,0,1,1-16.143-10.663,13.68,13.68,0,0,1,16.143,10.663" transform="translate(-429.903 -79.553)" fill="#999" fill-rule="evenodd"/>
        <path id="Trazado_877953" data-name="Trazado 877953" d="M787.677,77.448a13.68,13.68,0,1,1-16.143-10.663,13.68,13.68,0,0,1,16.143,10.663" transform="translate(-650.284 -56.86)" fill="#999" fill-rule="evenodd"/>
        <path id="Trazado_877954" data-name="Trazado 877954" d="M568.62,331.228a13.68,13.68,0,1,1-16.143-10.663,13.68,13.68,0,0,1,16.143,10.663" transform="translate(-462.996 -273.835)" fill="#999" fill-rule="evenodd"/>
        <path id="Trazado_877955" data-name="Trazado 877955" d="M825.58,291.283a13.68,13.68,0,1,1-16.142-10.663,13.68,13.68,0,0,1,16.142,10.663" transform="translate(-682.69 -239.683)" fill="#999" fill-rule="evenodd"/>
        <path id="Trazado_877956" data-name="Trazado 877956" d="M519.821,92.487a13.68,13.68,0,1,1-16.143-10.663,13.68,13.68,0,0,1,16.143,10.663" transform="translate(-421.275 -69.718)" fill="#ccc" fill-rule="evenodd"/>
        <path id="Trazado_877957" data-name="Trazado 877957" d="M777.585,65.945a13.68,13.68,0,1,1-16.143-10.663,13.68,13.68,0,0,1,16.143,10.663" transform="translate(-641.655 -47.025)" fill="#ccc" fill-rule="evenodd"/>
        <path id="Trazado_877958" data-name="Trazado 877958" d="M558.528,319.724a13.68,13.68,0,1,1-16.143-10.663,13.68,13.68,0,0,1,16.143,10.663" transform="translate(-454.368 -263.999)" fill="#ccc" fill-rule="evenodd"/>
        <path id="Trazado_877959" data-name="Trazado 877959" d="M815.487,279.779a13.68,13.68,0,1,1-16.143-10.663,13.68,13.68,0,0,1,16.143,10.663" transform="translate(-674.061 -229.847)" fill="#ccc" fill-rule="evenodd"/>
        <path id="Trazado_877960" data-name="Trazado 877960" d="M534.882,115.762a10.267,10.267,0,1,1-.831-2.453.023.023,0,0,0,.01.013,10.337,10.337,0,0,1,.821,2.441" transform="translate(-439.91 -91.941)" fill="#ff8d9c" fill-rule="evenodd"/>
        <path id="Trazado_877961" data-name="Trazado 877961" d="M573.757,149.791A10.278,10.278,0,0,1,560,161.441c13.857-2.766,12.925-14.1,12.925-14.1a.023.023,0,0,0,.01.013,10.337,10.337,0,0,1,.821,2.441" transform="translate(-478.785 -125.97)" fill="#df7f9c" fill-rule="evenodd"/>
        <path id="Trazado_877962" data-name="Trazado 877962" d="M794.314,86.685a10.267,10.267,0,1,1-.831-2.454.023.023,0,0,0,.01.013,10.336,10.336,0,0,1,.821,2.441" transform="translate(-661.717 -67.081)" fill="#ff8d9c" fill-rule="evenodd"/>
        <path id="Trazado_877963" data-name="Trazado 877963" d="M833.189,120.715a10.279,10.279,0,0,1-13.756,11.65c13.857-2.766,12.925-14.1,12.925-14.1a.022.022,0,0,0,.01.013,10.333,10.333,0,0,1,.822,2.441" transform="translate(-700.591 -101.11)" fill="#df7f9c" fill-rule="evenodd"/>
        <path id="Trazado_877964" data-name="Trazado 877964" d="M575.258,340.464a10.267,10.267,0,1,1-.831-2.454.023.023,0,0,0,.01.013,10.341,10.341,0,0,1,.821,2.441" transform="translate(-474.431 -284.054)" fill="#ff8d9c" fill-rule="evenodd"/>
        <path id="Trazado_877965" data-name="Trazado 877965" d="M614.133,374.494a10.279,10.279,0,0,1-13.756,11.65c13.857-2.766,12.925-14.1,12.925-14.1a.022.022,0,0,0,.01.013,10.348,10.348,0,0,1,.822,2.441" transform="translate(-513.305 -318.084)" fill="#df7f9c" fill-rule="evenodd"/>
        <path id="Trazado_877966" data-name="Trazado 877966" d="M832.411,301.467a10.266,10.266,0,1,1-.831-2.454.023.023,0,0,0,.01.013,10.34,10.34,0,0,1,.821,2.441" transform="translate(-694.289 -250.713)" fill="#ff8d9c" fill-rule="evenodd"/>
        <path id="Trazado_877967" data-name="Trazado 877967" d="M871.286,335.5a10.279,10.279,0,0,1-13.756,11.65c13.857-2.766,12.924-14.1,12.924-14.1a.023.023,0,0,0,.01.013,10.341,10.341,0,0,1,.821,2.441" transform="translate(-733.163 -284.742)" fill="#df7f9c" fill-rule="evenodd"/>
        <path id="Trazado_877968" data-name="Trazado 877968" d="M794.008,88.736a8.774,8.774,0,0,0-6.571,4.758c-2.3,3.944.125,7.5.4,5.341a10.81,10.81,0,0,1,7.088-8.478c4.3-1.309-.417-1.76-.916-1.621" transform="translate(-672.397 -75.846)" fill="#f9acb9" fill-rule="evenodd"/>
        <path id="Trazado_877969" data-name="Trazado 877969" d="M533.96,119.821a8.775,8.775,0,0,0-6.571,4.758c-2.3,3.944.125,7.5.4,5.341a10.809,10.809,0,0,1,7.088-8.478c4.3-1.309-.417-1.76-.916-1.621" transform="translate(-450.064 -102.423)" fill="#f9acb9" fill-rule="evenodd"/>
        <path id="Trazado_877970" data-name="Trazado 877970" d="M835.5,304.114a8.774,8.774,0,0,0-6.571,4.758c-2.3,3.944.125,7.5.4,5.341a10.81,10.81,0,0,1,7.088-8.478c4.3-1.309-.417-1.76-.916-1.621" transform="translate(-707.875 -259.988)" fill="#f9acb9" fill-rule="evenodd"/>
        <path id="Trazado_877971" data-name="Trazado 877971" d="M577.6,346.9a8.774,8.774,0,0,0-6.571,4.758c-2.3,3.944.125,7.5.4,5.341a10.809,10.809,0,0,1,7.088-8.478c4.3-1.309-.417-1.76-.916-1.621" transform="translate(-487.374 -296.571)" fill="#f9acb9" fill-rule="evenodd"/>
        <path id="Trazado_877972" data-name="Trazado 877972" d="M799.783,297.528a11.508,11.508,0,0,1,11.262-16.747c-17.275,3.98-9.617,19.137-9.617,19.137a.024.024,0,0,0-.015-.011,11.577,11.577,0,0,1-1.63-2.379" transform="translate(-682.689 -240.016)" fill="#f2f2f2" fill-rule="evenodd"/>
        <path id="Trazado_877973" data-name="Trazado 877973" d="M542.824,337.083a11.508,11.508,0,0,1,11.262-16.747c-17.275,3.98-9.618,19.137-9.618,19.137a.024.024,0,0,0-.015-.011,11.58,11.58,0,0,1-1.63-2.379" transform="translate(-462.997 -273.835)" fill="#f2f2f2" fill-rule="evenodd"/>
        <path id="Trazado_877974" data-name="Trazado 877974" d="M504.523,111.5a11.508,11.508,0,0,1,11.262-16.747c-17.275,3.98-9.617,19.137-9.617,19.137a.024.024,0,0,0-.015-.011,11.585,11.585,0,0,1-1.63-2.379" transform="translate(-430.25 -80.968)" fill="#f2f2f2" fill-rule="evenodd"/>
        <path id="Trazado_877975" data-name="Trazado 877975" d="M761.88,83.888A11.508,11.508,0,0,1,773.142,67.14c-17.275,3.98-9.618,19.137-9.618,19.137a.024.024,0,0,0-.014-.011,11.58,11.58,0,0,1-1.63-2.379" transform="translate(-650.283 -57.36)" fill="#f2f2f2" fill-rule="evenodd"/>
        <path id="Trazado_877976" data-name="Trazado 877976" d="M951.635,501.48c.313,2.851-11.9,6.53-27.291,8.211a134.419,134.419,0,0,1-13.958.839c-8.447.02-14.251-1.036-14.459-2.948,0,0-3.367-45.127,3.8-52.241l6.111-.668,36.934-4.04a15.325,15.325,0,0,1,4.509,8.546c.757,5.237,4.354,42.3,4.354,42.3" transform="translate(-765.317 -385.278)" fill="#ccc" fill-rule="evenodd"/>
        <path id="Trazado_877977" data-name="Trazado 877977" d="M1007.556,579.636l-1.517-42.766s20.46,1.589,33.482-5.366l2.13,42.664s-9.089,5.07-34.095,5.468" transform="translate(-860.134 -454.422)" fill="#29abe2"/>
        <path id="Trazado_877978" data-name="Trazado 877978" d="M910.386,534.346c-8.447.02-14.251-1.036-14.459-2.948,0,0-3.367-45.127,3.8-52.241l6.111-.668,5.512,5.115s-2.743-.592-3.3,6.432c-.559,6.924,2.26,43.276,2.34,44.309" transform="translate(-765.317 -409.095)" fill="#ccc" fill-rule="evenodd"/>
        <path id="Trazado_877979" data-name="Trazado 877979" d="M969.631,304.241c.091,2.211-9.54,6.011-21.488,6.487a104.181,104.181,0,0,1-10.459-.086c-6.7-.415-11.258-3.18-11.318-4.694l-.455-28.774,7.912-.315,35.354-1.4Z" transform="translate(-791.627 -235.512)" fill="#f2f2f2" fill-rule="evenodd"/>
        <path id="Trazado_877980" data-name="Trazado 877980" d="M937.684,318.885c-6.7-.415-11.258-3.18-11.318-4.694l-.455-28.774,7.912-.315,2.747,3.339Z" transform="translate(-791.627 -243.755)" fill="#ccc"/>
        <path id="Trazado_877981" data-name="Trazado 877981" d="M969.554,257.841c.117,2.968-9.473,5.758-21.42,6.23s-21.728-1.551-21.845-4.52,9.473-5.758,21.42-6.23,21.728,1.551,21.845,4.52" transform="translate(-791.949 -216.524)" fill="#29abe2" fill-rule="evenodd"/>
        <path id="Trazado_877982" data-name="Trazado 877982" d="M1014.676,159.81c.04,1.49-4.944,2.987-11.131,3.344a41.4,41.4,0,0,1-5.414-.026c-3.469-.259-5.831-1.016-5.857-2.036l-.148-19.392,4.1-.236,18.306-1.05Z" transform="translate(-848.239 -120.051)" fill="#f2f2f2" fill-rule="evenodd"/>
        <path id="Trazado_877983" data-name="Trazado 877983" d="M998.13,169.319c-3.469-.259-5.831-1.016-5.857-2.036l-.148-19.392,4.1-.236,1.412,2.242Z" transform="translate(-848.238 -126.242)" fill="#e6e6e6"/>
        <path id="Trazado_877984" data-name="Trazado 877984" d="M1014.532,127.835c.039,1.492-4.945,2.99-11.131,3.344s-11.232-.567-11.271-2.06,4.945-2.99,11.131-3.344,11.233.567,11.271,2.06" transform="translate(-848.242 -107.47)" fill="#29abe2" fill-rule="evenodd"/>
        <path id="Trazado_877985" data-name="Trazado 877985" d="M1104.7,174.313c-.042,2.149-1.027,3.873-2.2,3.85s-2.091-1.784-2.049-3.933,1.027-3.873,2.2-3.85,2.091,1.784,2.049,3.933" transform="translate(-940.857 -145.67)" fill="#ccc" fill-rule="evenodd"/>
        <path id="Trazado_877986" data-name="Trazado 877986" d="M1107.8,178.932c-.03,1.519-.726,2.738-1.555,2.722s-1.478-1.261-1.448-2.78.726-2.738,1.555-2.722,1.478,1.261,1.448,2.78" transform="translate(-944.564 -150.605)" fill="#e6e6e6" fill-rule="evenodd"/>
        <path id="Trazado_877987" data-name="Trazado 877987" d="M1111.555,182.906c-.015.76-.363,1.369-.778,1.361s-.739-.63-.724-1.39.363-1.369.777-1.361.739.63.724,1.39" transform="translate(-949.063 -155.191)" fill="#29abe2" fill-rule="evenodd"/>
        <path id="Trazado_877988" data-name="Trazado 877988" d="M926.167,80.645s-.151-23.594.515-26.478,16.173-5.721,23.413-5.58,16.62,2.013,16.819,4.19S968.8,79.855,968.8,79.855L965.42,55.163s-12.264,3.876-31.45,1.812c0,0,28.105-.425,29.825-3.524s-8.865-4.206-16.624-3.643c-11.931.865-18.68,4.877-18.68,4.877Z" transform="translate(-791.834 -41.537)" fill="#29abe2" fill-rule="evenodd"/>
        <path id="Trazado_877989" data-name="Trazado 877989" d="M46.493,746.3,23.9,665.888,0,670.366l24.2,77.546Z" transform="translate(0 -569.315)" fill="#f9cc3d"/>
        <path id="Trazado_877990" data-name="Trazado 877990" d="M180.068,606.53l-15.25,8.609,22.59,80.416,16.775-5.712Z" transform="translate(-140.915 -518.566)" fill="#edba29"/>
        <path id="Trazado_877991" data-name="Trazado 877991" d="M16.892,610.7,0,619.617l23.9-4.479,15.25-8.609Z" transform="translate(0 -518.566)" fill="#fcd87e"/>
        <path id="Trazado_877992" data-name="Trazado 877992" d="M1481.756,721.791l-.839-.665L1428.058,681.4l34.276-47.589a4.245,4.245,0,0,1,6.02-.93l45.907,34.681a4.245,4.245,0,0,1,.953,5.772Z" transform="translate(-1220.948 -540.365)" fill="#f2f2f2" fill-rule="evenodd"/>
        <path id="Trazado_877993" data-name="Trazado 877993" d="M1662.841,707.116c-.065.1-.142.211-.215.31a4.4,4.4,0,0,1-1.855,1.452,4.538,4.538,0,0,1-4.483-.524l-14.421-10.728a4.536,4.536,0,0,1-1.8-4.055,4.408,4.408,0,0,1,.65-1.956c.07-.112.147-.219.225-.326a4.543,4.543,0,0,1,6.329-.933l14.429,10.733a4.55,4.55,0,0,1,1.143,6.028" transform="translate(-1402.191 -589.477)" fill="#f9cc3d" fill-rule="evenodd"/>
        <path id="Trazado_877994" data-name="Trazado 877994" d="M1650.2,701.068a6.309,6.309,0,0,0-.369,2.485l-7.974-5.927a3.752,3.752,0,0,1-.365-.3c-.086-.076-.159-.154-.24-.238a4.769,4.769,0,0,1-.745-1.083,1.752,1.752,0,0,1-.133-.3,3.672,3.672,0,0,1-.286-1.075,3.491,3.491,0,0,1-.044-.393,3.427,3.427,0,0,1,.01-.659,4.4,4.4,0,0,1,.65-1.956c.069-.112.147-.219.224-.326a4.543,4.543,0,0,1,6.329-.933l7.413,5.512a12.067,12.067,0,0,0-3.481,3.322,7.46,7.46,0,0,0-.989,1.878" transform="translate(-1402.184 -589.477)" fill="#98dfff" fill-rule="evenodd"/>
        <path id="Trazado_877995" data-name="Trazado 877995" d="M1718.455,777.253a4.538,4.538,0,0,1-4.483-.524l-6.447-4.8a6.31,6.31,0,0,1,.369-2.485Z" transform="translate(-1459.875 -657.852)" fill="#edba29"/>
        <path id="Trazado_877996" data-name="Trazado 877996" d="M1649.835,727.729l-7.974-5.927a3.766,3.766,0,0,1-.365-.3c-.086-.076-.159-.154-.24-.238a4.78,4.78,0,0,1-.745-1.083,2.774,2.774,0,0,1-.132-.3,3.673,3.673,0,0,1-.286-1.075,3.584,3.584,0,0,1-.044-.393,3.449,3.449,0,0,1,.01-.659l10.146,7.5a6.311,6.311,0,0,0-.369,2.485" transform="translate(-1402.184 -613.653)" fill="#29abe2"/>
        <path id="Trazado_877997" data-name="Trazado 877997" d="M1843.435,843.022c-.065.1-.142.211-.215.31a4.4,4.4,0,0,1-1.854,1.452,4.538,4.538,0,0,1-4.483-.524l-14.421-10.728a4.535,4.535,0,0,1-1.8-4.055,4.4,4.4,0,0,1,.65-1.956c.07-.112.147-.219.224-.326a4.543,4.543,0,0,1,6.329-.933l14.429,10.733a4.549,4.549,0,0,1,1.143,6.028" transform="translate(-1556.594 -705.672)" fill="#f9cc3d" fill-rule="evenodd"/>
        <path id="Trazado_877998" data-name="Trazado 877998" d="M1830.8,836.974a6.31,6.31,0,0,0-.369,2.485l-7.975-5.927a3.823,3.823,0,0,1-.365-.3c-.086-.076-.159-.154-.24-.238a4.774,4.774,0,0,1-.745-1.083,1.764,1.764,0,0,1-.133-.3,3.666,3.666,0,0,1-.285-1.075,4.157,4.157,0,0,1-.034-1.051,4.406,4.406,0,0,1,.65-1.956c.069-.112.147-.219.224-.326a4.543,4.543,0,0,1,6.33-.933l7.412,5.512a12.069,12.069,0,0,0-3.481,3.322,7.453,7.453,0,0,0-.989,1.878" transform="translate(-1556.588 -705.672)" fill="#98dfff" fill-rule="evenodd"/>
        <path id="Trazado_877999" data-name="Trazado 877999" d="M1899.05,913.158a4.538,4.538,0,0,1-4.483-.524l-6.447-4.8a6.31,6.31,0,0,1,.369-2.485Z" transform="translate(-1614.278 -774.047)" fill="#edba29"/>
        <path id="Trazado_878000" data-name="Trazado 878000" d="M1830.43,863.635l-7.975-5.927a3.761,3.761,0,0,1-.365-.3c-.086-.076-.159-.154-.24-.238a4.766,4.766,0,0,1-.745-1.083,2.754,2.754,0,0,1-.133-.3,3.671,3.671,0,0,1-.286-1.075,3.61,3.61,0,0,1-.044-.393,3.467,3.467,0,0,1,.01-.659l10.146,7.5a6.31,6.31,0,0,0-.369,2.485" transform="translate(-1556.588 -729.849)" fill="#29abe2"/>
        <path id="Trazado_878001" data-name="Trazado 878001" d="M1612.437,788.281c-.064.1-.142.211-.215.31a4.409,4.409,0,0,1-1.854,1.452,4.538,4.538,0,0,1-4.483-.524l-14.421-10.728a4.535,4.535,0,0,1-1.8-4.055,4.4,4.4,0,0,1,.65-1.956c.069-.112.147-.219.225-.326a4.542,4.542,0,0,1,6.329-.933l14.429,10.733a4.549,4.549,0,0,1,1.143,6.028" transform="translate(-1359.098 -658.871)" fill="#f9cc3d" fill-rule="evenodd"/>
        <path id="Trazado_878002" data-name="Trazado 878002" d="M1599.8,782.233a6.311,6.311,0,0,0-.369,2.485l-7.974-5.927a3.764,3.764,0,0,1-.365-.3c-.086-.076-.159-.154-.24-.238a4.77,4.77,0,0,1-.745-1.083,1.742,1.742,0,0,1-.133-.3,3.676,3.676,0,0,1-.286-1.075,3.49,3.49,0,0,1-.044-.393,3.438,3.438,0,0,1,.01-.659,4.4,4.4,0,0,1,.65-1.956c.07-.112.147-.219.224-.326a4.543,4.543,0,0,1,6.329-.933l7.413,5.512a12.069,12.069,0,0,0-3.481,3.322,7.446,7.446,0,0,0-.989,1.878" transform="translate(-1359.091 -658.871)" fill="#98dfff" fill-rule="evenodd"/>
        <path id="Trazado_878003" data-name="Trazado 878003" d="M1668.051,858.418a4.538,4.538,0,0,1-4.483-.524l-6.447-4.8a6.314,6.314,0,0,1,.369-2.485Z" transform="translate(-1416.781 -727.245)" fill="#edba29"/>
        <path id="Trazado_878004" data-name="Trazado 878004" d="M1599.431,808.9l-7.975-5.927a3.762,3.762,0,0,1-.365-.3c-.086-.076-.159-.154-.24-.238a4.768,4.768,0,0,1-.745-1.083,2.757,2.757,0,0,1-.133-.3,3.677,3.677,0,0,1-.286-1.075,3.557,3.557,0,0,1-.044-.393,3.449,3.449,0,0,1,.01-.659l10.146,7.5a6.315,6.315,0,0,0-.369,2.485" transform="translate(-1359.09 -683.048)" fill="#29abe2"/>
        <path id="Trazado_878005" data-name="Trazado 878005" d="M1790.5,922.612c-.065.1-.142.211-.214.31a4.407,4.407,0,0,1-1.854,1.452,4.538,4.538,0,0,1-4.483-.524l-14.421-10.728a4.534,4.534,0,0,1-1.8-4.055,4.4,4.4,0,0,1,.65-1.956c.07-.112.147-.219.224-.326a4.543,4.543,0,0,1,6.33-.933l14.429,10.733a4.549,4.549,0,0,1,1.143,6.028" transform="translate(-1511.332 -773.72)" fill="#f9cc3d" fill-rule="evenodd"/>
        <path id="Trazado_878006" data-name="Trazado 878006" d="M1777.859,916.564a6.309,6.309,0,0,0-.369,2.485l-7.974-5.927a3.791,3.791,0,0,1-.365-.3c-.086-.076-.159-.154-.24-.238a4.775,4.775,0,0,1-.745-1.083,1.758,1.758,0,0,1-.133-.3,3.679,3.679,0,0,1-.286-1.075,3.52,3.52,0,0,1-.044-.393,3.437,3.437,0,0,1,.01-.659,4.4,4.4,0,0,1,.65-1.956c.069-.112.147-.219.224-.326a4.543,4.543,0,0,1,6.33-.933l7.412,5.512a12.067,12.067,0,0,0-3.481,3.322,7.456,7.456,0,0,0-.989,1.878" transform="translate(-1511.326 -773.72)" fill="#98dfff" fill-rule="evenodd"/>
        <path id="Trazado_878007" data-name="Trazado 878007" d="M1846.11,992.749a4.538,4.538,0,0,1-4.483-.524l-6.447-4.8a6.316,6.316,0,0,1,.369-2.485Z" transform="translate(-1569.016 -842.095)" fill="#edba29"/>
        <path id="Trazado_878008" data-name="Trazado 878008" d="M1777.49,943.225l-7.975-5.927a3.786,3.786,0,0,1-.365-.3c-.086-.076-.159-.154-.24-.238a4.785,4.785,0,0,1-.745-1.083,2.818,2.818,0,0,1-.132-.3,3.678,3.678,0,0,1-.286-1.075,3.551,3.551,0,0,1-.044-.393,3.458,3.458,0,0,1,.01-.659l10.146,7.5a6.312,6.312,0,0,0-.369,2.485" transform="translate(-1511.325 -797.896)" fill="#29abe2"/>
        <path id="Trazado_878009" data-name="Trazado 878009" d="M1555.057,875.021c-.065.1-.142.211-.215.31a4.409,4.409,0,0,1-1.855,1.452,4.538,4.538,0,0,1-4.483-.524l-14.421-10.728a4.535,4.535,0,0,1-1.8-4.055,4.4,4.4,0,0,1,.65-1.956c.07-.112.147-.219.225-.326a4.543,4.543,0,0,1,6.329-.933l14.429,10.733a4.55,4.55,0,0,1,1.143,6.028" transform="translate(-1310.039 -733.031)" fill="#f9cc3d" fill-rule="evenodd"/>
        <path id="Trazado_878010" data-name="Trazado 878010" d="M1542.42,868.973a6.314,6.314,0,0,0-.369,2.485l-7.974-5.927a3.781,3.781,0,0,1-.365-.3c-.086-.076-.159-.154-.24-.238a4.78,4.78,0,0,1-.745-1.083,1.769,1.769,0,0,1-.132-.3,3.671,3.671,0,0,1-.286-1.075,3.549,3.549,0,0,1-.044-.393,3.457,3.457,0,0,1,.01-.659,4.4,4.4,0,0,1,.65-1.956c.069-.112.147-.219.225-.326a4.543,4.543,0,0,1,6.329-.933l7.412,5.512a12.069,12.069,0,0,0-3.481,3.322,7.451,7.451,0,0,0-.989,1.878" transform="translate(-1310.032 -733.031)" fill="#98dfff" fill-rule="evenodd"/>
        <path id="Trazado_878011" data-name="Trazado 878011" d="M1610.672,945.158a4.538,4.538,0,0,1-4.483-.524l-6.447-4.8a6.306,6.306,0,0,1,.369-2.485Z" transform="translate(-1367.723 -801.406)" fill="#edba29"/>
        <path id="Trazado_878012" data-name="Trazado 878012" d="M1542.051,895.635l-7.975-5.927a3.763,3.763,0,0,1-.365-.3c-.086-.076-.159-.154-.24-.238a4.775,4.775,0,0,1-.745-1.083,2.693,2.693,0,0,1-.132-.3,3.665,3.665,0,0,1-.286-1.075,3.557,3.557,0,0,1-.044-.393,3.448,3.448,0,0,1,.01-.659l10.146,7.5a6.313,6.313,0,0,0-.369,2.485" transform="translate(-1310.032 -757.208)" fill="#29abe2"/>
        <path id="Trazado_878013" data-name="Trazado 878013" d="M1738,1007.151c-.065.1-.142.211-.215.31a4.412,4.412,0,0,1-1.855,1.452,4.538,4.538,0,0,1-4.483-.524l-14.421-10.728a4.535,4.535,0,0,1-1.8-4.055,4.4,4.4,0,0,1,.65-1.956c.069-.112.147-.219.225-.326a4.543,4.543,0,0,1,6.329-.933l14.429,10.733a4.549,4.549,0,0,1,1.143,6.027" transform="translate(-1466.447 -845.998)" fill="#f9cc3d" fill-rule="evenodd"/>
        <path id="Trazado_878014" data-name="Trazado 878014" d="M1725.36,1001.1a6.313,6.313,0,0,0-.369,2.485l-7.974-5.927a3.794,3.794,0,0,1-.365-.3c-.086-.076-.159-.154-.24-.238a4.762,4.762,0,0,1-.745-1.083,1.731,1.731,0,0,1-.133-.3,3.653,3.653,0,0,1-.285-1.075,3.554,3.554,0,0,1-.044-.393,3.466,3.466,0,0,1,.01-.658,4.4,4.4,0,0,1,.649-1.956c.07-.112.147-.219.225-.326a4.542,4.542,0,0,1,6.329-.933l7.413,5.512a12.071,12.071,0,0,0-3.481,3.322,7.452,7.452,0,0,0-.989,1.878" transform="translate(-1466.441 -845.998)" fill="#98dfff" fill-rule="evenodd"/>
        <path id="Trazado_878015" data-name="Trazado 878015" d="M1793.611,1077.287a4.538,4.538,0,0,1-4.483-.524l-6.447-4.8a6.308,6.308,0,0,1,.369-2.485Z" transform="translate(-1524.131 -914.372)" fill="#edba29"/>
        <path id="Trazado_878016" data-name="Trazado 878016" d="M1724.991,1027.764l-7.975-5.927a3.793,3.793,0,0,1-.365-.3c-.086-.076-.159-.154-.24-.238a4.771,4.771,0,0,1-.745-1.083,2.793,2.793,0,0,1-.132-.3,3.671,3.671,0,0,1-.286-1.075,3.588,3.588,0,0,1-.044-.393,3.477,3.477,0,0,1,.01-.659l10.146,7.5a6.312,6.312,0,0,0-.369,2.485" transform="translate(-1466.441 -870.174)" fill="#29abe2"/>
        <path id="Trazado_878017" data-name="Trazado 878017" d="M1505.792,948.693c-.065.1-.142.211-.215.31a4.412,4.412,0,0,1-1.854,1.452,4.539,4.539,0,0,1-4.483-.524L1484.819,939.2a4.535,4.535,0,0,1-1.8-4.056,4.405,4.405,0,0,1,.65-1.956c.07-.112.147-.219.225-.326a4.543,4.543,0,0,1,6.329-.933l14.429,10.733a4.549,4.549,0,0,1,1.143,6.028" transform="translate(-1267.92 -796.018)" fill="#f9cc3d" fill-rule="evenodd"/>
        <path id="Trazado_878018" data-name="Trazado 878018" d="M1493.155,942.645a6.31,6.31,0,0,0-.369,2.485l-7.974-5.927a3.728,3.728,0,0,1-.365-.3c-.086-.076-.159-.154-.24-.238a4.771,4.771,0,0,1-.745-1.083,1.769,1.769,0,0,1-.133-.3,3.68,3.68,0,0,1-.286-1.075,3.585,3.585,0,0,1-.044-.393,3.429,3.429,0,0,1,.01-.659,4.4,4.4,0,0,1,.65-1.956c.07-.112.147-.219.224-.326a4.543,4.543,0,0,1,6.329-.933l7.413,5.512a12.069,12.069,0,0,0-3.482,3.322,7.453,7.453,0,0,0-.989,1.878" transform="translate(-1267.912 -796.018)" fill="#98dfff" fill-rule="evenodd"/>
        <path id="Trazado_878019" data-name="Trazado 878019" d="M1561.406,1018.83a4.538,4.538,0,0,1-4.483-.524l-6.447-4.8a6.309,6.309,0,0,1,.369-2.485Z" transform="translate(-1325.602 -864.393)" fill="#edba29"/>
        <path id="Trazado_878020" data-name="Trazado 878020" d="M1492.786,969.306l-7.974-5.927a3.764,3.764,0,0,1-.365-.3c-.086-.076-.159-.154-.24-.238a4.786,4.786,0,0,1-.745-1.083,2.828,2.828,0,0,1-.132-.3,3.681,3.681,0,0,1-.286-1.075,3.619,3.619,0,0,1-.044-.393,3.467,3.467,0,0,1,.01-.659l10.146,7.5a6.312,6.312,0,0,0-.369,2.485" transform="translate(-1267.912 -820.195)" fill="#29abe2"/>
        <path id="Trazado_878021" data-name="Trazado 878021" d="M1688.732,1080.823c-.065.1-.142.211-.215.31a4.406,4.406,0,0,1-1.854,1.452,4.539,4.539,0,0,1-4.483-.524l-14.421-10.728a4.533,4.533,0,0,1-1.8-4.055,4.406,4.406,0,0,1,.65-1.956c.07-.112.147-.219.225-.326a4.542,4.542,0,0,1,6.329-.933l14.429,10.733a4.55,4.55,0,0,1,1.143,6.028" transform="translate(-1424.327 -908.986)" fill="#f9cc3d" fill-rule="evenodd"/>
        <path id="Trazado_878022" data-name="Trazado 878022" d="M1676.1,1074.775a6.312,6.312,0,0,0-.369,2.485l-7.974-5.927a3.743,3.743,0,0,1-.365-.3c-.086-.075-.159-.154-.24-.238a4.782,4.782,0,0,1-.745-1.083,1.763,1.763,0,0,1-.133-.3,3.675,3.675,0,0,1-.286-1.075,3.487,3.487,0,0,1-.044-.393,3.447,3.447,0,0,1,.01-.659,4.4,4.4,0,0,1,.65-1.956c.069-.112.147-.219.224-.326a4.543,4.543,0,0,1,6.33-.933l7.412,5.512a12.07,12.07,0,0,0-3.481,3.322,7.457,7.457,0,0,0-.989,1.879" transform="translate(-1424.321 -908.986)" fill="#98dfff" fill-rule="evenodd"/>
        <path id="Trazado_878023" data-name="Trazado 878023" d="M1744.346,1150.959a4.538,4.538,0,0,1-4.483-.524l-6.447-4.8a6.313,6.313,0,0,1,.369-2.485Z" transform="translate(-1482.011 -977.36)" fill="#edba29"/>
        <path id="Trazado_878024" data-name="Trazado 878024" d="M1675.726,1101.436l-7.974-5.927a3.73,3.73,0,0,1-.365-.3c-.086-.076-.159-.154-.24-.238a4.771,4.771,0,0,1-.745-1.083,2.769,2.769,0,0,1-.133-.3,3.68,3.68,0,0,1-.286-1.075,3.579,3.579,0,0,1-.044-.393,3.466,3.466,0,0,1,.01-.658l10.146,7.5a6.314,6.314,0,0,0-.369,2.485" transform="translate(-1424.32 -933.162)" fill="#29abe2"/>
        <path id="Trazado_878025" data-name="Trazado 878025" d="M1265.866,765.068c.049,3.975-18.105,2.293-39.551,2.551a186.305,186.305,0,0,1-19.363-.713c-11.653-1.1-19.516-3.338-19.547-6,0,0,1.4-62.691,12.24-71.541l8.518-.1,51.48-.624a21.234,21.234,0,0,1,5.074,12.39c.343,7.324,1.151,64.043,1.151,64.043" transform="translate(-1015.196 -588.763)" fill="#e6e6e6" fill-rule="evenodd"/>
        <path id="Trazado_878026" data-name="Trazado 878026" d="M1344.58,864.056l3.636-59.185s28.006,4.932,46.9-2.915l-2.777,59.127s-13.216,5.776-47.756,2.974" transform="translate(-1149.577 -685.649)" fill="#98dfff"/>
        <path id="Trazado_878027" data-name="Trazado 878027" d="M1482.284,1003.36l-7.753.68.939-8.242-4.5.374-.807,8.251-8.175.717-.249,4.154,7.885-.865-.419,8.46,4.154-.278.585-8.656,7.661-.84Z" transform="translate(-1249.744 -851.379)" fill="#f2f2f2"/>
        <path id="Trazado_878028" data-name="Trazado 878028" d="M1206.951,770.587c-11.653-1.1-19.516-3.338-19.547-6,0,0,1.4-62.691,12.24-71.541l8.518-.1,7.1,6.525s-3.885.083-5.6,9.7c-1.7,9.475-2.681,59.989-2.708,61.425" transform="translate(-1015.196 -592.445)" fill="#ccc" fill-rule="evenodd"/>
        <path id="Trazado_878029" data-name="Trazado 878029" d="M1334.456,466.64c-.171,3.062-13.725,4.778-30.268,3.834a144.31,144.31,0,0,1-14.414-1.52c-9.19-1.47-15.339-3.659-15.218-5.754l3.226-39.746,10.954.626,48.947,2.807Z" transform="translate(-1089.708 -362.04)" fill="#f9cc3d" fill-rule="evenodd"/>
        <path id="Trazado_878030" data-name="Trazado 878030" d="M1289.775,468.954c-9.19-1.47-15.339-3.659-15.218-5.754l3.226-39.746,10.954.626,3.341,4.974Z" transform="translate(-1089.708 -362.04)" fill="#edba29"/>
        <path id="Trazado_878031" data-name="Trazado 878031" d="M1356.719,402.749c-.176,3.066-13.727,4.783-30.269,3.834s-29.807-4.2-29.632-7.27,13.728-4.783,30.269-3.834,29.808,4.2,29.632,7.269" transform="translate(-1108.741 -337.901)" fill="#fcd87e" fill-rule="evenodd"/>
        <path id="Trazado_878032" data-name="Trazado 878032" d="M314.689,417.354s-13.392-51.247-12.137-54.185l-2.685-5.451,54.074-14.785,8.628,81.535Z" transform="translate(-256.378 -293.198)" fill="#29abe2"/>
        <path id="Trazado_878033" data-name="Trazado 878033" d="M374.8,482.239s-16.867-50.769-9.26-56.246,39.727-14.268,41.692-11.539,10.611,74.73,10.611,74.73Z" transform="translate(-310.84 -353.908)" fill="#f2f2f2"/>
        <path id="Trazado_878034" data-name="Trazado 878034" d="M299.866,357.719l54.074-14.785.17,1.606-53.486,14.718Z" transform="translate(-256.377 -293.199)" fill="#98dfff"/>
        <path id="Trazado_878035" data-name="Trazado 878035" d="M496.912,500.106l-5,1.375-.374-5.51-2.9.785.462,5.5-5.267,1.45.336,2.75,5.06-1.513.74,5.591,2.687-.68L492,504.115l4.916-1.469Z" transform="translate(-413.663 -424.041)" fill="#98dfff"/>
        <path id="Trazado_878036" data-name="Trazado 878036" d="M665.086,492.43,663.9,553.37a13.556,13.556,0,0,1-3.427,4.844c-5.469,5.488-19.29,13.715-52.892,13.944a9.135,9.135,0,0,1-3.032-.688c-3.648-1.362-8.325-4.278-11.478-4.416l-.166-65.744a14,14,0,0,1,2.418-8.008l11.343-10.217L607,466l11.2-2.3,28.969-5.935-.307,15.773,11.292,6.564a13.951,13.951,0,0,1,6.932,12.327" transform="translate(-506.916 -391.377)" fill="#9f5d45" fill-rule="evenodd"/>
        <path id="Trazado_878037" data-name="Trazado 878037" d="M736.5,798.744c-5.469,5.488-19.29,13.715-52.892,13.944l-1.779-65.047s27.717,5.961,53.129-8.543Z" transform="translate(-582.947 -631.907)" fill="#f2f2f2" fill-rule="evenodd"/>
        <path id="Trazado_878038" data-name="Trazado 878038" d="M603.467,540.884l1.081,65.575c-3.648-1.362-8.325-4.278-11.478-4.416L592.9,536.3a14,14,0,0,1,2.418-8.008l11.343-10.217L607,500.989l11.2-2.3,1.3,20.851a6.541,6.541,0,0,1-2.086,5.209l-11.669,10.8a7.11,7.11,0,0,0-2.28,5.336" transform="translate(-506.915 -426.367)" fill="#874d3c" fill-rule="evenodd"/>
        <path id="Trazado_878039" data-name="Trazado 878039" d="M703.934,439.363s-6.845,7.006-30.526,6.534c-3.739-.073-7.894-.33-12.518-.84a2.972,2.972,0,0,1-2.748-2.249c-.766-3.711-2.094-10.9-1.239-12.327a4.293,4.293,0,0,1,.836-.988c1.864-1.685,6.115-3.489,14.062-4.769,15.2-2.452,29.539-1.191,31.2.254s.934,14.384.934,14.384" transform="translate(-561.396 -361.942)" fill="#f9cc3d" fill-rule="evenodd"/>
        <path id="Trazado_878040" data-name="Trazado 878040" d="M705.372,422.619c.262,2.4-10.008,5.488-22.939,6.9s-23.627.621-23.889-1.776,10.008-5.488,22.939-6.9,23.627-.621,23.89,1.776" transform="translate(-563.032 -359.209)" fill="#fcd87e" fill-rule="evenodd"/>
        <path id="Trazado_878041" data-name="Trazado 878041" d="M798.129,868.009l-14.169,2.641.256-15.359-8.231,1.5-.01,15.353-14.939,2.785.285,7.7,14.379-3.006.742,15.669,7.608-1.256-.471-16.06,13.97-2.921Z" transform="translate(-650.663 -731.249)" fill="#98dfff"/>
        <path id="Trazado_878042" data-name="Trazado 878042" d="M673.408,482.182c-3.739-.073-7.894-.33-12.518-.84a2.972,2.972,0,0,1-2.748-2.249c-.766-3.711-2.094-10.9-1.239-12.327a4.3,4.3,0,0,1,.836-.988s-.323,1.516,3.435,2.364c2.028.458,10.611,1.055,10.611,1.055Z" transform="translate(-561.396 -398.228)" fill="#edba29"/>
        <path id="Trazado_878043" data-name="Trazado 878043" d="M305.857,877.355l-1.032-.139-63.958-6.947,4.42-54.385a4.13,4.13,0,0,1,4.573-3.77L305.5,818.3a4.13,4.13,0,0,1,3.666,4.354Z" transform="translate(-205.934 -694.312)" fill="#e6e6e6" fill-rule="evenodd"/>
        <path id="Trazado_878044" data-name="Trazado 878044" d="M310.824,874.592c0,.119-.014.247-.026.366a4.291,4.291,0,0,1-.829,2.136,4.416,4.416,0,0,1-4.01,1.79l-17.4-1.8a4.412,4.412,0,0,1-3.523-2.5,4.285,4.285,0,0,1-.429-1.959c0-.128.014-.256.026-.384a4.42,4.42,0,0,1,4.83-3.927l17.4,1.8a4.426,4.426,0,0,1,3.952,4.473" transform="translate(-243.334 -742.364)" fill="#fff" fill-rule="evenodd"/>
        <path id="Trazado_878045" data-name="Trazado 878045" d="M297.254,875.811a6.142,6.142,0,0,0,.927,2.262l-9.616-.993a3.718,3.718,0,0,1-.457-.073c-.109-.02-.21-.05-.319-.08a4.638,4.638,0,0,1-1.162-.535,1.7,1.7,0,0,1-.262-.188,3.573,3.573,0,0,1-.773-.757,4.048,4.048,0,0,1-.551-.862,4.285,4.285,0,0,1-.429-1.959c0-.128.014-.256.026-.384a4.42,4.42,0,0,1,4.83-3.927l8.94.925a11.739,11.739,0,0,0-1.26,4.509,7.249,7.249,0,0,0,.106,2.063" transform="translate(-243.334 -742.364)" fill="#98dfff" fill-rule="evenodd"/>
        <path id="Trazado_878046" data-name="Trazado 878046" d="M384.5,921.429a4.416,4.416,0,0,1-4.01,1.79l-7.779-.811a6.141,6.141,0,0,1-.927-2.262Z" transform="translate(-317.865 -786.699)" fill="#b3b3b3"/>
        <path id="Trazado_878047" data-name="Trazado 878047" d="M300.715,915.175l-9.616-.993a3.668,3.668,0,0,1-.457-.073c-.109-.021-.21-.05-.319-.08a4.641,4.641,0,0,1-1.162-.535,2.715,2.715,0,0,1-.262-.188,3.574,3.574,0,0,1-.773-.757,3.429,3.429,0,0,1-.232-.307,3.343,3.343,0,0,1-.319-.556l12.213,1.227a6.139,6.139,0,0,0,.927,2.262" transform="translate(-245.868 -779.465)" fill="#29abe2"/>
        <path id="Trazado_878048" data-name="Trazado 878048" d="M529.433,898.486c0,.119-.014.247-.026.366a4.288,4.288,0,0,1-.829,2.136,4.416,4.416,0,0,1-4.01,1.79l-17.4-1.8a4.412,4.412,0,0,1-3.523-2.5,4.282,4.282,0,0,1-.429-1.959c0-.128.014-.256.026-.384a4.42,4.42,0,0,1,4.83-3.927l17.4,1.8a4.426,4.426,0,0,1,3.952,4.473" transform="translate(-430.239 -762.793)" fill="#fff" fill-rule="evenodd"/>
        <path id="Trazado_878049" data-name="Trazado 878049" d="M515.863,899.706a6.143,6.143,0,0,0,.927,2.262l-9.616-.993a3.736,3.736,0,0,1-.456-.073c-.11-.021-.21-.05-.319-.08a4.647,4.647,0,0,1-1.162-.535,1.714,1.714,0,0,1-.262-.188,3.572,3.572,0,0,1-.773-.757,4.046,4.046,0,0,1-.551-.862,4.283,4.283,0,0,1-.429-1.959c0-.128.014-.256.026-.384a4.42,4.42,0,0,1,4.83-3.927l8.94.925a11.741,11.741,0,0,0-1.26,4.509,7.252,7.252,0,0,0,.106,2.063" transform="translate(-430.239 -762.793)" fill="#98dfff" fill-rule="evenodd"/>
        <path id="Trazado_878050" data-name="Trazado 878050" d="M603.11,945.323a4.415,4.415,0,0,1-4.01,1.79l-7.779-.811a6.141,6.141,0,0,1-.927-2.262Z" transform="translate(-504.77 -807.128)" fill="#b3b3b3"/>
        <path id="Trazado_878051" data-name="Trazado 878051" d="M519.325,939.07l-9.617-.993a3.67,3.67,0,0,1-.456-.073c-.11-.021-.21-.05-.319-.08a4.642,4.642,0,0,1-1.162-.536,2.681,2.681,0,0,1-.262-.188,3.574,3.574,0,0,1-.773-.757,3.4,3.4,0,0,1-.232-.307,3.337,3.337,0,0,1-.319-.556l12.213,1.227a6.138,6.138,0,0,0,.927,2.262" transform="translate(-432.774 -799.895)" fill="#29abe2"/>
        <path id="Trazado_878052" data-name="Trazado 878052" d="M309.015,967.534c0,.119-.014.247-.026.366a4.289,4.289,0,0,1-.829,2.136,4.415,4.415,0,0,1-4.01,1.79l-17.4-1.8a4.412,4.412,0,0,1-3.523-2.5,4.283,4.283,0,0,1-.429-1.959c0-.128.014-.256.026-.384a4.42,4.42,0,0,1,4.83-3.927l17.4,1.8a4.426,4.426,0,0,1,3.952,4.473" transform="translate(-241.788 -821.827)" fill="#fff" fill-rule="evenodd"/>
        <path id="Trazado_878053" data-name="Trazado 878053" d="M295.445,968.754a6.143,6.143,0,0,0,.927,2.262l-9.616-.993a3.694,3.694,0,0,1-.457-.073c-.11-.02-.21-.05-.319-.08a4.639,4.639,0,0,1-1.162-.535,1.7,1.7,0,0,1-.262-.189,3.573,3.573,0,0,1-.773-.757,3.426,3.426,0,0,1-.232-.307,3.363,3.363,0,0,1-.319-.556,4.283,4.283,0,0,1-.429-1.959c0-.128.014-.256.026-.384a4.42,4.42,0,0,1,4.83-3.927l8.94.925a11.739,11.739,0,0,0-1.26,4.509,7.248,7.248,0,0,0,.106,2.063" transform="translate(-241.788 -821.827)" fill="#98dfff" fill-rule="evenodd"/>
        <path id="Trazado_878054" data-name="Trazado 878054" d="M382.691,1014.371a4.416,4.416,0,0,1-4.01,1.79l-7.779-.811a6.141,6.141,0,0,1-.927-2.262Z" transform="translate(-316.318 -866.162)" fill="#b3b3b3"/>
        <path id="Trazado_878055" data-name="Trazado 878055" d="M298.906,1008.117l-9.616-.993a3.715,3.715,0,0,1-.457-.073c-.109-.021-.21-.05-.319-.08a4.649,4.649,0,0,1-1.162-.535,2.706,2.706,0,0,1-.262-.188,3.575,3.575,0,0,1-.773-.757,3.414,3.414,0,0,1-.232-.307,3.338,3.338,0,0,1-.319-.556l12.213,1.227a6.14,6.14,0,0,0,.927,2.262" transform="translate(-244.322 -858.928)" fill="#29abe2"/>
        <path id="Trazado_878056" data-name="Trazado 878056" d="M524.72,991.372c0,.119-.014.247-.025.366a4.291,4.291,0,0,1-.829,2.136,4.416,4.416,0,0,1-4.01,1.791l-17.395-1.8a4.412,4.412,0,0,1-3.524-2.5,4.285,4.285,0,0,1-.429-1.959c0-.128.014-.256.026-.384a4.42,4.42,0,0,1,4.83-3.927l17.4,1.8a4.426,4.426,0,0,1,3.952,4.473" transform="translate(-426.209 -842.207)" fill="#fff" fill-rule="evenodd"/>
        <path id="Trazado_878057" data-name="Trazado 878057" d="M511.15,992.592a6.144,6.144,0,0,0,.927,2.262l-9.616-.993a3.668,3.668,0,0,1-.457-.073c-.109-.02-.21-.05-.319-.08a4.641,4.641,0,0,1-1.162-.535,1.707,1.707,0,0,1-.262-.188,3.571,3.571,0,0,1-.773-.757,4.032,4.032,0,0,1-.551-.862,4.284,4.284,0,0,1-.429-1.959c0-.128.014-.256.026-.384a4.42,4.42,0,0,1,4.83-3.927l8.94.925a11.74,11.74,0,0,0-1.26,4.509,7.25,7.25,0,0,0,.106,2.063" transform="translate(-426.209 -842.208)" fill="#98dfff" fill-rule="evenodd"/>
        <path id="Trazado_878058" data-name="Trazado 878058" d="M598.4,1038.209a4.416,4.416,0,0,1-4.01,1.79l-7.779-.811a6.143,6.143,0,0,1-.927-2.262Z" transform="translate(-500.739 -886.543)" fill="#b3b3b3"/>
        <path id="Trazado_878059" data-name="Trazado 878059" d="M514.611,1031.956l-9.616-.993a3.691,3.691,0,0,1-.457-.073c-.109-.021-.21-.05-.319-.08a4.635,4.635,0,0,1-1.162-.535,2.7,2.7,0,0,1-.262-.188,3.57,3.57,0,0,1-.773-.757,3.375,3.375,0,0,1-.232-.307,3.333,3.333,0,0,1-.319-.556l12.213,1.227a6.136,6.136,0,0,0,.927,2.262" transform="translate(-428.743 -879.31)" fill="#29abe2"/>
        <path id="Trazado_878060" data-name="Trazado 878060" d="M304.142,1068.608c0,.119-.014.247-.025.366a4.29,4.29,0,0,1-.829,2.136,4.416,4.416,0,0,1-4.01,1.79l-17.395-1.8a4.412,4.412,0,0,1-3.524-2.5,4.286,4.286,0,0,1-.429-1.959c0-.128.014-.256.026-.384a4.42,4.42,0,0,1,4.83-3.927l17.4,1.8a4.426,4.426,0,0,1,3.952,4.473" transform="translate(-237.622 -908.242)" fill="#fff" fill-rule="evenodd"/>
        <path id="Trazado_878061" data-name="Trazado 878061" d="M290.572,1069.827a6.143,6.143,0,0,0,.927,2.262l-9.616-.993a3.69,3.69,0,0,1-.457-.073c-.11-.021-.21-.05-.319-.08a4.65,4.65,0,0,1-1.162-.535,1.714,1.714,0,0,1-.262-.189,3.573,3.573,0,0,1-.773-.757,4.048,4.048,0,0,1-.551-.862,4.286,4.286,0,0,1-.429-1.959c0-.128.014-.256.026-.384a4.42,4.42,0,0,1,4.83-3.927l8.94.925a11.741,11.741,0,0,0-1.26,4.509,7.248,7.248,0,0,0,.106,2.063" transform="translate(-237.622 -908.242)" fill="#98dfff" fill-rule="evenodd"/>
        <path id="Trazado_878062" data-name="Trazado 878062" d="M377.819,1115.444a4.415,4.415,0,0,1-4.01,1.79l-7.779-.811a6.141,6.141,0,0,1-.927-2.262Z" transform="translate(-312.152 -952.576)" fill="#b3b3b3"/>
        <path id="Trazado_878063" data-name="Trazado 878063" d="M294.033,1109.191l-9.616-.993a3.688,3.688,0,0,1-.457-.073c-.11-.021-.21-.05-.319-.08a4.643,4.643,0,0,1-1.162-.535,2.748,2.748,0,0,1-.262-.188,3.572,3.572,0,0,1-.773-.757,3.422,3.422,0,0,1-.232-.307,3.353,3.353,0,0,1-.319-.556l12.213,1.227a6.139,6.139,0,0,0,.927,2.262" transform="translate(-240.155 -945.344)" fill="#29abe2"/>
        <path id="Trazado_878064" data-name="Trazado 878064" d="M522.836,1088.178c0,.119-.014.247-.026.366a4.29,4.29,0,0,1-.829,2.136,4.416,4.416,0,0,1-4.01,1.79l-17.395-1.8a4.412,4.412,0,0,1-3.524-2.5,4.283,4.283,0,0,1-.429-1.959c0-.128.014-.256.026-.384a4.42,4.42,0,0,1,4.83-3.927l17.4,1.8a4.426,4.426,0,0,1,3.952,4.473" transform="translate(-424.599 -924.974)" fill="#fff" fill-rule="evenodd"/>
        <path id="Trazado_878065" data-name="Trazado 878065" d="M509.266,1089.4a6.143,6.143,0,0,0,.927,2.262l-9.616-.993a3.7,3.7,0,0,1-.457-.073c-.109-.02-.21-.05-.319-.08a4.65,4.65,0,0,1-1.162-.535,1.733,1.733,0,0,1-.262-.189,3.571,3.571,0,0,1-.773-.757,4.028,4.028,0,0,1-.551-.862,4.281,4.281,0,0,1-.429-1.959c0-.128.014-.256.026-.384a4.42,4.42,0,0,1,4.83-3.927l8.94.925a11.738,11.738,0,0,0-1.26,4.509,7.24,7.24,0,0,0,.106,2.063" transform="translate(-424.598 -924.975)" fill="#98dfff" fill-rule="evenodd"/>
        <path id="Trazado_878066" data-name="Trazado 878066" d="M596.512,1135.015a4.414,4.414,0,0,1-4.01,1.79l-7.779-.811a6.138,6.138,0,0,1-.927-2.262Z" transform="translate(-499.13 -969.309)" fill="#b3b3b3"/>
        <path id="Trazado_878067" data-name="Trazado 878067" d="M512.727,1128.761l-9.616-.993a3.713,3.713,0,0,1-.456-.073c-.109-.021-.21-.05-.319-.08a4.649,4.649,0,0,1-1.162-.535,2.739,2.739,0,0,1-.262-.189,3.567,3.567,0,0,1-.773-.757,3.391,3.391,0,0,1-.232-.307,3.328,3.328,0,0,1-.319-.556L511.8,1126.5a6.141,6.141,0,0,0,.927,2.262" transform="translate(-427.133 -962.075)" fill="#29abe2"/>
        <path id="Trazado_878068" data-name="Trazado 878068" d="M299.561,1154.716c0,.119-.014.247-.026.366a4.289,4.289,0,0,1-.829,2.136,4.415,4.415,0,0,1-4.01,1.79l-17.4-1.8a4.412,4.412,0,0,1-3.523-2.5,4.282,4.282,0,0,1-.429-1.959c0-.128.014-.256.026-.384a4.42,4.42,0,0,1,4.83-3.927l17.4,1.8a4.426,4.426,0,0,1,3.952,4.473" transform="translate(-233.705 -981.862)" fill="#fff" fill-rule="evenodd"/>
        <path id="Trazado_878069" data-name="Trazado 878069" d="M285.991,1155.936a6.142,6.142,0,0,0,.927,2.262l-9.616-.993a3.714,3.714,0,0,1-.457-.073c-.109-.021-.21-.05-.319-.08a4.653,4.653,0,0,1-1.162-.535,1.729,1.729,0,0,1-.262-.189,3.575,3.575,0,0,1-.773-.757,3.421,3.421,0,0,1-.232-.307,3.362,3.362,0,0,1-.319-.556,4.282,4.282,0,0,1-.429-1.959c0-.128.014-.256.026-.384a4.42,4.42,0,0,1,4.83-3.927l8.94.925a11.74,11.74,0,0,0-1.26,4.509,7.248,7.248,0,0,0,.106,2.063" transform="translate(-233.705 -981.863)" fill="#98dfff" fill-rule="evenodd"/>
        <path id="Trazado_878070" data-name="Trazado 878070" d="M373.237,1201.553a4.415,4.415,0,0,1-4.01,1.79l-7.779-.811a6.141,6.141,0,0,1-.927-2.262Z" transform="translate(-308.235 -1026.197)" fill="#b3b3b3"/>
        <path id="Trazado_878071" data-name="Trazado 878071" d="M289.452,1195.3l-9.616-.993a3.662,3.662,0,0,1-.457-.073c-.11-.021-.21-.05-.319-.08a4.648,4.648,0,0,1-1.162-.535,2.727,2.727,0,0,1-.262-.189,3.575,3.575,0,0,1-.773-.757,3.442,3.442,0,0,1-.232-.307,3.346,3.346,0,0,1-.319-.556l12.213,1.227a6.14,6.14,0,0,0,.927,2.262" transform="translate(-236.239 -1018.964)" fill="#29abe2"/>
        <path id="Trazado_878072" data-name="Trazado 878072" d="M518.254,1174.287c0,.119-.014.247-.026.366a4.289,4.289,0,0,1-.829,2.136,4.416,4.416,0,0,1-4.01,1.79l-17.4-1.8a4.412,4.412,0,0,1-3.523-2.5,4.283,4.283,0,0,1-.429-1.959c0-.128.014-.256.026-.384a4.42,4.42,0,0,1,4.83-3.927l17.4,1.8a4.426,4.426,0,0,1,3.952,4.473" transform="translate(-420.681 -998.594)" fill="#fff" fill-rule="evenodd"/>
        <path id="Trazado_878073" data-name="Trazado 878073" d="M504.684,1175.507a6.144,6.144,0,0,0,.927,2.262l-9.616-.993a3.738,3.738,0,0,1-.457-.073c-.109-.021-.21-.05-.319-.08a4.647,4.647,0,0,1-1.162-.535,1.706,1.706,0,0,1-.262-.188,3.573,3.573,0,0,1-.773-.757,3.4,3.4,0,0,1-.232-.307,3.358,3.358,0,0,1-.319-.556,4.283,4.283,0,0,1-.429-1.959c0-.128.014-.256.026-.384a4.42,4.42,0,0,1,4.83-3.927l8.94.925a11.739,11.739,0,0,0-1.26,4.509,7.251,7.251,0,0,0,.106,2.063" transform="translate(-420.681 -998.595)" fill="#98dfff" fill-rule="evenodd"/>
        <path id="Trazado_878074" data-name="Trazado 878074" d="M591.931,1221.124a4.415,4.415,0,0,1-4.01,1.791l-7.779-.811a6.139,6.139,0,0,1-.927-2.262Z" transform="translate(-495.212 -1042.93)" fill="#b3b3b3"/>
        <path id="Trazado_878075" data-name="Trazado 878075" d="M508.145,1214.871l-9.616-.993a3.714,3.714,0,0,1-.457-.073c-.109-.021-.21-.05-.319-.08a4.637,4.637,0,0,1-1.162-.536,2.7,2.7,0,0,1-.262-.188,3.565,3.565,0,0,1-.773-.757,3.375,3.375,0,0,1-.232-.307,3.341,3.341,0,0,1-.319-.556l12.213,1.227a6.14,6.14,0,0,0,.927,2.262" transform="translate(-423.215 -1035.697)" fill="#29abe2"/>
        <path id="Trazado_878076" data-name="Trazado 878076" d="M1067.3,870l-1.076-.117-66.608-5.5,3.135-56.6a4.29,4.29,0,0,1,4.648-4.038l57.946,4.935a4.291,4.291,0,0,1,3.924,4.424Z" transform="translate(-854.645 -687.162)" fill="#b3b3b3" fill-rule="evenodd"/>
        <path id="Trazado_878077" data-name="Trazado 878077" d="M1083.112,863.611a11.78,11.78,0,1,1-11.548-12.007,11.78,11.78,0,0,1,11.548,12.007" transform="translate(-905.889 -728.096)" fill="#999" fill-rule="evenodd"/>
        <path id="Trazado_878078" data-name="Trazado 878078" d="M1304.676,889.986a11.78,11.78,0,1,1-11.548-12.007,11.78,11.78,0,0,1,11.548,12.007" transform="translate(-1095.32 -750.646)" fill="#999" fill-rule="evenodd"/>
        <path id="Trazado_878079" data-name="Trazado 878079" d="M1072.722,1061.826a11.78,11.78,0,1,1-11.548-12.007,11.78,11.78,0,0,1,11.548,12.007" transform="translate(-897.006 -897.564)" fill="#999" fill-rule="evenodd"/>
        <path id="Trazado_878080" data-name="Trazado 878080" d="M1296.142,1076.789a11.78,11.78,0,1,1-11.548-12.007,11.78,11.78,0,0,1,11.548,12.007" transform="translate(-1088.024 -910.357)" fill="#999" fill-rule="evenodd"/>
        <path id="Trazado_878081" data-name="Trazado 878081" d="M1076.805,852.041a11.78,11.78,0,1,1-11.548-12.007,11.779,11.779,0,0,1,11.548,12.007" transform="translate(-900.497 -718.204)" fill="#ccc" fill-rule="evenodd"/>
        <path id="Trazado_878082" data-name="Trazado 878082" d="M1298.37,878.415a11.78,11.78,0,1,1-11.548-12.007,11.78,11.78,0,0,1,11.548,12.007" transform="translate(-1089.929 -740.753)" fill="#ccc" fill-rule="evenodd"/>
        <path id="Trazado_878083" data-name="Trazado 878083" d="M1066.415,1050.256a11.78,11.78,0,1,1-11.548-12.007,11.779,11.779,0,0,1,11.548,12.007" transform="translate(-891.614 -887.672)" fill="#ccc" fill-rule="evenodd"/>
        <path id="Trazado_878084" data-name="Trazado 878084" d="M1289.835,1065.219a11.78,11.78,0,1,1-11.548-12.007,11.78,11.78,0,0,1,11.548,12.007" transform="translate(-1082.631 -900.465)" fill="#ccc" fill-rule="evenodd"/>
        <path id="Trazado_878085" data-name="Trazado 878085" d="M1089.266,871.071a8.84,8.84,0,1,1-.235-2.218.02.02,0,0,0,.006.012,8.9,8.9,0,0,1,.229,2.206" transform="translate(-916.159 -737.024)" fill="#fff" fill-rule="evenodd"/>
        <path id="Trazado_878086" data-name="Trazado 878086" d="M1112.507,911.2a8.851,8.851,0,0,1-13.756,7.19c12.164.292,13.521-9.408,13.521-9.408a.018.018,0,0,0,.006.012,8.915,8.915,0,0,1,.229,2.206" transform="translate(-939.4 -777.154)" fill="#e6e6e6" fill-rule="evenodd"/>
        <rect id="Rectángulo_403438" data-name="Rectángulo 403438" width="17.671" height="1.048" transform="matrix(0.938, -0.347, 0.347, 0.938, 155.806, 136.48)" fill="#ccc"/>
        <path id="Trazado_878087" data-name="Trazado 878087" d="M1312.711,895.632a8.84,8.84,0,1,1-.235-2.218.019.019,0,0,0,.006.013,8.915,8.915,0,0,1,.229,2.206" transform="translate(-1107.198 -758.023)" fill="#fff" fill-rule="evenodd"/>
        <path id="Trazado_878088" data-name="Trazado 878088" d="M1335.952,935.761a8.851,8.851,0,0,1-13.757,7.19c12.164.292,13.521-9.408,13.521-9.408a.018.018,0,0,0,.006.012,8.9,8.9,0,0,1,.229,2.206" transform="translate(-1130.439 -798.153)" fill="#e6e6e6" fill-rule="evenodd"/>
        <rect id="Rectángulo_403439" data-name="Rectángulo 403439" width="17.671" height="1.048" transform="matrix(0.938, -0.347, 0.347, 0.938, 188.212, 140.042)" fill="#ccc"/>
        <path id="Trazado_878089" data-name="Trazado 878089" d="M1080.756,1067.472a8.84,8.84,0,1,1-.235-2.218.019.019,0,0,0,.006.013,8.913,8.913,0,0,1,.229,2.206" transform="translate(-908.883 -904.941)" fill="#fff" fill-rule="evenodd"/>
        <path id="Trazado_878090" data-name="Trazado 878090" d="M1104,1107.6a8.85,8.85,0,0,1-13.756,7.189c12.164.293,13.521-9.408,13.521-9.408a.019.019,0,0,0,.006.013,8.9,8.9,0,0,1,.229,2.206" transform="translate(-932.125 -945.071)" fill="#e6e6e6" fill-rule="evenodd"/>
        <rect id="Rectángulo_403440" data-name="Rectángulo 403440" width="17.671" height="1.048" transform="matrix(0.938, -0.347, 0.347, 0.938, 154.572, 164.964)" fill="#ccc"/>
        <path id="Trazado_878091" data-name="Trazado 878091" d="M1304.159,1083.269a8.84,8.84,0,1,1-.235-2.218.02.02,0,0,0,.006.012,8.9,8.9,0,0,1,.229,2.206" transform="translate(-1099.887 -918.447)" fill="#fff" fill-rule="evenodd"/>
        <path id="Trazado_878092" data-name="Trazado 878092" d="M1327.4,1123.4a8.851,8.851,0,0,1-13.756,7.189c12.164.292,13.521-9.408,13.521-9.408a.019.019,0,0,0,.006.012,8.9,8.9,0,0,1,.229,2.206" transform="translate(-1123.128 -958.577)" fill="#e6e6e6" fill-rule="evenodd"/>
        <rect id="Rectángulo_403441" data-name="Rectángulo 403441" width="17.671" height="1.048" transform="matrix(0.938, -0.347, 0.347, 0.938, 186.972, 167.255)" fill="#ccc"/>
        <rect id="Rectángulo_403442" data-name="Rectángulo 403442" width="243.053" height="8.538" transform="translate(22.912 174.591)" fill="#00cbda"/>
        <path id="Trazado_878093" data-name="Trazado 878093" d="M415.623,598.238s35.247-13.529,35.478-12.27.923,1.487-1.384,2.757-32.894,12.682-34.094,9.513" transform="translate(-355.346 -500.915)" fill="#29abe2"/>
      </g>
    </g>
  </g>
</svg>
