<svg xmlns="http://www.w3.org/2000/svg" xmlns:xlink="http://www.w3.org/1999/xlink" width="295" height="260.698" viewBox="0 0 295 260.698">
  <defs>
    <clipPath id="clip-path">
      <rect id="Rectángulo_403787" data-name="Rectángulo 403787" width="295" height="260.698" fill="none"/>
    </clipPath>
    <clipPath id="clip-path-3">
      <rect id="Rectángulo_403775" data-name="Rectángulo 403775" width="204.042" height="254.142" fill="none"/>
    </clipPath>
    <clipPath id="clip-path-4">
      <rect id="Rectángulo_403776" data-name="Rectángulo 403776" width="295" height="115.908" fill="none"/>
    </clipPath>
    <clipPath id="clip-path-6">
      <rect id="Rectángulo_403779" data-name="Rectángulo 403779" width="179.139" height="235.834" fill="none"/>
    </clipPath>
    <clipPath id="clip-path-8">
      <rect id="Rectángulo_403782" data-name="Rectángulo 403782" width="183.326" height="101.944" fill="none"/>
    </clipPath>
    <clipPath id="clip-path-9">
      <rect id="Rectángulo_403784" data-name="Rectángulo 403784" width="77.728" height="49.268" fill="none"/>
    </clipPath>
    <clipPath id="clip-path-10">
      <rect id="Rectángulo_403785" data-name="Rectángulo 403785" width="63.248" height="49.267" fill="none"/>
    </clipPath>
  </defs>
  <g id="Grupo_1103077" data-name="Grupo 1103077" transform="translate(-1125 -2937.515)">
    <rect id="Rectángulo_35929" data-name="Rectángulo 35929" width="295" height="209" transform="translate(1125 2976.177)" fill="#99eaf0"/>
    <g id="Grupo_1103015" data-name="Grupo 1103015" transform="translate(1125 2937.515)">
      <g id="Grupo_1103016" data-name="Grupo 1103016">
        <g id="Grupo_1103014" data-name="Grupo 1103014" clip-path="url(#clip-path)">
          <g id="Grupo_1102997" data-name="Grupo 1102997">
            <g id="Grupo_1102996" data-name="Grupo 1102996" clip-path="url(#clip-path)">
              <g id="Grupo_1102992" data-name="Grupo 1102992" transform="translate(45.479 6.556)" opacity="0.36">
                <g id="Grupo_1102991" data-name="Grupo 1102991">
                  <g id="Grupo_1102990" data-name="Grupo 1102990" clip-path="url(#clip-path-3)">
                    <path id="Trazado_879769" data-name="Trazado 879769" d="M332.515,255.536l10.277-1.14-10.277-92.668V23.982H317.239L316.8,20l-35.911,3.983H153.375V38.123l-14.626,1.622,14.626,131.886v88.185h9.78l1.589,14.326,129.179-14.326h38.592Z" transform="translate(-138.749 -20)"/>
                  </g>
                </g>
              </g>
              <g id="Grupo_1102995" data-name="Grupo 1102995" transform="translate(0 101.967)" opacity="0.36">
                <g id="Grupo_1102994" data-name="Grupo 1102994">
                  <g id="Grupo_1102993" data-name="Grupo 1102993" clip-path="url(#clip-path-4)">
                    <path id="Trazado_879770" data-name="Trazado 879770" d="M217.8,330.211l1.359,5.485-10.623,2.74.81,3.137-5.252,1.612a9.058,9.058,0,0,1-7.451-.974l-24.366-15.2a12.814,12.814,0,0,0-10.993-1.23L148.017,330.4l-9.285-1.99a10.2,10.2,0,0,0-8.193,1.768l-21.353,15.772a5.838,5.838,0,0,1-5.444.8l-8.464-3.043.7-2.721-10.623-2.74,1.359-5.485L0,311.279v64.589l71.625,17.743.171-.689.015,0,1.991-8.038,10.176,2.625,1.485-5.757,19.952,8.227-.01.01.921.38.01-.01.026.01,0,0,8.891-9.17-9.116,9.481c-5.009,5.209-.711,14.027,6.442,13a14.784,14.784,0,0,0,4.063-1.268s1.316,10.979,12.871,10.113c0,0,1.573,11.106,14.365,8.388h0a5.106,5.106,0,0,0,.382.572l.092.119a8.662,8.662,0,0,0,7.165,3.254h.017a11.978,11.978,0,0,0,1.74-.167l.168-.029a20.212,20.212,0,0,0,6.693-2.7l2.421,2.435c3.292,3.312,8.4,3.485,11.419.389l.111-.114c3.014-3.1,2.79-8.289-.5-11.6l.606.61a7.441,7.441,0,0,0,10.645-.054l1.323-1.36a7.709,7.709,0,0,0,2.075-6.574,8.434,8.434,0,0,0,6.8-2.539l.122-.125a8.79,8.79,0,0,0,1.471-10.178,7.432,7.432,0,0,0,6.94-2.088,7.7,7.7,0,0,0,2.147-5.976l13.667-4.27,1.148,4.45,10.176-2.625,1.991,8.038.015,0,.171.689L295,375.675V311.086Z" transform="translate(0 -311.086)"/>
                  </g>
                </g>
              </g>
            </g>
          </g>
          <rect id="Rectángulo_403778" data-name="Rectángulo 403778" width="179.139" height="235.834" transform="matrix(0.994, -0.11, 0.11, 0.994, 44.864, 19.745)" fill="#ede2d9"/>
          <g id="Grupo_1103002" data-name="Grupo 1103002">
            <g id="Grupo_1103001" data-name="Grupo 1103001" clip-path="url(#clip-path)">
              <g id="Grupo_1103000" data-name="Grupo 1103000" transform="translate(59.478 10.516)" opacity="0.66">
                <g id="Grupo_1102999" data-name="Grupo 1102999">
                  <g id="Grupo_1102998" data-name="Grupo 1102998" clip-path="url(#clip-path-6)">
                    <path id="Trazado_879771" data-name="Trazado 879771" d="M249.857,32.082l-68.4,7.585V173.176l10.507,94.74h70.928l97.7-10.835V163.273L346.049,32.082Z" transform="translate(-181.459 -32.082)" fill="#b7ac9a"/>
                  </g>
                </g>
              </g>
            </g>
          </g>
          <rect id="Rectángulo_403781" data-name="Rectángulo 403781" width="179.139" height="235.834" transform="translate(59.49 3.983)" fill="#fff"/>
          <path id="Línea_4301" data-name="Línea 4301" d="M117.883-1.206H0V-3.5H117.883Z" transform="translate(90.02 67.738)" fill="#b9c9bc"/>
          <path id="Línea_4302" data-name="Línea 4302" d="M137.55-1.206H0V-3.5H137.55Z" transform="translate(80.187 87.404)" fill="#b9c9bc"/>
          <path id="Línea_4303" data-name="Línea 4303" d="M137.55-1.206H0V-3.5H137.55Z" transform="translate(80.187 77.571)" fill="#b9c9bc"/>
          <path id="Línea_4304" data-name="Línea 4304" d="M137.55-1.206H0V-3.5H137.55Z" transform="translate(80.187 106.052)" fill="#b9c9bc"/>
          <path id="Línea_4305" data-name="Línea 4305" d="M137.55-1.206H0V-3.5H137.55Z" transform="translate(80.187 96.219)" fill="#b9c9bc"/>
          <path id="Línea_4306" data-name="Línea 4306" d="M32.661-1.206H0V-3.5H32.661Z" transform="translate(184.707 202.127)" fill="#b9c9bc"/>
          <g id="Grupo_1103013" data-name="Grupo 1103013">
            <g id="Grupo_1103012" data-name="Grupo 1103012" clip-path="url(#clip-path)">
              <path id="Trazado_879772" data-name="Trazado 879772" d="M290.427,567.5a24.257,24.257,0,1,1-15.2-30.753,24.285,24.285,0,0,1,15.2,30.753m-44.966-15.215a23.213,23.213,0,1,0,29.429-14.548,23.239,23.239,0,0,0-29.429,14.548" transform="translate(-163.478 -359.953)" fill="#4893c1"/>
              <path id="Trazado_879773" data-name="Trazado 879773" d="M361.756,603.844a20.877,20.877,0,0,1-7.154,9.964l-.684-.9A19.861,19.861,0,0,0,360.9,591.42l1.082-.326a20.841,20.841,0,0,1-.225,12.75" transform="translate(-237.911 -397.346)" fill="#4893c1"/>
              <path id="Trazado_879774" data-name="Trazado 879774" d="M255.141,580.954l-1.082.325a20.991,20.991,0,0,1,7.379-22.714l.684.9a19.862,19.862,0,0,0-6.981,21.489" transform="translate(-170.186 -375.48)" fill="#4893c1"/>
              <path id="Trazado_879775" data-name="Trazado 879775" d="M298.888,578.9a17.483,17.483,0,1,1-10.957-22.164A17.5,17.5,0,0,1,298.888,578.9m-32.051-10.845a16.353,16.353,0,1,0,20.732-10.249,16.372,16.372,0,0,0-20.732,10.249" transform="translate(-178.033 -373.63)" fill="#4893c1"/>
              <path id="Línea_4307" data-name="Línea 4307" d="M137.55-1.206H0V-3.5H137.55Z" transform="translate(80.285 114.756)" fill="#b9c9bc"/>
              <path id="Línea_4308" data-name="Línea 4308" d="M137.55-1.206H0V-3.5H137.55Z" transform="translate(80.285 133.404)" fill="#b9c9bc"/>
              <path id="Línea_4309" data-name="Línea 4309" d="M137.55-1.206H0V-3.5H137.55Z" transform="translate(80.284 123.57)" fill="#b9c9bc"/>
              <path id="Trazado_879776" data-name="Trazado 879776" d="M302.837,581.447a13.669,13.669,0,1,1-13.669-13.669,13.669,13.669,0,0,1,13.669,13.669" transform="translate(-185.197 -381.673)" fill="#4893c1"/>
              <path id="Trazado_879777" data-name="Trazado 879777" d="M575.875,589.91a37.393,37.393,0,0,1-9.2,6.095,10.41,10.41,0,0,1-2.414.771c-1.192.194-1.978.042-2.483-1.124-.544-1.256.011-2.5-.16-3.854-.024-.195-.12-.54-.365-.557-.989-.067-1.911,1-2.616,1.615-.533.464-1.034.953-1.515,1.461a6.5,6.5,0,0,0-.159-4.123c-.06-.13-.211-.289-.369-.195-2.139,1.274-3.89,3.439-5.533,5.283-.4.443-.781.894-1.166,1.346a2.4,2.4,0,0,0-.092-.443A6.177,6.177,0,0,0,551,594.947c.841-1.228,1.4-3.2.668-4.616-1.082-2.1-3.365-.728-4.6.468-.343.331-.115,1.791.383,1.31.47-.454,1.836-1.734,2.625-1.394l1.045,1.833-.322.781a4.508,4.508,0,0,1-1.138,1.343,6.166,6.166,0,0,1-1.214.793,2.969,2.969,0,0,0-.461.134.283.283,0,0,0-.092.062,1.488,1.488,0,0,1-.4.045c-1.41-.076-1.017-2.13-.662-3.173.079-.232-.124-1.595-.519-1.038a17.491,17.491,0,0,1-1.483,1.976c-.693.736-1.927,2.19-2.974,2.424-.447.1-1,.106-1.128-.622a3.661,3.661,0,0,1,.361-1.033,19.98,19.98,0,0,0,1.042-2.785c.071-.3.127-1.086-.328-1.141-1.193-.147-2.754.73-3.868,1.085-.921.294-1.824.615-2.713.975.034-.381.055-.759.062-1.131.054-3.044-.825-6.528.193-9.471a4.694,4.694,0,0,1,3.344-2.908c.8-.259,3.236-.912,4.289-.257.054.253.175.44.353.41l.15-.026c.547-.093.41-1.1.191-1.414-.851-1.216-3.425-.651-4.554-.357a5.863,5.863,0,0,0-4.026,2.789c-1.965,3.9-.363,8.488-.816,12.7-.347.153-.691.312-1.033.481A31.657,31.657,0,0,0,526.1,598c-1.239,1.133-2.689,2.965-2.158,4.8.558,1.927,2.638,1.469,4.074.9,3.9-1.554,6.2-5.619,6.969-9.688.914-.389,1.844-.732,2.8-1.039a26.06,26.06,0,0,1,3.241-1.1c-.753,1.743-2.013,4.3-.854,5.542,1.252,1.339,3.669-1.065,5.22-2.931a2.435,2.435,0,0,0,.768,2.505,2.367,2.367,0,0,0,2.4-.013c.349-.014.512.222.551.605-1.154,1.406-2.261,2.848-3.307,4.338a30.012,30.012,0,0,0-3.684,6.3c-.332.862-1,2.343-.5,3.254,1.249,2.274,6.3-7.222,6.756-8.288a25.31,25.31,0,0,0,1.411-4.651c.686-.825,1.385-1.64,2.108-2.433a46.27,46.27,0,0,1,3.74-3.8c1.406-1.222.884.745.64,1.672a10.132,10.132,0,0,1-1.114,2.8c-.253.389.035,1.839.383,1.31a17.9,17.9,0,0,1,2.523-3.035c.621-.6,1.813-2.029,2.85-2.254-.037,1.333-.641,2.669-.045,3.976.715,1.566,2.412,1.77,3.927,1.42,4.322-1,8.155-4.171,11.459-6.966.363-.307.155-1.765-.383-1.31m-41.85,4.714a12.18,12.18,0,0,1-4.723,6.835c-.894.582-2.348,1.394-3.448,1.249-2.4-.316-.046-2.778.629-3.394a31.008,31.008,0,0,1,7.084-4.656c.171-.085.343-.161.515-.242-.019.07-.036.139-.057.208m13.68,7.79a30.448,30.448,0,0,1-2.862,5.088,18.025,18.025,0,0,1-1.9,2.391c-.606.618-.744.831-.482-.036a19.38,19.38,0,0,1,2.6-4.99q1.7-2.553,3.615-4.958c-.359,1.11-.824,2.184-.965,2.5" transform="translate(-352.13 -387.758)" fill="#001d4f"/>
              <path id="Trazado_879778" data-name="Trazado 879778" d="M578.218,603.57a1.983,1.983,0,0,0,.564,2.467c.431.406.629-.839.328-1.122a2.335,2.335,0,0,1-.451-.459c.039.014.12-.107.143-.12a3.664,3.664,0,0,0,.385-.345,3.7,3.7,0,0,1,1.341-.765c.47-.107.392-1.389,0-1.3a3.942,3.942,0,0,0-2.31,1.645" transform="translate(-388.537 -404.624)" fill="#001d4f"/>
              <g id="Grupo_1103005" data-name="Grupo 1103005" transform="translate(59.49 116.579)" opacity="0.4">
                <g id="Grupo_1103004" data-name="Grupo 1103004">
                  <g id="Grupo_1103003" data-name="Grupo 1103003" clip-path="url(#clip-path-8)">
                    <path id="Trazado_879779" data-name="Trazado 879779" d="M360.634,355.664,339.8,360.825l1.359,5.485-10.622,2.74.809,3.138-5.253,1.612a9.058,9.058,0,0,1-7.451-.974l-24.366-15.2a12.814,12.814,0,0,0-10.993-1.229l-13.261,4.615-9.285-1.99a10.2,10.2,0,0,0-8.193,1.768L231.19,376.565a5.838,5.838,0,0,1-5.445.8l-8.464-3.043.7-2.721-10.622-2.74,1.358-5.485L181.5,356.63v64.589l12.135,3.006.17-.689.015,0,1.991-8.038,10.176,2.625,1.485-5.757L227.42,420.6l-.01.01.921.38.01-.011.025.011,0,0,8.892-9.17-9.116,9.481c-5.008,5.209-.711,14.028,6.442,13a14.791,14.791,0,0,0,4.063-1.268s1.316,10.978,12.871,10.113c0,0,1.572,11.105,14.365,8.388a5.129,5.129,0,0,0,.383.572c.029.038.059.078.092.119a8.661,8.661,0,0,0,7.165,3.254h.018a11.983,11.983,0,0,0,1.74-.167l.168-.03a20.21,20.21,0,0,0,6.693-2.7l2.421,2.435c3.292,3.311,8.4,3.485,11.419.388l.11-.113c3.014-3.1,2.791-8.289-.5-11.6l.606.61a7.442,7.442,0,0,0,10.645-.054l1.324-1.36a7.71,7.71,0,0,0,2.075-6.574,8.436,8.436,0,0,0,6.8-2.539l.121-.125a8.79,8.79,0,0,0,1.471-10.179,7.432,7.432,0,0,0,6.941-2.088,7.7,7.7,0,0,0,2.147-5.976l13.667-4.27,1.148,4.45,10.176-2.625,1.991,8.038.015,0,.17.689,9.931-3.108Z" transform="translate(-181.495 -355.664)" fill="#6d645b"/>
                  </g>
                </g>
              </g>
              <path id="Trazado_879780" data-name="Trazado 879780" d="M355.139,402.022l-42.234,43.926c-5.009,5.209-.711,14.028,6.442,13a14.79,14.79,0,0,0,4.064-1.268s1.316,10.978,12.871,10.113c0,0,1.573,11.105,14.365,8.388,0,0,6.208,11.477,23.753-4.711,8.657-7.987,37.293-31.168,37.293-31.168Z" transform="translate(-208.884 -270.248)" fill="#e67e4b"/>
              <path id="Trazado_879781" data-name="Trazado 879781" d="M480.585,324.479l-63.267,19.416a9.06,9.06,0,0,1-7.451-.974l-24.366-15.2a12.814,12.814,0,0,0-10.993-1.229l-27.229,9.476L361.6,347.463,319.37,391.389c-5.009,5.209-.711,14.027,6.442,13a14.779,14.779,0,0,0,4.064-1.268s1.317,10.979,12.871,10.113c0,0,1.573,11.105,14.365,8.388,0,0,6.208,11.477,23.753-4.711,8.657-7.987,37.293-31.167,37.293-31.167l73.5-22.963Z" transform="translate(-213.229 -218.122)" fill="#ffa97d"/>
              <path id="Trazado_879782" data-name="Trazado 879782" d="M456.867,381.676c5.8-2.7,4.811-7.7,2.461-9.524l-17.7-14.094a15.723,15.723,0,0,0-6.5-3.073L417.461,351.2l-7.165,2.493,14.326,11.492L413,377.27c1.714-.093,10.276-.708,17.332-4,0,0,14.07,14.215,26.533,8.407" transform="translate(-275.81 -236.084)" fill="#ea8f68"/>
              <path id="Trazado_879783" data-name="Trazado 879783" d="M326.945,360.4l-17.7-14.094a15.719,15.719,0,0,0-6.5-3.073l-23.619-5.061a10.2,10.2,0,0,0-8.193,1.768L249.58,355.714a5.839,5.839,0,0,1-5.444.8L212,344.959l-3.152,39.547,37.9,15.629,33.55-34.6s9.765-.339,17.645-4.016c0,0,14.069,14.215,26.533,8.407,5.8-2.7,4.811-7.7,2.461-9.524" transform="translate(-140.395 -227.176)" fill="#ffc692"/>
              <path id="Trazado_879784" data-name="Trazado 879784" d="M320.841,400.444c-9.991.1-21.854-11.878-22.142-11.948,0,0-8.626,8.146-24.293,4.4,0,0-2.546,9.236-17.115,25.862a9.817,9.817,0,0,1-10.979,2.652c-1.448-.57-3.071-1.159-4.807-1.767a10.04,10.04,0,0,1-6.717-9.825l.884-25.294c-11.165-3.88-26.175,23.469-25.8,18.252l-1.019,12.785L245.811,430.8l-.01.011.921.38.01-.01.026.01,6.114-6.342,27.4-28.259s9.764-.339,17.644-4.016c-.065-.018,13.9,14.166,26.533,8.407a7.139,7.139,0,0,0,3.968-3.741c-.773,1.475-3.426,3.162-7.576,3.2" transform="translate(-140.396 -258.231)" fill="#de7540"/>
              <path id="Trazado_879785" data-name="Trazado 879785" d="M450.361,458.13c-10.653-10.367-8.331-16.862-8.331-16.862l56.415-26.712.078-.017a9.318,9.318,0,0,0,7.29-9.594l-1.393-26.15,68.716,19.221.368,1.273-73.5,22.962s-28.636,23.18-37.293,31.167c-17.545,16.188-23.753,4.711-23.753,4.711s4.889,5.243,11.4,0" transform="translate(-295.081 -254.634)" fill="#e67e4b"/>
              <path id="Trazado_879786" data-name="Trazado 879786" d="M351.738,516.891l26.782-25.073c.773-.724-.388-1.88-1.159-1.159l-26.782,25.073c-.773.724.388,1.88,1.159,1.159" transform="translate(-235.496 -329.678)" fill="#e67e4b"/>
              <path id="Trazado_879787" data-name="Trazado 879787" d="M391.019,548.007l25.763-24.938c.76-.736-.4-1.894-1.159-1.159L389.86,546.848c-.76.736.4,1.894,1.159,1.159" transform="translate(-261.906 -350.682)" fill="#e67e4b"/>
              <path id="Trazado_879788" data-name="Trazado 879788" d="M434.843,579.571l22.8-22.026c.761-.735-.4-1.893-1.159-1.159l-22.8,22.026c-.761.735.4,1.893,1.159,1.159" transform="translate(-291.365 -373.858)" fill="#e67e4b"/>
              <path id="Trazado_879789" data-name="Trazado 879789" d="M450.246,496.761l.11-.113c3.015-3.1,8.126-2.923,11.418.388l-.608-.612a7.741,7.741,0,0,1-.058-10.82l1.324-1.36a7.431,7.431,0,0,1,6.445-2.178,8.739,8.739,0,0,1,2.427-6.934l.122-.125a8.44,8.44,0,0,1,12.075-.061l1.595,1.6a7.706,7.706,0,0,1,2.1-6.408,7.441,7.441,0,0,1,10.645-.054l6.913,6.953a7.741,7.741,0,0,1,.058,10.821,7.433,7.433,0,0,1-6.94,2.088,8.791,8.791,0,0,1-1.471,10.178l-.121.124a8.435,8.435,0,0,1-6.8,2.539,7.711,7.711,0,0,1-2.076,6.574l-1.323,1.36a7.442,7.442,0,0,1-10.645.054L468.3,503.6l6.526,6.565c3.292,3.311,3.516,8.506.5,11.6l-.11.113c-3.015,3.1-8.127,2.923-11.419-.389l-13.052-13.13c-3.292-3.311-3.516-8.505-.5-11.6" transform="translate(-301.238 -314.515)" fill="#de7540"/>
              <path id="Trazado_879790" data-name="Trazado 879790" d="M709.993,358.145,648.2,374.083l-12-46.527,78.77-20.317Z" transform="translate(-427.666 -206.533)" fill="#fff"/>
              <rect id="Rectángulo_403783" data-name="Rectángulo 403783" width="48.05" height="81.347" transform="translate(5.208 149.783) rotate(-75.537)" fill="#fff"/>
              <path id="Trazado_879791" data-name="Trazado 879791" d="M501.083,566.066l-14.27-14.355a.82.82,0,0,0-1.159,1.159l14.27,14.355a.82.82,0,0,0,1.159-1.159" transform="translate(-326.306 -370.709)" fill="#de7540"/>
              <g id="Grupo_1103008" data-name="Grupo 1103008" transform="translate(7.66 120.89)" opacity="0.4">
                <g id="Grupo_1103007" data-name="Grupo 1103007">
                  <g id="Grupo_1103006" data-name="Grupo 1103006" clip-path="url(#clip-path-9)">
                    <path id="Trazado_879792" data-name="Trazado 879792" d="M37.849,402.144l61.794,15.939,1.454-49.267L23.369,387.294Z" transform="translate(-23.369 -368.815)" fill="#869e9a"/>
                  </g>
                </g>
              </g>
              <path id="Trazado_879793" data-name="Trazado 879793" d="M0,286.37v63.858l71.811,17.789,14.9-60.166Z" transform="translate(0 -192.504)" fill="#4f455e"/>
              <g id="Grupo_1103011" data-name="Grupo 1103011" transform="translate(219.154 118.283)" opacity="0.4">
                <g id="Grupo_1103010" data-name="Grupo 1103010">
                  <g id="Grupo_1103009" data-name="Grupo 1103009" clip-path="url(#clip-path-10)">
                    <path id="Trazado_879794" data-name="Trazado 879794" d="M731.853,394.193l-61.794,15.939-1.454-49.267,53.705,12.768Z" transform="translate(-668.605 -360.864)" fill="#869e9a"/>
                  </g>
                </g>
              </g>
              <path id="Trazado_879795" data-name="Trazado 879795" d="M0,442.213V455.72l71.625,17.743,3.152-12.727Z" transform="translate(0 -297.265)" fill="#302c3d"/>
              <path id="Trazado_879796" data-name="Trazado 879796" d="M741.665,285.782l-77.2,19.125,14.9,60.166,62.3-15.433Z" transform="translate(-446.665 -192.109)" fill="#546982"/>
              <path id="Trazado_879797" data-name="Trazado 879797" d="M766.146,441.625l-65.267,16.168,3.153,12.726,62.115-15.387Z" transform="translate(-471.146 -296.87)" fill="#384559"/>
              <path id="Trazado_879798" data-name="Trazado 879798" d="M451.5,560.021l11.9,11.549c2.771,2.69,7.708,2.965,10.43,0a7.5,7.5,0,0,0,0-10.429l-11.9-11.549c-2.771-2.689-7.708-2.965-10.43,0a7.5,7.5,0,0,0,0,10.43" transform="translate(-302.087 -368.021)" fill="#ffc692"/>
              <path id="Trazado_879799" data-name="Trazado 879799" d="M482.933,523.472l12.29,11.131c2.764,2.5,7.389,2.933,10.082,0,2.506-2.73,2.952-7.409,0-10.082l-12.29-11.131c-2.764-2.5-7.389-2.933-10.082,0-2.506,2.73-2.952,7.408,0,10.082" transform="translate(-323.26 -343.739)" fill="#ffc692"/>
              <path id="Trazado_879800" data-name="Trazado 879800" d="M518.652,491.369l12.29,11.131c2.859,2.589,7.645,3.034,10.43,0,2.593-2.824,3.054-7.664,0-10.43l-12.29-11.131c-2.859-2.589-7.644-3.034-10.43,0-2.592,2.824-3.054,7.664,0,10.43" transform="translate(-347.224 -321.878)" fill="#ffc692"/>
              <path id="Trazado_879801" data-name="Trazado 879801" d="M568.549,474.788l9.039,8.133c2.1,1.892,5.6,2.23,7.648,0,1.9-2.065,2.246-5.628,0-7.649l-9.039-8.133c-2.1-1.892-5.6-2.23-7.649,0-1.9,2.065-2.246,5.628,0,7.649" transform="translate(-381.145 -312.98)" fill="#ffc692"/>
              <path id="Trazado_879802" data-name="Trazado 879802" d="M291.17,624.292a9.818,9.818,0,0,1-4.281-4.429c-.659-1.339-2.659-.165-2,1.17A11.914,11.914,0,0,0,290,626.294c1.317.7,2.489-1.3,1.17-2" transform="translate(-191.42 -416.288)" fill="#fff"/>
              <path id="Trazado_879803" data-name="Trazado 879803" d="M330.781,580.324a9.494,9.494,0,0,1,4.322,9.786c-.26,1.459,1.974,2.085,2.236.616a11.906,11.906,0,0,0-5.387-12.4c-1.263-.8-2.427,1.2-1.17,2" transform="translate(-221.995 -388.636)" fill="#fff"/>
              <path id="Trazado_879804" data-name="Trazado 879804" d="M302.657,576.716a10.2,10.2,0,0,1,3.759-.777,1.16,1.16,0,0,0,0-2.318,11.989,11.989,0,0,0-4.375.859,1.2,1.2,0,0,0-.81,1.426,1.166,1.166,0,0,0,1.426.81" transform="translate(-202.467 -385.6)" fill="#fff"/>
              <path id="Trazado_879805" data-name="Trazado 879805" d="M284.033,592.768a9.814,9.814,0,0,1,2.013-4.9c.9-1.191-1.114-2.348-2-1.17a12.039,12.039,0,0,0-2.329,6.072c-.16,1.481,2.159,1.47,2.318,0" transform="translate(-189.369 -394.059)" fill="#fff"/>
            </g>
          </g>
        </g>
      </g>
    </g>
  </g>
</svg>
