<svg xmlns="http://www.w3.org/2000/svg" xmlns:xlink="http://www.w3.org/1999/xlink" width="295" height="268.173" viewBox="0 0 295 268.173">
  <defs>
    <clipPath id="clip-path">
      <rect id="Rectángulo_403773" data-name="Rectángulo 403773" width="295" height="268.173" rx="14" fill="#68dd84"/>
    </clipPath>
    <clipPath id="clip-path-2">
      <rect id="Rectángulo_403615" data-name="Rectángulo 403615" width="220.625" height="492.332" fill="none"/>
    </clipPath>
    <linearGradient id="linear-gradient" x1="0.5" y1="1" x2="0.5" gradientUnits="objectBoundingBox">
      <stop offset="0" stop-color="#3b57de"/>
      <stop offset="1" stop-color="#68dd84"/>
    </linearGradient>
  </defs>
  <g id="Grupo_1102989" data-name="Grupo 1102989" transform="translate(-1125 -3224.831)">
    <rect id="Rectángulo_403627" data-name="Rectángulo 403627" width="295" height="209.173" rx="14" transform="translate(1125 3283.831)" fill="#68dd84"/>
    <g id="Enmascarar_grupo_1098830" data-name="Enmascarar grupo 1098830" transform="translate(1125 3224.831)" clip-path="url(#clip-path)">
      <g id="Grupo_1102484" data-name="Grupo 1102484" transform="translate(37.188)">
        <g id="Grupo_1102483" data-name="Grupo 1102483" clip-path="url(#clip-path-2)">
          <path id="Trazado_878422" data-name="Trazado 878422" d="M194.268,129.107c7.361-16.131,13.782-23.866,10.963-52.652,0,0,6.578-23.707-15.662-32.2S146.032,59.609,145.718,79.4s-4.232,37.659-26.936,52.21C81.976,155.2,72.682,174.985,71.507,197.3s15.7,63.111,70.14,61.872c83.783-1.908,52.622-130.067,52.622-130.067" transform="translate(-71.451 8.614)" fill="#2f497e"/>
          <path id="Trazado_878423" data-name="Trazado 878423" d="M99.335,103.428l1.253-7.847s14.487-2.427,17.149-13.312,2.349-17.384,2.349-17.384-2.427-1.253-4.776-6.89c0,0-5.4,5.324-11.98,6.342s-11.747,0-13.155,4.072-2.467,7.321-3.955,7.2-.431-3.328-2.036-5.482-5.638-3.445-8.927,1.019,1.7,11.687,8.222,12.979l.038,18.751,6.8,26.47Z" transform="translate(11.267 11.757)" fill="#f9b7b8"/>
          <path id="Trazado_878424" data-name="Trazado 878424" d="M98.1,93.065a11.9,11.9,0,0,1-7.661-3.747s5.582.753,8.271-.072Z" transform="translate(13.148 18.093)" fill="#e09da3"/>
          <path id="Trazado_878425" data-name="Trazado 878425" d="M74.616,100.472l6.8,26.47,9.023-25.921,1.252-7.847s14.487-2.427,17.15-13.312a89.513,89.513,0,0,0,1.877-9.993" transform="translate(20.169 14.164)" fill="none" stroke="#2f497e" stroke-linecap="round" stroke-linejoin="round" stroke-width="0.75"/>
          <path id="Trazado_878426" data-name="Trazado 878426" d="M119.612,72.275a47.38,47.38,0,0,0,.473-7.39s-2.428-1.253-4.776-6.89c0,0-5.4,5.324-11.98,6.342s-11.748,0-13.157,4.072-2.467,7.321-3.953,7.2-.432-3.328-2.037-5.482-5.637-3.445-8.925,1.019,1.7,11.687,8.222,12.979l.037,18.751" transform="translate(11.269 11.757)" fill="none" stroke="#2f497e" stroke-linecap="round" stroke-linejoin="round" stroke-width="0.75"/>
          <path id="Trazado_878427" data-name="Trazado 878427" d="M111.346,69.438a2.618,2.618,0,0,0-2.028-1.018,4.255,4.255,0,0,0-3.083,2.025,3.157,3.157,0,0,0-.539,2.365" transform="translate(-17.8 13.871)" fill="none" stroke="#2f497e" stroke-linecap="round" stroke-linejoin="round" stroke-width="0.75"/>
          <line id="Línea_4281" data-name="Línea 4281" x2="2.132" y2="2.784" transform="translate(89.646 83.03)" fill="none" stroke="#2f497e" stroke-linecap="round" stroke-linejoin="round" stroke-width="0.75"/>
          <ellipse id="Elipse_11611" data-name="Elipse 11611" cx="7.635" cy="8.756" rx="7.635" ry="8.756" transform="translate(102.488 77.47)" fill="none" stroke="#f16880" stroke-linecap="round" stroke-linejoin="round" stroke-width="1"/>
          <ellipse id="Elipse_11612" data-name="Elipse 11612" cx="5.476" cy="8.756" rx="5.476" ry="8.756" transform="translate(121.359 77.477)" fill="none" stroke="#f16880" stroke-linecap="round" stroke-linejoin="round" stroke-width="1"/>
          <path id="Trazado_878428" data-name="Trazado 878428" d="M86.135,71.81a2.835,2.835,0,0,0-3.6-.006" transform="translate(35.224 14.422)" fill="none" stroke="#f16880" stroke-linecap="round" stroke-linejoin="round" stroke-width="1"/>
          <path id="Trazado_878429" data-name="Trazado 878429" d="M89.114,82.7a1.315,1.315,0,1,1,1.315,1.315A1.315,1.315,0,0,1,89.114,82.7" transform="translate(21.701 16.498)" fill="#2f497e"/>
          <path id="Trazado_878430" data-name="Trazado 878430" d="M83.138,72.081s2.878,3.288,0,5.05" transform="translate(36.214 14.613)" fill="none" stroke="#2f497e" stroke-linecap="round" stroke-linejoin="round" stroke-width="0.75"/>
          <path id="Trazado_878431" data-name="Trazado 878431" d="M76.689,71.847a.9.9,0,1,1,.9.9.9.9,0,0,1-.9-.9" transform="translate(49.896 14.383)" fill="#2f497e"/>
          <path id="Trazado_878432" data-name="Trazado 878432" d="M89.151,71.847a.9.9,0,1,1,.9.9.9.9,0,0,1-.9-.9" transform="translate(22.445 14.383)" fill="#2f497e"/>
          <path id="Trazado_878433" data-name="Trazado 878433" d="M99.03,89.246a20.74,20.74,0,0,1-8.594,0" transform="translate(12.825 18.093)" fill="none" stroke="#2f497e" stroke-linecap="round" stroke-linejoin="round" stroke-width="0.75"/>
          <path id="Trazado_878434" data-name="Trazado 878434" d="M63.651,306.016l6.4,111.768s17.735,10.1,19.968,11.276,1.41,2.585-.823,2.585-25.723,1.175-28.425.47-2-11.629-3.759-22.318-18.206-81.986-22.2-119.338Z" transform="translate(87.408 58.884)" fill="#f9b7b8"/>
          <path id="Trazado_878435" data-name="Trazado 878435" d="M86.78,317.073c-7.237,1.555-15.7,3.194-24.852,4.623-2-11.488-3.662-22.33-4.615-31.238l28.833,15.559Z" transform="translate(64.913 58.884)" fill="#e09da3"/>
          <path id="Trazado_878436" data-name="Trazado 878436" d="M63.651,306.016l6.4,111.768s17.735,10.1,19.968,11.276,1.41,2.585-.823,2.585-25.723,1.175-28.425.47-2-11.629-3.759-22.318-18.206-81.986-22.2-119.338Z" transform="translate(87.408 58.884)" fill="none" stroke="#2f497e" stroke-linecap="round" stroke-linejoin="round" stroke-width="0.75"/>
          <path id="Trazado_878437" data-name="Trazado 878437" d="M47.364,389.974l.438,7.635s17.737,10.1,19.968,11.276,1.41,2.585-.821,2.585-25.724,1.175-28.425.47c-2.672-.7-2.017-11.39-3.706-21.965Z" transform="translate(109.662 79.059)" fill="#2f497e"/>
          <path id="Trazado_878438" data-name="Trazado 878438" d="M47.364,389.974l.438,7.635s17.737,10.1,19.968,11.276,1.41,2.585-.821,2.585-25.724,1.175-28.425.47c-2.672-.7-2.017-11.39-3.706-21.965Z" transform="translate(109.662 79.059)" fill="none" stroke="#2f497e" stroke-linecap="round" stroke-linejoin="round" stroke-width="0.75"/>
          <path id="Trazado_878439" data-name="Trazado 878439" d="M159.749,300.628,153,418.331s-17.737,10.1-19.969,11.277-1.41,2.583.823,2.583,25.724,1.175,28.425.47,2-11.629,3.759-22.318,18.206-81.986,22.2-119.338Z" transform="translate(-126.039 58.995)" fill="#f9b7b8"/>
          <path id="Trazado_878440" data-name="Trazado 878440" d="M132.687,300.628l28.494-9.623c-1.005,9.4-2.8,20.946-4.947,33.134a90.651,90.651,0,0,1-24.516-6.584Z" transform="translate(-98.977 58.995)" fill="#e09da3"/>
          <path id="Trazado_878441" data-name="Trazado 878441" d="M159.749,300.628,153,418.331s-17.737,10.1-19.969,11.277-1.41,2.583.823,2.583,25.724,1.175,28.425.47,2-11.629,3.759-22.318,18.206-81.986,22.2-119.338Z" transform="translate(-126.039 58.995)" fill="none" stroke="#2f497e" stroke-linecap="round" stroke-linejoin="round" stroke-width="0.75"/>
          <path id="Trazado_878442" data-name="Trazado 878442" d="M171.945,390.521l-.438,7.635s-17.737,10.1-19.968,11.276-1.41,2.585.821,2.585,25.724,1.175,28.425.47c2.672-.7,2.016-11.39,3.706-21.965Z" transform="translate(-144.542 79.17)" fill="#2f497e"/>
          <path id="Trazado_878443" data-name="Trazado 878443" d="M171.945,390.521l-.438,7.635s-17.737,10.1-19.968,11.276-1.41,2.585.821,2.585,25.724,1.175,28.425.47c2.672-.7,2.016-11.39,3.706-21.965Z" transform="translate(-144.542 79.17)" fill="none" stroke="#2f497e" stroke-linecap="round" stroke-linejoin="round" stroke-width="0.75"/>
          <path id="Trazado_878444" data-name="Trazado 878444" d="M89.151,109.391S127.912,132.883,156.1,96.47s10.336-57.085,10.336-57.085L179.595,28.58s33.828,34.3,11.511,82.926-67.187,47.923-67.187,47.923-2.819,106.811,7.2,201.092c0,0-86.137,15.034-125.369-3.524,0,0,22.631-113.309,24.979-141.344,0,0-20.986,5.952-28.033-5.324s2.819-45.1,17.541-62.019,53.091-39.466,53.091-39.466L80.381,124.5Z" transform="translate(21.451 5.794)" fill="#f9fbfc"/>
          <path id="Trazado_878445" data-name="Trazado 878445" d="M85.912,90.607c-.936,2.724-2.035,5.5-3.332,8.324-22.317,48.628-67.187,47.923-67.187,47.923L3.938,133.608c42.579-5.767,68.809-28.067,81.974-43" transform="translate(129.976 18.369)" fill="#d0e0fc"/>
          <path id="Trazado_878446" data-name="Trazado 878446" d="M153,178.963c6.024.309,12.517-2.936,19.038-7.756l-10.128,15.531s-20.986,5.951-28.033-5.326a18.148,18.148,0,0,1-2.254-8.39A47.806,47.806,0,0,0,153,178.963" transform="translate(-109.727 34.709)" fill="#d0e0fc"/>
          <path id="Trazado_878447" data-name="Trazado 878447" d="M110.53,167.461l19.945-12.994,17.632-14.2,1.263,8.646c-7.635,5.551-16.919,31.935-36.817,45.2a38.987,38.987,0,0,1-14.434,6.3c.369-2.867.651-5.371.821-7.411Z" transform="translate(-46.755 28.437)" fill="#d0e0fc"/>
          <path id="Trazado_878448" data-name="Trazado 878448" d="M89.151,109.391S127.912,132.883,156.1,96.47s10.336-57.085,10.336-57.085L179.595,28.58s33.828,34.3,11.511,82.926-67.187,47.923-67.187,47.923-2.819,106.811,7.2,201.092c0,0-86.137,15.034-125.369-3.524,0,0,22.631-113.309,24.979-141.344,0,0-20.986,5.952-28.033-5.324s2.819-45.1,17.541-62.019,53.091-39.466,53.091-39.466L80.381,124.5Z" transform="translate(21.451 5.794)" fill="none" stroke="#2f497e" stroke-linecap="round" stroke-linejoin="round" stroke-width="0.75"/>
          <path id="Trazado_878449" data-name="Trazado 878449" d="M81.091,199.5h-15.4V229.24" transform="translate(60.521 40.444)" fill="none" stroke="#2f497e" stroke-linecap="round" stroke-linejoin="round" stroke-width="0.75"/>
          <path id="Trazado_878450" data-name="Trazado 878450" d="M126.766,199.5h13.5V229.24" transform="translate(-72.11 40.444)" fill="none" stroke="#2f497e" stroke-linecap="round" stroke-linejoin="round" stroke-width="0.75"/>
          <path id="Trazado_878451" data-name="Trazado 878451" d="M108.9,95.862l7.99,14.25-7.99,5.947,5.314,8.268-16.891,24.1-12.49-25.882,6.543-7.435L85.411,109.4l7.673-14.085,6.8,19.2Z" transform="translate(1.7 19.323)" fill="#d0e0fc"/>
          <circle id="Elipse_11613" data-name="Elipse 11613" cx="2.036" cy="2.036" r="2.036" transform="translate(88.05 228.337)" fill="none" stroke="#2f497e" stroke-linecap="round" stroke-linejoin="round" stroke-width="0.75"/>
          <circle id="Elipse_11614" data-name="Elipse 11614" cx="2.036" cy="2.036" r="2.036" transform="translate(87.111 269.027)" fill="none" stroke="#2f497e" stroke-linecap="round" stroke-linejoin="round" stroke-width="0.75"/>
          <path id="Trazado_878452" data-name="Trazado 878452" d="M98.243,145.535l15.644-25.946-5.168-6.93,7.518-5.755-7.518-11.042-8.77,15.114L92.9,95.314l-7.2,10.649,5.05,5.991-5.521,6.812Z" transform="translate(1.883 19.323)" fill="#f9fbfc"/>
          <path id="Trazado_878453" data-name="Trazado 878453" d="M98.243,145.535l15.644-25.946-5.168-6.93,7.518-5.755-7.518-11.042-8.77,15.114L92.9,95.314l-7.2,10.649,5.05,5.991-5.521,6.812Z" transform="translate(1.883 19.323)" fill="none" stroke="#2f497e" stroke-linecap="round" stroke-linejoin="round" stroke-width="0.75"/>
          <path id="Trazado_878454" data-name="Trazado 878454" d="M38.5,23.867a2.439,2.439,0,0,0,2.389-2.478c.156-2.485-3.8-2.289-5.913-.566S38.5,23.867,38.5,23.867" transform="translate(138.228 3.958)" fill="#f9b7b8"/>
          <path id="Trazado_878455" data-name="Trazado 878455" d="M19,21.329c-2.114,1.918-.783,5.364.548,7.126s10.3,4.854,14.076,9.866L44.9,28.866,38.73,21.329l-3.484-4.307s-6.329,5.436-10.333,5.193" transform="translate(154.212 3.451)" fill="#f9b7b8"/>
          <rect id="Rectángulo_403606" data-name="Rectángulo 403606" width="2.348" height="1.879" transform="translate(184.742 49.3) rotate(-101.253)" fill="#b7cffc"/>
          <rect id="Rectángulo_403607" data-name="Rectángulo 403607" width="2.348" height="1.879" transform="translate(184.742 49.3) rotate(-101.253)" fill="none" stroke="#2f497e" stroke-linecap="round" stroke-linejoin="round" stroke-width="0.714"/>
          <rect id="Rectángulo_403608" data-name="Rectángulo 403608" width="48.158" height="3.759" transform="translate(183.504 47.964) rotate(-101.274)" fill="#2f497e"/>
          <rect id="Rectángulo_403609" data-name="Rectángulo 403609" width="4.023" height="1.199" transform="matrix(-0.196, -0.981, 0.981, -0.196, 185.863, 53.179)" fill="#b7cffc"/>
          <rect id="Rectángulo_403610" data-name="Rectángulo 403610" width="4.023" height="1.199" transform="matrix(-0.196, -0.981, 0.981, -0.196, 185.863, 53.179)" fill="none" stroke="#2f497e" stroke-linecap="round" stroke-linejoin="round" stroke-width="0.714"/>
          <path id="Trazado_878456" data-name="Trazado 878456" d="M40.422,21.489c-.054,0-.107-.007-.16-.013a41.346,41.346,0,0,1-5.756-.873" transform="translate(138.701 4.177)" fill="#f9b7b8"/>
          <path id="Trazado_878457" data-name="Trazado 878457" d="M36.248,17.023s-6.328,5.436-10.333,5.193" transform="translate(153.209 3.451)" fill="none" stroke="#2f497e" stroke-linecap="round" stroke-linejoin="round" stroke-width="0.75"/>
          <path id="Trazado_878458" data-name="Trazado 878458" d="M28.372,20.6c-2.114,1.918-.783,5.364.548,7.126S39.217,32.583,43,37.6" transform="translate(144.837 4.177)" fill="none" stroke="#2f497e" stroke-linecap="round" stroke-linejoin="round" stroke-width="0.75"/>
          <path id="Trazado_878459" data-name="Trazado 878459" d="M35.873,19.709s1.37-2.9-2.036-3.446-9.906.7-9.906,2.663c0,2.217,2.585.587,5.834,1.722a6.918,6.918,0,0,0,6.107-.939" transform="translate(155.698 3.271)" fill="#f9b7b8"/>
          <path id="Trazado_878460" data-name="Trazado 878460" d="M35.873,19.709s1.37-2.9-2.036-3.446-9.906.7-9.906,2.663c0,2.217,2.585.587,5.834,1.722A6.918,6.918,0,0,0,35.873,19.709Z" transform="translate(155.698 3.271)" fill="none" stroke="#2f497e" stroke-linecap="round" stroke-linejoin="round" stroke-width="0.75"/>
          <path id="Trazado_878461" data-name="Trazado 878461" d="M33.938,22.724c.107-.979.265-2.505-.949-3.446s-4.973-1.526-7.831-.431-4.072,2.623-3.132,3.524,4.071.352,4.071.352Z" transform="translate(160.502 3.701)" fill="#f9b7b8"/>
          <path id="Trazado_878462" data-name="Trazado 878462" d="M33.938,22.724c.107-.979.265-2.505-.949-3.446s-4.973-1.526-7.831-.431-4.072,2.623-3.132,3.524,4.071.352,4.071.352Z" transform="translate(160.502 3.701)" fill="none" stroke="#2f497e" stroke-linecap="round" stroke-linejoin="round" stroke-width="0.75"/>
          <path id="Trazado_878463" data-name="Trazado 878463" d="M32.982,25.411s.078-2.476-1.566-3.475-7.635-1.292-10.4,0-1.726,3.642.664,3.465,11.3.01,11.3.01" transform="translate(164.345 4.272)" fill="#f9b7b8"/>
          <path id="Trazado_878464" data-name="Trazado 878464" d="M32.982,25.411s.078-2.476-1.566-3.475-7.635-1.292-10.4,0-1.726,3.642.664,3.465S32.982,25.411,32.982,25.411Z" transform="translate(164.345 4.272)" fill="none" stroke="#2f497e" stroke-linecap="round" stroke-linejoin="round" stroke-width="0.75"/>
          <path id="Trazado_878465" data-name="Trazado 878465" d="M31.057,27.627c-.118-2-1.116-5.05-7.517-4.4s-5.807,2.028-5.452,2.933c.577,1.471,8.917-.291,8.917-.291Z" transform="translate(168.051 4.69)" fill="#f9b7b8"/>
          <path id="Trazado_878466" data-name="Trazado 878466" d="M30.984,27.627c-.118-2-1.116-5.05-7.517-4.4s-5.634,1.978-5.452,2.933c.166.871,2.224,1.2,4.028.476" transform="translate(168.124 4.69)" fill="none" stroke="#2f497e" stroke-linecap="round" stroke-linejoin="round" stroke-width="0.75"/>
          <path id="Trazado_878467" data-name="Trazado 878467" d="M38.029,23.867a2.439,2.439,0,0,0,2.389-2.478c.156-2.485-3.8-2.289-5.913-.566" transform="translate(138.702 3.958)" fill="none" stroke="#2f497e" stroke-linecap="round" stroke-linejoin="round" stroke-width="0.75"/>
          <path id="Trazado_878468" data-name="Trazado 878468" d="M29.493,28.926,27.555,26.87,16.279,36.326l1.78,1.992Z" transform="translate(171.553 5.447)" fill="#f16880"/>
          <path id="Trazado_878469" data-name="Trazado 878469" d="M29.493,28.926,27.555,26.87,16.279,36.326l1.78,1.992Z" transform="translate(171.553 5.447)" fill="none" stroke="#2f497e" stroke-linecap="round" stroke-linejoin="round" stroke-width="0.75"/>
          <path id="Trazado_878470" data-name="Trazado 878470" d="M105.8,108.335s-8.278,153.4-6.869,241.619" transform="translate(-3.969 21.963)" fill="none" stroke="#2f497e" stroke-linecap="round" stroke-linejoin="round" stroke-width="0.75"/>
          <path id="Trazado_878471" data-name="Trazado 878471" d="M117.514,193.333c18.95-4.385,44.322-42.442,44.322-42.442l-9.4-12.216s-33.672,18.167-45.731,25.842,10.807,28.816,10.807,28.816" transform="translate(-65.328 28.113)" fill="#f9fbfc"/>
          <path id="Trazado_878472" data-name="Trazado 878472" d="M110.349,191.7a79.521,79.521,0,0,1-7.153-7.782c16.26-.95,35.527-25.64,49.532-37.185l1.942,2.525S129.3,187.314,110.349,191.7" transform="translate(-58.162 29.747)" fill="#d0e0fc"/>
          <path id="Trazado_878473" data-name="Trazado 878473" d="M114,193.333c18.95-4.385,44.322-42.442,44.322-42.442l-9.4-12.216s-33.672,18.167-45.731,25.842" transform="translate(-61.816 28.113)" fill="none" stroke="#2f497e" stroke-linecap="round" stroke-linejoin="round" stroke-width="0.75"/>
          <rect id="Rectángulo_403611" data-name="Rectángulo 403611" width="50.819" height="73.138" transform="translate(149.343 216.452) rotate(-176.497)" fill="#8aacdd"/>
          <rect id="Rectángulo_403612" data-name="Rectángulo 403612" width="50.819" height="73.138" transform="translate(149.343 216.452) rotate(-176.497)" fill="none" stroke="#2f497e" stroke-linecap="round" stroke-linejoin="round" stroke-width="0.75"/>
          <rect id="Rectángulo_403613" data-name="Rectángulo 403613" width="50.819" height="73.138" transform="translate(152.125 216.622) rotate(-176.497)" fill="#d0e0fc"/>
          <rect id="Rectángulo_403614" data-name="Rectángulo 403614" width="50.819" height="73.138" transform="translate(152.125 216.622) rotate(-176.497)" fill="none" stroke="#2f497e" stroke-linecap="round" stroke-linejoin="round" stroke-width="0.75"/>
          <path id="Trazado_878474" data-name="Trazado 878474" d="M105.862,138.675l9.4,12.216s-.6.9-1.675,2.425l-10.387-13.2c1.674-.91,2.665-1.444,2.665-1.444" transform="translate(-18.752 28.113)" fill="#f16880"/>
          <path id="Trazado_878475" data-name="Trazado 878475" d="M105.368,146.733l1.942,2.525s-.6.9-1.675,2.426l-2.438-3.1q1.1-.974,2.171-1.852" transform="translate(-10.803 29.747)" fill="#db5270"/>
          <path id="Trazado_878476" data-name="Trazado 878476" d="M105.862,138.675l9.4,12.216s-.6.9-1.675,2.425l-10.387-13.2C104.871,139.209,105.862,138.675,105.862,138.675Z" transform="translate(-18.752 28.113)" fill="none" stroke="#2f497e" stroke-linecap="round" stroke-linejoin="round" stroke-width="0.75"/>
          <path id="Trazado_878477" data-name="Trazado 878477" d="M98.452,140.727c2.123-1.436,8.174-10.258,15.1-12.176l-.238,3.88Z" transform="translate(-11.342 26.061)" fill="#f9b7b8"/>
          <path id="Trazado_878478" data-name="Trazado 878478" d="M93.971,152.859c3.155-4,12.216-7.517,13.978-8.34s3.054-2.427,2.7-3.876c0,0,3.406-.9,3.8-2.193a3.122,3.122,0,0,0-.235-2.339s2.138-.4,2.156-1.667c.019-1.387-1.08-2.023-3.84-2.023a2.356,2.356,0,0,0,1.057-2.212c-.176-1.469-7.952-2.3-15.663,1.4l-13.349,9.029Z" transform="translate(2.536 26.145)" fill="#f9b7b8"/>
          <path id="Trazado_878479" data-name="Trazado 878479" d="M98.452,140.727c2.123-1.436,8.174-10.258,15.1-12.176l-.149,2.439" transform="translate(-11.342 26.061)" fill="none" stroke="#2f497e" stroke-linecap="round" stroke-linejoin="round" stroke-width="0.75"/>
          <path id="Trazado_878480" data-name="Trazado 878480" d="M94.15,144.762a57.574,57.574,0,0,1,13.788-5.91c.185,1.39-1.048,2.881-2.724,3.663-1.762.821-10.822,4.343-13.978,8.34l-1.941-2.526a45.6,45.6,0,0,1,4.855-3.567" transform="translate(5.271 28.149)" fill="#e09da3"/>
          <path id="Trazado_878481" data-name="Trazado 878481" d="M84.574,140.643l9.4,12.216c3.155-4,12.216-7.518,13.977-8.34s3.055-2.428,2.7-3.876c0,0,3.406-.9,3.8-2.193a3.122,3.122,0,0,0-.235-2.339s2.138-.4,2.156-1.667c.019-1.387-1.08-2.023-3.84-2.023a2.356,2.356,0,0,0,1.057-2.213c-.176-1.467-7.952-2.3-15.663,1.4" transform="translate(2.536 26.145)" fill="none" stroke="#2f497e" stroke-linecap="round" stroke-linejoin="round" stroke-width="0.75"/>
          <path id="Trazado_878482" data-name="Trazado 878482" d="M96.3,131.839a37.474,37.474,0,0,0-8.536,2.427" transform="translate(18.765 26.728)" fill="none" stroke="#2f497e" stroke-linecap="round" stroke-linejoin="round" stroke-width="0.75"/>
          <path id="Trazado_878483" data-name="Trazado 878483" d="M95.881,134.907a56.419,56.419,0,0,0-9.514,3.122" transform="translate(20.868 27.35)" fill="none" stroke="#2f497e" stroke-linecap="round" stroke-linejoin="round" stroke-width="0.75"/>
          <path id="Trazado_878484" data-name="Trazado 878484" d="M94.263,138.675a18.1,18.1,0,0,0-4.934,1.918" transform="translate(18.924 28.113)" fill="none" stroke="#2f497e" stroke-linecap="round" stroke-linejoin="round" stroke-width="0.75"/>
        </g>
      </g>
    </g>
    <path id="Trazado_879767" data-name="Trazado 879767" d="M214.868,74.3H220.6a1.189,1.189,0,0,0,1.187-1.187V67.388A1.189,1.189,0,0,1,222.97,66.2h5.615a1.189,1.189,0,0,1,1.187,1.187v5.727A1.189,1.189,0,0,0,230.96,74.3h5.727a1.189,1.189,0,0,1,1.187,1.187V81.1a1.189,1.189,0,0,1-1.187,1.187H230.96a1.189,1.189,0,0,0-1.187,1.187v5.727a1.189,1.189,0,0,1-1.187,1.187H222.97a1.189,1.189,0,0,1-1.187-1.187V83.48a1.189,1.189,0,0,0-1.187-1.187h-5.727a1.189,1.189,0,0,1-1.187-1.187V75.49a1.189,1.189,0,0,1,1.187-1.187" transform="translate(948.172 3208.124)" fill="#3b57de"/>
    <path id="Trazado_879768" data-name="Trazado 879768" d="M214.766,73.6H220a1.086,1.086,0,0,0,1.085-1.085V67.286a1.086,1.086,0,0,1,1.085-1.085h5.13a1.086,1.086,0,0,1,1.085,1.085v5.232a1.086,1.086,0,0,0,1.085,1.085H234.7a1.086,1.086,0,0,1,1.085,1.085v5.13A1.086,1.086,0,0,1,234.7,80.9h-5.232a1.086,1.086,0,0,0-1.085,1.085V87.22A1.086,1.086,0,0,1,227.3,88.3h-5.13a1.086,1.086,0,0,1-1.085-1.085V81.987A1.086,1.086,0,0,0,220,80.9h-5.232a1.086,1.086,0,0,1-1.085-1.085v-5.13a1.086,1.086,0,0,1,1.085-1.085" transform="translate(1176.819 3261.025)" fill="#3b57de"/>
    <rect id="Rectángulo_403774" data-name="Rectángulo 403774" width="16.958" height="104.742" rx="8.479" transform="translate(1272.572 3481.504) rotate(-90)" fill="url(#linear-gradient)"/>
  </g>
</svg>
