<svg xmlns="http://www.w3.org/2000/svg" width="83.711" height="83.711" viewBox="0 0 83.711 83.711">
  <g id="contratado" transform="translate(-0.01)">
    <g id="Grupo_1103017" data-name="Grupo 1103017" transform="translate(25.188)">
      <path id="Elipse_11633" data-name="Elipse 11633" d="M9.177-7.5A16.677,16.677,0,1,1-7.5,9.177,16.7,16.7,0,0,1,9.177-7.5Zm0,30.9A14.225,14.225,0,1,0-5.047,9.177,14.241,14.241,0,0,0,9.177,23.4Z" transform="translate(7.5 7.5)" fill="#3b57de"/>
      <path id="Trazado_879806" data-name="Trazado 879806" d="M209.195,79.706a2.744,2.744,0,0,1-1.946-.8l-4.117-4.117a1.226,1.226,0,1,1,1.734-1.734l4.117,4.117a.3.3,0,0,0,.424,0l8.678-8.678a1.226,1.226,0,1,1,1.734,1.734L211.141,78.9A2.744,2.744,0,0,1,209.195,79.706Z" transform="translate(-194.798 -56.99)" fill="#3b57de"/>
    </g>
    <g id="Grupo_1103025" data-name="Grupo 1103025" transform="translate(0.01 24.736)">
      <g id="Grupo_1103024" data-name="Grupo 1103024" transform="translate(0)">
        <g id="Grupo_1103023" data-name="Grupo 1103023">
          <g id="Grupo_1103022" data-name="Grupo 1103022">
            <g id="Grupo_1103018" data-name="Grupo 1103018">
              <path id="Línea_4301" data-name="Línea 4301" d="M7.585,9.019a1.222,1.222,0,0,1-.874-.366L-7.147-5.413a1.226,1.226,0,0,1,.013-1.734A1.226,1.226,0,0,1-5.4-7.134L8.458,6.932a1.226,1.226,0,0,1-.873,2.087Z" transform="translate(17.142 30.297)" fill="#3b57de"/>
              <path id="Trazado_879807" data-name="Trazado 879807" d="M253.324,399.13a4.356,4.356,0,0,1-3.091-1.285l-1.5-1.514a1.226,1.226,0,1,1,1.74-1.729l1.5,1.514a1.839,1.839,0,0,0,2.482.156,1.763,1.763,0,0,0,.616-1.264,1.938,1.938,0,0,0-.525-1.433,1.226,1.226,0,0,1,1.758-1.71,1.755,1.755,0,0,0,1.269.53,1.777,1.777,0,0,0,1.269-.53,1.876,1.876,0,0,0-.014-2.59,1.226,1.226,0,0,1,1.758-1.71,1.786,1.786,0,0,0,2.534,0,1.876,1.876,0,0,0-.014-2.59,1.226,1.226,0,0,1,1.758-1.71,1.786,1.786,0,0,0,2.534,0,1.831,1.831,0,0,0,0-2.576l-1.449-1.544a1.226,1.226,0,1,1,1.789-1.678l1.424,1.518a4.282,4.282,0,0,1-.025,6.008,4.214,4.214,0,0,1-3,1.253h-.059a4.218,4.218,0,0,1-4.219,4.3H261.8a4.218,4.218,0,0,1-4.225,4.3h-.048q0,.144-.006.288a4.183,4.183,0,0,1-4.2,3.995Z" transform="translate(-207.765 -340.156)" fill="#3b57de"/>
              <path id="Trazado_879808" data-name="Trazado 879808" d="M157.679,220a1.222,1.222,0,0,1-.87-.362,13.746,13.746,0,0,0-13.1-3.7,2.366,2.366,0,0,1-2.227-.626l-2.566-2.582a1.226,1.226,0,0,1,1.74-1.729l2.566,2.582a15.992,15.992,0,0,1,15.324,4.327,1.226,1.226,0,0,1-.87,2.091Z" transform="translate(-115.909 -200.936)" fill="#3b57de"/>
              <path id="Trazado_879809" data-name="Trazado 879809" d="M9.01,178a2.225,2.225,0,0,1-1.589-.662l-6.758-6.8a2.258,2.258,0,0,1,0-3.175l2.493-2.509a1.226,1.226,0,1,1,1.74,1.729l-2.353,2.368,6.467,6.508,15.021-15.116-6.467-6.508-9.25,9.308a1.226,1.226,0,1,1-1.74-1.729l9.4-9.46a2.239,2.239,0,0,1,3.178,0l6.758,6.8a2.258,2.258,0,0,1,0,3.175L10.6,177.334A2.225,2.225,0,0,1,9.01,178Z" transform="translate(-0.01 -151.289)" fill="#3b57de"/>
            </g>
            <g id="Grupo_1103019" data-name="Grupo 1103019" transform="translate(30.135)">
              <path id="Trazado_879810" data-name="Trazado 879810" d="M213.225,240.352a1.226,1.226,0,0,1-.866-.359l-12.166-12.148a1.981,1.981,0,0,0-2.8.005l-5.813,5.85a4.242,4.242,0,0,1-6.017,0,4.29,4.29,0,0,1,0-6.033l9.667-9.728.029-.03.108-.108.076-.076q.029-.03.061-.057a16.207,16.207,0,0,1,14.931-4.171.367.367,0,0,0,.337-.1L213.144,211a1.226,1.226,0,1,1,1.74,1.729l-2.377,2.392a2.8,2.8,0,0,1-2.62.767,13.768,13.768,0,0,0-12.63,3.492,1.19,1.19,0,0,1-.1.111l-.16.149L187.3,229.4a1.831,1.831,0,0,0,0,2.576,1.789,1.789,0,0,0,2.538,0l5.813-5.85a4.434,4.434,0,0,1,6.277-.012l11.289,11.273,12.965-13.25a1.226,1.226,0,0,1,1.753,1.715L214.1,239.984a1.226,1.226,0,0,1-.869.369Z" transform="translate(-184.318 -200.936)" fill="#3b57de"/>
              <path id="Trazado_879811" data-name="Trazado 879811" d="M367.144,178h0a2.225,2.225,0,0,1-1.589-.662l-15.312-15.408a2.258,2.258,0,0,1,0-3.175l6.758-6.8a2.239,2.239,0,0,1,3.178,0l1.977,1.989a1.226,1.226,0,1,1-1.74,1.729l-1.826-1.837-6.467,6.508,15.021,15.116,6.467-6.508-9.759-9.821a1.226,1.226,0,1,1,1.74-1.729l9.9,9.962a2.258,2.258,0,0,1,0,3.175l-6.758,6.8A2.226,2.226,0,0,1,367.144,178Z" transform="translate(-322.568 -151.289)" fill="#3b57de"/>
            </g>
            <g id="Grupo_1103021" data-name="Grupo 1103021" transform="translate(21.116 35.543)">
              <path id="Trazado_879812" data-name="Trazado 879812" d="M135.336,368.674a4.214,4.214,0,0,1,3.009,1.254,4.289,4.289,0,0,1,0,6.032l-1.932,1.935a4.239,4.239,0,0,1-6.017,0,4.289,4.289,0,0,1,0-6.032l1.932-1.935A4.213,4.213,0,0,1,135.336,368.674Zm-1.93,8.02a1.779,1.779,0,0,0,1.27-.53l1.932-1.935a1.83,1.83,0,0,0,0-2.572,1.786,1.786,0,0,0-2.54,0l-1.932,1.935a1.83,1.83,0,0,0,0,2.572A1.779,1.779,0,0,0,133.405,376.694Z" transform="translate(-129.156 -368.674)" fill="#3b57de"/>
              <g id="Grupo_1103020" data-name="Grupo 1103020" transform="translate(4.278 2.264)">
                <path id="Trazado_879813" data-name="Trazado 879813" d="M163.541,382.52a4.214,4.214,0,0,1,3.009,1.254,4.289,4.289,0,0,1,0,6.032l-3.975,3.977a4.239,4.239,0,0,1-6.016,0,4.289,4.289,0,0,1,0-6.032l3.975-3.977A4.213,4.213,0,0,1,163.541,382.52Zm-3.973,10.06a1.779,1.779,0,0,0,1.27-.53l3.975-3.977a1.83,1.83,0,0,0,0-2.572,1.786,1.786,0,0,0-2.54,0l-3.975,3.977a1.83,1.83,0,0,0,0,2.572A1.779,1.779,0,0,0,159.568,392.58Z" transform="translate(-155.319 -382.52)" fill="#3b57de"/>
                <path id="Trazado_879814" data-name="Trazado 879814" d="M216.041,434.976a4.214,4.214,0,0,1,3.009,1.254,4.289,4.289,0,0,1,0,6.032l-3.975,3.977a4.239,4.239,0,0,1-6.016,0,4.289,4.289,0,0,1,0-6.032l3.975-3.976A4.212,4.212,0,0,1,216.041,434.976Zm-3.973,10.06a1.779,1.779,0,0,0,1.27-.53l3.975-3.977a1.83,1.83,0,0,0,0-2.572,1.786,1.786,0,0,0-2.54,0l-3.975,3.976a1.83,1.83,0,0,0,0,2.572A1.778,1.778,0,0,0,212.068,445.036Z" transform="translate(-199.235 -426.399)" fill="#3b57de"/>
                <path id="Trazado_879815" data-name="Trazado 879815" d="M190.944,401.263a4.214,4.214,0,0,1,3.009,1.254,4.289,4.289,0,0,1,0,6.032l-5.216,5.216a4.239,4.239,0,0,1-6.016,0,4.289,4.289,0,0,1,0-6.032l5.216-5.217A4.212,4.212,0,0,1,190.944,401.263Zm-5.214,11.3a1.779,1.779,0,0,0,1.27-.53l5.216-5.216a1.83,1.83,0,0,0,0-2.571,1.787,1.787,0,0,0-2.54,0l-5.216,5.217a1.829,1.829,0,0,0,0,2.571A1.778,1.778,0,0,0,185.73,412.563Z" transform="translate(-177.204 -398.198)" fill="#3b57de"/>
              </g>
            </g>
          </g>
          <path id="Línea_4302" data-name="Línea 4302" transform="translate(66.512 9.44)" fill="#3b57de"/>
          <path id="Línea_4303" data-name="Línea 4303" transform="translate(18.851 9.44)" fill="#3b57de"/>
        </g>
        <path id="Línea_4304" data-name="Línea 4304" d="M-2.468-1.245A1.222,1.222,0,0,1-3.335-1.6l-3.806-3.8a1.226,1.226,0,0,1,0-1.734,1.226,1.226,0,0,1,1.734,0l3.806,3.8A1.226,1.226,0,0,1-1.6-1.6,1.223,1.223,0,0,1-2.468-1.245Z" transform="translate(59.055 46.76)" fill="#3b57de"/>
        <path id="Línea_4305" data-name="Línea 4305" d="M-2.793-1.569a1.222,1.222,0,0,1-.867-.359L-7.14-5.406a1.226,1.226,0,0,1,0-1.734,1.226,1.226,0,0,1,1.734,0l3.481,3.478a1.226,1.226,0,0,1,0,1.734A1.223,1.223,0,0,1-2.793-1.569Z" transform="translate(54.748 51.072)" fill="#3b57de"/>
      </g>
      <path id="Línea_4306" data-name="Línea 4306" d="M-3.828-2.6A1.222,1.222,0,0,1-4.7-2.963L-7.14-5.406a1.226,1.226,0,0,1,0-1.734,1.226,1.226,0,0,1,1.734,0L-2.962-4.7a1.226,1.226,0,0,1,0,1.734A1.223,1.223,0,0,1-3.828-2.6Z" transform="translate(51.498 56.404)" fill="#3b57de"/>
    </g>
  </g>
</svg>
