<svg xmlns="http://www.w3.org/2000/svg" width="14.654" height="14.654" viewBox="0 0 14.654 14.654">
  <g id="pildora" transform="translate(20 -10)">
    <g id="Grupo_1101792" data-name="Grupo 1101792" transform="translate(-20 10)">
      <path id="Trazado_877285" data-name="Trazado 877285" d="M10.325,0A4.3,4.3,0,0,0,7.263,1.268L1.268,7.263a4.329,4.329,0,1,0,6.122,6.123l5.995-5.995A4.33,4.33,0,0,0,10.325,0ZM4.68,6.678l-2,2A2.317,2.317,0,0,0,2,10.325a.333.333,0,1,1-.666,0A2.976,2.976,0,0,1,2.21,8.2l2-2a.333.333,0,0,1,.471.471Zm7.764-.228L9.682,9.211,5.443,4.972,8.205,2.21a3,3,0,0,1,4.239,4.24Z" fill="#3b57de"/>
    </g>
  </g>
</svg>
